<svg xmlns="http://www.w3.org/2000/svg" width="85" height="84" fill="none"><g filter="url(#a)"><path fill="#D4EAEE" d="M.5 0v84h84V0H.5Zm7.636 7.636h30.546v30.546H8.136V7.636Zm38.182 0h30.546v30.546H46.318V7.636ZM23.41 15.273 11.955 30.546h22.909L23.409 15.273Zm30.546 0v15.273h15.272V15.273H53.954ZM8.136 45.818h30.546v30.546H8.136V45.818Zm38.182 0h30.546v30.546H46.318V45.818Zm15.273 3.818-7.636 11.455 7.636 11.455 7.636-11.455-7.636-11.455Zm-38.182 3.819a7.636 7.636 0 1 0 0 15.272 7.636 7.636 0 0 0 0-15.273Z"/></g><defs><filter id="a" width="85" height="85" x=".5" y="0" color-interpolation-filters="sRGB" filterUnits="userSpaceOnUse"><feFlood flood-opacity="0" result="BackgroundImageFix"/><feBlend in="SourceGraphic" in2="BackgroundImageFix" result="shape"/><feColorMatrix in="SourceAlpha" result="hardAlpha" values="0 0 0 0 0 0 0 0 0 0 0 0 0 0 0 0 0 0 127 0"/><feOffset dx="1" dy="1"/><feGaussianBlur stdDeviation="1.5"/><feComposite in2="hardAlpha" k2="-1" k3="1" operator="arithmetic"/><feColorMatrix values="0 0 0 0 0.772549 0 0 0 0 0.772549 0 0 0 0 0.772549 0 0 0 1 0"/><feBlend in2="shape" result="effect1_innerShadow_72_1698"/></filter></defs></svg>