<svg xmlns="http://www.w3.org/2000/svg" width="85" height="84" fill="none"><g filter="url(#a)"><path fill="#E0E0E0" d="M.5 0v84h84V0H.5Zm7.636 7.636h68.728v68.728H8.136V7.636Zm50.568 30.546c-5.44 0-8.957 3.482-8.957 8.094 0 5.002 2.94 7.396 7.361 9.278l1.528.661c2.798 1.233 4.463 1.951 4.463 4.055 0 1.775-1.63 3.05-4.17 3.05-3.008 0-4.719-1.595-6.025-3.737l-5.001 2.863c1.771 3.555 5.471 6.281 11.168 6.281 5.803 0 10.156-3.008 10.156-8.522 0-5.154-2.94-7.441-8.167-9.652l-1.52-.657c-2.645-1.16-3.772-1.92-3.772-3.734 0-1.49 1.123-2.65 2.94-2.65 1.776 0 2.894.764 3.948 2.65l4.796-3.081c-2.031-3.551-4.83-4.9-8.744-4.9h-.004Zm-22.336.366v20.86c0 3.046-1.306 3.836-3.303 3.836-2.1 0-3.008-1.447-3.951-3.154l-5.002 3.017c1.45 3.081 4.31 5.62 9.21 5.62 5.436 0 9.178-2.901 9.178-9.255V38.548h-6.132Z"/></g><defs><filter id="a" width="86" height="85" x="-.5" y="0" color-interpolation-filters="sRGB" filterUnits="userSpaceOnUse"><feFlood flood-opacity="0" result="BackgroundImageFix"/><feBlend in="SourceGraphic" in2="BackgroundImageFix" result="shape"/><feColorMatrix in="SourceAlpha" result="hardAlpha" values="0 0 0 0 0 0 0 0 0 0 0 0 0 0 0 0 0 0 127 0"/><feOffset dx="-1" dy="1"/><feGaussianBlur stdDeviation="1.5"/><feComposite in2="hardAlpha" k2="-1" k3="1" operator="arithmetic"/><feColorMatrix values="0 0 0 0 0.984314 0 0 0 0 0.984314 0 0 0 0 0.984314 0 0 0 1 0"/><feBlend in2="shape" result="effect1_innerShadow_64_2143"/><feColorMatrix in="SourceAlpha" result="hardAlpha" values="0 0 0 0 0 0 0 0 0 0 0 0 0 0 0 0 0 0 127 0"/><feOffset dx="1" dy="1"/><feGaussianBlur stdDeviation="1.5"/><feComposite in2="hardAlpha" k2="-1" k3="1" operator="arithmetic"/><feColorMatrix values="0 0 0 0 0.772549 0 0 0 0 0.772549 0 0 0 0 0.772549 0 0 0 1 0"/><feBlend in2="effect1_innerShadow_64_2143" result="effect2_innerShadow_64_2143"/></filter></defs></svg>