<svg xmlns="http://www.w3.org/2000/svg" width="409" height="47" fill="none"><mask id="b" width="409" height="47" x=".05" y=".219" fill="#000" maskUnits="userSpaceOnUse"><path fill="#fff" d="M.05.219h409v47H.05z"/><path d="M1.05 45V3.75h6.28V45H1.05Zm12.61 0V3.398h6.187V45h-6.188Zm12.468 0V3.398h6.187V45h-6.187Zm18.492.445c-1.39 0-2.555-.312-3.492-.937-.922-.625-1.617-1.555-2.086-2.79-.453-1.25-.68-2.812-.68-4.687V9.844h6.235V36.07c0 1.344.164 2.39.492 3.14.328.75 1.016 1.126 2.062 1.126 1.094 0 1.836-.422 2.227-1.266.406-.86.61-1.843.61-2.953l.023-26.273h6.187V45h-6.21v-3.656c-.438 1.187-1.071 2.172-1.9 2.953-.827.766-1.983 1.148-3.468 1.148Zm24.914 0c-2.828 0-4.93-.804-6.305-2.414-1.374-1.61-2.062-4.242-2.062-7.898v-2.274h5.836v2.836c0 1.532.187 2.696.562 3.492.375.797.985 1.196 1.829 1.196.812 0 1.414-.274 1.804-.82.39-.547.586-1.493.586-2.836 0-.782-.117-1.54-.351-2.274a7.651 7.651 0 0 0-1.055-2.156c-.469-.719-1.078-1.414-1.828-2.086l-3.164-2.86c-1.453-1.312-2.54-2.726-3.258-4.242-.719-1.53-1.078-3.218-1.078-5.062 0-2.985.695-5.164 2.086-6.54 1.406-1.39 3.484-2.085 6.234-2.085 1.781 0 3.258.336 4.43 1.008 1.172.656 2.047 1.726 2.625 3.21.578 1.485.867 3.477.867 5.977v1.922h-5.555v-2.32c0-1.547-.18-2.719-.539-3.516-.343-.797-.937-1.195-1.781-1.195-.828 0-1.438.234-1.828.703-.39.453-.602 1.258-.633 2.414a6.212 6.212 0 0 0 .234 1.852c.172.593.438 1.18.797 1.757a9.29 9.29 0 0 0 1.453 1.664l3.329 3.024c1.75 1.578 3.039 3.226 3.867 4.945.844 1.719 1.265 3.578 1.265 5.578 0 2.953-.671 5.196-2.015 6.727-1.344 1.516-3.461 2.273-6.352 2.273Zm19.266-.211c-1.5 0-2.649-.187-3.445-.562a3.15 3.15 0 0 1-1.641-1.828c-.297-.828-.445-1.899-.445-3.211V15.07h-2.86v-4.5h2.86V3.75h6.21v6.82h3.422v4.5H89.48v23.485c0 .547.085.96.257 1.242.172.281.508.469 1.008.562.516.094 1.274.141 2.274.141v4.734h-4.22ZM97.425 45V9.844h6.258v3.914c.406-1.36 1.109-2.422 2.109-3.188 1.016-.765 2.305-1.148 3.867-1.148.031 0 .047.265.047.797.016.531.023 1.14.023 1.828v2.625c-.718 0-1.5.086-2.343.258a8.707 8.707 0 0 0-2.274.797c-.672.343-1.148.804-1.429 1.382V45h-6.258Zm22.078.352c-2.406 0-4.078-.875-5.016-2.625-.922-1.75-1.398-4.07-1.429-6.961v-2.25c0-1.875.265-3.399.796-4.57.547-1.173 1.321-2.126 2.321-2.86 1-.734 2.195-1.375 3.586-1.922a216.28 216.28 0 0 1 4.64-1.758v-3.07c0-1.188-.047-2.133-.14-2.836-.094-.719-.305-1.242-.633-1.57-.328-.328-.836-.492-1.524-.492-.671 0-1.187.171-1.546.515-.344.328-.579.844-.704 1.547-.125.688-.187 1.57-.187 2.648v1.57h-6.141v-1.054c0-1.61.133-3.047.399-4.312.281-1.266.75-2.336 1.406-3.211.656-.891 1.547-1.563 2.672-2.016 1.141-.469 2.57-.703 4.289-.703 1.516 0 2.812.219 3.891.656 1.078.422 1.953 1.063 2.625 1.922.671.844 1.164 1.906 1.476 3.188.313 1.28.469 2.773.469 4.476V45h-6.258v-3.492a5.585 5.585 0 0 1-.961 1.898 5.196 5.196 0 0 1-1.711 1.407c-.672.359-1.445.539-2.32.539Zm2.156-4.782c.781 0 1.406-.28 1.875-.843.469-.563.758-1.133.867-1.711V25.922c-.937.422-1.726.82-2.367 1.195-.64.36-1.156.758-1.547 1.195-.39.438-.672.954-.843 1.547-.172.594-.258 1.32-.258 2.18v3.938c0 1.609.164 2.78.492 3.515.344.719.937 1.078 1.781 1.078Zm21.188 4.664c-1.5 0-2.649-.187-3.446-.562a3.15 3.15 0 0 1-1.64-1.828c-.297-.828-.446-1.899-.446-3.211V15.07h-2.859v-4.5h2.859V3.75h6.211v6.82h3.422v4.5h-3.422v23.485c0 .547.086.96.258 1.242.172.281.508.469 1.008.562.516.094 1.273.141 2.273.141v4.734h-4.218Zm8.718-.234V9.844h6.211V45h-6.211Zm-.023-38.39V1.218h6.258v5.39h-6.258Zm20.836 38.812c-1.688 0-3.102-.258-4.242-.774-1.141-.53-2.047-1.289-2.719-2.273-.656-1-1.133-2.21-1.43-3.633-.281-1.437-.422-3.07-.422-4.898V20.695c0-2.203.282-4.148.844-5.836.578-1.703 1.516-3.03 2.813-3.984 1.297-.969 3.015-1.453 5.156-1.453 1.625 0 2.992.273 4.101.82a6.657 6.657 0 0 1 2.696 2.344c.687 1 1.187 2.187 1.5 3.562.312 1.375.469 2.891.469 4.547v13.149c0 1.797-.141 3.406-.422 4.828-.266 1.422-.735 2.64-1.407 3.656-.656 1-1.546 1.766-2.671 2.297-1.125.531-2.547.797-4.266.797Zm0-5.016c.703 0 1.234-.21 1.594-.633.359-.437.601-1.039.726-1.804.125-.766.188-1.649.188-2.649V19.594c0-1.063-.071-1.977-.211-2.742-.141-.766-.391-1.36-.75-1.782-.36-.422-.875-.633-1.547-.633-.703 0-1.242.211-1.617.633-.36.422-.61 1.016-.75 1.782-.125.765-.188 1.68-.188 2.742V35.32c0 1 .063 1.883.188 2.649.14.765.39 1.367.75 1.804.375.422.914.633 1.617.633ZM186.792 45V9.844h6.211v4.031c.312-1.203.969-2.242 1.969-3.117 1-.89 2.226-1.336 3.679-1.336 2.032 0 3.555.68 4.571 2.039 1.015 1.344 1.523 3.297 1.523 5.86V45h-6.211V17.695c0-1.015-.234-1.812-.703-2.39-.453-.578-1.078-.867-1.875-.867-.641 0-1.187.18-1.641.539-.437.343-.765.828-.984 1.453-.219.61-.328 1.328-.328 2.156V45h-6.211Zm32.555 0V3.75h10.382c2.157 0 3.766.422 4.829 1.266 1.062.843 1.757 2.078 2.086 3.703.343 1.625.515 3.61.515 5.953 0 2.422-.25 4.328-.75 5.719-.484 1.375-1.484 2.297-3 2.765.719.125 1.32.422 1.805.89.484.454.875 1.126 1.172 2.017.297.875.508 2.007.633 3.398.14 1.375.21 3.062.21 5.062v3.868l.047 2.906c.016.969.039 1.797.071 2.484.031.688.07 1.094.117 1.219h-6.281c-.047-.078-.086-.477-.118-1.195-.015-.735-.039-1.664-.07-2.79a1976.02 1976.02 0 0 1-.047-3.632V30.21c0-1.234-.094-2.164-.281-2.79-.172-.64-.5-1.085-.984-1.335-.469-.25-1.149-.398-2.039-.445l-2.016-.118V45h-6.281Zm6.304-24.352h2.508c.766 0 1.344-.171 1.735-.515.406-.344.679-.977.82-1.899.156-.922.234-2.25.234-3.984v-.258c0-1.453-.07-2.57-.211-3.351-.14-.782-.437-1.32-.89-1.618-.438-.296-1.125-.445-2.063-.445h-2.133v12.07Zm25.125 24.774c-1.765 0-3.218-.281-4.359-.844a6.331 6.331 0 0 1-2.648-2.437c-.625-1.063-1.063-2.336-1.313-3.82-.25-1.5-.375-3.173-.375-5.016V20.203c0-1.64.164-3.125.492-4.453.344-1.328.867-2.46 1.571-3.398.718-.938 1.648-1.657 2.789-2.157 1.14-.515 2.515-.773 4.125-.773 1.64 0 3.007.25 4.101.75 1.094.5 1.953 1.226 2.578 2.18.641.953 1.094 2.101 1.36 3.445.281 1.328.422 2.836.422 4.523v7.524h-11.18v6.914c0 1.703.133 3.07.398 4.101.266 1.032.992 1.547 2.18 1.547.797 0 1.359-.242 1.687-.726.344-.485.547-1.149.61-1.992.078-.86.117-1.836.117-2.93v-3.094h6.141v1.875c0 1.89-.118 3.57-.352 5.04-.219 1.468-.641 2.71-1.266 3.726-.609 1.015-1.484 1.789-2.625 2.32-1.14.531-2.625.797-4.453.797Zm-2.461-21.211h5.016v-4.5c0-1.172-.055-2.156-.164-2.953-.109-.813-.328-1.422-.656-1.828-.328-.407-.828-.61-1.5-.61-.828 0-1.438.242-1.828.727-.375.484-.618 1.148-.727 1.992a25.394 25.394 0 0 0-.141 2.836v4.336Zm23.719 21.234c-2.828 0-4.93-.804-6.305-2.414s-2.062-4.242-2.062-7.898v-2.274h5.836v2.836c0 1.532.187 2.696.562 3.492.375.797.985 1.196 1.829 1.196.812 0 1.414-.274 1.804-.82.391-.547.586-1.493.586-2.836 0-.782-.117-1.54-.351-2.274a7.671 7.671 0 0 0-1.055-2.156c-.469-.719-1.078-1.414-1.828-2.086l-3.164-2.86c-1.453-1.312-2.539-2.726-3.258-4.242-.719-1.53-1.078-3.218-1.078-5.062 0-2.985.695-5.164 2.086-6.54 1.406-1.39 3.484-2.085 6.234-2.085 1.781 0 3.258.336 4.43 1.008 1.172.656 2.047 1.726 2.625 3.21.578 1.485.867 3.477.867 5.977v1.922h-5.555v-2.32c0-1.547-.179-2.719-.539-3.516-.344-.797-.937-1.195-1.781-1.195-.828 0-1.438.234-1.828.703-.391.453-.602 1.258-.633 2.414a6.228 6.228 0 0 0 .234 1.852c.172.593.438 1.18.797 1.757a9.29 9.29 0 0 0 1.453 1.664l3.329 3.024c1.75 1.578 3.039 3.226 3.867 4.945.843 1.719 1.265 3.578 1.265 5.578 0 2.953-.672 5.196-2.015 6.727-1.344 1.516-3.461 2.273-6.352 2.273Zm21.235-.023c-1.688 0-3.102-.258-4.243-.774-1.14-.53-2.047-1.289-2.718-2.273-.657-1-1.133-2.21-1.43-3.633-.281-1.437-.422-3.07-.422-4.898V20.695c0-2.203.281-4.148.844-5.836.578-1.703 1.515-3.03 2.812-3.984 1.297-.969 3.016-1.453 5.157-1.453 1.625 0 2.992.273 4.101.82a6.647 6.647 0 0 1 2.695 2.344c.688 1 1.188 2.187 1.5 3.562.313 1.375.469 2.891.469 4.547v13.149c0 1.797-.14 3.406-.422 4.828-.265 1.422-.734 2.64-1.406 3.656-.656 1-1.547 1.766-2.672 2.297-1.125.531-2.547.797-4.265.797Zm0-5.016c.703 0 1.234-.21 1.593-.633.36-.437.602-1.039.727-1.804.125-.766.187-1.649.187-2.649V19.594c0-1.063-.07-1.977-.211-2.742-.14-.766-.39-1.36-.75-1.782-.359-.422-.875-.633-1.546-.633-.704 0-1.243.211-1.618.633-.359.422-.609 1.016-.75 1.782-.125.765-.187 1.68-.187 2.742V35.32c0 1 .062 1.883.187 2.649.141.765.391 1.367.75 1.804.375.422.914.633 1.618.633Zm20.46 5.039c-1.39 0-2.554-.312-3.492-.937-.922-.625-1.617-1.555-2.086-2.79-.453-1.25-.679-2.812-.679-4.687V9.844h6.234V36.07c0 1.344.164 2.39.492 3.14.328.75 1.016 1.126 2.063 1.126 1.093 0 1.836-.422 2.226-1.266.407-.86.61-1.843.61-2.953l.023-26.273h6.188V45h-6.211v-3.656c-.438 1.187-1.071 2.172-1.899 2.953-.828.766-1.984 1.148-3.469 1.148ZM331.378 45V9.844h6.258v3.914c.406-1.36 1.109-2.422 2.109-3.188 1.016-.765 2.305-1.148 3.867-1.148.032 0 .047.265.047.797.016.531.024 1.14.024 1.828v2.625c-.719 0-1.5.086-2.344.258a8.707 8.707 0 0 0-2.274.797c-.671.343-1.148.804-1.429 1.382V45h-6.258Zm24.844.422c-1.797 0-3.282-.274-4.453-.82-1.172-.563-2.094-1.368-2.766-2.414-.656-1.047-1.117-2.32-1.383-3.82s-.398-3.196-.398-5.087v-11.39c0-2.594.242-4.82.726-6.68.485-1.86 1.375-3.29 2.672-4.29 1.313-1 3.203-1.5 5.672-1.5 1.516 0 2.797.235 3.844.704 1.047.469 1.89 1.148 2.531 2.04.641.874 1.102 1.937 1.383 3.187.297 1.25.445 2.656.445 4.218v3.867h-6V19.36c0-1.015-.047-1.882-.141-2.601-.093-.735-.304-1.29-.632-1.664-.328-.39-.852-.586-1.571-.586-.703 0-1.25.195-1.64.586-.391.39-.664.96-.821 1.71-.14.735-.211 1.618-.211 2.65v15.843c0 1.062.063 1.969.188 2.719.141.75.391 1.328.75 1.734.375.39.922.586 1.641.586.703 0 1.226-.203 1.57-.61.359-.421.594-1.007.703-1.757.109-.75.164-1.633.164-2.649v-4.172h6v3.563c0 1.61-.141 3.078-.422 4.406-.281 1.313-.742 2.438-1.383 3.375-.64.938-1.492 1.664-2.554 2.18-1.063.5-2.367.75-3.914.75Zm21.679 0c-1.765 0-3.218-.281-4.359-.844a6.331 6.331 0 0 1-2.648-2.437c-.625-1.063-1.063-2.336-1.313-3.82-.25-1.5-.375-3.173-.375-5.016V20.203c0-1.64.164-3.125.492-4.453.344-1.328.867-2.46 1.571-3.398.718-.938 1.648-1.657 2.789-2.157 1.14-.515 2.515-.773 4.125-.773 1.64 0 3.007.25 4.101.75 1.094.5 1.953 1.226 2.578 2.18.641.953 1.094 2.101 1.36 3.445.281 1.328.422 2.836.422 4.523v7.524h-11.18v6.914c0 1.703.133 3.07.398 4.101.266 1.032.992 1.547 2.18 1.547.797 0 1.359-.242 1.687-.726.344-.485.547-1.149.61-1.992.078-.86.117-1.836.117-2.93v-3.094h6.141v1.875c0 1.89-.118 3.57-.352 5.04-.219 1.468-.641 2.71-1.266 3.726-.609 1.015-1.484 1.789-2.625 2.32-1.14.531-2.625.797-4.453.797ZM375.44 24.21h5.016v-4.5c0-1.172-.055-2.156-.164-2.953-.109-.813-.328-1.422-.656-1.828-.328-.407-.828-.61-1.5-.61-.828 0-1.438.242-1.828.727-.375.484-.618 1.148-.727 1.992a25.394 25.394 0 0 0-.141 2.836v4.336Zm23.719 21.235c-2.828 0-4.93-.804-6.305-2.414s-2.062-4.242-2.062-7.898v-2.274h5.836v2.836c0 1.532.187 2.696.562 3.492.375.797.985 1.196 1.829 1.196.812 0 1.414-.274 1.804-.82.391-.547.586-1.493.586-2.836 0-.782-.117-1.54-.351-2.274a7.671 7.671 0 0 0-1.055-2.156c-.469-.719-1.078-1.414-1.828-2.086l-3.164-2.86c-1.453-1.312-2.539-2.726-3.258-4.242-.719-1.53-1.078-3.218-1.078-5.062 0-2.985.695-5.164 2.086-6.54 1.406-1.39 3.484-2.085 6.234-2.085 1.781 0 3.258.336 4.43 1.008 1.172.656 2.047 1.726 2.625 3.21.578 1.485.867 3.477.867 5.977v1.922h-5.555v-2.32c0-1.547-.179-2.719-.539-3.516-.344-.797-.937-1.195-1.781-1.195-.828 0-1.438.234-1.828.703-.391.453-.602 1.258-.633 2.414a6.228 6.228 0 0 0 .234 1.852c.172.593.438 1.18.797 1.757a9.29 9.29 0 0 0 1.453 1.664l3.329 3.024c1.75 1.578 3.039 3.226 3.867 4.945.843 1.719 1.265 3.578 1.265 5.578 0 2.953-.672 5.196-2.015 6.727-1.344 1.516-3.461 2.273-6.352 2.273Z"/></mask><g fill="#D1DADB" filter="url(#a)"><path d="M1.05 45V3.75h6.28V45H1.05Zm12.61 0V3.398h6.187V45h-6.188Zm12.468 0V3.398h6.187V45h-6.187Zm18.492.445c-1.39 0-2.555-.312-3.492-.937-.922-.625-1.617-1.555-2.086-2.79-.453-1.25-.68-2.812-.68-4.687V9.844h6.235V36.07c0 1.344.164 2.39.492 3.14.328.75 1.016 1.126 2.062 1.126 1.094 0 1.836-.422 2.227-1.266.406-.86.61-1.843.61-2.953l.023-26.273h6.187V45h-6.21v-3.656c-.438 1.187-1.071 2.172-1.9 2.953-.827.766-1.983 1.148-3.468 1.148Zm24.914 0c-2.828 0-4.93-.804-6.305-2.414-1.374-1.61-2.062-4.242-2.062-7.898v-2.274h5.836v2.836c0 1.532.187 2.696.562 3.492.375.797.985 1.196 1.829 1.196.812 0 1.414-.274 1.804-.82.39-.547.586-1.493.586-2.836 0-.782-.117-1.54-.351-2.274a7.651 7.651 0 0 0-1.055-2.156c-.469-.719-1.078-1.414-1.828-2.086l-3.164-2.86c-1.453-1.312-2.54-2.726-3.258-4.242-.719-1.53-1.078-3.218-1.078-5.062 0-2.985.695-5.164 2.086-6.54 1.406-1.39 3.484-2.085 6.234-2.085 1.781 0 3.258.336 4.43 1.008 1.172.656 2.047 1.726 2.625 3.21.578 1.485.867 3.477.867 5.977v1.922h-5.555v-2.32c0-1.547-.18-2.719-.539-3.516-.343-.797-.937-1.195-1.781-1.195-.828 0-1.438.234-1.828.703-.39.453-.602 1.258-.633 2.414a6.212 6.212 0 0 0 .234 1.852c.172.593.438 1.18.797 1.757a9.29 9.29 0 0 0 1.453 1.664l3.329 3.024c1.75 1.578 3.039 3.226 3.867 4.945.844 1.719 1.265 3.578 1.265 5.578 0 2.953-.671 5.196-2.015 6.727-1.344 1.516-3.461 2.273-6.352 2.273Zm19.266-.211c-1.5 0-2.649-.187-3.445-.562a3.15 3.15 0 0 1-1.641-1.828c-.297-.828-.445-1.899-.445-3.211V15.07h-2.86v-4.5h2.86V3.75h6.21v6.82h3.422v4.5H89.48v23.485c0 .547.085.96.257 1.242.172.281.508.469 1.008.562.516.094 1.274.141 2.274.141v4.734h-4.22ZM97.425 45V9.844h6.258v3.914c.406-1.36 1.109-2.422 2.109-3.188 1.016-.765 2.305-1.148 3.867-1.148.031 0 .047.265.047.797.016.531.023 1.14.023 1.828v2.625c-.718 0-1.5.086-2.343.258a8.707 8.707 0 0 0-2.274.797c-.672.343-1.148.804-1.429 1.382V45h-6.258Zm22.078.352c-2.406 0-4.078-.875-5.016-2.625-.922-1.75-1.398-4.07-1.429-6.961v-2.25c0-1.875.265-3.399.796-4.57.547-1.173 1.321-2.126 2.321-2.86 1-.734 2.195-1.375 3.586-1.922a216.28 216.28 0 0 1 4.64-1.758v-3.07c0-1.188-.047-2.133-.14-2.836-.094-.719-.305-1.242-.633-1.57-.328-.328-.836-.492-1.524-.492-.671 0-1.187.171-1.546.515-.344.328-.579.844-.704 1.547-.125.688-.187 1.57-.187 2.648v1.57h-6.141v-1.054c0-1.61.133-3.047.399-4.312.281-1.266.75-2.336 1.406-3.211.656-.891 1.547-1.563 2.672-2.016 1.141-.469 2.57-.703 4.289-.703 1.516 0 2.812.219 3.891.656 1.078.422 1.953 1.063 2.625 1.922.671.844 1.164 1.906 1.476 3.188.313 1.28.469 2.773.469 4.476V45h-6.258v-3.492a5.585 5.585 0 0 1-.961 1.898 5.196 5.196 0 0 1-1.711 1.407c-.672.359-1.445.539-2.32.539Zm2.156-4.782c.781 0 1.406-.28 1.875-.843.469-.563.758-1.133.867-1.711V25.922c-.937.422-1.726.82-2.367 1.195-.64.36-1.156.758-1.547 1.195-.39.438-.672.954-.843 1.547-.172.594-.258 1.32-.258 2.18v3.938c0 1.609.164 2.78.492 3.515.344.719.937 1.078 1.781 1.078Zm21.188 4.664c-1.5 0-2.649-.187-3.446-.562a3.15 3.15 0 0 1-1.64-1.828c-.297-.828-.446-1.899-.446-3.211V15.07h-2.859v-4.5h2.859V3.75h6.211v6.82h3.422v4.5h-3.422v23.485c0 .547.086.96.258 1.242.172.281.508.469 1.008.562.516.094 1.273.141 2.273.141v4.734h-4.218Zm8.718-.234V9.844h6.211V45h-6.211Zm-.023-38.39V1.218h6.258v5.39h-6.258Zm20.836 38.812c-1.688 0-3.102-.258-4.242-.774-1.141-.53-2.047-1.289-2.719-2.273-.656-1-1.133-2.21-1.43-3.633-.281-1.437-.422-3.07-.422-4.898V20.695c0-2.203.282-4.148.844-5.836.578-1.703 1.516-3.03 2.813-3.984 1.297-.969 3.015-1.453 5.156-1.453 1.625 0 2.992.273 4.101.82a6.657 6.657 0 0 1 2.696 2.344c.687 1 1.187 2.187 1.5 3.562.312 1.375.469 2.891.469 4.547v13.149c0 1.797-.141 3.406-.422 4.828-.266 1.422-.735 2.64-1.407 3.656-.656 1-1.546 1.766-2.671 2.297-1.125.531-2.547.797-4.266.797Zm0-5.016c.703 0 1.234-.21 1.594-.633.359-.437.601-1.039.726-1.804.125-.766.188-1.649.188-2.649V19.594c0-1.063-.071-1.977-.211-2.742-.141-.766-.391-1.36-.75-1.782-.36-.422-.875-.633-1.547-.633-.703 0-1.242.211-1.617.633-.36.422-.61 1.016-.75 1.782-.125.765-.188 1.68-.188 2.742V35.32c0 1 .063 1.883.188 2.649.14.765.39 1.367.75 1.804.375.422.914.633 1.617.633ZM186.792 45V9.844h6.211v4.031c.312-1.203.969-2.242 1.969-3.117 1-.89 2.226-1.336 3.679-1.336 2.032 0 3.555.68 4.571 2.039 1.015 1.344 1.523 3.297 1.523 5.86V45h-6.211V17.695c0-1.015-.234-1.812-.703-2.39-.453-.578-1.078-.867-1.875-.867-.641 0-1.187.18-1.641.539-.437.343-.765.828-.984 1.453-.219.61-.328 1.328-.328 2.156V45h-6.211Zm32.555 0V3.75h10.382c2.157 0 3.766.422 4.829 1.266 1.062.843 1.757 2.078 2.086 3.703.343 1.625.515 3.61.515 5.953 0 2.422-.25 4.328-.75 5.719-.484 1.375-1.484 2.297-3 2.765.719.125 1.32.422 1.805.89.484.454.875 1.126 1.172 2.017.297.875.508 2.007.633 3.398.14 1.375.21 3.062.21 5.062v3.868l.047 2.906c.016.969.039 1.797.071 2.484.031.688.07 1.094.117 1.219h-6.281c-.047-.078-.086-.477-.118-1.195-.015-.735-.039-1.664-.07-2.79a1976.02 1976.02 0 0 1-.047-3.632V30.21c0-1.234-.094-2.164-.281-2.79-.172-.64-.5-1.085-.984-1.335-.469-.25-1.149-.398-2.039-.445l-2.016-.118V45h-6.281Zm6.304-24.352h2.508c.766 0 1.344-.171 1.735-.515.406-.344.679-.977.82-1.899.156-.922.234-2.25.234-3.984v-.258c0-1.453-.07-2.57-.211-3.351-.14-.782-.437-1.32-.89-1.618-.438-.296-1.125-.445-2.063-.445h-2.133v12.07Zm25.125 24.774c-1.765 0-3.218-.281-4.359-.844a6.331 6.331 0 0 1-2.648-2.437c-.625-1.063-1.063-2.336-1.313-3.82-.25-1.5-.375-3.173-.375-5.016V20.203c0-1.64.164-3.125.492-4.453.344-1.328.867-2.46 1.571-3.398.718-.938 1.648-1.657 2.789-2.157 1.14-.515 2.515-.773 4.125-.773 1.64 0 3.007.25 4.101.75 1.094.5 1.953 1.226 2.578 2.18.641.953 1.094 2.101 1.36 3.445.281 1.328.422 2.836.422 4.523v7.524h-11.18v6.914c0 1.703.133 3.07.398 4.101.266 1.032.992 1.547 2.18 1.547.797 0 1.359-.242 1.687-.726.344-.485.547-1.149.61-1.992.078-.86.117-1.836.117-2.93v-3.094h6.141v1.875c0 1.89-.118 3.57-.352 5.04-.219 1.468-.641 2.71-1.266 3.726-.609 1.015-1.484 1.789-2.625 2.32-1.14.531-2.625.797-4.453.797Zm-2.461-21.211h5.016v-4.5c0-1.172-.055-2.156-.164-2.953-.109-.813-.328-1.422-.656-1.828-.328-.407-.828-.61-1.5-.61-.828 0-1.438.242-1.828.727-.375.484-.618 1.148-.727 1.992a25.394 25.394 0 0 0-.141 2.836v4.336Zm23.719 21.234c-2.828 0-4.93-.804-6.305-2.414s-2.062-4.242-2.062-7.898v-2.274h5.836v2.836c0 1.532.187 2.696.562 3.492.375.797.985 1.196 1.829 1.196.812 0 1.414-.274 1.804-.82.391-.547.586-1.493.586-2.836 0-.782-.117-1.54-.351-2.274a7.671 7.671 0 0 0-1.055-2.156c-.469-.719-1.078-1.414-1.828-2.086l-3.164-2.86c-1.453-1.312-2.539-2.726-3.258-4.242-.719-1.53-1.078-3.218-1.078-5.062 0-2.985.695-5.164 2.086-6.54 1.406-1.39 3.484-2.085 6.234-2.085 1.781 0 3.258.336 4.43 1.008 1.172.656 2.047 1.726 2.625 3.21.578 1.485.867 3.477.867 5.977v1.922h-5.555v-2.32c0-1.547-.179-2.719-.539-3.516-.344-.797-.937-1.195-1.781-1.195-.828 0-1.438.234-1.828.703-.391.453-.602 1.258-.633 2.414a6.228 6.228 0 0 0 .234 1.852c.172.593.438 1.18.797 1.757a9.29 9.29 0 0 0 1.453 1.664l3.329 3.024c1.75 1.578 3.039 3.226 3.867 4.945.843 1.719 1.265 3.578 1.265 5.578 0 2.953-.672 5.196-2.015 6.727-1.344 1.516-3.461 2.273-6.352 2.273Zm21.235-.023c-1.688 0-3.102-.258-4.243-.774-1.14-.53-2.047-1.289-2.718-2.273-.657-1-1.133-2.21-1.43-3.633-.281-1.437-.422-3.07-.422-4.898V20.695c0-2.203.281-4.148.844-5.836.578-1.703 1.515-3.03 2.812-3.984 1.297-.969 3.016-1.453 5.157-1.453 1.625 0 2.992.273 4.101.82a6.647 6.647 0 0 1 2.695 2.344c.688 1 1.188 2.187 1.5 3.562.313 1.375.469 2.891.469 4.547v13.149c0 1.797-.14 3.406-.422 4.828-.265 1.422-.734 2.64-1.406 3.656-.656 1-1.547 1.766-2.672 2.297-1.125.531-2.547.797-4.265.797Zm0-5.016c.703 0 1.234-.21 1.593-.633.36-.437.602-1.039.727-1.804.125-.766.187-1.649.187-2.649V19.594c0-1.063-.07-1.977-.211-2.742-.14-.766-.39-1.36-.75-1.782-.359-.422-.875-.633-1.546-.633-.704 0-1.243.211-1.618.633-.359.422-.609 1.016-.75 1.782-.125.765-.187 1.68-.187 2.742V35.32c0 1 .062 1.883.187 2.649.141.765.391 1.367.75 1.804.375.422.914.633 1.618.633Zm20.46 5.039c-1.39 0-2.554-.312-3.492-.937-.922-.625-1.617-1.555-2.086-2.79-.453-1.25-.679-2.812-.679-4.687V9.844h6.234V36.07c0 1.344.164 2.39.492 3.14.328.75 1.016 1.126 2.063 1.126 1.093 0 1.836-.422 2.226-1.266.407-.86.61-1.843.61-2.953l.023-26.273h6.188V45h-6.211v-3.656c-.438 1.187-1.071 2.172-1.899 2.953-.828.766-1.984 1.148-3.469 1.148ZM331.378 45V9.844h6.258v3.914c.406-1.36 1.109-2.422 2.109-3.188 1.016-.765 2.305-1.148 3.867-1.148.032 0 .047.265.047.797.016.531.024 1.14.024 1.828v2.625c-.719 0-1.5.086-2.344.258a8.707 8.707 0 0 0-2.274.797c-.671.343-1.148.804-1.429 1.382V45h-6.258Zm24.844.422c-1.797 0-3.282-.274-4.453-.82-1.172-.563-2.094-1.368-2.766-2.414-.656-1.047-1.117-2.32-1.383-3.82s-.398-3.196-.398-5.087v-11.39c0-2.594.242-4.82.726-6.68.485-1.86 1.375-3.29 2.672-4.29 1.313-1 3.203-1.5 5.672-1.5 1.516 0 2.797.235 3.844.704 1.047.469 1.89 1.148 2.531 2.04.641.874 1.102 1.937 1.383 3.187.297 1.25.445 2.656.445 4.218v3.867h-6V19.36c0-1.015-.047-1.882-.141-2.601-.093-.735-.304-1.29-.632-1.664-.328-.39-.852-.586-1.571-.586-.703 0-1.25.195-1.64.586-.391.39-.664.96-.821 1.71-.14.735-.211 1.618-.211 2.65v15.843c0 1.062.063 1.969.188 2.719.141.75.391 1.328.75 1.734.375.39.922.586 1.641.586.703 0 1.226-.203 1.57-.61.359-.421.594-1.007.703-1.757.109-.75.164-1.633.164-2.649v-4.172h6v3.563c0 1.61-.141 3.078-.422 4.406-.281 1.313-.742 2.438-1.383 3.375-.64.938-1.492 1.664-2.554 2.18-1.063.5-2.367.75-3.914.75Zm21.679 0c-1.765 0-3.218-.281-4.359-.844a6.331 6.331 0 0 1-2.648-2.437c-.625-1.063-1.063-2.336-1.313-3.82-.25-1.5-.375-3.173-.375-5.016V20.203c0-1.64.164-3.125.492-4.453.344-1.328.867-2.46 1.571-3.398.718-.938 1.648-1.657 2.789-2.157 1.14-.515 2.515-.773 4.125-.773 1.64 0 3.007.25 4.101.75 1.094.5 1.953 1.226 2.578 2.18.641.953 1.094 2.101 1.36 3.445.281 1.328.422 2.836.422 4.523v7.524h-11.18v6.914c0 1.703.133 3.07.398 4.101.266 1.032.992 1.547 2.18 1.547.797 0 1.359-.242 1.687-.726.344-.485.547-1.149.61-1.992.078-.86.117-1.836.117-2.93v-3.094h6.141v1.875c0 1.89-.118 3.57-.352 5.04-.219 1.468-.641 2.71-1.266 3.726-.609 1.015-1.484 1.789-2.625 2.32-1.14.531-2.625.797-4.453.797ZM375.44 24.21h5.016v-4.5c0-1.172-.055-2.156-.164-2.953-.109-.813-.328-1.422-.656-1.828-.328-.407-.828-.61-1.5-.61-.828 0-1.438.242-1.828.727-.375.484-.618 1.148-.727 1.992a25.394 25.394 0 0 0-.141 2.836v4.336Zm23.719 21.235c-2.828 0-4.93-.804-6.305-2.414s-2.062-4.242-2.062-7.898v-2.274h5.836v2.836c0 1.532.187 2.696.562 3.492.375.797.985 1.196 1.829 1.196.812 0 1.414-.274 1.804-.82.391-.547.586-1.493.586-2.836 0-.782-.117-1.54-.351-2.274a7.671 7.671 0 0 0-1.055-2.156c-.469-.719-1.078-1.414-1.828-2.086l-3.164-2.86c-1.453-1.312-2.539-2.726-3.258-4.242-.719-1.53-1.078-3.218-1.078-5.062 0-2.985.695-5.164 2.086-6.54 1.406-1.39 3.484-2.085 6.234-2.085 1.781 0 3.258.336 4.43 1.008 1.172.656 2.047 1.726 2.625 3.21.578 1.485.867 3.477.867 5.977v1.922h-5.555v-2.32c0-1.547-.179-2.719-.539-3.516-.344-.797-.937-1.195-1.781-1.195-.828 0-1.438.234-1.828.703-.391.453-.602 1.258-.633 2.414a6.228 6.228 0 0 0 .234 1.852c.172.593.438 1.18.797 1.757a9.29 9.29 0 0 0 1.453 1.664l3.329 3.024c1.75 1.578 3.039 3.226 3.867 4.945.843 1.719 1.265 3.578 1.265 5.578 0 2.953-.672 5.196-2.015 6.727-1.344 1.516-3.461 2.273-6.352 2.273Z"/></g><path stroke="#D9E6E7" stroke-width="2" d="M1.05 45V3.75h6.28V45H1.05Zm12.61 0V3.398h6.187V45h-6.188Zm12.468 0V3.398h6.187V45h-6.187Zm18.492.445c-1.39 0-2.555-.312-3.492-.937-.922-.625-1.617-1.555-2.086-2.79-.453-1.25-.68-2.812-.68-4.687V9.844h6.235V36.07c0 1.344.164 2.39.492 3.14.328.75 1.016 1.126 2.062 1.126 1.094 0 1.836-.422 2.227-1.266.406-.86.61-1.843.61-2.953l.023-26.273h6.187V45h-6.21v-3.656c-.438 1.187-1.071 2.172-1.9 2.953-.827.766-1.983 1.148-3.468 1.148Zm24.914 0c-2.828 0-4.93-.804-6.305-2.414-1.374-1.61-2.062-4.242-2.062-7.898v-2.274h5.836v2.836c0 1.532.187 2.696.562 3.492.375.797.985 1.196 1.829 1.196.812 0 1.414-.274 1.804-.82.39-.547.586-1.493.586-2.836 0-.782-.117-1.54-.351-2.274a7.651 7.651 0 0 0-1.055-2.156c-.469-.719-1.078-1.414-1.828-2.086l-3.164-2.86c-1.453-1.312-2.54-2.726-3.258-4.242-.719-1.53-1.078-3.218-1.078-5.062 0-2.985.695-5.164 2.086-6.54 1.406-1.39 3.484-2.085 6.234-2.085 1.781 0 3.258.336 4.43 1.008 1.172.656 2.047 1.726 2.625 3.21.578 1.485.867 3.477.867 5.977v1.922h-5.555v-2.32c0-1.547-.18-2.719-.539-3.516-.343-.797-.937-1.195-1.781-1.195-.828 0-1.438.234-1.828.703-.39.453-.602 1.258-.633 2.414a6.212 6.212 0 0 0 .234 1.852c.172.593.438 1.18.797 1.757a9.29 9.29 0 0 0 1.453 1.664l3.329 3.024c1.75 1.578 3.039 3.226 3.867 4.945.844 1.719 1.265 3.578 1.265 5.578 0 2.953-.671 5.196-2.015 6.727-1.344 1.516-3.461 2.273-6.352 2.273Zm19.266-.211c-1.5 0-2.649-.187-3.445-.562a3.15 3.15 0 0 1-1.641-1.828c-.297-.828-.445-1.899-.445-3.211V15.07h-2.86v-4.5h2.86V3.75h6.21v6.82h3.422v4.5H89.48v23.485c0 .547.085.96.257 1.242.172.281.508.469 1.008.562.516.094 1.274.141 2.274.141v4.734h-4.22ZM97.425 45V9.844h6.258v3.914c.406-1.36 1.109-2.422 2.109-3.188 1.016-.765 2.305-1.148 3.867-1.148.031 0 .047.265.047.797.016.531.023 1.14.023 1.828v2.625c-.718 0-1.5.086-2.343.258a8.707 8.707 0 0 0-2.274.797c-.672.343-1.148.804-1.429 1.382V45h-6.258Zm22.078.352c-2.406 0-4.078-.875-5.016-2.625-.922-1.75-1.398-4.07-1.429-6.961v-2.25c0-1.875.265-3.399.796-4.57.547-1.173 1.321-2.126 2.321-2.86 1-.734 2.195-1.375 3.586-1.922a216.28 216.28 0 0 1 4.64-1.758v-3.07c0-1.188-.047-2.133-.14-2.836-.094-.719-.305-1.242-.633-1.57-.328-.328-.836-.492-1.524-.492-.671 0-1.187.171-1.546.515-.344.328-.579.844-.704 1.547-.125.688-.187 1.57-.187 2.648v1.57h-6.141v-1.054c0-1.61.133-3.047.399-4.312.281-1.266.75-2.336 1.406-3.211.656-.891 1.547-1.563 2.672-2.016 1.141-.469 2.57-.703 4.289-.703 1.516 0 2.812.219 3.891.656 1.078.422 1.953 1.063 2.625 1.922.671.844 1.164 1.906 1.476 3.188.313 1.28.469 2.773.469 4.476V45h-6.258v-3.492a5.585 5.585 0 0 1-.961 1.898 5.196 5.196 0 0 1-1.711 1.407c-.672.359-1.445.539-2.32.539Zm2.156-4.782c.781 0 1.406-.28 1.875-.843.469-.563.758-1.133.867-1.711V25.922c-.937.422-1.726.82-2.367 1.195-.64.36-1.156.758-1.547 1.195-.39.438-.672.954-.843 1.547-.172.594-.258 1.32-.258 2.18v3.938c0 1.609.164 2.78.492 3.515.344.719.937 1.078 1.781 1.078Zm21.188 4.664c-1.5 0-2.649-.187-3.446-.562a3.15 3.15 0 0 1-1.64-1.828c-.297-.828-.446-1.899-.446-3.211V15.07h-2.859v-4.5h2.859V3.75h6.211v6.82h3.422v4.5h-3.422v23.485c0 .547.086.96.258 1.242.172.281.508.469 1.008.562.516.094 1.273.141 2.273.141v4.734h-4.218Zm8.718-.234V9.844h6.211V45h-6.211Zm-.023-38.39V1.218h6.258v5.39h-6.258Zm20.836 38.812c-1.688 0-3.102-.258-4.242-.774-1.141-.53-2.047-1.289-2.719-2.273-.656-1-1.133-2.21-1.43-3.633-.281-1.437-.422-3.07-.422-4.898V20.695c0-2.203.282-4.148.844-5.836.578-1.703 1.516-3.03 2.813-3.984 1.297-.969 3.015-1.453 5.156-1.453 1.625 0 2.992.273 4.101.82a6.657 6.657 0 0 1 2.696 2.344c.687 1 1.187 2.187 1.5 3.562.312 1.375.469 2.891.469 4.547v13.149c0 1.797-.141 3.406-.422 4.828-.266 1.422-.735 2.64-1.407 3.656-.656 1-1.546 1.766-2.671 2.297-1.125.531-2.547.797-4.266.797Zm0-5.016c.703 0 1.234-.21 1.594-.633.359-.437.601-1.039.726-1.804.125-.766.188-1.649.188-2.649V19.594c0-1.063-.071-1.977-.211-2.742-.141-.766-.391-1.36-.75-1.782-.36-.422-.875-.633-1.547-.633-.703 0-1.242.211-1.617.633-.36.422-.61 1.016-.75 1.782-.125.765-.188 1.68-.188 2.742V35.32c0 1 .063 1.883.188 2.649.14.765.39 1.367.75 1.804.375.422.914.633 1.617.633ZM186.792 45V9.844h6.211v4.031c.312-1.203.969-2.242 1.969-3.117 1-.89 2.226-1.336 3.679-1.336 2.032 0 3.555.68 4.571 2.039 1.015 1.344 1.523 3.297 1.523 5.86V45h-6.211V17.695c0-1.015-.234-1.812-.703-2.39-.453-.578-1.078-.867-1.875-.867-.641 0-1.187.18-1.641.539-.437.343-.765.828-.984 1.453-.219.61-.328 1.328-.328 2.156V45h-6.211Zm32.555 0V3.75h10.382c2.157 0 3.766.422 4.829 1.266 1.062.843 1.757 2.078 2.086 3.703.343 1.625.515 3.61.515 5.953 0 2.422-.25 4.328-.75 5.719-.484 1.375-1.484 2.297-3 2.765.719.125 1.32.422 1.805.89.484.454.875 1.126 1.172 2.017.297.875.508 2.007.633 3.398.14 1.375.21 3.062.21 5.062v3.868l.047 2.906c.016.969.039 1.797.071 2.484.031.688.07 1.094.117 1.219h-6.281c-.047-.078-.086-.477-.118-1.195-.015-.735-.039-1.664-.07-2.79a1976.02 1976.02 0 0 1-.047-3.632V30.21c0-1.234-.094-2.164-.281-2.79-.172-.64-.5-1.085-.984-1.335-.469-.25-1.149-.398-2.039-.445l-2.016-.118V45h-6.281Zm6.304-24.352h2.508c.766 0 1.344-.171 1.735-.515.406-.344.679-.977.82-1.899.156-.922.234-2.25.234-3.984v-.258c0-1.453-.07-2.57-.211-3.351-.14-.782-.437-1.32-.89-1.618-.438-.296-1.125-.445-2.063-.445h-2.133v12.07Zm25.125 24.774c-1.765 0-3.218-.281-4.359-.844a6.331 6.331 0 0 1-2.648-2.437c-.625-1.063-1.063-2.336-1.313-3.82-.25-1.5-.375-3.173-.375-5.016V20.203c0-1.64.164-3.125.492-4.453.344-1.328.867-2.46 1.571-3.398.718-.938 1.648-1.657 2.789-2.157 1.14-.515 2.515-.773 4.125-.773 1.64 0 3.007.25 4.101.75 1.094.5 1.953 1.226 2.578 2.18.641.953 1.094 2.101 1.36 3.445.281 1.328.422 2.836.422 4.523v7.524h-11.18v6.914c0 1.703.133 3.07.398 4.101.266 1.032.992 1.547 2.18 1.547.797 0 1.359-.242 1.687-.726.344-.485.547-1.149.61-1.992.078-.86.117-1.836.117-2.93v-3.094h6.141v1.875c0 1.89-.118 3.57-.352 5.04-.219 1.468-.641 2.71-1.266 3.726-.609 1.015-1.484 1.789-2.625 2.32-1.14.531-2.625.797-4.453.797Zm-2.461-21.211h5.016v-4.5c0-1.172-.055-2.156-.164-2.953-.109-.813-.328-1.422-.656-1.828-.328-.407-.828-.61-1.5-.61-.828 0-1.438.242-1.828.727-.375.484-.618 1.148-.727 1.992a25.394 25.394 0 0 0-.141 2.836v4.336Zm23.719 21.234c-2.828 0-4.93-.804-6.305-2.414s-2.062-4.242-2.062-7.898v-2.274h5.836v2.836c0 1.532.187 2.696.562 3.492.375.797.985 1.196 1.829 1.196.812 0 1.414-.274 1.804-.82.391-.547.586-1.493.586-2.836 0-.782-.117-1.54-.351-2.274a7.671 7.671 0 0 0-1.055-2.156c-.469-.719-1.078-1.414-1.828-2.086l-3.164-2.86c-1.453-1.312-2.539-2.726-3.258-4.242-.719-1.53-1.078-3.218-1.078-5.062 0-2.985.695-5.164 2.086-6.54 1.406-1.39 3.484-2.085 6.234-2.085 1.781 0 3.258.336 4.43 1.008 1.172.656 2.047 1.726 2.625 3.21.578 1.485.867 3.477.867 5.977v1.922h-5.555v-2.32c0-1.547-.179-2.719-.539-3.516-.344-.797-.937-1.195-1.781-1.195-.828 0-1.438.234-1.828.703-.391.453-.602 1.258-.633 2.414a6.228 6.228 0 0 0 .234 1.852c.172.593.438 1.18.797 1.757a9.29 9.29 0 0 0 1.453 1.664l3.329 3.024c1.75 1.578 3.039 3.226 3.867 4.945.843 1.719 1.265 3.578 1.265 5.578 0 2.953-.672 5.196-2.015 6.727-1.344 1.516-3.461 2.273-6.352 2.273Zm21.235-.023c-1.688 0-3.102-.258-4.243-.774-1.14-.53-2.047-1.289-2.718-2.273-.657-1-1.133-2.21-1.43-3.633-.281-1.437-.422-3.07-.422-4.898V20.695c0-2.203.281-4.148.844-5.836.578-1.703 1.515-3.03 2.812-3.984 1.297-.969 3.016-1.453 5.157-1.453 1.625 0 2.992.273 4.101.82a6.647 6.647 0 0 1 2.695 2.344c.688 1 1.188 2.187 1.5 3.562.313 1.375.469 2.891.469 4.547v13.149c0 1.797-.14 3.406-.422 4.828-.265 1.422-.734 2.64-1.406 3.656-.656 1-1.547 1.766-2.672 2.297-1.125.531-2.547.797-4.265.797Zm0-5.016c.703 0 1.234-.21 1.593-.633.36-.437.602-1.039.727-1.804.125-.766.187-1.649.187-2.649V19.594c0-1.063-.07-1.977-.211-2.742-.14-.766-.39-1.36-.75-1.782-.359-.422-.875-.633-1.546-.633-.704 0-1.243.211-1.618.633-.359.422-.609 1.016-.75 1.782-.125.765-.187 1.68-.187 2.742V35.32c0 1 .062 1.883.187 2.649.141.765.391 1.367.75 1.804.375.422.914.633 1.618.633Zm20.46 5.039c-1.39 0-2.554-.312-3.492-.937-.922-.625-1.617-1.555-2.086-2.79-.453-1.25-.679-2.812-.679-4.687V9.844h6.234V36.07c0 1.344.164 2.39.492 3.14.328.75 1.016 1.126 2.063 1.126 1.093 0 1.836-.422 2.226-1.266.407-.86.61-1.843.61-2.953l.023-26.273h6.188V45h-6.211v-3.656c-.438 1.187-1.071 2.172-1.899 2.953-.828.766-1.984 1.148-3.469 1.148ZM331.378 45V9.844h6.258v3.914c.406-1.36 1.109-2.422 2.109-3.188 1.016-.765 2.305-1.148 3.867-1.148.032 0 .047.265.047.797.016.531.024 1.14.024 1.828v2.625c-.719 0-1.5.086-2.344.258a8.707 8.707 0 0 0-2.274.797c-.671.343-1.148.804-1.429 1.382V45h-6.258Zm24.844.422c-1.797 0-3.282-.274-4.453-.82-1.172-.563-2.094-1.368-2.766-2.414-.656-1.047-1.117-2.32-1.383-3.82s-.398-3.196-.398-5.087v-11.39c0-2.594.242-4.82.726-6.68.485-1.86 1.375-3.29 2.672-4.29 1.313-1 3.203-1.5 5.672-1.5 1.516 0 2.797.235 3.844.704 1.047.469 1.89 1.148 2.531 2.04.641.874 1.102 1.937 1.383 3.187.297 1.25.445 2.656.445 4.218v3.867h-6V19.36c0-1.015-.047-1.882-.141-2.601-.093-.735-.304-1.29-.632-1.664-.328-.39-.852-.586-1.571-.586-.703 0-1.25.195-1.64.586-.391.39-.664.96-.821 1.71-.14.735-.211 1.618-.211 2.65v15.843c0 1.062.063 1.969.188 2.719.141.75.391 1.328.75 1.734.375.39.922.586 1.641.586.703 0 1.226-.203 1.57-.61.359-.421.594-1.007.703-1.757.109-.75.164-1.633.164-2.649v-4.172h6v3.563c0 1.61-.141 3.078-.422 4.406-.281 1.313-.742 2.438-1.383 3.375-.64.938-1.492 1.664-2.554 2.18-1.063.5-2.367.75-3.914.75Zm21.679 0c-1.765 0-3.218-.281-4.359-.844a6.331 6.331 0 0 1-2.648-2.437c-.625-1.063-1.063-2.336-1.313-3.82-.25-1.5-.375-3.173-.375-5.016V20.203c0-1.64.164-3.125.492-4.453.344-1.328.867-2.46 1.571-3.398.718-.938 1.648-1.657 2.789-2.157 1.14-.515 2.515-.773 4.125-.773 1.64 0 3.007.25 4.101.75 1.094.5 1.953 1.226 2.578 2.18.641.953 1.094 2.101 1.36 3.445.281 1.328.422 2.836.422 4.523v7.524h-11.18v6.914c0 1.703.133 3.07.398 4.101.266 1.032.992 1.547 2.18 1.547.797 0 1.359-.242 1.687-.726.344-.485.547-1.149.61-1.992.078-.86.117-1.836.117-2.93v-3.094h6.141v1.875c0 1.89-.118 3.57-.352 5.04-.219 1.468-.641 2.71-1.266 3.726-.609 1.015-1.484 1.789-2.625 2.32-1.14.531-2.625.797-4.453.797ZM375.44 24.21h5.016v-4.5c0-1.172-.055-2.156-.164-2.953-.109-.813-.328-1.422-.656-1.828-.328-.407-.828-.61-1.5-.61-.828 0-1.438.242-1.828.727-.375.484-.618 1.148-.727 1.992a25.394 25.394 0 0 0-.141 2.836v4.336Zm23.719 21.235c-2.828 0-4.93-.804-6.305-2.414s-2.062-4.242-2.062-7.898v-2.274h5.836v2.836c0 1.532.187 2.696.562 3.492.375.797.985 1.196 1.829 1.196.812 0 1.414-.274 1.804-.82.391-.547.586-1.493.586-2.836 0-.782-.117-1.54-.351-2.274a7.671 7.671 0 0 0-1.055-2.156c-.469-.719-1.078-1.414-1.828-2.086l-3.164-2.86c-1.453-1.312-2.539-2.726-3.258-4.242-.719-1.53-1.078-3.218-1.078-5.062 0-2.985.695-5.164 2.086-6.54 1.406-1.39 3.484-2.085 6.234-2.085 1.781 0 3.258.336 4.43 1.008 1.172.656 2.047 1.726 2.625 3.21.578 1.485.867 3.477.867 5.977v1.922h-5.555v-2.32c0-1.547-.179-2.719-.539-3.516-.344-.797-.937-1.195-1.781-1.195-.828 0-1.438.234-1.828.703-.391.453-.602 1.258-.633 2.414a6.228 6.228 0 0 0 .234 1.852c.172.593.438 1.18.797 1.757a9.29 9.29 0 0 0 1.453 1.664l3.329 3.024c1.75 1.578 3.039 3.226 3.867 4.945.843 1.719 1.265 3.578 1.265 5.578 0 2.953-.672 5.196-2.015 6.727-1.344 1.516-3.461 2.273-6.352 2.273Z" mask="url(#b)"/><defs><filter id="a" width="412.477" height="50.227" x="-.95" y="-.781" color-interpolation-filters="sRGB" filterUnits="userSpaceOnUse"><feFlood flood-opacity="0" result="BackgroundImageFix"/><feBlend in="SourceGraphic" in2="BackgroundImageFix" result="shape"/><feColorMatrix in="SourceAlpha" result="hardAlpha" values="0 0 0 0 0 0 0 0 0 0 0 0 0 0 0 0 0 0 127 0"/><feOffset dx="-1" dy="-1"/><feGaussianBlur stdDeviation="1.5"/><feComposite in2="hardAlpha" k2="-1" k3="1" operator="arithmetic"/><feColorMatrix values="0 0 0 0 0.984314 0 0 0 0 0.984314 0 0 0 0 0.984314 0 0 0 1 0"/><feBlend in2="shape" result="effect1_innerShadow_127_2792"/><feColorMatrix in="SourceAlpha" result="hardAlpha" values="0 0 0 0 0 0 0 0 0 0 0 0 0 0 0 0 0 0 127 0"/><feOffset dx="3" dy="3"/><feGaussianBlur stdDeviation="4.5"/><feComposite in2="hardAlpha" k2="-1" k3="1" operator="arithmetic"/><feColorMatrix values="0 0 0 0 0.772549 0 0 0 0 0.772549 0 0 0 0 0.772549 0 0 0 1 0"/><feBlend in2="effect1_innerShadow_127_2792" result="effect2_innerShadow_127_2792"/></filter></defs></svg>