<svg xmlns="http://www.w3.org/2000/svg" width="125" height="84" fill="none"><g filter="url(#a)"><path fill="#E0E0E0" d="M62.41 0C34.204 0 9.522 9.116 9.522 9.116l-2.62.963-.279 2.624L.686 57.994C-.918 70.525 8.038 82.208 20.57 83.816c11.665 1.502 22.128-6.371 24.854-17.537h33.97c2.74 11.166 13.185 19.04 24.855 17.537 12.531-1.608 21.487-13.29 19.883-25.822l-5.938-45.29-.279-2.625-2.62-.968S90.613 0 62.409 0Zm0 8.837c24.23 0 44.22 6.73 47.499 7.87l5.386 42.529a13.966 13.966 0 0 1-2.78 10.415 13.97 13.97 0 0 1-9.371 5.328c-7.785.999-14.877-4.37-15.88-12.151l-.137-1.52-.553-3.866H38.24l-.553 3.866-.137 1.52c-1.003 7.781-8.095 13.15-15.88 12.151A13.957 13.957 0 0 1 9.519 59.236l5.386-42.53c3.283-1.14 23.273-7.869 47.504-7.869ZM31.478 22.093v8.837h-8.837v8.837h8.837v8.837h8.837v-8.837h8.837V30.93h-8.837v-8.837H31.48Zm57.442 0a4.432 4.432 0 0 0-4.419 4.419 4.432 4.432 0 0 0 4.419 4.418 4.432 4.432 0 0 0 4.418-4.418 4.432 4.432 0 0 0-4.418-4.42Zm-8.838 8.837a4.432 4.432 0 0 0-4.418 4.419 4.432 4.432 0 0 0 4.418 4.418 4.432 4.432 0 0 0 4.42-4.418 4.432 4.432 0 0 0-4.42-4.419Zm17.675 0a4.432 4.432 0 0 0-4.419 4.419 4.432 4.432 0 0 0 4.419 4.418 4.431 4.431 0 0 0 4.418-4.418 4.431 4.431 0 0 0-4.418-4.419Zm-8.837 8.837a4.432 4.432 0 0 0-4.419 4.419 4.432 4.432 0 0 0 4.419 4.419 4.432 4.432 0 0 0 4.418-4.42 4.432 4.432 0 0 0-4.418-4.418Z"/></g><defs><filter id="a" width="125.818" height="86" x="-.5" y="-1" color-interpolation-filters="sRGB" filterUnits="userSpaceOnUse"><feFlood flood-opacity="0" result="BackgroundImageFix"/><feBlend in="SourceGraphic" in2="BackgroundImageFix" result="shape"/><feColorMatrix in="SourceAlpha" result="hardAlpha" values="0 0 0 0 0 0 0 0 0 0 0 0 0 0 0 0 0 0 127 0"/><feOffset dx="1" dy="1"/><feGaussianBlur stdDeviation="1.5"/><feComposite in2="hardAlpha" k2="-1" k3="1" operator="arithmetic"/><feColorMatrix values="0 0 0 0 0.772549 0 0 0 0 0.772549 0 0 0 0 0.772549 0 0 0 1 0"/><feBlend in2="shape" result="effect1_innerShadow_72_1722"/><feColorMatrix in="SourceAlpha" result="hardAlpha" values="0 0 0 0 0 0 0 0 0 0 0 0 0 0 0 0 0 0 127 0"/><feOffset dx="-1" dy="-1"/><feGaussianBlur stdDeviation="1.5"/><feComposite in2="hardAlpha" k2="-1" k3="1" operator="arithmetic"/><feColorMatrix values="0 0 0 0 0.984314 0 0 0 0 0.984314 0 0 0 0 0.984314 0 0 0 1 0"/><feBlend in2="effect1_innerShadow_72_1722" result="effect2_innerShadow_72_1722"/></filter></defs></svg>