<svg xmlns="http://www.w3.org/2000/svg" width="71" height="84" fill="none"><g filter="url(#a)"><path fill="#E0E0E0" d="M11 0C5.211 0 .5 4.711.5 10.5c0 4.557 2.937 8.407 7 9.856V80.58c0 1.89 1.53 3.42 3.42 3.42h.16c1.89 0 3.42-1.53 3.42-3.42V63.806c1.172-1.365 3.983-4.137 12.058-4.137 4.284 0 7.787 1.495 11.504 3.077 3.63 1.547 7.385 3.143 11.746 3.143 8.257 0 13.864-4.34 16.261-6.196l.535-.402c1.925-1.4 3.896-3.304 3.896-6.79V23.366c0-3.178-2.723-5.866-5.954-5.866-1.732 0-3.006 1.005-4.753 2.394-2.316 1.834-5.81 4.606-9.985 4.606-2.852 0-5.635-1.33-8.865-2.877-4.029-1.932-8.6-4.123-14.392-4.123-3.973 0-7.074.658-9.555 1.6a10.486 10.486 0 0 0 4.504-8.6C21.5 4.711 16.789 0 11 0Zm0 7a3.503 3.503 0 0 1 0 7 3.504 3.504 0 0 1 0-7Zm15.55 17.5c4.207 0 7.683 1.666 11.369 3.43 3.657 1.757 7.444 3.57 11.889 3.57 6.142 0 10.745-3.311 13.685-5.614v26.845c-.004.014-.157.28-1.012.896l-.7.535c-1.98 1.534-6.11 4.726-11.973 4.726-2.933 0-5.743-1.197-9.002-2.59-4-1.705-8.54-3.64-14.255-3.64-5.432 0-9.3 1.095-12.051 2.467V29.264c1.207-1.596 3.962-4.764 12.05-4.764Z"/></g><defs><filter id="a" width="72" height="86" x="-.5" y="-1" color-interpolation-filters="sRGB" filterUnits="userSpaceOnUse"><feFlood flood-opacity="0" result="BackgroundImageFix"/><feBlend in="SourceGraphic" in2="BackgroundImageFix" result="shape"/><feColorMatrix in="SourceAlpha" result="hardAlpha" values="0 0 0 0 0 0 0 0 0 0 0 0 0 0 0 0 0 0 127 0"/><feOffset dx="-1" dy="-1"/><feGaussianBlur stdDeviation="1.5"/><feComposite in2="hardAlpha" k2="-1" k3="1" operator="arithmetic"/><feColorMatrix values="0 0 0 0 0.984314 0 0 0 0 0.984314 0 0 0 0 0.984314 0 0 0 1 0"/><feBlend in2="shape" result="effect1_innerShadow_64_2150"/><feColorMatrix in="SourceAlpha" result="hardAlpha" values="0 0 0 0 0 0 0 0 0 0 0 0 0 0 0 0 0 0 127 0"/><feOffset dx="1" dy="1"/><feGaussianBlur stdDeviation="1.5"/><feComposite in2="hardAlpha" k2="-1" k3="1" operator="arithmetic"/><feColorMatrix values="0 0 0 0 0.772549 0 0 0 0 0.772549 0 0 0 0 0.772549 0 0 0 1 0"/><feBlend in2="effect1_innerShadow_64_2150" result="effect2_innerShadow_64_2150"/></filter></defs></svg>