<svg xmlns="http://www.w3.org/2000/svg" width="110" height="84" fill="none"><g filter="url(#a)"><path fill="#D4EAEE" d="m36.2 0-1.315 1.705L29.9 8.4H.5V84h109.2V8.4H80.3l-4.99-6.695L74 0H36.2Zm4.2 8.4h29.4l4.99 6.695L76.1 16.8h25.2v58.8H8.9V16.8h25.2l1.315-1.705L40.4 8.4ZM21.5 21c-2.31 0-4.2 1.89-4.2 4.2 0 2.31 1.89 4.2 4.2 4.2 2.31 0 4.2-1.89 4.2-4.2 0-2.31-1.89-4.2-4.2-4.2Zm33.6 0c-13.86 0-25.2 11.34-25.2 25.2s11.34 25.2 25.2 25.2 25.2-11.34 25.2-25.2S68.96 21 55.1 21Zm0 8.4c9.337 0 16.8 7.463 16.8 16.8S64.437 63 55.1 63s-16.8-7.463-16.8-16.8 7.463-16.8 16.8-16.8Z"/></g><defs><filter id="a" width="111.2" height="86" x="-.5" y="-1" color-interpolation-filters="sRGB" filterUnits="userSpaceOnUse"><feFlood flood-opacity="0" result="BackgroundImageFix"/><feBlend in="SourceGraphic" in2="BackgroundImageFix" result="shape"/><feColorMatrix in="SourceAlpha" result="hardAlpha" values="0 0 0 0 0 0 0 0 0 0 0 0 0 0 0 0 0 0 127 0"/><feOffset dx="-1" dy="-1"/><feGaussianBlur stdDeviation="1.5"/><feComposite in2="hardAlpha" k2="-1" k3="1" operator="arithmetic"/><feColorMatrix values="0 0 0 0 0.984314 0 0 0 0 0.984314 0 0 0 0 0.984314 0 0 0 1 0"/><feBlend in2="shape" result="effect1_innerShadow_64_2149"/><feColorMatrix in="SourceAlpha" result="hardAlpha" values="0 0 0 0 0 0 0 0 0 0 0 0 0 0 0 0 0 0 127 0"/><feOffset dx="1" dy="1"/><feGaussianBlur stdDeviation="1.5"/><feComposite in2="hardAlpha" k2="-1" k3="1" operator="arithmetic"/><feColorMatrix values="0 0 0 0 0.772549 0 0 0 0 0.772549 0 0 0 0 0.772549 0 0 0 1 0"/><feBlend in2="effect1_innerShadow_64_2149" result="effect2_innerShadow_64_2149"/></filter></defs></svg>