<svg xmlns="http://www.w3.org/2000/svg" width="85" height="84" fill="none"><g filter="url(#a)"><path fill="#E0E0E0" d="M35.502 0a7 7 0 0 0-7 7v.22L10.78 18.377A7.032 7.032 0 0 0 7.5 17.5a7 7 0 0 0-7 7c0 2.583 1.407 4.799 3.5 6.017v40.465C1.907 72.201.5 74.413.5 77a7 7 0 0 0 7 7c2.583 0 4.799-1.407 6.017-3.5h43.965C58.7 82.593 60.912 84 63.5 84a7 7 0 0 0 7-7c0-1.393-.385-2.734-1.095-3.83l8.537-17.168a7.018 7.018 0 0 0 .875-13.892l-6.672-20.014c1.106-1.246 1.86-2.807 1.86-4.595a7 7 0 0 0-7.001-7c-1.792 0-3.35.752-4.596 1.858l-20.01-6.78A7.042 7.042 0 0 0 35.502 0Zm4.595 12.25 20.014 6.563a7.04 7.04 0 0 0 5.58 5.58l6.67 19.905a6.966 6.966 0 0 0-1.858 4.704c0 1.45.451 2.818 1.204 3.938l-8.642 17.063a6.958 6.958 0 0 0-5.58 3.5H13.52A6.933 6.933 0 0 0 11 70.987V30.52c2.094-1.218 3.5-3.43 3.5-6.017v-.22l17.722-11.155c.98.518 2.09.875 3.28.875 1.764 0 3.36-.672 4.595-1.753Z"/></g><defs><filter id="a" width="85.998" height="86" x="-.5" y="-1" color-interpolation-filters="sRGB" filterUnits="userSpaceOnUse"><feFlood flood-opacity="0" result="BackgroundImageFix"/><feBlend in="SourceGraphic" in2="BackgroundImageFix" result="shape"/><feColorMatrix in="SourceAlpha" result="hardAlpha" values="0 0 0 0 0 0 0 0 0 0 0 0 0 0 0 0 0 0 127 0"/><feOffset dx="-1" dy="-1"/><feGaussianBlur stdDeviation="1.5"/><feComposite in2="hardAlpha" k2="-1" k3="1" operator="arithmetic"/><feColorMatrix values="0 0 0 0 0.984314 0 0 0 0 0.984314 0 0 0 0 0.984314 0 0 0 1 0"/><feBlend in2="shape" result="effect1_innerShadow_72_1711"/><feColorMatrix in="SourceAlpha" result="hardAlpha" values="0 0 0 0 0 0 0 0 0 0 0 0 0 0 0 0 0 0 127 0"/><feOffset dx="1" dy="1"/><feGaussianBlur stdDeviation="1.5"/><feComposite in2="hardAlpha" k2="-1" k3="1" operator="arithmetic"/><feColorMatrix values="0 0 0 0 0.772549 0 0 0 0 0.772549 0 0 0 0 0.772549 0 0 0 1 0"/><feBlend in2="effect1_innerShadow_72_1711" result="effect2_innerShadow_72_1711"/></filter></defs></svg>