<svg xmlns="http://www.w3.org/2000/svg" width="235" height="45" fill="none"><mask id="b" width="235" height="45" x=".12" y=".258" fill="#000" maskUnits="userSpaceOnUse"><path fill="#fff" d="M.12.258h235v45H.12z"/><path d="M1.12 43V1.75h6.281V43h-6.28Zm21.094.422c-1.797 0-3.281-.274-4.453-.82-1.172-.563-2.094-1.368-2.766-2.414-.656-1.047-1.117-2.32-1.383-3.82-.265-1.5-.398-3.196-.398-5.087v-11.39c0-2.594.242-4.82.726-6.68.485-1.86 1.375-3.29 2.672-4.29 1.313-1 3.203-1.5 5.672-1.5 1.516 0 2.797.235 3.844.704 1.047.469 1.89 1.148 2.531 2.04.64.874 1.102 1.937 1.383 3.187.297 1.25.445 2.656.445 4.218v3.867h-6V17.36c0-1.015-.047-1.882-.14-2.601-.094-.735-.305-1.29-.633-1.664-.328-.39-.852-.586-1.57-.586-.704 0-1.25.195-1.641.586-.39.39-.664.96-.82 1.71-.141.735-.211 1.618-.211 2.65v15.843c0 1.062.062 1.969.187 2.719.14.75.39 1.328.75 1.734.375.39.922.586 1.64.586.704 0 1.227-.203 1.571-.61.36-.421.594-1.007.703-1.757.11-.75.164-1.633.164-2.649v-4.172h6v3.563c0 1.61-.14 3.078-.422 4.406-.28 1.313-.742 2.438-1.382 3.375a6.432 6.432 0 0 1-2.555 2.18c-1.063.5-2.367.75-3.914.75Zm21.796 0c-1.687 0-3.1-.258-4.241-.774-1.141-.53-2.047-1.289-2.72-2.273-.655-1-1.132-2.21-1.429-3.633-.281-1.437-.422-3.07-.422-4.898V18.695c0-2.203.282-4.148.844-5.836.578-1.703 1.516-3.03 2.813-3.984 1.296-.969 3.015-1.453 5.156-1.453 1.625 0 2.992.273 4.101.82a6.654 6.654 0 0 1 2.696 2.344c.687 1 1.187 2.187 1.5 3.562.312 1.375.468 2.891.468 4.547v13.149c0 1.797-.14 3.406-.422 4.828-.265 1.422-.734 2.64-1.406 3.656-.656 1-1.547 1.766-2.672 2.297-1.125.531-2.547.797-4.265.797Zm0-5.016c.704 0 1.235-.21 1.595-.633.359-.437.601-1.039.726-1.804.125-.766.188-1.649.188-2.649V17.594c0-1.063-.07-1.977-.211-2.742-.141-.766-.391-1.36-.75-1.782-.36-.422-.875-.633-1.547-.633-.703 0-1.242.211-1.617.633-.36.422-.61 1.016-.75 1.782-.125.765-.188 1.68-.188 2.742V33.32c0 1 .063 1.883.188 2.649.14.765.39 1.367.75 1.804.375.422.914.633 1.617.633ZM58.425 43V7.844h6.21v4.031c.313-1.203.97-2.242 1.97-3.117 1-.89 2.226-1.336 3.68-1.336 2.03 0 3.554.68 4.57 2.039 1.015 1.344 1.523 3.297 1.523 5.86V43h-6.211V15.695c0-1.015-.234-1.812-.703-2.39-.453-.578-1.078-.867-1.875-.867-.64 0-1.188.18-1.64.539-.438.343-.766.828-.985 1.453-.219.61-.328 1.328-.328 2.156V43h-6.211Zm31.195.445c-2.828 0-4.93-.804-6.305-2.414s-2.062-4.242-2.062-7.898v-2.274h5.836v2.836c0 1.532.187 2.696.562 3.492.375.797.985 1.196 1.829 1.196.812 0 1.414-.274 1.804-.82.39-.547.586-1.493.586-2.836 0-.782-.117-1.54-.351-2.274a7.656 7.656 0 0 0-1.055-2.156c-.469-.719-1.078-1.414-1.828-2.086l-3.164-2.86c-1.453-1.312-2.54-2.726-3.258-4.242-.719-1.53-1.078-3.218-1.078-5.062 0-2.985.695-5.164 2.086-6.54 1.406-1.39 3.484-2.085 6.234-2.085 1.781 0 3.258.336 4.43 1.008 1.172.656 2.047 1.726 2.625 3.21.578 1.485.867 3.477.867 5.977v1.922h-5.555v-2.32c0-1.547-.18-2.719-.539-3.516-.344-.797-.937-1.195-1.781-1.195-.828 0-1.438.234-1.828.703-.39.453-.602 1.258-.633 2.414a6.212 6.212 0 0 0 .234 1.852c.172.593.438 1.18.797 1.757a9.29 9.29 0 0 0 1.453 1.664l3.329 3.024c1.75 1.578 3.039 3.226 3.867 4.945.843 1.719 1.265 3.578 1.265 5.578 0 2.953-.672 5.196-2.015 6.727-1.344 1.516-3.461 2.273-6.352 2.273Zm27.703.024c-2.328 0-4.164-.797-5.508-2.39-1.343-1.61-2.015-3.923-2.015-6.938 0-1.61.312-3.149.937-4.618a22.099 22.099 0 0 1 2.414-4.289 60.99 60.99 0 0 1 3.164-4.03 105.152 105.152 0 0 1-2.39-6.868c-.641-2.11-.961-3.734-.961-4.875 0-2.656.687-4.688 2.062-6.094 1.391-1.406 3.227-2.11 5.508-2.11 1.656 0 3.031.321 4.125.962 1.094.625 1.914 1.547 2.461 2.765.547 1.204.82 2.672.82 4.407 0 1.453-.257 2.867-.773 4.242a21.73 21.73 0 0 1-2.016 3.984 50.518 50.518 0 0 1-2.695 3.774l3.023 7.523a78.747 78.747 0 0 1 1.993-3.14 37.719 37.719 0 0 1 2.461-3.258l2.554 4.312a20.774 20.774 0 0 0-2.578 3.586 165.273 165.273 0 0 0-2.133 3.938L131.479 43h-5.812l-1.336-3.047a12.335 12.335 0 0 1-1.898 1.828 7.817 7.817 0 0 1-2.274 1.242c-.844.297-1.789.446-2.836.446Zm1.055-5.367a2.35 2.35 0 0 0 1.312-.399c.407-.266.805-.633 1.196-1.101.39-.485.789-1.055 1.195-1.711l-3.633-8.438a35.427 35.427 0 0 0-1.664 2.414 14.495 14.495 0 0 0-1.172 2.367 7.342 7.342 0 0 0-.492 2.32c-.047 1.485.195 2.618.727 3.4.547.765 1.39 1.148 2.531 1.148Zm2.133-21.914c.906-1.172 1.648-2.329 2.226-3.47.578-1.14.867-2.28.867-3.421 0-1.344-.164-2.313-.492-2.906-.328-.594-.953-.891-1.875-.891-.547 0-.992.11-1.336.328a2.208 2.208 0 0 0-.797.89c-.171.36-.289.759-.351 1.196a9.197 9.197 0 0 0-.094 1.313c0 .625.164 1.546.492 2.765a73.384 73.384 0 0 0 1.36 4.195ZM146.62 43V7.187h-4.828V1.75h15.727v5.438h-4.641V43h-6.258Zm21.563.422c-1.688 0-3.102-.258-4.243-.774-1.14-.53-2.046-1.289-2.718-2.273-.657-1-1.133-2.21-1.43-3.633-.281-1.437-.422-3.07-.422-4.898V18.695c0-2.203.281-4.148.844-5.836.578-1.703 1.515-3.03 2.812-3.984 1.297-.969 3.016-1.453 5.157-1.453 1.625 0 2.992.273 4.101.82a6.647 6.647 0 0 1 2.695 2.344c.688 1 1.188 2.187 1.5 3.562.313 1.375.469 2.891.469 4.547v13.149c0 1.797-.14 3.406-.422 4.828-.265 1.422-.734 2.64-1.406 3.656-.656 1-1.547 1.766-2.672 2.297-1.125.531-2.547.797-4.265.797Zm0-5.016c.703 0 1.234-.21 1.593-.633.36-.437.602-1.039.727-1.804.125-.766.187-1.649.187-2.649V17.594c0-1.063-.07-1.977-.211-2.742-.14-.766-.39-1.36-.75-1.782-.359-.422-.875-.633-1.546-.633-.704 0-1.243.211-1.618.633-.359.422-.609 1.016-.75 1.782-.125.765-.187 1.68-.187 2.742V33.32c0 1 .062 1.883.187 2.649.141.765.391 1.367.75 1.804.375.422.914.633 1.618.633Zm22.734 5.016c-1.688 0-3.102-.258-4.242-.774-1.141-.53-2.047-1.289-2.719-2.273-.656-1-1.133-2.21-1.43-3.633-.281-1.437-.422-3.07-.422-4.898V18.695c0-2.203.282-4.148.844-5.836.578-1.703 1.516-3.03 2.813-3.984 1.297-.969 3.015-1.453 5.156-1.453 1.625 0 2.992.273 4.102.82a6.654 6.654 0 0 1 2.695 2.344c.687 1 1.187 2.187 1.5 3.562.312 1.375.469 2.891.469 4.547v13.149c0 1.797-.141 3.406-.422 4.828-.266 1.422-.735 2.64-1.407 3.656-.656 1-1.546 1.766-2.671 2.297-1.125.531-2.547.797-4.266.797Zm0-5.016c.703 0 1.234-.21 1.594-.633.359-.437.601-1.039.726-1.804.125-.766.188-1.649.188-2.649V17.594c0-1.063-.071-1.977-.211-2.742-.141-.766-.391-1.36-.75-1.782-.36-.422-.875-.633-1.547-.633-.703 0-1.242.211-1.617.633-.36.422-.61 1.016-.75 1.782-.125.765-.188 1.68-.188 2.742V33.32c0 1 .063 1.883.188 2.649.14.765.39 1.367.75 1.804.375.422.914.633 1.617.633ZM205.354 43V1.398h6.188V43h-6.188Zm19.735.445c-2.828 0-4.93-.804-6.305-2.414s-2.062-4.242-2.062-7.898v-2.274h5.836v2.836c0 1.532.187 2.696.562 3.492.375.797.984 1.196 1.828 1.196.813 0 1.414-.274 1.805-.82.391-.547.586-1.493.586-2.836 0-.782-.117-1.54-.352-2.274a7.64 7.64 0 0 0-1.054-2.156c-.469-.719-1.079-1.414-1.829-2.086l-3.164-2.86c-1.453-1.312-2.539-2.726-3.257-4.242-.719-1.53-1.079-3.218-1.079-5.062 0-2.985.696-5.164 2.086-6.54 1.407-1.39 3.485-2.085 6.235-2.085 1.781 0 3.258.336 4.429 1.008 1.172.656 2.047 1.726 2.625 3.21.579 1.485.868 3.477.868 5.977v1.922h-5.555v-2.32c0-1.547-.18-2.719-.539-3.516-.344-.797-.938-1.195-1.781-1.195-.828 0-1.438.234-1.828.703-.391.453-.602 1.258-.633 2.414a6.196 6.196 0 0 0 .234 1.852c.172.593.438 1.18.797 1.757a9.294 9.294 0 0 0 1.453 1.664l3.328 3.024c1.75 1.578 3.039 3.226 3.867 4.945.844 1.719 1.266 3.578 1.266 5.578 0 2.953-.672 5.196-2.016 6.727-1.343 1.516-3.461 2.273-6.351 2.273Z"/></mask><g fill="#E0E0E0" filter="url(#a)"><path d="M1.12 43V1.75h6.281V43h-6.28Zm21.094.422c-1.797 0-3.281-.274-4.453-.82-1.172-.563-2.094-1.368-2.766-2.414-.656-1.047-1.117-2.32-1.383-3.82-.265-1.5-.398-3.196-.398-5.087v-11.39c0-2.594.242-4.82.726-6.68.485-1.86 1.375-3.29 2.672-4.29 1.313-1 3.203-1.5 5.672-1.5 1.516 0 2.797.235 3.844.704 1.047.469 1.89 1.148 2.531 2.04.64.874 1.102 1.937 1.383 3.187.297 1.25.445 2.656.445 4.218v3.867h-6V17.36c0-1.015-.047-1.882-.14-2.601-.094-.735-.305-1.29-.633-1.664-.328-.39-.852-.586-1.57-.586-.704 0-1.25.195-1.641.586-.39.39-.664.96-.82 1.71-.141.735-.211 1.618-.211 2.65v15.843c0 1.062.062 1.969.187 2.719.14.75.39 1.328.75 1.734.375.39.922.586 1.64.586.704 0 1.227-.203 1.571-.61.36-.421.594-1.007.703-1.757.11-.75.164-1.633.164-2.649v-4.172h6v3.563c0 1.61-.14 3.078-.422 4.406-.28 1.313-.742 2.438-1.382 3.375a6.432 6.432 0 0 1-2.555 2.18c-1.063.5-2.367.75-3.914.75Zm21.796 0c-1.687 0-3.1-.258-4.241-.774-1.141-.53-2.047-1.289-2.72-2.273-.655-1-1.132-2.21-1.429-3.633-.281-1.437-.422-3.07-.422-4.898V18.695c0-2.203.282-4.148.844-5.836.578-1.703 1.516-3.03 2.813-3.984 1.296-.969 3.015-1.453 5.156-1.453 1.625 0 2.992.273 4.101.82a6.654 6.654 0 0 1 2.696 2.344c.687 1 1.187 2.187 1.5 3.562.312 1.375.468 2.891.468 4.547v13.149c0 1.797-.14 3.406-.422 4.828-.265 1.422-.734 2.64-1.406 3.656-.656 1-1.547 1.766-2.672 2.297-1.125.531-2.547.797-4.265.797Zm0-5.016c.704 0 1.235-.21 1.595-.633.359-.437.601-1.039.726-1.804.125-.766.188-1.649.188-2.649V17.594c0-1.063-.07-1.977-.211-2.742-.141-.766-.391-1.36-.75-1.782-.36-.422-.875-.633-1.547-.633-.703 0-1.242.211-1.617.633-.36.422-.61 1.016-.75 1.782-.125.765-.188 1.68-.188 2.742V33.32c0 1 .063 1.883.188 2.649.14.765.39 1.367.75 1.804.375.422.914.633 1.617.633ZM58.425 43V7.844h6.21v4.031c.313-1.203.97-2.242 1.97-3.117 1-.89 2.226-1.336 3.68-1.336 2.03 0 3.554.68 4.57 2.039 1.015 1.344 1.523 3.297 1.523 5.86V43h-6.211V15.695c0-1.015-.234-1.812-.703-2.39-.453-.578-1.078-.867-1.875-.867-.64 0-1.188.18-1.64.539-.438.343-.766.828-.985 1.453-.219.61-.328 1.328-.328 2.156V43h-6.211Zm31.195.445c-2.828 0-4.93-.804-6.305-2.414s-2.062-4.242-2.062-7.898v-2.274h5.836v2.836c0 1.532.187 2.696.562 3.492.375.797.985 1.196 1.829 1.196.812 0 1.414-.274 1.804-.82.39-.547.586-1.493.586-2.836 0-.782-.117-1.54-.351-2.274a7.656 7.656 0 0 0-1.055-2.156c-.469-.719-1.078-1.414-1.828-2.086l-3.164-2.86c-1.453-1.312-2.54-2.726-3.258-4.242-.719-1.53-1.078-3.218-1.078-5.062 0-2.985.695-5.164 2.086-6.54 1.406-1.39 3.484-2.085 6.234-2.085 1.781 0 3.258.336 4.43 1.008 1.172.656 2.047 1.726 2.625 3.21.578 1.485.867 3.477.867 5.977v1.922h-5.555v-2.32c0-1.547-.18-2.719-.539-3.516-.344-.797-.937-1.195-1.781-1.195-.828 0-1.438.234-1.828.703-.39.453-.602 1.258-.633 2.414a6.212 6.212 0 0 0 .234 1.852c.172.593.438 1.18.797 1.757a9.29 9.29 0 0 0 1.453 1.664l3.329 3.024c1.75 1.578 3.039 3.226 3.867 4.945.843 1.719 1.265 3.578 1.265 5.578 0 2.953-.672 5.196-2.015 6.727-1.344 1.516-3.461 2.273-6.352 2.273Zm27.703.024c-2.328 0-4.164-.797-5.508-2.39-1.343-1.61-2.015-3.923-2.015-6.938 0-1.61.312-3.149.937-4.618a22.099 22.099 0 0 1 2.414-4.289 60.99 60.99 0 0 1 3.164-4.03 105.152 105.152 0 0 1-2.39-6.868c-.641-2.11-.961-3.734-.961-4.875 0-2.656.687-4.688 2.062-6.094 1.391-1.406 3.227-2.11 5.508-2.11 1.656 0 3.031.321 4.125.962 1.094.625 1.914 1.547 2.461 2.765.547 1.204.82 2.672.82 4.407 0 1.453-.257 2.867-.773 4.242a21.73 21.73 0 0 1-2.016 3.984 50.518 50.518 0 0 1-2.695 3.774l3.023 7.523a78.747 78.747 0 0 1 1.993-3.14 37.719 37.719 0 0 1 2.461-3.258l2.554 4.312a20.774 20.774 0 0 0-2.578 3.586 165.273 165.273 0 0 0-2.133 3.938L131.479 43h-5.812l-1.336-3.047a12.335 12.335 0 0 1-1.898 1.828 7.817 7.817 0 0 1-2.274 1.242c-.844.297-1.789.446-2.836.446Zm1.055-5.367a2.35 2.35 0 0 0 1.312-.399c.407-.266.805-.633 1.196-1.101.39-.485.789-1.055 1.195-1.711l-3.633-8.438a35.427 35.427 0 0 0-1.664 2.414 14.495 14.495 0 0 0-1.172 2.367 7.342 7.342 0 0 0-.492 2.32c-.047 1.485.195 2.618.727 3.4.547.765 1.39 1.148 2.531 1.148Zm2.133-21.914c.906-1.172 1.648-2.329 2.226-3.47.578-1.14.867-2.28.867-3.421 0-1.344-.164-2.313-.492-2.906-.328-.594-.953-.891-1.875-.891-.547 0-.992.11-1.336.328a2.208 2.208 0 0 0-.797.89c-.171.36-.289.759-.351 1.196a9.197 9.197 0 0 0-.094 1.313c0 .625.164 1.546.492 2.765a73.384 73.384 0 0 0 1.36 4.195ZM146.62 43V7.187h-4.828V1.75h15.727v5.438h-4.641V43h-6.258Zm21.563.422c-1.688 0-3.102-.258-4.243-.774-1.14-.53-2.046-1.289-2.718-2.273-.657-1-1.133-2.21-1.43-3.633-.281-1.437-.422-3.07-.422-4.898V18.695c0-2.203.281-4.148.844-5.836.578-1.703 1.515-3.03 2.812-3.984 1.297-.969 3.016-1.453 5.157-1.453 1.625 0 2.992.273 4.101.82a6.647 6.647 0 0 1 2.695 2.344c.688 1 1.188 2.187 1.5 3.562.313 1.375.469 2.891.469 4.547v13.149c0 1.797-.14 3.406-.422 4.828-.265 1.422-.734 2.64-1.406 3.656-.656 1-1.547 1.766-2.672 2.297-1.125.531-2.547.797-4.265.797Zm0-5.016c.703 0 1.234-.21 1.593-.633.36-.437.602-1.039.727-1.804.125-.766.187-1.649.187-2.649V17.594c0-1.063-.07-1.977-.211-2.742-.14-.766-.39-1.36-.75-1.782-.359-.422-.875-.633-1.546-.633-.704 0-1.243.211-1.618.633-.359.422-.609 1.016-.75 1.782-.125.765-.187 1.68-.187 2.742V33.32c0 1 .062 1.883.187 2.649.141.765.391 1.367.75 1.804.375.422.914.633 1.618.633Zm22.734 5.016c-1.688 0-3.102-.258-4.242-.774-1.141-.53-2.047-1.289-2.719-2.273-.656-1-1.133-2.21-1.43-3.633-.281-1.437-.422-3.07-.422-4.898V18.695c0-2.203.282-4.148.844-5.836.578-1.703 1.516-3.03 2.813-3.984 1.297-.969 3.015-1.453 5.156-1.453 1.625 0 2.992.273 4.102.82a6.654 6.654 0 0 1 2.695 2.344c.687 1 1.187 2.187 1.5 3.562.312 1.375.469 2.891.469 4.547v13.149c0 1.797-.141 3.406-.422 4.828-.266 1.422-.735 2.64-1.407 3.656-.656 1-1.546 1.766-2.671 2.297-1.125.531-2.547.797-4.266.797Zm0-5.016c.703 0 1.234-.21 1.594-.633.359-.437.601-1.039.726-1.804.125-.766.188-1.649.188-2.649V17.594c0-1.063-.071-1.977-.211-2.742-.141-.766-.391-1.36-.75-1.782-.36-.422-.875-.633-1.547-.633-.703 0-1.242.211-1.617.633-.36.422-.61 1.016-.75 1.782-.125.765-.188 1.68-.188 2.742V33.32c0 1 .063 1.883.188 2.649.14.765.39 1.367.75 1.804.375.422.914.633 1.617.633ZM205.354 43V1.398h6.188V43h-6.188Zm19.735.445c-2.828 0-4.93-.804-6.305-2.414s-2.062-4.242-2.062-7.898v-2.274h5.836v2.836c0 1.532.187 2.696.562 3.492.375.797.984 1.196 1.828 1.196.813 0 1.414-.274 1.805-.82.391-.547.586-1.493.586-2.836 0-.782-.117-1.54-.352-2.274a7.64 7.64 0 0 0-1.054-2.156c-.469-.719-1.079-1.414-1.829-2.086l-3.164-2.86c-1.453-1.312-2.539-2.726-3.257-4.242-.719-1.53-1.079-3.218-1.079-5.062 0-2.985.696-5.164 2.086-6.54 1.407-1.39 3.485-2.085 6.235-2.085 1.781 0 3.258.336 4.429 1.008 1.172.656 2.047 1.726 2.625 3.21.579 1.485.868 3.477.868 5.977v1.922h-5.555v-2.32c0-1.547-.18-2.719-.539-3.516-.344-.797-.938-1.195-1.781-1.195-.828 0-1.438.234-1.828.703-.391.453-.602 1.258-.633 2.414a6.196 6.196 0 0 0 .234 1.852c.172.593.438 1.18.797 1.757a9.294 9.294 0 0 0 1.453 1.664l3.328 3.024c1.75 1.578 3.039 3.226 3.867 4.945.844 1.719 1.266 3.578 1.266 5.578 0 2.953-.672 5.196-2.016 6.727-1.343 1.516-3.461 2.273-6.351 2.273Z"/></g><path stroke="#EAEAEA" stroke-width="2" d="M1.12 43V1.75h6.281V43h-6.28Zm21.094.422c-1.797 0-3.281-.274-4.453-.82-1.172-.563-2.094-1.368-2.766-2.414-.656-1.047-1.117-2.32-1.383-3.82-.265-1.5-.398-3.196-.398-5.087v-11.39c0-2.594.242-4.82.726-6.68.485-1.86 1.375-3.29 2.672-4.29 1.313-1 3.203-1.5 5.672-1.5 1.516 0 2.797.235 3.844.704 1.047.469 1.89 1.148 2.531 2.04.64.874 1.102 1.937 1.383 3.187.297 1.25.445 2.656.445 4.218v3.867h-6V17.36c0-1.015-.047-1.882-.14-2.601-.094-.735-.305-1.29-.633-1.664-.328-.39-.852-.586-1.57-.586-.704 0-1.25.195-1.641.586-.39.39-.664.96-.82 1.71-.141.735-.211 1.618-.211 2.65v15.843c0 1.062.062 1.969.187 2.719.14.75.39 1.328.75 1.734.375.39.922.586 1.64.586.704 0 1.227-.203 1.571-.61.36-.421.594-1.007.703-1.757.11-.75.164-1.633.164-2.649v-4.172h6v3.563c0 1.61-.14 3.078-.422 4.406-.28 1.313-.742 2.438-1.382 3.375a6.432 6.432 0 0 1-2.555 2.18c-1.063.5-2.367.75-3.914.75Zm21.796 0c-1.687 0-3.1-.258-4.241-.774-1.141-.53-2.047-1.289-2.72-2.273-.655-1-1.132-2.21-1.429-3.633-.281-1.437-.422-3.07-.422-4.898V18.695c0-2.203.282-4.148.844-5.836.578-1.703 1.516-3.03 2.813-3.984 1.296-.969 3.015-1.453 5.156-1.453 1.625 0 2.992.273 4.101.82a6.654 6.654 0 0 1 2.696 2.344c.687 1 1.187 2.187 1.5 3.562.312 1.375.468 2.891.468 4.547v13.149c0 1.797-.14 3.406-.422 4.828-.265 1.422-.734 2.64-1.406 3.656-.656 1-1.547 1.766-2.672 2.297-1.125.531-2.547.797-4.265.797Zm0-5.016c.704 0 1.235-.21 1.595-.633.359-.437.601-1.039.726-1.804.125-.766.188-1.649.188-2.649V17.594c0-1.063-.07-1.977-.211-2.742-.141-.766-.391-1.36-.75-1.782-.36-.422-.875-.633-1.547-.633-.703 0-1.242.211-1.617.633-.36.422-.61 1.016-.75 1.782-.125.765-.188 1.68-.188 2.742V33.32c0 1 .063 1.883.188 2.649.14.765.39 1.367.75 1.804.375.422.914.633 1.617.633ZM58.425 43V7.844h6.21v4.031c.313-1.203.97-2.242 1.97-3.117 1-.89 2.226-1.336 3.68-1.336 2.03 0 3.554.68 4.57 2.039 1.015 1.344 1.523 3.297 1.523 5.86V43h-6.211V15.695c0-1.015-.234-1.812-.703-2.39-.453-.578-1.078-.867-1.875-.867-.64 0-1.188.18-1.64.539-.438.343-.766.828-.985 1.453-.219.61-.328 1.328-.328 2.156V43h-6.211Zm31.195.445c-2.828 0-4.93-.804-6.305-2.414s-2.062-4.242-2.062-7.898v-2.274h5.836v2.836c0 1.532.187 2.696.562 3.492.375.797.985 1.196 1.829 1.196.812 0 1.414-.274 1.804-.82.39-.547.586-1.493.586-2.836 0-.782-.117-1.54-.351-2.274a7.656 7.656 0 0 0-1.055-2.156c-.469-.719-1.078-1.414-1.828-2.086l-3.164-2.86c-1.453-1.312-2.54-2.726-3.258-4.242-.719-1.53-1.078-3.218-1.078-5.062 0-2.985.695-5.164 2.086-6.54 1.406-1.39 3.484-2.085 6.234-2.085 1.781 0 3.258.336 4.43 1.008 1.172.656 2.047 1.726 2.625 3.21.578 1.485.867 3.477.867 5.977v1.922h-5.555v-2.32c0-1.547-.18-2.719-.539-3.516-.344-.797-.937-1.195-1.781-1.195-.828 0-1.438.234-1.828.703-.39.453-.602 1.258-.633 2.414a6.212 6.212 0 0 0 .234 1.852c.172.593.438 1.18.797 1.757a9.29 9.29 0 0 0 1.453 1.664l3.329 3.024c1.75 1.578 3.039 3.226 3.867 4.945.843 1.719 1.265 3.578 1.265 5.578 0 2.953-.672 5.196-2.015 6.727-1.344 1.516-3.461 2.273-6.352 2.273Zm27.703.024c-2.328 0-4.164-.797-5.508-2.39-1.343-1.61-2.015-3.923-2.015-6.938 0-1.61.312-3.149.937-4.618a22.099 22.099 0 0 1 2.414-4.289 60.99 60.99 0 0 1 3.164-4.03 105.152 105.152 0 0 1-2.39-6.868c-.641-2.11-.961-3.734-.961-4.875 0-2.656.687-4.688 2.062-6.094 1.391-1.406 3.227-2.11 5.508-2.11 1.656 0 3.031.321 4.125.962 1.094.625 1.914 1.547 2.461 2.765.547 1.204.82 2.672.82 4.407 0 1.453-.257 2.867-.773 4.242a21.73 21.73 0 0 1-2.016 3.984 50.518 50.518 0 0 1-2.695 3.774l3.023 7.523a78.747 78.747 0 0 1 1.993-3.14 37.719 37.719 0 0 1 2.461-3.258l2.554 4.312a20.774 20.774 0 0 0-2.578 3.586 165.273 165.273 0 0 0-2.133 3.938L131.479 43h-5.812l-1.336-3.047a12.335 12.335 0 0 1-1.898 1.828 7.817 7.817 0 0 1-2.274 1.242c-.844.297-1.789.446-2.836.446Zm1.055-5.367a2.35 2.35 0 0 0 1.312-.399c.407-.266.805-.633 1.196-1.101.39-.485.789-1.055 1.195-1.711l-3.633-8.438a35.427 35.427 0 0 0-1.664 2.414 14.495 14.495 0 0 0-1.172 2.367 7.342 7.342 0 0 0-.492 2.32c-.047 1.485.195 2.618.727 3.4.547.765 1.39 1.148 2.531 1.148Zm2.133-21.914c.906-1.172 1.648-2.329 2.226-3.47.578-1.14.867-2.28.867-3.421 0-1.344-.164-2.313-.492-2.906-.328-.594-.953-.891-1.875-.891-.547 0-.992.11-1.336.328a2.208 2.208 0 0 0-.797.89c-.171.36-.289.759-.351 1.196a9.197 9.197 0 0 0-.094 1.313c0 .625.164 1.546.492 2.765a73.384 73.384 0 0 0 1.36 4.195ZM146.62 43V7.187h-4.828V1.75h15.727v5.438h-4.641V43h-6.258Zm21.563.422c-1.688 0-3.102-.258-4.243-.774-1.14-.53-2.046-1.289-2.718-2.273-.657-1-1.133-2.21-1.43-3.633-.281-1.437-.422-3.07-.422-4.898V18.695c0-2.203.281-4.148.844-5.836.578-1.703 1.515-3.03 2.812-3.984 1.297-.969 3.016-1.453 5.157-1.453 1.625 0 2.992.273 4.101.82a6.647 6.647 0 0 1 2.695 2.344c.688 1 1.188 2.187 1.5 3.562.313 1.375.469 2.891.469 4.547v13.149c0 1.797-.14 3.406-.422 4.828-.265 1.422-.734 2.64-1.406 3.656-.656 1-1.547 1.766-2.672 2.297-1.125.531-2.547.797-4.265.797Zm0-5.016c.703 0 1.234-.21 1.593-.633.36-.437.602-1.039.727-1.804.125-.766.187-1.649.187-2.649V17.594c0-1.063-.07-1.977-.211-2.742-.14-.766-.39-1.36-.75-1.782-.359-.422-.875-.633-1.546-.633-.704 0-1.243.211-1.618.633-.359.422-.609 1.016-.75 1.782-.125.765-.187 1.68-.187 2.742V33.32c0 1 .062 1.883.187 2.649.141.765.391 1.367.75 1.804.375.422.914.633 1.618.633Zm22.734 5.016c-1.688 0-3.102-.258-4.242-.774-1.141-.53-2.047-1.289-2.719-2.273-.656-1-1.133-2.21-1.43-3.633-.281-1.437-.422-3.07-.422-4.898V18.695c0-2.203.282-4.148.844-5.836.578-1.703 1.516-3.03 2.813-3.984 1.297-.969 3.015-1.453 5.156-1.453 1.625 0 2.992.273 4.102.82a6.654 6.654 0 0 1 2.695 2.344c.687 1 1.187 2.187 1.5 3.562.312 1.375.469 2.891.469 4.547v13.149c0 1.797-.141 3.406-.422 4.828-.266 1.422-.735 2.64-1.407 3.656-.656 1-1.546 1.766-2.671 2.297-1.125.531-2.547.797-4.266.797Zm0-5.016c.703 0 1.234-.21 1.594-.633.359-.437.601-1.039.726-1.804.125-.766.188-1.649.188-2.649V17.594c0-1.063-.071-1.977-.211-2.742-.141-.766-.391-1.36-.75-1.782-.36-.422-.875-.633-1.547-.633-.703 0-1.242.211-1.617.633-.36.422-.61 1.016-.75 1.782-.125.765-.188 1.68-.188 2.742V33.32c0 1 .063 1.883.188 2.649.14.765.39 1.367.75 1.804.375.422.914.633 1.617.633ZM205.354 43V1.398h6.188V43h-6.188Zm19.735.445c-2.828 0-4.93-.804-6.305-2.414s-2.062-4.242-2.062-7.898v-2.274h5.836v2.836c0 1.532.187 2.696.562 3.492.375.797.984 1.196 1.828 1.196.813 0 1.414-.274 1.805-.82.391-.547.586-1.493.586-2.836 0-.782-.117-1.54-.352-2.274a7.64 7.64 0 0 0-1.054-2.156c-.469-.719-1.079-1.414-1.829-2.086l-3.164-2.86c-1.453-1.312-2.539-2.726-3.257-4.242-.719-1.53-1.079-3.218-1.079-5.062 0-2.985.696-5.164 2.086-6.54 1.407-1.39 3.485-2.085 6.235-2.085 1.781 0 3.258.336 4.429 1.008 1.172.656 2.047 1.726 2.625 3.21.579 1.485.868 3.477.868 5.977v1.922h-5.555v-2.32c0-1.547-.18-2.719-.539-3.516-.344-.797-.938-1.195-1.781-1.195-.828 0-1.438.234-1.828.703-.391.453-.602 1.258-.633 2.414a6.196 6.196 0 0 0 .234 1.852c.172.593.438 1.18.797 1.757a9.294 9.294 0 0 0 1.453 1.664l3.328 3.024c1.75 1.578 3.039 3.226 3.867 4.945.844 1.719 1.266 3.578 1.266 5.578 0 2.953-.672 5.196-2.016 6.727-1.343 1.516-3.461 2.273-6.351 2.273Z" mask="url(#b)"/><defs><filter id="a" width="238.336" height="48.211" x="-.88" y="-.742" color-interpolation-filters="sRGB" filterUnits="userSpaceOnUse"><feFlood flood-opacity="0" result="BackgroundImageFix"/><feBlend in="SourceGraphic" in2="BackgroundImageFix" result="shape"/><feColorMatrix in="SourceAlpha" result="hardAlpha" values="0 0 0 0 0 0 0 0 0 0 0 0 0 0 0 0 0 0 127 0"/><feOffset dx="-1" dy="-1"/><feGaussianBlur stdDeviation="1.5"/><feComposite in2="hardAlpha" k2="-1" k3="1" operator="arithmetic"/><feColorMatrix values="0 0 0 0 0.984314 0 0 0 0 0.984314 0 0 0 0 0.984314 0 0 0 1 0"/><feBlend in2="shape" result="effect1_innerShadow_127_2787"/><feColorMatrix in="SourceAlpha" result="hardAlpha" values="0 0 0 0 0 0 0 0 0 0 0 0 0 0 0 0 0 0 127 0"/><feOffset dx="3" dy="3"/><feGaussianBlur stdDeviation="4.5"/><feComposite in2="hardAlpha" k2="-1" k3="1" operator="arithmetic"/><feColorMatrix values="0 0 0 0 0.772549 0 0 0 0 0.772549 0 0 0 0 0.772549 0 0 0 1 0"/><feBlend in2="effect1_innerShadow_127_2787" result="effect2_innerShadow_127_2787"/></filter></defs></svg>