<svg xmlns="http://www.w3.org/2000/svg" width="383" height="53" fill="none"><mask id="b" width="383" height="52" x=".128" y=".219" fill="#000" maskUnits="userSpaceOnUse"><path fill="#fff" d="M.128.219h383v52h-383z"/><path d="M1.128 45V3.75h9.258c2.094 0 3.773.422 5.039 1.266 1.265.828 2.18 2.03 2.742 3.609.578 1.578.867 3.484.867 5.719l.024 18.61c0 2.702-.297 4.952-.891 6.75-.578 1.78-1.516 3.108-2.813 3.983-1.296.876-3.023 1.313-5.18 1.313H1.129Zm6.281-4.875h2.063c.734 0 1.343-.148 1.828-.445.5-.297.867-.82 1.101-1.57.25-.766.375-1.844.375-3.235l-.023-20.367c0-2.11-.258-3.625-.774-4.547-.515-.922-1.421-1.383-2.718-1.383H7.409v31.547Zm25.524 5.297c-1.766 0-3.22-.281-4.36-.844a6.336 6.336 0 0 1-2.648-2.437c-.625-1.063-1.063-2.336-1.313-3.82-.25-1.5-.375-3.173-.375-5.016V20.203c0-1.64.164-3.125.493-4.453.343-1.328.867-2.46 1.57-3.398.719-.938 1.648-1.657 2.789-2.157 1.14-.515 2.516-.773 4.125-.773 1.64 0 3.008.25 4.101.75 1.094.5 1.954 1.226 2.579 2.18.64.953 1.093 2.101 1.359 3.445.281 1.328.422 2.836.422 4.523v7.524h-11.18v6.914c0 1.703.133 3.07.399 4.101.265 1.032.992 1.547 2.18 1.547.796 0 1.359-.242 1.687-.726.343-.485.547-1.149.61-1.992.077-.86.116-1.836.116-2.93v-3.094h6.14v1.875c0 1.89-.116 3.57-.35 5.04-.22 1.468-.641 2.71-1.266 3.726-.61 1.015-1.485 1.789-2.625 2.32-1.14.531-2.625.797-4.453.797ZM30.472 24.21h5.015v-4.5c0-1.172-.054-2.156-.164-2.953-.11-.813-.328-1.422-.656-1.828-.328-.407-.828-.61-1.5-.61-.828 0-1.438.242-1.828.727-.375.484-.617 1.148-.727 1.992-.093.828-.14 1.773-.14 2.836v4.336ZM50.019 45 44.933 9.844h5.859l2.273 18.703.774 8.414h.469l.656-8.438 1.945-18.68h5.813L57.636 45h-7.617Zm33.961.469c-2 0-3.665-.461-4.993-1.383-1.328-.922-2.328-2.266-3-4.031-.656-1.782-.984-3.93-.984-6.446V15.633c0-1.89.156-3.594.469-5.11.312-1.515.82-2.812 1.523-3.89a6.98 6.98 0 0 1 2.813-2.485c1.171-.578 2.617-.867 4.336-.867 1.562 0 2.89.258 3.984.774a6.6 6.6 0 0 1 2.695 2.18c.703.952 1.211 2.109 1.524 3.468.328 1.344.492 2.86.492 4.547v5.672h-6.07v-5.274c0-2.03-.172-3.523-.516-4.476-.344-.969-1.031-1.453-2.063-1.453-1.14 0-1.906.523-2.296 1.57-.375 1.031-.563 2.477-.563 4.336v19.266c0 1.437.078 2.617.234 3.539.172.906.454 1.578.844 2.015.39.422.938.633 1.64.633 1.063 0 1.782-.5 2.157-1.5s.563-2.586.563-4.758v-5.906h6.164v5.836c0 2.61-.305 4.79-.914 6.54-.61 1.733-1.579 3.03-2.907 3.89-1.312.86-3.023 1.289-5.132 1.289Zm22.57-.047c-1.688 0-3.102-.258-4.242-.774-1.141-.53-2.047-1.289-2.72-2.273-.655-1-1.132-2.21-1.429-3.633-.281-1.437-.422-3.07-.422-4.898V20.695c0-2.203.282-4.148.844-5.836.578-1.703 1.516-3.03 2.813-3.984 1.296-.969 3.015-1.453 5.156-1.453 1.625 0 2.992.273 4.101.82a6.657 6.657 0 0 1 2.696 2.344c.687 1 1.187 2.187 1.5 3.562.312 1.375.468 2.891.468 4.547v13.149c0 1.797-.14 3.406-.421 4.828-.266 1.422-.735 2.64-1.407 3.656-.656 1-1.547 1.766-2.672 2.297-1.125.531-2.546.797-4.265.797Zm0-5.016c.703 0 1.234-.21 1.594-.633.359-.437.601-1.039.726-1.804.125-.766.188-1.649.188-2.649V19.594c0-1.063-.071-1.977-.211-2.742-.141-.766-.391-1.36-.75-1.782-.36-.422-.875-.633-1.547-.633-.703 0-1.242.211-1.617.633-.36.422-.61 1.016-.75 1.782-.125.765-.188 1.68-.188 2.742V35.32c0 1 .063 1.883.188 2.649.14.765.39 1.367.75 1.804.375.422.914.633 1.617.633ZM120.964 45V9.844h6.211v3.82c.344-1.25.969-2.266 1.875-3.047.922-.797 2.172-1.195 3.75-1.195 1.203 0 2.25.265 3.14.797.891.531 1.579 1.445 2.063 2.742.594-1.094 1.375-1.953 2.344-2.578.968-.64 2.179-.961 3.632-.961 2.282 0 3.899.765 4.852 2.297.953 1.531 1.43 3.648 1.43 6.351V45h-6.188V18c0-1.25-.211-2.14-.633-2.672-.421-.547-1-.82-1.734-.82-.937 0-1.672.328-2.203.984-.516.64-.774 1.586-.774 2.836V45h-6.21V17.953c0-1.047-.18-1.883-.54-2.508-.343-.625-.929-.937-1.757-.937-1.078 0-1.86.414-2.344 1.242-.469.813-.703 1.781-.703 2.906V45h-6.211Zm35.25 0V9.844h6.211v3.82c.344-1.25.969-2.266 1.875-3.047.922-.797 2.172-1.195 3.75-1.195 1.203 0 2.25.265 3.14.797.891.531 1.579 1.445 2.063 2.742.594-1.094 1.375-1.953 2.344-2.578.968-.64 2.179-.961 3.632-.961 2.282 0 3.899.765 4.852 2.297.953 1.531 1.43 3.648 1.43 6.351V45h-6.188V18c0-1.25-.211-2.14-.633-2.672-.421-.547-1-.82-1.734-.82-.937 0-1.672.328-2.203.984-.516.64-.774 1.586-.774 2.836V45h-6.21V17.953c0-1.047-.18-1.883-.54-2.508-.343-.625-.929-.937-1.757-.937-1.078 0-1.86.414-2.344 1.242-.469.813-.703 1.781-.703 2.906V45h-6.211Zm41.297.445c-1.391 0-2.555-.312-3.492-.937-.922-.625-1.618-1.555-2.086-2.79-.454-1.25-.68-2.812-.68-4.687V9.844h6.234V36.07c0 1.344.164 2.39.492 3.14.329.75 1.016 1.126 2.063 1.126 1.094 0 1.836-.422 2.227-1.266.406-.86.609-1.843.609-2.953l.023-26.273h6.188V45h-6.211v-3.656c-.438 1.187-1.07 2.172-1.899 2.953-.828.766-1.984 1.148-3.468 1.148ZM215.136 45V9.844h6.211v4.031c.312-1.203.968-2.242 1.968-3.117 1-.89 2.227-1.336 3.68-1.336 2.031 0 3.555.68 4.57 2.039 1.016 1.344 1.524 3.297 1.524 5.86V45h-6.211V17.695c0-1.015-.234-1.812-.703-2.39-.453-.578-1.078-.867-1.875-.867-.641 0-1.188.18-1.641.539-.437.343-.765.828-.984 1.453-.219.61-.328 1.328-.328 2.156V45h-6.211Zm24.023 0V9.844h6.211V45h-6.211Zm-.023-38.39V1.218h6.258v5.39h-6.258Zm18.867 38.624c-1.5 0-2.649-.187-3.445-.562a3.15 3.15 0 0 1-1.641-1.828c-.297-.828-.445-1.899-.445-3.211V15.07h-2.86v-4.5h2.86V3.75h6.211v6.82h3.421v4.5h-3.421v23.485c0 .547.086.96.257 1.242.172.281.508.469 1.008.562.516.094 1.274.141 2.274.141v4.734h-4.219Zm7.617 5.976v-4.288h2.039c.688 0 1.266-.063 1.735-.188.468-.109.734-.359.796-.75.11-.203.149-.562.118-1.078a21.177 21.177 0 0 0-.141-1.5l-5.625-33.562h5.906l2.25 17.976.938 9.47h.515l.844-9.47 2.063-17.976h5.882L276.847 46.5c-.172 1.11-.414 2.008-.727 2.695-.297.703-.75 1.211-1.359 1.524-.61.328-1.453.492-2.532.492h-6.609Zm37.313-5.741c-1.719 0-3.157-.266-4.313-.797a6.56 6.56 0 0 1-2.719-2.367c-.656-1.047-1.125-2.313-1.406-3.797-.281-1.5-.422-3.203-.422-5.11v-3.68h5.953v4.15c0 2.218.188 3.812.563 4.78.375.97 1.117 1.454 2.226 1.454.75 0 1.313-.172 1.688-.516.391-.36.648-.922.773-1.688.141-.78.211-1.796.211-3.046 0-1.547-.328-2.961-.984-4.243-.641-1.28-1.617-2.609-2.93-3.984l-3.047-3.14a23.037 23.037 0 0 1-2.297-2.79 13.434 13.434 0 0 1-1.617-3.28c-.39-1.22-.586-2.58-.586-4.08 0-2.17.266-4.007.797-5.507s1.43-2.633 2.696-3.398c1.265-.782 3-1.172 5.203-1.172 1.656 0 3.015.258 4.078.773 1.078.5 1.914 1.242 2.508 2.227.609.969 1.039 2.156 1.289 3.562.25 1.39.375 2.985.375 4.782v2.554h-5.789v-2.953c0-1.25-.071-2.289-.211-3.117-.125-.828-.368-1.445-.727-1.852-.359-.421-.883-.632-1.57-.632-.656 0-1.188.148-1.594.445-.406.281-.703.726-.891 1.336-.171.594-.257 1.367-.257 2.32 0 .86.109 1.602.328 2.227a6.262 6.262 0 0 0 1.008 1.804 30.018 30.018 0 0 0 1.687 1.946l3.398 3.68c1.625 1.75 2.891 3.57 3.797 5.46.907 1.89 1.36 4 1.36 6.328 0 2.47-.266 4.547-.797 6.235-.531 1.672-1.422 2.937-2.672 3.797-1.25.86-2.953 1.289-5.109 1.289ZM316.034 45V9.844h6.211V45h-6.211Zm-.023-38.39V1.218h6.258v5.39h-6.258Zm18.867 38.624c-1.5 0-2.649-.187-3.445-.562a3.15 3.15 0 0 1-1.641-1.828c-.297-.828-.445-1.899-.445-3.211V15.07h-2.86v-4.5h2.86V3.75h6.211v6.82h3.421v4.5h-3.421v23.485c0 .547.086.96.257 1.242.172.281.508.469 1.008.562.516.094 1.274.141 2.274.141v4.734h-4.219Zm16.805.188c-1.766 0-3.219-.281-4.36-.844a6.331 6.331 0 0 1-2.648-2.437c-.625-1.063-1.063-2.336-1.313-3.82-.25-1.5-.375-3.173-.375-5.016V20.203c0-1.64.164-3.125.492-4.453.344-1.328.868-2.46 1.571-3.398.719-.938 1.648-1.657 2.789-2.157 1.14-.515 2.515-.773 4.125-.773 1.64 0 3.008.25 4.101.75 1.094.5 1.954 1.226 2.579 2.18.64.953 1.093 2.101 1.359 3.445.281 1.328.422 2.836.422 4.523v7.524h-11.18v6.914c0 1.703.133 3.07.399 4.101.265 1.032.992 1.547 2.179 1.547.797 0 1.36-.242 1.688-.726.343-.485.547-1.149.609-1.992.078-.86.117-1.836.117-2.93v-3.094h6.141v1.875c0 1.89-.117 3.57-.352 5.04-.218 1.468-.64 2.71-1.265 3.726-.61 1.015-1.485 1.789-2.625 2.32-1.141.531-2.625.797-4.453.797Zm-2.461-21.211h5.015v-4.5c0-1.172-.054-2.156-.164-2.953-.109-.813-.328-1.422-.656-1.828-.328-.407-.828-.61-1.5-.61-.828 0-1.438.242-1.828.727-.375.484-.617 1.148-.727 1.992-.093.828-.14 1.773-.14 2.836v4.336Zm23.718 21.234c-2.828 0-4.929-.804-6.304-2.414s-2.063-4.242-2.063-7.898v-2.274h5.836v2.836c0 1.532.188 2.696.563 3.492.375.797.984 1.196 1.828 1.196.812 0 1.414-.274 1.804-.82.391-.547.586-1.493.586-2.836 0-.782-.117-1.54-.351-2.274a7.644 7.644 0 0 0-1.055-2.156c-.469-.719-1.078-1.414-1.828-2.086l-3.164-2.86c-1.453-1.312-2.539-2.726-3.258-4.242-.719-1.53-1.078-3.218-1.078-5.062 0-2.985.695-5.164 2.086-6.54 1.406-1.39 3.484-2.085 6.234-2.085 1.782 0 3.258.336 4.43 1.008 1.172.656 2.047 1.726 2.625 3.21.578 1.485.867 3.477.867 5.977v1.922h-5.554v-2.32c0-1.547-.18-2.719-.54-3.516-.343-.797-.937-1.195-1.781-1.195-.828 0-1.437.234-1.828.703-.391.453-.601 1.258-.633 2.414a6.229 6.229 0 0 0 .235 1.852 7.02 7.02 0 0 0 .797 1.757 9.294 9.294 0 0 0 1.453 1.664l3.328 3.024c1.75 1.578 3.039 3.226 3.867 4.945.844 1.719 1.266 3.578 1.266 5.578 0 2.953-.672 5.196-2.016 6.727-1.344 1.516-3.461 2.273-6.352 2.273Z"/></mask><g fill="#D1DADB" filter="url(#a)"><path d="M1.128 45V3.75h9.258c2.094 0 3.773.422 5.039 1.266 1.265.828 2.18 2.03 2.742 3.609.578 1.578.867 3.484.867 5.719l.024 18.61c0 2.702-.297 4.952-.891 6.75-.578 1.78-1.516 3.108-2.813 3.983-1.296.876-3.023 1.313-5.18 1.313H1.129Zm6.281-4.875h2.063c.734 0 1.343-.148 1.828-.445.5-.297.867-.82 1.101-1.57.25-.766.375-1.844.375-3.235l-.023-20.367c0-2.11-.258-3.625-.774-4.547-.515-.922-1.421-1.383-2.718-1.383H7.409v31.547Zm25.524 5.297c-1.766 0-3.22-.281-4.36-.844a6.336 6.336 0 0 1-2.648-2.437c-.625-1.063-1.063-2.336-1.313-3.82-.25-1.5-.375-3.173-.375-5.016V20.203c0-1.64.164-3.125.493-4.453.343-1.328.867-2.46 1.57-3.398.719-.938 1.648-1.657 2.789-2.157 1.14-.515 2.516-.773 4.125-.773 1.64 0 3.008.25 4.101.75 1.094.5 1.954 1.226 2.579 2.18.64.953 1.093 2.101 1.359 3.445.281 1.328.422 2.836.422 4.523v7.524h-11.18v6.914c0 1.703.133 3.07.399 4.101.265 1.032.992 1.547 2.18 1.547.796 0 1.359-.242 1.687-.726.343-.485.547-1.149.61-1.992.077-.86.116-1.836.116-2.93v-3.094h6.14v1.875c0 1.89-.116 3.57-.35 5.04-.22 1.468-.641 2.71-1.266 3.726-.61 1.015-1.485 1.789-2.625 2.32-1.14.531-2.625.797-4.453.797ZM30.472 24.21h5.015v-4.5c0-1.172-.054-2.156-.164-2.953-.11-.813-.328-1.422-.656-1.828-.328-.407-.828-.61-1.5-.61-.828 0-1.438.242-1.828.727-.375.484-.617 1.148-.727 1.992-.093.828-.14 1.773-.14 2.836v4.336ZM50.019 45 44.933 9.844h5.859l2.273 18.703.774 8.414h.469l.656-8.438 1.945-18.68h5.813L57.636 45h-7.617Zm33.961.469c-2 0-3.665-.461-4.993-1.383-1.328-.922-2.328-2.266-3-4.031-.656-1.782-.984-3.93-.984-6.446V15.633c0-1.89.156-3.594.469-5.11.312-1.515.82-2.812 1.523-3.89a6.98 6.98 0 0 1 2.813-2.485c1.171-.578 2.617-.867 4.336-.867 1.562 0 2.89.258 3.984.774a6.6 6.6 0 0 1 2.695 2.18c.703.952 1.211 2.109 1.524 3.468.328 1.344.492 2.86.492 4.547v5.672h-6.07v-5.274c0-2.03-.172-3.523-.516-4.476-.344-.969-1.031-1.453-2.063-1.453-1.14 0-1.906.523-2.296 1.57-.375 1.031-.563 2.477-.563 4.336v19.266c0 1.437.078 2.617.234 3.539.172.906.454 1.578.844 2.015.39.422.938.633 1.64.633 1.063 0 1.782-.5 2.157-1.5s.563-2.586.563-4.758v-5.906h6.164v5.836c0 2.61-.305 4.79-.914 6.54-.61 1.733-1.579 3.03-2.907 3.89-1.312.86-3.023 1.289-5.132 1.289Zm22.57-.047c-1.688 0-3.102-.258-4.242-.774-1.141-.53-2.047-1.289-2.72-2.273-.655-1-1.132-2.21-1.429-3.633-.281-1.437-.422-3.07-.422-4.898V20.695c0-2.203.282-4.148.844-5.836.578-1.703 1.516-3.03 2.813-3.984 1.296-.969 3.015-1.453 5.156-1.453 1.625 0 2.992.273 4.101.82a6.657 6.657 0 0 1 2.696 2.344c.687 1 1.187 2.187 1.5 3.562.312 1.375.468 2.891.468 4.547v13.149c0 1.797-.14 3.406-.421 4.828-.266 1.422-.735 2.64-1.407 3.656-.656 1-1.547 1.766-2.672 2.297-1.125.531-2.546.797-4.265.797Zm0-5.016c.703 0 1.234-.21 1.594-.633.359-.437.601-1.039.726-1.804.125-.766.188-1.649.188-2.649V19.594c0-1.063-.071-1.977-.211-2.742-.141-.766-.391-1.36-.75-1.782-.36-.422-.875-.633-1.547-.633-.703 0-1.242.211-1.617.633-.36.422-.61 1.016-.75 1.782-.125.765-.188 1.68-.188 2.742V35.32c0 1 .063 1.883.188 2.649.14.765.39 1.367.75 1.804.375.422.914.633 1.617.633ZM120.964 45V9.844h6.211v3.82c.344-1.25.969-2.266 1.875-3.047.922-.797 2.172-1.195 3.75-1.195 1.203 0 2.25.265 3.14.797.891.531 1.579 1.445 2.063 2.742.594-1.094 1.375-1.953 2.344-2.578.968-.64 2.179-.961 3.632-.961 2.282 0 3.899.765 4.852 2.297.953 1.531 1.43 3.648 1.43 6.351V45h-6.188V18c0-1.25-.211-2.14-.633-2.672-.421-.547-1-.82-1.734-.82-.937 0-1.672.328-2.203.984-.516.64-.774 1.586-.774 2.836V45h-6.21V17.953c0-1.047-.18-1.883-.54-2.508-.343-.625-.929-.937-1.757-.937-1.078 0-1.86.414-2.344 1.242-.469.813-.703 1.781-.703 2.906V45h-6.211Zm35.25 0V9.844h6.211v3.82c.344-1.25.969-2.266 1.875-3.047.922-.797 2.172-1.195 3.75-1.195 1.203 0 2.25.265 3.14.797.891.531 1.579 1.445 2.063 2.742.594-1.094 1.375-1.953 2.344-2.578.968-.64 2.179-.961 3.632-.961 2.282 0 3.899.765 4.852 2.297.953 1.531 1.43 3.648 1.43 6.351V45h-6.188V18c0-1.25-.211-2.14-.633-2.672-.421-.547-1-.82-1.734-.82-.937 0-1.672.328-2.203.984-.516.64-.774 1.586-.774 2.836V45h-6.21V17.953c0-1.047-.18-1.883-.54-2.508-.343-.625-.929-.937-1.757-.937-1.078 0-1.86.414-2.344 1.242-.469.813-.703 1.781-.703 2.906V45h-6.211Zm41.297.445c-1.391 0-2.555-.312-3.492-.937-.922-.625-1.618-1.555-2.086-2.79-.454-1.25-.68-2.812-.68-4.687V9.844h6.234V36.07c0 1.344.164 2.39.492 3.14.329.75 1.016 1.126 2.063 1.126 1.094 0 1.836-.422 2.227-1.266.406-.86.609-1.843.609-2.953l.023-26.273h6.188V45h-6.211v-3.656c-.438 1.187-1.07 2.172-1.899 2.953-.828.766-1.984 1.148-3.468 1.148ZM215.136 45V9.844h6.211v4.031c.312-1.203.968-2.242 1.968-3.117 1-.89 2.227-1.336 3.68-1.336 2.031 0 3.555.68 4.57 2.039 1.016 1.344 1.524 3.297 1.524 5.86V45h-6.211V17.695c0-1.015-.234-1.812-.703-2.39-.453-.578-1.078-.867-1.875-.867-.641 0-1.188.18-1.641.539-.437.343-.765.828-.984 1.453-.219.61-.328 1.328-.328 2.156V45h-6.211Zm24.023 0V9.844h6.211V45h-6.211Zm-.023-38.39V1.218h6.258v5.39h-6.258Zm18.867 38.624c-1.5 0-2.649-.187-3.445-.562a3.15 3.15 0 0 1-1.641-1.828c-.297-.828-.445-1.899-.445-3.211V15.07h-2.86v-4.5h2.86V3.75h6.211v6.82h3.421v4.5h-3.421v23.485c0 .547.086.96.257 1.242.172.281.508.469 1.008.562.516.094 1.274.141 2.274.141v4.734h-4.219Zm7.617 5.976v-4.288h2.039c.688 0 1.266-.063 1.735-.188.468-.109.734-.359.796-.75.11-.203.149-.562.118-1.078a21.177 21.177 0 0 0-.141-1.5l-5.625-33.562h5.906l2.25 17.976.938 9.47h.515l.844-9.47 2.063-17.976h5.882L276.847 46.5c-.172 1.11-.414 2.008-.727 2.695-.297.703-.75 1.211-1.359 1.524-.61.328-1.453.492-2.532.492h-6.609Zm37.313-5.741c-1.719 0-3.157-.266-4.313-.797a6.56 6.56 0 0 1-2.719-2.367c-.656-1.047-1.125-2.313-1.406-3.797-.281-1.5-.422-3.203-.422-5.11v-3.68h5.953v4.15c0 2.218.188 3.812.563 4.78.375.97 1.117 1.454 2.226 1.454.75 0 1.313-.172 1.688-.516.391-.36.648-.922.773-1.688.141-.78.211-1.796.211-3.046 0-1.547-.328-2.961-.984-4.243-.641-1.28-1.617-2.609-2.93-3.984l-3.047-3.14a23.037 23.037 0 0 1-2.297-2.79 13.434 13.434 0 0 1-1.617-3.28c-.39-1.22-.586-2.58-.586-4.08 0-2.17.266-4.007.797-5.507s1.43-2.633 2.696-3.398c1.265-.782 3-1.172 5.203-1.172 1.656 0 3.015.258 4.078.773 1.078.5 1.914 1.242 2.508 2.227.609.969 1.039 2.156 1.289 3.562.25 1.39.375 2.985.375 4.782v2.554h-5.789v-2.953c0-1.25-.071-2.289-.211-3.117-.125-.828-.368-1.445-.727-1.852-.359-.421-.883-.632-1.57-.632-.656 0-1.188.148-1.594.445-.406.281-.703.726-.891 1.336-.171.594-.257 1.367-.257 2.32 0 .86.109 1.602.328 2.227a6.262 6.262 0 0 0 1.008 1.804 30.018 30.018 0 0 0 1.687 1.946l3.398 3.68c1.625 1.75 2.891 3.57 3.797 5.46.907 1.89 1.36 4 1.36 6.328 0 2.47-.266 4.547-.797 6.235-.531 1.672-1.422 2.937-2.672 3.797-1.25.86-2.953 1.289-5.109 1.289ZM316.034 45V9.844h6.211V45h-6.211Zm-.023-38.39V1.218h6.258v5.39h-6.258Zm18.867 38.624c-1.5 0-2.649-.187-3.445-.562a3.15 3.15 0 0 1-1.641-1.828c-.297-.828-.445-1.899-.445-3.211V15.07h-2.86v-4.5h2.86V3.75h6.211v6.82h3.421v4.5h-3.421v23.485c0 .547.086.96.257 1.242.172.281.508.469 1.008.562.516.094 1.274.141 2.274.141v4.734h-4.219Zm16.805.188c-1.766 0-3.219-.281-4.36-.844a6.331 6.331 0 0 1-2.648-2.437c-.625-1.063-1.063-2.336-1.313-3.82-.25-1.5-.375-3.173-.375-5.016V20.203c0-1.64.164-3.125.492-4.453.344-1.328.868-2.46 1.571-3.398.719-.938 1.648-1.657 2.789-2.157 1.14-.515 2.515-.773 4.125-.773 1.64 0 3.008.25 4.101.75 1.094.5 1.954 1.226 2.579 2.18.64.953 1.093 2.101 1.359 3.445.281 1.328.422 2.836.422 4.523v7.524h-11.18v6.914c0 1.703.133 3.07.399 4.101.265 1.032.992 1.547 2.179 1.547.797 0 1.36-.242 1.688-.726.343-.485.547-1.149.609-1.992.078-.86.117-1.836.117-2.93v-3.094h6.141v1.875c0 1.89-.117 3.57-.352 5.04-.218 1.468-.64 2.71-1.265 3.726-.61 1.015-1.485 1.789-2.625 2.32-1.141.531-2.625.797-4.453.797Zm-2.461-21.211h5.015v-4.5c0-1.172-.054-2.156-.164-2.953-.109-.813-.328-1.422-.656-1.828-.328-.407-.828-.61-1.5-.61-.828 0-1.438.242-1.828.727-.375.484-.617 1.148-.727 1.992-.093.828-.14 1.773-.14 2.836v4.336Zm23.718 21.234c-2.828 0-4.929-.804-6.304-2.414s-2.063-4.242-2.063-7.898v-2.274h5.836v2.836c0 1.532.188 2.696.563 3.492.375.797.984 1.196 1.828 1.196.812 0 1.414-.274 1.804-.82.391-.547.586-1.493.586-2.836 0-.782-.117-1.54-.351-2.274a7.644 7.644 0 0 0-1.055-2.156c-.469-.719-1.078-1.414-1.828-2.086l-3.164-2.86c-1.453-1.312-2.539-2.726-3.258-4.242-.719-1.53-1.078-3.218-1.078-5.062 0-2.985.695-5.164 2.086-6.54 1.406-1.39 3.484-2.085 6.234-2.085 1.782 0 3.258.336 4.43 1.008 1.172.656 2.047 1.726 2.625 3.21.578 1.485.867 3.477.867 5.977v1.922h-5.554v-2.32c0-1.547-.18-2.719-.54-3.516-.343-.797-.937-1.195-1.781-1.195-.828 0-1.437.234-1.828.703-.391.453-.601 1.258-.633 2.414a6.229 6.229 0 0 0 .235 1.852 7.02 7.02 0 0 0 .797 1.757 9.294 9.294 0 0 0 1.453 1.664l3.328 3.024c1.75 1.578 3.039 3.226 3.867 4.945.844 1.719 1.266 3.578 1.266 5.578 0 2.953-.672 5.196-2.016 6.727-1.344 1.516-3.461 2.273-6.352 2.273Z"/></g><path stroke="#D9E6E7" stroke-width="2" d="M1.128 45V3.75h9.258c2.094 0 3.773.422 5.039 1.266 1.265.828 2.18 2.03 2.742 3.609.578 1.578.867 3.484.867 5.719l.024 18.61c0 2.702-.297 4.952-.891 6.75-.578 1.78-1.516 3.108-2.813 3.983-1.296.876-3.023 1.313-5.18 1.313H1.129Zm6.281-4.875h2.063c.734 0 1.343-.148 1.828-.445.5-.297.867-.82 1.101-1.57.25-.766.375-1.844.375-3.235l-.023-20.367c0-2.11-.258-3.625-.774-4.547-.515-.922-1.421-1.383-2.718-1.383H7.409v31.547Zm25.524 5.297c-1.766 0-3.22-.281-4.36-.844a6.336 6.336 0 0 1-2.648-2.437c-.625-1.063-1.063-2.336-1.313-3.82-.25-1.5-.375-3.173-.375-5.016V20.203c0-1.64.164-3.125.493-4.453.343-1.328.867-2.46 1.57-3.398.719-.938 1.648-1.657 2.789-2.157 1.14-.515 2.516-.773 4.125-.773 1.64 0 3.008.25 4.101.75 1.094.5 1.954 1.226 2.579 2.18.64.953 1.093 2.101 1.359 3.445.281 1.328.422 2.836.422 4.523v7.524h-11.18v6.914c0 1.703.133 3.07.399 4.101.265 1.032.992 1.547 2.18 1.547.796 0 1.359-.242 1.687-.726.343-.485.547-1.149.61-1.992.077-.86.116-1.836.116-2.93v-3.094h6.14v1.875c0 1.89-.116 3.57-.35 5.04-.22 1.468-.641 2.71-1.266 3.726-.61 1.015-1.485 1.789-2.625 2.32-1.14.531-2.625.797-4.453.797ZM30.472 24.21h5.015v-4.5c0-1.172-.054-2.156-.164-2.953-.11-.813-.328-1.422-.656-1.828-.328-.407-.828-.61-1.5-.61-.828 0-1.438.242-1.828.727-.375.484-.617 1.148-.727 1.992-.093.828-.14 1.773-.14 2.836v4.336ZM50.019 45 44.933 9.844h5.859l2.273 18.703.774 8.414h.469l.656-8.438 1.945-18.68h5.813L57.636 45h-7.617Zm33.961.469c-2 0-3.665-.461-4.993-1.383-1.328-.922-2.328-2.266-3-4.031-.656-1.782-.984-3.93-.984-6.446V15.633c0-1.89.156-3.594.469-5.11.312-1.515.82-2.812 1.523-3.89a6.98 6.98 0 0 1 2.813-2.485c1.171-.578 2.617-.867 4.336-.867 1.562 0 2.89.258 3.984.774a6.6 6.6 0 0 1 2.695 2.18c.703.952 1.211 2.109 1.524 3.468.328 1.344.492 2.86.492 4.547v5.672h-6.07v-5.274c0-2.03-.172-3.523-.516-4.476-.344-.969-1.031-1.453-2.063-1.453-1.14 0-1.906.523-2.296 1.57-.375 1.031-.563 2.477-.563 4.336v19.266c0 1.437.078 2.617.234 3.539.172.906.454 1.578.844 2.015.39.422.938.633 1.64.633 1.063 0 1.782-.5 2.157-1.5s.563-2.586.563-4.758v-5.906h6.164v5.836c0 2.61-.305 4.79-.914 6.54-.61 1.733-1.579 3.03-2.907 3.89-1.312.86-3.023 1.289-5.132 1.289Zm22.57-.047c-1.688 0-3.102-.258-4.242-.774-1.141-.53-2.047-1.289-2.72-2.273-.655-1-1.132-2.21-1.429-3.633-.281-1.437-.422-3.07-.422-4.898V20.695c0-2.203.282-4.148.844-5.836.578-1.703 1.516-3.03 2.813-3.984 1.296-.969 3.015-1.453 5.156-1.453 1.625 0 2.992.273 4.101.82a6.657 6.657 0 0 1 2.696 2.344c.687 1 1.187 2.187 1.5 3.562.312 1.375.468 2.891.468 4.547v13.149c0 1.797-.14 3.406-.421 4.828-.266 1.422-.735 2.64-1.407 3.656-.656 1-1.547 1.766-2.672 2.297-1.125.531-2.546.797-4.265.797Zm0-5.016c.703 0 1.234-.21 1.594-.633.359-.437.601-1.039.726-1.804.125-.766.188-1.649.188-2.649V19.594c0-1.063-.071-1.977-.211-2.742-.141-.766-.391-1.36-.75-1.782-.36-.422-.875-.633-1.547-.633-.703 0-1.242.211-1.617.633-.36.422-.61 1.016-.75 1.782-.125.765-.188 1.68-.188 2.742V35.32c0 1 .063 1.883.188 2.649.14.765.39 1.367.75 1.804.375.422.914.633 1.617.633ZM120.964 45V9.844h6.211v3.82c.344-1.25.969-2.266 1.875-3.047.922-.797 2.172-1.195 3.75-1.195 1.203 0 2.25.265 3.14.797.891.531 1.579 1.445 2.063 2.742.594-1.094 1.375-1.953 2.344-2.578.968-.64 2.179-.961 3.632-.961 2.282 0 3.899.765 4.852 2.297.953 1.531 1.43 3.648 1.43 6.351V45h-6.188V18c0-1.25-.211-2.14-.633-2.672-.421-.547-1-.82-1.734-.82-.937 0-1.672.328-2.203.984-.516.64-.774 1.586-.774 2.836V45h-6.21V17.953c0-1.047-.18-1.883-.54-2.508-.343-.625-.929-.937-1.757-.937-1.078 0-1.86.414-2.344 1.242-.469.813-.703 1.781-.703 2.906V45h-6.211Zm35.25 0V9.844h6.211v3.82c.344-1.25.969-2.266 1.875-3.047.922-.797 2.172-1.195 3.75-1.195 1.203 0 2.25.265 3.14.797.891.531 1.579 1.445 2.063 2.742.594-1.094 1.375-1.953 2.344-2.578.968-.64 2.179-.961 3.632-.961 2.282 0 3.899.765 4.852 2.297.953 1.531 1.43 3.648 1.43 6.351V45h-6.188V18c0-1.25-.211-2.14-.633-2.672-.421-.547-1-.82-1.734-.82-.937 0-1.672.328-2.203.984-.516.64-.774 1.586-.774 2.836V45h-6.21V17.953c0-1.047-.18-1.883-.54-2.508-.343-.625-.929-.937-1.757-.937-1.078 0-1.86.414-2.344 1.242-.469.813-.703 1.781-.703 2.906V45h-6.211Zm41.297.445c-1.391 0-2.555-.312-3.492-.937-.922-.625-1.618-1.555-2.086-2.79-.454-1.25-.68-2.812-.68-4.687V9.844h6.234V36.07c0 1.344.164 2.39.492 3.14.329.75 1.016 1.126 2.063 1.126 1.094 0 1.836-.422 2.227-1.266.406-.86.609-1.843.609-2.953l.023-26.273h6.188V45h-6.211v-3.656c-.438 1.187-1.07 2.172-1.899 2.953-.828.766-1.984 1.148-3.468 1.148ZM215.136 45V9.844h6.211v4.031c.312-1.203.968-2.242 1.968-3.117 1-.89 2.227-1.336 3.68-1.336 2.031 0 3.555.68 4.57 2.039 1.016 1.344 1.524 3.297 1.524 5.86V45h-6.211V17.695c0-1.015-.234-1.812-.703-2.39-.453-.578-1.078-.867-1.875-.867-.641 0-1.188.18-1.641.539-.437.343-.765.828-.984 1.453-.219.61-.328 1.328-.328 2.156V45h-6.211Zm24.023 0V9.844h6.211V45h-6.211Zm-.023-38.39V1.218h6.258v5.39h-6.258Zm18.867 38.624c-1.5 0-2.649-.187-3.445-.562a3.15 3.15 0 0 1-1.641-1.828c-.297-.828-.445-1.899-.445-3.211V15.07h-2.86v-4.5h2.86V3.75h6.211v6.82h3.421v4.5h-3.421v23.485c0 .547.086.96.257 1.242.172.281.508.469 1.008.562.516.094 1.274.141 2.274.141v4.734h-4.219Zm7.617 5.976v-4.288h2.039c.688 0 1.266-.063 1.735-.188.468-.109.734-.359.796-.75.11-.203.149-.562.118-1.078a21.177 21.177 0 0 0-.141-1.5l-5.625-33.562h5.906l2.25 17.976.938 9.47h.515l.844-9.47 2.063-17.976h5.882L276.847 46.5c-.172 1.11-.414 2.008-.727 2.695-.297.703-.75 1.211-1.359 1.524-.61.328-1.453.492-2.532.492h-6.609Zm37.313-5.741c-1.719 0-3.157-.266-4.313-.797a6.56 6.56 0 0 1-2.719-2.367c-.656-1.047-1.125-2.313-1.406-3.797-.281-1.5-.422-3.203-.422-5.11v-3.68h5.953v4.15c0 2.218.188 3.812.563 4.78.375.97 1.117 1.454 2.226 1.454.75 0 1.313-.172 1.688-.516.391-.36.648-.922.773-1.688.141-.78.211-1.796.211-3.046 0-1.547-.328-2.961-.984-4.243-.641-1.28-1.617-2.609-2.93-3.984l-3.047-3.14a23.037 23.037 0 0 1-2.297-2.79 13.434 13.434 0 0 1-1.617-3.28c-.39-1.22-.586-2.58-.586-4.08 0-2.17.266-4.007.797-5.507s1.43-2.633 2.696-3.398c1.265-.782 3-1.172 5.203-1.172 1.656 0 3.015.258 4.078.773 1.078.5 1.914 1.242 2.508 2.227.609.969 1.039 2.156 1.289 3.562.25 1.39.375 2.985.375 4.782v2.554h-5.789v-2.953c0-1.25-.071-2.289-.211-3.117-.125-.828-.368-1.445-.727-1.852-.359-.421-.883-.632-1.57-.632-.656 0-1.188.148-1.594.445-.406.281-.703.726-.891 1.336-.171.594-.257 1.367-.257 2.32 0 .86.109 1.602.328 2.227a6.262 6.262 0 0 0 1.008 1.804 30.018 30.018 0 0 0 1.687 1.946l3.398 3.68c1.625 1.75 2.891 3.57 3.797 5.46.907 1.89 1.36 4 1.36 6.328 0 2.47-.266 4.547-.797 6.235-.531 1.672-1.422 2.937-2.672 3.797-1.25.86-2.953 1.289-5.109 1.289ZM316.034 45V9.844h6.211V45h-6.211Zm-.023-38.39V1.218h6.258v5.39h-6.258Zm18.867 38.624c-1.5 0-2.649-.187-3.445-.562a3.15 3.15 0 0 1-1.641-1.828c-.297-.828-.445-1.899-.445-3.211V15.07h-2.86v-4.5h2.86V3.75h6.211v6.82h3.421v4.5h-3.421v23.485c0 .547.086.96.257 1.242.172.281.508.469 1.008.562.516.094 1.274.141 2.274.141v4.734h-4.219Zm16.805.188c-1.766 0-3.219-.281-4.36-.844a6.331 6.331 0 0 1-2.648-2.437c-.625-1.063-1.063-2.336-1.313-3.82-.25-1.5-.375-3.173-.375-5.016V20.203c0-1.64.164-3.125.492-4.453.344-1.328.868-2.46 1.571-3.398.719-.938 1.648-1.657 2.789-2.157 1.14-.515 2.515-.773 4.125-.773 1.64 0 3.008.25 4.101.75 1.094.5 1.954 1.226 2.579 2.18.64.953 1.093 2.101 1.359 3.445.281 1.328.422 2.836.422 4.523v7.524h-11.18v6.914c0 1.703.133 3.07.399 4.101.265 1.032.992 1.547 2.179 1.547.797 0 1.36-.242 1.688-.726.343-.485.547-1.149.609-1.992.078-.86.117-1.836.117-2.93v-3.094h6.141v1.875c0 1.89-.117 3.57-.352 5.04-.218 1.468-.64 2.71-1.265 3.726-.61 1.015-1.485 1.789-2.625 2.32-1.141.531-2.625.797-4.453.797Zm-2.461-21.211h5.015v-4.5c0-1.172-.054-2.156-.164-2.953-.109-.813-.328-1.422-.656-1.828-.328-.407-.828-.61-1.5-.61-.828 0-1.438.242-1.828.727-.375.484-.617 1.148-.727 1.992-.093.828-.14 1.773-.14 2.836v4.336Zm23.718 21.234c-2.828 0-4.929-.804-6.304-2.414s-2.063-4.242-2.063-7.898v-2.274h5.836v2.836c0 1.532.188 2.696.563 3.492.375.797.984 1.196 1.828 1.196.812 0 1.414-.274 1.804-.82.391-.547.586-1.493.586-2.836 0-.782-.117-1.54-.351-2.274a7.644 7.644 0 0 0-1.055-2.156c-.469-.719-1.078-1.414-1.828-2.086l-3.164-2.86c-1.453-1.312-2.539-2.726-3.258-4.242-.719-1.53-1.078-3.218-1.078-5.062 0-2.985.695-5.164 2.086-6.54 1.406-1.39 3.484-2.085 6.234-2.085 1.782 0 3.258.336 4.43 1.008 1.172.656 2.047 1.726 2.625 3.21.578 1.485.867 3.477.867 5.977v1.922h-5.554v-2.32c0-1.547-.18-2.719-.54-3.516-.343-.797-.937-1.195-1.781-1.195-.828 0-1.437.234-1.828.703-.391.453-.601 1.258-.633 2.414a6.229 6.229 0 0 0 .235 1.852 7.02 7.02 0 0 0 .797 1.757 9.294 9.294 0 0 0 1.453 1.664l3.328 3.024c1.75 1.578 3.039 3.226 3.867 4.945.844 1.719 1.266 3.578 1.266 5.578 0 2.953-.672 5.196-2.016 6.727-1.344 1.516-3.461 2.273-6.352 2.273Z" mask="url(#b)"/><defs><filter id="a" width="386.18" height="55.992" x="-.872" y="-.781" color-interpolation-filters="sRGB" filterUnits="userSpaceOnUse"><feFlood flood-opacity="0" result="BackgroundImageFix"/><feBlend in="SourceGraphic" in2="BackgroundImageFix" result="shape"/><feColorMatrix in="SourceAlpha" result="hardAlpha" values="0 0 0 0 0 0 0 0 0 0 0 0 0 0 0 0 0 0 127 0"/><feOffset dx="-1" dy="-1"/><feGaussianBlur stdDeviation="1.5"/><feComposite in2="hardAlpha" k2="-1" k3="1" operator="arithmetic"/><feColorMatrix values="0 0 0 0 0.984314 0 0 0 0 0.984314 0 0 0 0 0.984314 0 0 0 1 0"/><feBlend in2="shape" result="effect1_innerShadow_127_2794"/><feColorMatrix in="SourceAlpha" result="hardAlpha" values="0 0 0 0 0 0 0 0 0 0 0 0 0 0 0 0 0 0 127 0"/><feOffset dx="3" dy="3"/><feGaussianBlur stdDeviation="4.5"/><feComposite in2="hardAlpha" k2="-1" k3="1" operator="arithmetic"/><feColorMatrix values="0 0 0 0 0.772549 0 0 0 0 0.772549 0 0 0 0 0.772549 0 0 0 1 0"/><feBlend in2="effect1_innerShadow_127_2794" result="effect2_innerShadow_127_2794"/></filter></defs></svg>