<svg xmlns="http://www.w3.org/2000/svg" width="299" height="52" fill="none"><mask id="b" width="299" height="52" x=".081" y=".219" fill="#000" maskUnits="userSpaceOnUse"><path fill="#fff" d="M.081.219h299v52h-299z"/><path d="M1.081 45V3.75h6.281V45h-6.28Zm12.586 0V9.844h6.21v3.82c.345-1.25.97-2.266 1.876-3.047.922-.797 2.172-1.195 3.75-1.195 1.203 0 2.25.265 3.14.797.891.531 1.579 1.445 2.063 2.742.594-1.094 1.375-1.953 2.344-2.578.969-.64 2.18-.961 3.633-.961 2.28 0 3.898.765 4.851 2.297.953 1.531 1.43 3.648 1.43 6.351V45h-6.188V18c0-1.25-.21-2.14-.632-2.672-.422-.547-1-.82-1.735-.82-.937 0-1.672.328-2.203.984-.516.64-.773 1.586-.773 2.836V45h-6.211V17.953c0-1.047-.18-1.883-.54-2.508-.343-.625-.93-.937-1.757-.937-1.078 0-1.86.414-2.344 1.242-.469.813-.703 1.781-.703 2.906V45h-6.211Zm40.993.352c-2.407 0-4.079-.875-5.016-2.625-.922-1.75-1.399-4.07-1.43-6.961v-2.25c0-1.875.266-3.399.797-4.57.547-1.173 1.32-2.126 2.32-2.86 1-.734 2.195-1.375 3.586-1.922 1.39-.547 2.938-1.133 4.64-1.758v-3.07c0-1.188-.046-2.133-.14-2.836-.094-.719-.305-1.242-.633-1.57-.328-.328-.836-.492-1.523-.492-.672 0-1.188.171-1.547.515-.344.328-.578.844-.703 1.547-.125.688-.188 1.57-.188 2.648v1.57h-6.14v-1.054c0-1.61.132-3.047.398-4.312.281-1.266.75-2.336 1.406-3.211.657-.891 1.547-1.563 2.672-2.016 1.14-.469 2.57-.703 4.29-.703 1.515 0 2.812.219 3.89.656 1.078.422 1.953 1.063 2.625 1.922.672.844 1.164 1.906 1.476 3.188.313 1.28.47 2.773.47 4.476V45h-6.26v-3.492a5.59 5.59 0 0 1-.96 1.898 5.202 5.202 0 0 1-1.712 1.407c-.671.359-1.445.539-2.32.539Zm2.155-4.782c.782 0 1.407-.28 1.875-.843.47-.563.758-1.133.868-1.711V25.922c-.938.422-1.727.82-2.368 1.195-.64.36-1.156.758-1.546 1.195a3.934 3.934 0 0 0-.844 1.547c-.172.594-.258 1.32-.258 2.18v3.938c0 1.609.164 2.78.492 3.515.344.719.938 1.078 1.781 1.078Zm22.758 9.703c-1.937.032-3.586-.156-4.945-.562a10.29 10.29 0 0 1-3.703-1.945l2.18-3.914c.828.53 1.726.96 2.695 1.289.984.343 2.047.507 3.187.492 1.188-.016 2.094-.43 2.72-1.242.624-.813.937-1.899.937-3.258v-2.79c-.407 1.173-1.032 1.977-1.875 2.415-.829.437-1.836.656-3.024.656-1.656 0-2.96-.437-3.914-1.312-.937-.875-1.602-2.07-1.992-3.586-.39-1.516-.586-3.235-.586-5.157V20.04c0-2.047.203-3.867.61-5.46.406-1.61 1.1-2.876 2.085-3.798.985-.922 2.336-1.375 4.055-1.36 1.203 0 2.195.306 2.977.915.796.61 1.351 1.484 1.664 2.625V9.844h6.21v30.82c0 1.39-.156 2.672-.468 3.844-.313 1.156-.828 2.156-1.547 3-.719.86-1.672 1.523-2.86 1.992-1.187.484-2.656.742-4.406.773Zm.633-13.57c.563 0 1.023-.164 1.383-.492.36-.344.625-.922.797-1.734.172-.829.258-1.977.258-3.446V19.523c0-1.546-.188-2.78-.563-3.703-.375-.922-1.055-1.383-2.039-1.383-.75 0-1.305.22-1.664.657-.36.437-.594 1.039-.703 1.804-.11.75-.164 1.618-.164 2.602v11.578c0 1.735.164 3.11.492 4.125.328 1 1.062 1.5 2.203 1.5Zm22.852 8.719c-1.766 0-3.22-.281-4.36-.844a6.336 6.336 0 0 1-2.648-2.437c-.625-1.063-1.063-2.336-1.313-3.82-.25-1.5-.375-3.173-.375-5.016V20.203c0-1.64.164-3.125.493-4.453.343-1.328.867-2.46 1.57-3.398.719-.938 1.648-1.657 2.789-2.157 1.14-.515 2.515-.773 4.125-.773 1.64 0 3.008.25 4.101.75 1.094.5 1.954 1.226 2.579 2.18.64.953 1.093 2.101 1.359 3.445.281 1.328.422 2.836.422 4.523v7.524h-11.18v6.914c0 1.703.133 3.07.399 4.101.265 1.032.992 1.547 2.179 1.547.797 0 1.36-.242 1.688-.726.343-.485.547-1.149.609-1.992.078-.86.117-1.836.117-2.93v-3.094h6.141v1.875c0 1.89-.117 3.57-.352 5.04-.218 1.468-.64 2.71-1.265 3.726-.61 1.015-1.485 1.789-2.625 2.32-1.141.531-2.625.797-4.453.797Zm-2.461-21.211h5.015v-4.5c0-1.172-.054-2.156-.164-2.953-.109-.813-.328-1.422-.656-1.828-.328-.407-.828-.61-1.5-.61-.828 0-1.438.242-1.828.727-.375.484-.617 1.148-.727 1.992-.093.828-.14 1.773-.14 2.836v4.336Zm23.718 21.234c-2.828 0-4.929-.804-6.304-2.414s-2.063-4.242-2.063-7.898v-2.274h5.836v2.836c0 1.532.188 2.696.563 3.492.375.797.984 1.196 1.828 1.196.812 0 1.414-.274 1.804-.82.391-.547.586-1.493.586-2.836 0-.782-.117-1.54-.351-2.274a7.644 7.644 0 0 0-1.055-2.156c-.469-.719-1.078-1.414-1.828-2.086l-3.164-2.86c-1.453-1.312-2.539-2.726-3.258-4.242-.719-1.53-1.078-3.218-1.078-5.062 0-2.985.695-5.164 2.086-6.54 1.406-1.39 3.484-2.085 6.234-2.085 1.782 0 3.258.336 4.43 1.008 1.172.656 2.047 1.726 2.625 3.21.578 1.485.867 3.477.867 5.977v1.922h-5.554v-2.32c0-1.547-.18-2.719-.54-3.516-.343-.797-.937-1.195-1.781-1.195-.828 0-1.437.234-1.828.703-.391.453-.601 1.258-.633 2.414a6.229 6.229 0 0 0 .235 1.852 7.02 7.02 0 0 0 .797 1.757 9.294 9.294 0 0 0 1.453 1.664l3.328 3.024c1.75 1.578 3.039 3.226 3.867 4.945.844 1.719 1.266 3.578 1.266 5.578 0 2.953-.672 5.196-2.016 6.727-1.344 1.516-3.461 2.273-6.352 2.273Zm27.704.024c-2.329 0-4.165-.797-5.508-2.39-1.344-1.61-2.016-3.923-2.016-6.938 0-1.61.313-3.149.938-4.618a22.046 22.046 0 0 1 2.414-4.289c1-1.39 2.054-2.734 3.164-4.03a105.798 105.798 0 0 1-2.391-6.868c-.641-2.11-.961-3.734-.961-4.875 0-2.656.688-4.688 2.063-6.094 1.39-1.406 3.226-2.11 5.507-2.11 1.657 0 3.032.321 4.125.962 1.094.625 1.915 1.547 2.461 2.765.547 1.204.821 2.672.821 4.407a11.98 11.98 0 0 1-.774 4.242 21.662 21.662 0 0 1-2.015 3.984 50.534 50.534 0 0 1-2.696 3.774l3.024 7.523a77.572 77.572 0 0 1 1.992-3.14 37.924 37.924 0 0 1 2.461-3.258l2.555 4.312a20.726 20.726 0 0 0-2.579 3.586 161.706 161.706 0 0 0-2.132 3.938L166.175 45h-5.813l-1.336-3.047a12.335 12.335 0 0 1-1.898 1.828 7.817 7.817 0 0 1-2.274 1.242c-.843.297-1.789.446-2.835.446Zm1.054-5.367c.469 0 .906-.133 1.313-.399.406-.266.804-.633 1.195-1.101.391-.485.789-1.055 1.195-1.711l-3.632-8.438a35.093 35.093 0 0 0-1.665 2.414 14.407 14.407 0 0 0-1.171 2.367 7.372 7.372 0 0 0-.493 2.32c-.046 1.485.196 2.618.727 3.4.547.765 1.391 1.148 2.531 1.148Zm2.133-21.914c.906-1.172 1.648-2.329 2.227-3.47.578-1.14.867-2.28.867-3.421 0-1.344-.164-2.313-.492-2.906-.329-.594-.954-.891-1.875-.891-.547 0-.993.11-1.336.328a2.2 2.2 0 0 0-.797.89c-.172.36-.289.759-.352 1.196a9.345 9.345 0 0 0-.094 1.313c0 .625.165 1.546.493 2.765a73.295 73.295 0 0 0 1.359 4.195ZM183.354 45l-6.398-41.25h5.977l2.695 18.633 1.664 13.125h.164l1.43-13.125 2.25-18.633h5.859L191.112 45h-7.758Zm17.696 0V9.844h6.211V45h-6.211Zm-.024-38.39V1.218h6.258v5.39h-6.258Zm18.493 38.742c-1.907 0-3.321-.508-4.243-1.524-.922-1.031-1.523-2.422-1.804-4.172-.282-1.75-.422-3.71-.422-5.883v-14.32c0-1.89.226-3.586.679-5.086.454-1.515 1.188-2.719 2.204-3.61 1.031-.89 2.39-1.335 4.078-1.335 1 0 1.898.242 2.695.726a4.963 4.963 0 0 1 1.852 1.875V3.398h6.211V45h-6.211v-3.258c-.469 1.188-1.125 2.086-1.969 2.696-.844.609-1.867.914-3.07.914Zm2.296-4.946c.75 0 1.321-.218 1.711-.656.407-.453.68-1.14.821-2.063.156-.937.234-2.117.234-3.539V20.086c0-1.719-.172-3.086-.516-4.102-.328-1.015-1.046-1.523-2.156-1.523-1.062 0-1.765.5-2.109 1.5-.328.984-.492 2.383-.492 4.195v14.461c0 1.203.07 2.242.211 3.117.156.86.414 1.524.773 1.993.359.453.867.68 1.523.68Zm23.321 5.016c-1.766 0-3.219-.281-4.36-.844a6.337 6.337 0 0 1-2.648-2.437c-.625-1.063-1.063-2.336-1.313-3.82-.25-1.5-.375-3.173-.375-5.016V20.203c0-1.64.164-3.125.493-4.453.343-1.328.867-2.46 1.57-3.398.719-.938 1.648-1.657 2.789-2.157 1.141-.515 2.516-.773 4.125-.773 1.641 0 3.008.25 4.102.75 1.093.5 1.953 1.226 2.578 2.18.64.953 1.093 2.101 1.359 3.445.281 1.328.422 2.836.422 4.523v7.524h-11.18v6.914c0 1.703.133 3.07.399 4.101.265 1.032.992 1.547 2.179 1.547.797 0 1.36-.242 1.688-.726.344-.485.547-1.149.609-1.992.078-.86.117-1.836.117-2.93v-3.094h6.141v1.875c0 1.89-.117 3.57-.352 5.04-.218 1.468-.64 2.71-1.265 3.726-.61 1.015-1.485 1.789-2.625 2.32-1.141.531-2.625.797-4.453.797Zm-2.461-21.211h5.015v-4.5c0-1.172-.054-2.156-.164-2.953-.109-.813-.328-1.422-.656-1.828-.328-.407-.828-.61-1.5-.61-.828 0-1.437.242-1.828.727-.375.484-.617 1.148-.727 1.992-.093.828-.14 1.773-.14 2.836v4.336Zm24.75 21.211c-1.688 0-3.102-.258-4.242-.774-1.141-.53-2.047-1.289-2.719-2.273-.656-1-1.133-2.21-1.43-3.633-.281-1.437-.422-3.07-.422-4.898V20.695c0-2.203.282-4.148.844-5.836.578-1.703 1.516-3.03 2.813-3.984 1.296-.969 3.015-1.453 5.156-1.453 1.625 0 2.992.273 4.101.82a6.657 6.657 0 0 1 2.696 2.344c.687 1 1.187 2.187 1.5 3.562.312 1.375.468 2.891.468 4.547v13.149c0 1.797-.14 3.406-.421 4.828-.266 1.422-.735 2.64-1.407 3.656-.656 1-1.547 1.766-2.672 2.297-1.125.531-2.546.797-4.265.797Zm0-5.016c.703 0 1.234-.21 1.594-.633.359-.437.601-1.039.726-1.804.125-.766.188-1.649.188-2.649V19.594c0-1.063-.071-1.977-.211-2.742-.141-.766-.391-1.36-.75-1.782-.36-.422-.875-.633-1.547-.633-.703 0-1.242.211-1.617.633-.36.422-.61 1.016-.75 1.782-.125.765-.188 1.68-.188 2.742V35.32c0 1 .063 1.883.188 2.649.14.765.39 1.367.75 1.804.375.422.914.633 1.617.633Zm21.703 5.039c-2.828 0-4.93-.804-6.305-2.414s-2.062-4.242-2.062-7.898v-2.274h5.836v2.836c0 1.532.187 2.696.562 3.492.375.797.985 1.196 1.828 1.196.813 0 1.414-.274 1.805-.82.391-.547.586-1.493.586-2.836 0-.782-.117-1.54-.352-2.274a7.64 7.64 0 0 0-1.054-2.156c-.469-.719-1.078-1.414-1.828-2.086l-3.165-2.86c-1.453-1.312-2.539-2.726-3.257-4.242-.719-1.53-1.078-3.218-1.078-5.062 0-2.985.695-5.164 2.085-6.54 1.407-1.39 3.485-2.085 6.235-2.085 1.781 0 3.258.336 4.43 1.008 1.171.656 2.046 1.726 2.625 3.21.578 1.485.867 3.477.867 5.977v1.922h-5.555v-2.32c0-1.547-.18-2.719-.539-3.516-.344-.797-.938-1.195-1.781-1.195-.828 0-1.438.234-1.828.703-.391.453-.602 1.258-.633 2.414a6.196 6.196 0 0 0 .234 1.852c.172.593.438 1.18.797 1.757a9.294 9.294 0 0 0 1.453 1.664l3.328 3.024c1.75 1.578 3.039 3.226 3.867 4.945.844 1.719 1.266 3.578 1.266 5.578 0 2.953-.672 5.196-2.016 6.727-1.343 1.516-3.46 2.273-6.351 2.273Z"/></mask><g fill="#E0E0E0" filter="url(#a)"><path d="M1.081 45V3.75h6.281V45h-6.28Zm12.586 0V9.844h6.21v3.82c.345-1.25.97-2.266 1.876-3.047.922-.797 2.172-1.195 3.75-1.195 1.203 0 2.25.265 3.14.797.891.531 1.579 1.445 2.063 2.742.594-1.094 1.375-1.953 2.344-2.578.969-.64 2.18-.961 3.633-.961 2.28 0 3.898.765 4.851 2.297.953 1.531 1.43 3.648 1.43 6.351V45h-6.188V18c0-1.25-.21-2.14-.632-2.672-.422-.547-1-.82-1.735-.82-.937 0-1.672.328-2.203.984-.516.64-.773 1.586-.773 2.836V45h-6.211V17.953c0-1.047-.18-1.883-.54-2.508-.343-.625-.93-.937-1.757-.937-1.078 0-1.86.414-2.344 1.242-.469.813-.703 1.781-.703 2.906V45h-6.211Zm40.993.352c-2.407 0-4.079-.875-5.016-2.625-.922-1.75-1.399-4.07-1.43-6.961v-2.25c0-1.875.266-3.399.797-4.57.547-1.173 1.32-2.126 2.32-2.86 1-.734 2.195-1.375 3.586-1.922 1.39-.547 2.938-1.133 4.64-1.758v-3.07c0-1.188-.046-2.133-.14-2.836-.094-.719-.305-1.242-.633-1.57-.328-.328-.836-.492-1.523-.492-.672 0-1.188.171-1.547.515-.344.328-.578.844-.703 1.547-.125.688-.188 1.57-.188 2.648v1.57h-6.14v-1.054c0-1.61.132-3.047.398-4.312.281-1.266.75-2.336 1.406-3.211.657-.891 1.547-1.563 2.672-2.016 1.14-.469 2.57-.703 4.29-.703 1.515 0 2.812.219 3.89.656 1.078.422 1.953 1.063 2.625 1.922.672.844 1.164 1.906 1.476 3.188.313 1.28.47 2.773.47 4.476V45h-6.26v-3.492a5.59 5.59 0 0 1-.96 1.898 5.202 5.202 0 0 1-1.712 1.407c-.671.359-1.445.539-2.32.539Zm2.155-4.782c.782 0 1.407-.28 1.875-.843.47-.563.758-1.133.868-1.711V25.922c-.938.422-1.727.82-2.368 1.195-.64.36-1.156.758-1.546 1.195a3.934 3.934 0 0 0-.844 1.547c-.172.594-.258 1.32-.258 2.18v3.938c0 1.609.164 2.78.492 3.515.344.719.938 1.078 1.781 1.078Zm22.758 9.703c-1.937.032-3.586-.156-4.945-.562a10.29 10.29 0 0 1-3.703-1.945l2.18-3.914c.828.53 1.726.96 2.695 1.289.984.343 2.047.507 3.187.492 1.188-.016 2.094-.43 2.72-1.242.624-.813.937-1.899.937-3.258v-2.79c-.407 1.173-1.032 1.977-1.875 2.415-.829.437-1.836.656-3.024.656-1.656 0-2.96-.437-3.914-1.312-.937-.875-1.602-2.07-1.992-3.586-.39-1.516-.586-3.235-.586-5.157V20.04c0-2.047.203-3.867.61-5.46.406-1.61 1.1-2.876 2.085-3.798.985-.922 2.336-1.375 4.055-1.36 1.203 0 2.195.306 2.977.915.796.61 1.351 1.484 1.664 2.625V9.844h6.21v30.82c0 1.39-.156 2.672-.468 3.844-.313 1.156-.828 2.156-1.547 3-.719.86-1.672 1.523-2.86 1.992-1.187.484-2.656.742-4.406.773Zm.633-13.57c.563 0 1.023-.164 1.383-.492.36-.344.625-.922.797-1.734.172-.829.258-1.977.258-3.446V19.523c0-1.546-.188-2.78-.563-3.703-.375-.922-1.055-1.383-2.039-1.383-.75 0-1.305.22-1.664.657-.36.437-.594 1.039-.703 1.804-.11.75-.164 1.618-.164 2.602v11.578c0 1.735.164 3.11.492 4.125.328 1 1.062 1.5 2.203 1.5Zm22.852 8.719c-1.766 0-3.22-.281-4.36-.844a6.336 6.336 0 0 1-2.648-2.437c-.625-1.063-1.063-2.336-1.313-3.82-.25-1.5-.375-3.173-.375-5.016V20.203c0-1.64.164-3.125.493-4.453.343-1.328.867-2.46 1.57-3.398.719-.938 1.648-1.657 2.789-2.157 1.14-.515 2.515-.773 4.125-.773 1.64 0 3.008.25 4.101.75 1.094.5 1.954 1.226 2.579 2.18.64.953 1.093 2.101 1.359 3.445.281 1.328.422 2.836.422 4.523v7.524h-11.18v6.914c0 1.703.133 3.07.399 4.101.265 1.032.992 1.547 2.179 1.547.797 0 1.36-.242 1.688-.726.343-.485.547-1.149.609-1.992.078-.86.117-1.836.117-2.93v-3.094h6.141v1.875c0 1.89-.117 3.57-.352 5.04-.218 1.468-.64 2.71-1.265 3.726-.61 1.015-1.485 1.789-2.625 2.32-1.141.531-2.625.797-4.453.797Zm-2.461-21.211h5.015v-4.5c0-1.172-.054-2.156-.164-2.953-.109-.813-.328-1.422-.656-1.828-.328-.407-.828-.61-1.5-.61-.828 0-1.438.242-1.828.727-.375.484-.617 1.148-.727 1.992-.093.828-.14 1.773-.14 2.836v4.336Zm23.718 21.234c-2.828 0-4.929-.804-6.304-2.414s-2.063-4.242-2.063-7.898v-2.274h5.836v2.836c0 1.532.188 2.696.563 3.492.375.797.984 1.196 1.828 1.196.812 0 1.414-.274 1.804-.82.391-.547.586-1.493.586-2.836 0-.782-.117-1.54-.351-2.274a7.644 7.644 0 0 0-1.055-2.156c-.469-.719-1.078-1.414-1.828-2.086l-3.164-2.86c-1.453-1.312-2.539-2.726-3.258-4.242-.719-1.53-1.078-3.218-1.078-5.062 0-2.985.695-5.164 2.086-6.54 1.406-1.39 3.484-2.085 6.234-2.085 1.782 0 3.258.336 4.43 1.008 1.172.656 2.047 1.726 2.625 3.21.578 1.485.867 3.477.867 5.977v1.922h-5.554v-2.32c0-1.547-.18-2.719-.54-3.516-.343-.797-.937-1.195-1.781-1.195-.828 0-1.437.234-1.828.703-.391.453-.601 1.258-.633 2.414a6.229 6.229 0 0 0 .235 1.852 7.02 7.02 0 0 0 .797 1.757 9.294 9.294 0 0 0 1.453 1.664l3.328 3.024c1.75 1.578 3.039 3.226 3.867 4.945.844 1.719 1.266 3.578 1.266 5.578 0 2.953-.672 5.196-2.016 6.727-1.344 1.516-3.461 2.273-6.352 2.273Zm27.704.024c-2.329 0-4.165-.797-5.508-2.39-1.344-1.61-2.016-3.923-2.016-6.938 0-1.61.313-3.149.938-4.618a22.046 22.046 0 0 1 2.414-4.289c1-1.39 2.054-2.734 3.164-4.03a105.798 105.798 0 0 1-2.391-6.868c-.641-2.11-.961-3.734-.961-4.875 0-2.656.688-4.688 2.063-6.094 1.39-1.406 3.226-2.11 5.507-2.11 1.657 0 3.032.321 4.125.962 1.094.625 1.915 1.547 2.461 2.765.547 1.204.821 2.672.821 4.407a11.98 11.98 0 0 1-.774 4.242 21.662 21.662 0 0 1-2.015 3.984 50.534 50.534 0 0 1-2.696 3.774l3.024 7.523a77.572 77.572 0 0 1 1.992-3.14 37.924 37.924 0 0 1 2.461-3.258l2.555 4.312a20.726 20.726 0 0 0-2.579 3.586 161.706 161.706 0 0 0-2.132 3.938L166.175 45h-5.813l-1.336-3.047a12.335 12.335 0 0 1-1.898 1.828 7.817 7.817 0 0 1-2.274 1.242c-.843.297-1.789.446-2.835.446Zm1.054-5.367c.469 0 .906-.133 1.313-.399.406-.266.804-.633 1.195-1.101.391-.485.789-1.055 1.195-1.711l-3.632-8.438a35.093 35.093 0 0 0-1.665 2.414 14.407 14.407 0 0 0-1.171 2.367 7.372 7.372 0 0 0-.493 2.32c-.046 1.485.196 2.618.727 3.4.547.765 1.391 1.148 2.531 1.148Zm2.133-21.914c.906-1.172 1.648-2.329 2.227-3.47.578-1.14.867-2.28.867-3.421 0-1.344-.164-2.313-.492-2.906-.329-.594-.954-.891-1.875-.891-.547 0-.993.11-1.336.328a2.2 2.2 0 0 0-.797.89c-.172.36-.289.759-.352 1.196a9.345 9.345 0 0 0-.094 1.313c0 .625.165 1.546.493 2.765a73.295 73.295 0 0 0 1.359 4.195ZM183.354 45l-6.398-41.25h5.977l2.695 18.633 1.664 13.125h.164l1.43-13.125 2.25-18.633h5.859L191.112 45h-7.758Zm17.696 0V9.844h6.211V45h-6.211Zm-.024-38.39V1.218h6.258v5.39h-6.258Zm18.493 38.742c-1.907 0-3.321-.508-4.243-1.524-.922-1.031-1.523-2.422-1.804-4.172-.282-1.75-.422-3.71-.422-5.883v-14.32c0-1.89.226-3.586.679-5.086.454-1.515 1.188-2.719 2.204-3.61 1.031-.89 2.39-1.335 4.078-1.335 1 0 1.898.242 2.695.726a4.963 4.963 0 0 1 1.852 1.875V3.398h6.211V45h-6.211v-3.258c-.469 1.188-1.125 2.086-1.969 2.696-.844.609-1.867.914-3.07.914Zm2.296-4.946c.75 0 1.321-.218 1.711-.656.407-.453.68-1.14.821-2.063.156-.937.234-2.117.234-3.539V20.086c0-1.719-.172-3.086-.516-4.102-.328-1.015-1.046-1.523-2.156-1.523-1.062 0-1.765.5-2.109 1.5-.328.984-.492 2.383-.492 4.195v14.461c0 1.203.07 2.242.211 3.117.156.86.414 1.524.773 1.993.359.453.867.68 1.523.68Zm23.321 5.016c-1.766 0-3.219-.281-4.36-.844a6.337 6.337 0 0 1-2.648-2.437c-.625-1.063-1.063-2.336-1.313-3.82-.25-1.5-.375-3.173-.375-5.016V20.203c0-1.64.164-3.125.493-4.453.343-1.328.867-2.46 1.57-3.398.719-.938 1.648-1.657 2.789-2.157 1.141-.515 2.516-.773 4.125-.773 1.641 0 3.008.25 4.102.75 1.093.5 1.953 1.226 2.578 2.18.64.953 1.093 2.101 1.359 3.445.281 1.328.422 2.836.422 4.523v7.524h-11.18v6.914c0 1.703.133 3.07.399 4.101.265 1.032.992 1.547 2.179 1.547.797 0 1.36-.242 1.688-.726.344-.485.547-1.149.609-1.992.078-.86.117-1.836.117-2.93v-3.094h6.141v1.875c0 1.89-.117 3.57-.352 5.04-.218 1.468-.64 2.71-1.265 3.726-.61 1.015-1.485 1.789-2.625 2.32-1.141.531-2.625.797-4.453.797Zm-2.461-21.211h5.015v-4.5c0-1.172-.054-2.156-.164-2.953-.109-.813-.328-1.422-.656-1.828-.328-.407-.828-.61-1.5-.61-.828 0-1.437.242-1.828.727-.375.484-.617 1.148-.727 1.992-.093.828-.14 1.773-.14 2.836v4.336Zm24.75 21.211c-1.688 0-3.102-.258-4.242-.774-1.141-.53-2.047-1.289-2.719-2.273-.656-1-1.133-2.21-1.43-3.633-.281-1.437-.422-3.07-.422-4.898V20.695c0-2.203.282-4.148.844-5.836.578-1.703 1.516-3.03 2.813-3.984 1.296-.969 3.015-1.453 5.156-1.453 1.625 0 2.992.273 4.101.82a6.657 6.657 0 0 1 2.696 2.344c.687 1 1.187 2.187 1.5 3.562.312 1.375.468 2.891.468 4.547v13.149c0 1.797-.14 3.406-.421 4.828-.266 1.422-.735 2.64-1.407 3.656-.656 1-1.547 1.766-2.672 2.297-1.125.531-2.546.797-4.265.797Zm0-5.016c.703 0 1.234-.21 1.594-.633.359-.437.601-1.039.726-1.804.125-.766.188-1.649.188-2.649V19.594c0-1.063-.071-1.977-.211-2.742-.141-.766-.391-1.36-.75-1.782-.36-.422-.875-.633-1.547-.633-.703 0-1.242.211-1.617.633-.36.422-.61 1.016-.75 1.782-.125.765-.188 1.68-.188 2.742V35.32c0 1 .063 1.883.188 2.649.14.765.39 1.367.75 1.804.375.422.914.633 1.617.633Zm21.703 5.039c-2.828 0-4.93-.804-6.305-2.414s-2.062-4.242-2.062-7.898v-2.274h5.836v2.836c0 1.532.187 2.696.562 3.492.375.797.985 1.196 1.828 1.196.813 0 1.414-.274 1.805-.82.391-.547.586-1.493.586-2.836 0-.782-.117-1.54-.352-2.274a7.64 7.64 0 0 0-1.054-2.156c-.469-.719-1.078-1.414-1.828-2.086l-3.165-2.86c-1.453-1.312-2.539-2.726-3.257-4.242-.719-1.53-1.078-3.218-1.078-5.062 0-2.985.695-5.164 2.085-6.54 1.407-1.39 3.485-2.085 6.235-2.085 1.781 0 3.258.336 4.43 1.008 1.171.656 2.046 1.726 2.625 3.21.578 1.485.867 3.477.867 5.977v1.922h-5.555v-2.32c0-1.547-.18-2.719-.539-3.516-.344-.797-.938-1.195-1.781-1.195-.828 0-1.438.234-1.828.703-.391.453-.602 1.258-.633 2.414a6.196 6.196 0 0 0 .234 1.852c.172.593.438 1.18.797 1.757a9.294 9.294 0 0 0 1.453 1.664l3.328 3.024c1.75 1.578 3.039 3.226 3.867 4.945.844 1.719 1.266 3.578 1.266 5.578 0 2.953-.672 5.196-2.016 6.727-1.343 1.516-3.46 2.273-6.351 2.273Z"/></g><path stroke="#EAEAEA" stroke-width="2" d="M1.081 45V3.75h6.281V45h-6.28Zm12.586 0V9.844h6.21v3.82c.345-1.25.97-2.266 1.876-3.047.922-.797 2.172-1.195 3.75-1.195 1.203 0 2.25.265 3.14.797.891.531 1.579 1.445 2.063 2.742.594-1.094 1.375-1.953 2.344-2.578.969-.64 2.18-.961 3.633-.961 2.28 0 3.898.765 4.851 2.297.953 1.531 1.43 3.648 1.43 6.351V45h-6.188V18c0-1.25-.21-2.14-.632-2.672-.422-.547-1-.82-1.735-.82-.937 0-1.672.328-2.203.984-.516.64-.773 1.586-.773 2.836V45h-6.211V17.953c0-1.047-.18-1.883-.54-2.508-.343-.625-.93-.937-1.757-.937-1.078 0-1.86.414-2.344 1.242-.469.813-.703 1.781-.703 2.906V45h-6.211Zm40.993.352c-2.407 0-4.079-.875-5.016-2.625-.922-1.75-1.399-4.07-1.43-6.961v-2.25c0-1.875.266-3.399.797-4.57.547-1.173 1.32-2.126 2.32-2.86 1-.734 2.195-1.375 3.586-1.922 1.39-.547 2.938-1.133 4.64-1.758v-3.07c0-1.188-.046-2.133-.14-2.836-.094-.719-.305-1.242-.633-1.57-.328-.328-.836-.492-1.523-.492-.672 0-1.188.171-1.547.515-.344.328-.578.844-.703 1.547-.125.688-.188 1.57-.188 2.648v1.57h-6.14v-1.054c0-1.61.132-3.047.398-4.312.281-1.266.75-2.336 1.406-3.211.657-.891 1.547-1.563 2.672-2.016 1.14-.469 2.57-.703 4.29-.703 1.515 0 2.812.219 3.89.656 1.078.422 1.953 1.063 2.625 1.922.672.844 1.164 1.906 1.476 3.188.313 1.28.47 2.773.47 4.476V45h-6.26v-3.492a5.59 5.59 0 0 1-.96 1.898 5.202 5.202 0 0 1-1.712 1.407c-.671.359-1.445.539-2.32.539Zm2.155-4.782c.782 0 1.407-.28 1.875-.843.47-.563.758-1.133.868-1.711V25.922c-.938.422-1.727.82-2.368 1.195-.64.36-1.156.758-1.546 1.195a3.934 3.934 0 0 0-.844 1.547c-.172.594-.258 1.32-.258 2.18v3.938c0 1.609.164 2.78.492 3.515.344.719.938 1.078 1.781 1.078Zm22.758 9.703c-1.937.032-3.586-.156-4.945-.562a10.29 10.29 0 0 1-3.703-1.945l2.18-3.914c.828.53 1.726.96 2.695 1.289.984.343 2.047.507 3.187.492 1.188-.016 2.094-.43 2.72-1.242.624-.813.937-1.899.937-3.258v-2.79c-.407 1.173-1.032 1.977-1.875 2.415-.829.437-1.836.656-3.024.656-1.656 0-2.96-.437-3.914-1.312-.937-.875-1.602-2.07-1.992-3.586-.39-1.516-.586-3.235-.586-5.157V20.04c0-2.047.203-3.867.61-5.46.406-1.61 1.1-2.876 2.085-3.798.985-.922 2.336-1.375 4.055-1.36 1.203 0 2.195.306 2.977.915.796.61 1.351 1.484 1.664 2.625V9.844h6.21v30.82c0 1.39-.156 2.672-.468 3.844-.313 1.156-.828 2.156-1.547 3-.719.86-1.672 1.523-2.86 1.992-1.187.484-2.656.742-4.406.773Zm.633-13.57c.563 0 1.023-.164 1.383-.492.36-.344.625-.922.797-1.734.172-.829.258-1.977.258-3.446V19.523c0-1.546-.188-2.78-.563-3.703-.375-.922-1.055-1.383-2.039-1.383-.75 0-1.305.22-1.664.657-.36.437-.594 1.039-.703 1.804-.11.75-.164 1.618-.164 2.602v11.578c0 1.735.164 3.11.492 4.125.328 1 1.062 1.5 2.203 1.5Zm22.852 8.719c-1.766 0-3.22-.281-4.36-.844a6.336 6.336 0 0 1-2.648-2.437c-.625-1.063-1.063-2.336-1.313-3.82-.25-1.5-.375-3.173-.375-5.016V20.203c0-1.64.164-3.125.493-4.453.343-1.328.867-2.46 1.57-3.398.719-.938 1.648-1.657 2.789-2.157 1.14-.515 2.515-.773 4.125-.773 1.64 0 3.008.25 4.101.75 1.094.5 1.954 1.226 2.579 2.18.64.953 1.093 2.101 1.359 3.445.281 1.328.422 2.836.422 4.523v7.524h-11.18v6.914c0 1.703.133 3.07.399 4.101.265 1.032.992 1.547 2.179 1.547.797 0 1.36-.242 1.688-.726.343-.485.547-1.149.609-1.992.078-.86.117-1.836.117-2.93v-3.094h6.141v1.875c0 1.89-.117 3.57-.352 5.04-.218 1.468-.64 2.71-1.265 3.726-.61 1.015-1.485 1.789-2.625 2.32-1.141.531-2.625.797-4.453.797Zm-2.461-21.211h5.015v-4.5c0-1.172-.054-2.156-.164-2.953-.109-.813-.328-1.422-.656-1.828-.328-.407-.828-.61-1.5-.61-.828 0-1.438.242-1.828.727-.375.484-.617 1.148-.727 1.992-.093.828-.14 1.773-.14 2.836v4.336Zm23.718 21.234c-2.828 0-4.929-.804-6.304-2.414s-2.063-4.242-2.063-7.898v-2.274h5.836v2.836c0 1.532.188 2.696.563 3.492.375.797.984 1.196 1.828 1.196.812 0 1.414-.274 1.804-.82.391-.547.586-1.493.586-2.836 0-.782-.117-1.54-.351-2.274a7.644 7.644 0 0 0-1.055-2.156c-.469-.719-1.078-1.414-1.828-2.086l-3.164-2.86c-1.453-1.312-2.539-2.726-3.258-4.242-.719-1.53-1.078-3.218-1.078-5.062 0-2.985.695-5.164 2.086-6.54 1.406-1.39 3.484-2.085 6.234-2.085 1.782 0 3.258.336 4.43 1.008 1.172.656 2.047 1.726 2.625 3.21.578 1.485.867 3.477.867 5.977v1.922h-5.554v-2.32c0-1.547-.18-2.719-.54-3.516-.343-.797-.937-1.195-1.781-1.195-.828 0-1.437.234-1.828.703-.391.453-.601 1.258-.633 2.414a6.229 6.229 0 0 0 .235 1.852 7.02 7.02 0 0 0 .797 1.757 9.294 9.294 0 0 0 1.453 1.664l3.328 3.024c1.75 1.578 3.039 3.226 3.867 4.945.844 1.719 1.266 3.578 1.266 5.578 0 2.953-.672 5.196-2.016 6.727-1.344 1.516-3.461 2.273-6.352 2.273Zm27.704.024c-2.329 0-4.165-.797-5.508-2.39-1.344-1.61-2.016-3.923-2.016-6.938 0-1.61.313-3.149.938-4.618a22.046 22.046 0 0 1 2.414-4.289c1-1.39 2.054-2.734 3.164-4.03a105.798 105.798 0 0 1-2.391-6.868c-.641-2.11-.961-3.734-.961-4.875 0-2.656.688-4.688 2.063-6.094 1.39-1.406 3.226-2.11 5.507-2.11 1.657 0 3.032.321 4.125.962 1.094.625 1.915 1.547 2.461 2.765.547 1.204.821 2.672.821 4.407a11.98 11.98 0 0 1-.774 4.242 21.662 21.662 0 0 1-2.015 3.984 50.534 50.534 0 0 1-2.696 3.774l3.024 7.523a77.572 77.572 0 0 1 1.992-3.14 37.924 37.924 0 0 1 2.461-3.258l2.555 4.312a20.726 20.726 0 0 0-2.579 3.586 161.706 161.706 0 0 0-2.132 3.938L166.175 45h-5.813l-1.336-3.047a12.335 12.335 0 0 1-1.898 1.828 7.817 7.817 0 0 1-2.274 1.242c-.843.297-1.789.446-2.835.446Zm1.054-5.367c.469 0 .906-.133 1.313-.399.406-.266.804-.633 1.195-1.101.391-.485.789-1.055 1.195-1.711l-3.632-8.438a35.093 35.093 0 0 0-1.665 2.414 14.407 14.407 0 0 0-1.171 2.367 7.372 7.372 0 0 0-.493 2.32c-.046 1.485.196 2.618.727 3.4.547.765 1.391 1.148 2.531 1.148Zm2.133-21.914c.906-1.172 1.648-2.329 2.227-3.47.578-1.14.867-2.28.867-3.421 0-1.344-.164-2.313-.492-2.906-.329-.594-.954-.891-1.875-.891-.547 0-.993.11-1.336.328a2.2 2.2 0 0 0-.797.89c-.172.36-.289.759-.352 1.196a9.345 9.345 0 0 0-.094 1.313c0 .625.165 1.546.493 2.765a73.295 73.295 0 0 0 1.359 4.195ZM183.354 45l-6.398-41.25h5.977l2.695 18.633 1.664 13.125h.164l1.43-13.125 2.25-18.633h5.859L191.112 45h-7.758Zm17.696 0V9.844h6.211V45h-6.211Zm-.024-38.39V1.218h6.258v5.39h-6.258Zm18.493 38.742c-1.907 0-3.321-.508-4.243-1.524-.922-1.031-1.523-2.422-1.804-4.172-.282-1.75-.422-3.71-.422-5.883v-14.32c0-1.89.226-3.586.679-5.086.454-1.515 1.188-2.719 2.204-3.61 1.031-.89 2.39-1.335 4.078-1.335 1 0 1.898.242 2.695.726a4.963 4.963 0 0 1 1.852 1.875V3.398h6.211V45h-6.211v-3.258c-.469 1.188-1.125 2.086-1.969 2.696-.844.609-1.867.914-3.07.914Zm2.296-4.946c.75 0 1.321-.218 1.711-.656.407-.453.68-1.14.821-2.063.156-.937.234-2.117.234-3.539V20.086c0-1.719-.172-3.086-.516-4.102-.328-1.015-1.046-1.523-2.156-1.523-1.062 0-1.765.5-2.109 1.5-.328.984-.492 2.383-.492 4.195v14.461c0 1.203.07 2.242.211 3.117.156.86.414 1.524.773 1.993.359.453.867.68 1.523.68Zm23.321 5.016c-1.766 0-3.219-.281-4.36-.844a6.337 6.337 0 0 1-2.648-2.437c-.625-1.063-1.063-2.336-1.313-3.82-.25-1.5-.375-3.173-.375-5.016V20.203c0-1.64.164-3.125.493-4.453.343-1.328.867-2.46 1.57-3.398.719-.938 1.648-1.657 2.789-2.157 1.141-.515 2.516-.773 4.125-.773 1.641 0 3.008.25 4.102.75 1.093.5 1.953 1.226 2.578 2.18.64.953 1.093 2.101 1.359 3.445.281 1.328.422 2.836.422 4.523v7.524h-11.18v6.914c0 1.703.133 3.07.399 4.101.265 1.032.992 1.547 2.179 1.547.797 0 1.36-.242 1.688-.726.344-.485.547-1.149.609-1.992.078-.86.117-1.836.117-2.93v-3.094h6.141v1.875c0 1.89-.117 3.57-.352 5.04-.218 1.468-.64 2.71-1.265 3.726-.61 1.015-1.485 1.789-2.625 2.32-1.141.531-2.625.797-4.453.797Zm-2.461-21.211h5.015v-4.5c0-1.172-.054-2.156-.164-2.953-.109-.813-.328-1.422-.656-1.828-.328-.407-.828-.61-1.5-.61-.828 0-1.437.242-1.828.727-.375.484-.617 1.148-.727 1.992-.093.828-.14 1.773-.14 2.836v4.336Zm24.75 21.211c-1.688 0-3.102-.258-4.242-.774-1.141-.53-2.047-1.289-2.719-2.273-.656-1-1.133-2.21-1.43-3.633-.281-1.437-.422-3.07-.422-4.898V20.695c0-2.203.282-4.148.844-5.836.578-1.703 1.516-3.03 2.813-3.984 1.296-.969 3.015-1.453 5.156-1.453 1.625 0 2.992.273 4.101.82a6.657 6.657 0 0 1 2.696 2.344c.687 1 1.187 2.187 1.5 3.562.312 1.375.468 2.891.468 4.547v13.149c0 1.797-.14 3.406-.421 4.828-.266 1.422-.735 2.64-1.407 3.656-.656 1-1.547 1.766-2.672 2.297-1.125.531-2.546.797-4.265.797Zm0-5.016c.703 0 1.234-.21 1.594-.633.359-.437.601-1.039.726-1.804.125-.766.188-1.649.188-2.649V19.594c0-1.063-.071-1.977-.211-2.742-.141-.766-.391-1.36-.75-1.782-.36-.422-.875-.633-1.547-.633-.703 0-1.242.211-1.617.633-.36.422-.61 1.016-.75 1.782-.125.765-.188 1.68-.188 2.742V35.32c0 1 .063 1.883.188 2.649.14.765.39 1.367.75 1.804.375.422.914.633 1.617.633Zm21.703 5.039c-2.828 0-4.93-.804-6.305-2.414s-2.062-4.242-2.062-7.898v-2.274h5.836v2.836c0 1.532.187 2.696.562 3.492.375.797.985 1.196 1.828 1.196.813 0 1.414-.274 1.805-.82.391-.547.586-1.493.586-2.836 0-.782-.117-1.54-.352-2.274a7.64 7.64 0 0 0-1.054-2.156c-.469-.719-1.078-1.414-1.828-2.086l-3.165-2.86c-1.453-1.312-2.539-2.726-3.257-4.242-.719-1.53-1.078-3.218-1.078-5.062 0-2.985.695-5.164 2.085-6.54 1.407-1.39 3.485-2.085 6.235-2.085 1.781 0 3.258.336 4.43 1.008 1.171.656 2.046 1.726 2.625 3.21.578 1.485.867 3.477.867 5.977v1.922h-5.555v-2.32c0-1.547-.18-2.719-.539-3.516-.344-.797-.938-1.195-1.781-1.195-.828 0-1.438.234-1.828.703-.391.453-.602 1.258-.633 2.414a6.196 6.196 0 0 0 .234 1.852c.172.593.438 1.18.797 1.757a9.294 9.294 0 0 0 1.453 1.664l3.328 3.024c1.75 1.578 3.039 3.226 3.867 4.945.844 1.719 1.266 3.578 1.266 5.578 0 2.953-.672 5.196-2.016 6.727-1.343 1.516-3.46 2.273-6.351 2.273Z" mask="url(#b)"/><defs><filter id="a" width="302.414" height="55.058" x="-.919" y="-.781" color-interpolation-filters="sRGB" filterUnits="userSpaceOnUse"><feFlood flood-opacity="0" result="BackgroundImageFix"/><feBlend in="SourceGraphic" in2="BackgroundImageFix" result="shape"/><feColorMatrix in="SourceAlpha" result="hardAlpha" values="0 0 0 0 0 0 0 0 0 0 0 0 0 0 0 0 0 0 127 0"/><feOffset dx="-1" dy="-1"/><feGaussianBlur stdDeviation="1.5"/><feComposite in2="hardAlpha" k2="-1" k3="1" operator="arithmetic"/><feColorMatrix values="0 0 0 0 0.984314 0 0 0 0 0.984314 0 0 0 0 0.984314 0 0 0 1 0"/><feBlend in2="shape" result="effect1_innerShadow_127_2785"/><feColorMatrix in="SourceAlpha" result="hardAlpha" values="0 0 0 0 0 0 0 0 0 0 0 0 0 0 0 0 0 0 127 0"/><feOffset dx="3" dy="3"/><feGaussianBlur stdDeviation="4.5"/><feComposite in2="hardAlpha" k2="-1" k3="1" operator="arithmetic"/><feColorMatrix values="0 0 0 0 0.772549 0 0 0 0 0.772549 0 0 0 0 0.772549 0 0 0 1 0"/><feBlend in2="effect1_innerShadow_127_2785" result="effect2_innerShadow_127_2785"/></filter></defs></svg>