<svg xmlns="http://www.w3.org/2000/svg" width="198" height="45" fill="none"><mask id="b" width="198" height="45" x=".378" y=".281" fill="#000" maskUnits="userSpaceOnUse"><path fill="#fff" d="M.378.281h198v45h-198z"/><path d="M10.354 43.469c-2 0-3.664-.461-4.992-1.383-1.328-.922-2.328-2.266-3-4.031-.656-1.782-.984-3.93-.984-6.446V13.633c0-1.89.156-3.594.469-5.11.312-1.515.82-2.812 1.523-3.89a6.98 6.98 0 0 1 2.813-2.485c1.171-.578 2.617-.867 4.336-.867 1.562 0 2.89.258 3.984.774a6.6 6.6 0 0 1 2.695 2.18c.703.952 1.211 2.109 1.524 3.468.328 1.344.492 2.86.492 4.547v5.672h-6.07v-5.274c0-2.03-.172-3.523-.516-4.476-.344-.969-1.031-1.453-2.063-1.453-1.14 0-1.906.523-2.296 1.57-.375 1.031-.563 2.477-.563 4.336v19.266c0 1.437.078 2.617.234 3.539.172.906.454 1.578.844 2.015.39.422.938.633 1.64.633 1.063 0 1.782-.5 2.157-1.5s.563-2.586.563-4.758v-5.906h6.164v5.836c0 2.61-.305 4.79-.914 6.54-.61 1.733-1.579 3.03-2.907 3.89-1.312.86-3.023 1.289-5.133 1.289Zm22.571-.047c-1.688 0-3.102-.258-4.242-.774-1.141-.53-2.047-1.289-2.72-2.273-.655-1-1.132-2.21-1.429-3.633-.281-1.437-.422-3.07-.422-4.898V18.695c0-2.203.282-4.148.844-5.836.578-1.703 1.516-3.03 2.813-3.984 1.296-.969 3.015-1.453 5.156-1.453 1.625 0 2.992.273 4.101.82a6.654 6.654 0 0 1 2.696 2.344c.687 1 1.187 2.187 1.5 3.562.312 1.375.468 2.891.468 4.547v13.149c0 1.797-.14 3.406-.421 4.828-.266 1.422-.735 2.64-1.407 3.656-.656 1-1.547 1.766-2.672 2.297-1.125.531-2.546.797-4.265.797Zm0-5.016c.703 0 1.234-.21 1.594-.633.359-.437.601-1.039.726-1.804.125-.766.188-1.649.188-2.649V17.594c0-1.063-.07-1.977-.211-2.742-.14-.766-.39-1.36-.75-1.782-.36-.422-.875-.633-1.547-.633-.703 0-1.242.211-1.617.633-.36.422-.61 1.016-.75 1.782-.125.765-.188 1.68-.188 2.742V33.32c0 1 .063 1.883.188 2.649.14.765.39 1.367.75 1.804.375.422.914.633 1.617.633ZM47.362 43V1.398h6.188V43h-6.188Zm20.766.422c-1.688 0-3.102-.258-4.242-.774-1.14-.53-2.047-1.289-2.719-2.273-.656-1-1.133-2.21-1.43-3.633-.28-1.437-.422-3.07-.422-4.898V18.695c0-2.203.282-4.148.844-5.836.578-1.703 1.516-3.03 2.813-3.984 1.297-.969 3.015-1.453 5.156-1.453 1.625 0 2.992.273 4.102.82a6.654 6.654 0 0 1 2.695 2.344c.687 1 1.187 2.187 1.5 3.562.312 1.375.469 2.891.469 4.547v13.149c0 1.797-.141 3.406-.422 4.828-.266 1.422-.735 2.64-1.407 3.656-.656 1-1.546 1.766-2.671 2.297-1.125.531-2.547.797-4.266.797Zm0-5.016c.703 0 1.234-.21 1.594-.633.36-.437.601-1.039.726-1.804.125-.766.188-1.649.188-2.649V17.594c0-1.063-.07-1.977-.211-2.742-.14-.766-.39-1.36-.75-1.782-.36-.422-.875-.633-1.547-.633-.703 0-1.242.211-1.617.633-.36.422-.61 1.016-.75 1.782-.125.765-.188 1.68-.188 2.742V33.32c0 1 .063 1.883.188 2.649.14.765.39 1.367.75 1.804.375.422.914.633 1.617.633ZM82.565 43V7.844h6.258v3.914c.407-1.36 1.11-2.422 2.11-3.188 1.015-.765 2.304-1.148 3.867-1.148.031 0 .047.266.047.797.015.531.023 1.14.023 1.828v2.625c-.719 0-1.5.086-2.344.258a8.694 8.694 0 0 0-2.273.797c-.672.343-1.148.804-1.43 1.382V43h-6.258Zm27.141 0V7.187h-4.828V1.75h15.726v5.438h-4.64V43h-6.258Zm21.563.422c-1.688 0-3.102-.258-4.243-.774-1.14-.53-2.047-1.289-2.718-2.273-.657-1-1.133-2.21-1.43-3.633-.281-1.437-.422-3.07-.422-4.898V18.695c0-2.203.281-4.148.844-5.836.578-1.703 1.515-3.03 2.812-3.984 1.297-.969 3.016-1.453 5.157-1.453 1.625 0 2.992.273 4.101.82a6.647 6.647 0 0 1 2.695 2.344c.688 1 1.188 2.187 1.5 3.562.313 1.375.469 2.891.469 4.547v13.149c0 1.797-.14 3.406-.422 4.828-.265 1.422-.734 2.64-1.406 3.656-.656 1-1.547 1.766-2.672 2.297-1.125.531-2.547.797-4.265.797Zm0-5.016c.703 0 1.234-.21 1.593-.633.36-.437.602-1.039.727-1.804.125-.766.187-1.649.187-2.649V17.594c0-1.063-.07-1.977-.211-2.742-.14-.766-.39-1.36-.75-1.782-.359-.422-.875-.633-1.546-.633-.704 0-1.243.211-1.618.633-.359.422-.609 1.016-.75 1.782-.125.765-.187 1.68-.187 2.742V33.32c0 1 .062 1.883.187 2.649.141.765.391 1.367.75 1.804.375.422.914.633 1.618.633Zm22.734 5.016c-1.688 0-3.102-.258-4.242-.774-1.141-.53-2.047-1.289-2.719-2.273-.656-1-1.133-2.21-1.43-3.633-.281-1.437-.422-3.07-.422-4.898V18.695c0-2.203.282-4.148.844-5.836.578-1.703 1.516-3.03 2.813-3.984 1.297-.969 3.015-1.453 5.156-1.453 1.625 0 2.992.273 4.101.82a6.657 6.657 0 0 1 2.696 2.344c.687 1 1.187 2.187 1.5 3.562.312 1.375.469 2.891.469 4.547v13.149c0 1.797-.141 3.406-.422 4.828-.266 1.422-.735 2.64-1.407 3.656-.656 1-1.546 1.766-2.671 2.297-1.125.531-2.547.797-4.266.797Zm0-5.016c.703 0 1.234-.21 1.594-.633.359-.437.601-1.039.726-1.804.125-.766.188-1.649.188-2.649V17.594c0-1.063-.071-1.977-.211-2.742-.141-.766-.391-1.36-.75-1.782-.36-.422-.875-.633-1.547-.633-.703 0-1.242.211-1.617.633-.36.422-.61 1.016-.75 1.782-.125.765-.188 1.68-.188 2.742V33.32c0 1 .063 1.883.188 2.649.14.765.39 1.367.75 1.804.375.422.914.633 1.617.633ZM168.44 43V1.398h6.188V43h-6.188Zm19.735.445c-2.828 0-4.93-.804-6.305-2.414s-2.062-4.242-2.062-7.898v-2.274h5.836v2.836c0 1.532.187 2.696.562 3.492.375.797.984 1.196 1.828 1.196.813 0 1.414-.274 1.805-.82.39-.547.586-1.493.586-2.836 0-.782-.117-1.54-.352-2.274a7.667 7.667 0 0 0-1.054-2.156c-.469-.719-1.079-1.414-1.829-2.086l-3.164-2.86c-1.453-1.312-2.539-2.726-3.257-4.242-.719-1.53-1.079-3.218-1.079-5.062 0-2.985.696-5.164 2.086-6.54 1.407-1.39 3.485-2.085 6.235-2.085 1.781 0 3.258.336 4.429 1.008 1.172.656 2.047 1.726 2.625 3.21.579 1.485.868 3.477.868 5.977v1.922h-5.555v-2.32c0-1.547-.18-2.719-.539-3.516-.344-.797-.938-1.195-1.781-1.195-.829 0-1.438.234-1.829.703-.39.453-.601 1.258-.632 2.414a6.196 6.196 0 0 0 .234 1.852c.172.593.438 1.18.797 1.757a9.294 9.294 0 0 0 1.453 1.664l3.328 3.024c1.75 1.578 3.039 3.226 3.867 4.945.844 1.719 1.266 3.578 1.266 5.578 0 2.953-.672 5.196-2.016 6.727-1.343 1.516-3.461 2.273-6.351 2.273Z"/></mask><g fill="#D1DADB" filter="url(#a)"><path d="M10.354 43.469c-2 0-3.664-.461-4.992-1.383-1.328-.922-2.328-2.266-3-4.031-.656-1.782-.984-3.93-.984-6.446V13.633c0-1.89.156-3.594.469-5.11.312-1.515.82-2.812 1.523-3.89a6.98 6.98 0 0 1 2.813-2.485c1.171-.578 2.617-.867 4.336-.867 1.562 0 2.89.258 3.984.774a6.6 6.6 0 0 1 2.695 2.18c.703.952 1.211 2.109 1.524 3.468.328 1.344.492 2.86.492 4.547v5.672h-6.07v-5.274c0-2.03-.172-3.523-.516-4.476-.344-.969-1.031-1.453-2.063-1.453-1.14 0-1.906.523-2.296 1.57-.375 1.031-.563 2.477-.563 4.336v19.266c0 1.437.078 2.617.234 3.539.172.906.454 1.578.844 2.015.39.422.938.633 1.64.633 1.063 0 1.782-.5 2.157-1.5s.563-2.586.563-4.758v-5.906h6.164v5.836c0 2.61-.305 4.79-.914 6.54-.61 1.733-1.579 3.03-2.907 3.89-1.312.86-3.023 1.289-5.133 1.289Zm22.571-.047c-1.688 0-3.102-.258-4.242-.774-1.141-.53-2.047-1.289-2.72-2.273-.655-1-1.132-2.21-1.429-3.633-.281-1.437-.422-3.07-.422-4.898V18.695c0-2.203.282-4.148.844-5.836.578-1.703 1.516-3.03 2.813-3.984 1.296-.969 3.015-1.453 5.156-1.453 1.625 0 2.992.273 4.101.82a6.654 6.654 0 0 1 2.696 2.344c.687 1 1.187 2.187 1.5 3.562.312 1.375.468 2.891.468 4.547v13.149c0 1.797-.14 3.406-.421 4.828-.266 1.422-.735 2.64-1.407 3.656-.656 1-1.547 1.766-2.672 2.297-1.125.531-2.546.797-4.265.797Zm0-5.016c.703 0 1.234-.21 1.594-.633.359-.437.601-1.039.726-1.804.125-.766.188-1.649.188-2.649V17.594c0-1.063-.07-1.977-.211-2.742-.14-.766-.39-1.36-.75-1.782-.36-.422-.875-.633-1.547-.633-.703 0-1.242.211-1.617.633-.36.422-.61 1.016-.75 1.782-.125.765-.188 1.68-.188 2.742V33.32c0 1 .063 1.883.188 2.649.14.765.39 1.367.75 1.804.375.422.914.633 1.617.633ZM47.362 43V1.398h6.188V43h-6.188Zm20.766.422c-1.688 0-3.102-.258-4.242-.774-1.14-.53-2.047-1.289-2.719-2.273-.656-1-1.133-2.21-1.43-3.633-.28-1.437-.422-3.07-.422-4.898V18.695c0-2.203.282-4.148.844-5.836.578-1.703 1.516-3.03 2.813-3.984 1.297-.969 3.015-1.453 5.156-1.453 1.625 0 2.992.273 4.102.82a6.654 6.654 0 0 1 2.695 2.344c.687 1 1.187 2.187 1.5 3.562.312 1.375.469 2.891.469 4.547v13.149c0 1.797-.141 3.406-.422 4.828-.266 1.422-.735 2.64-1.407 3.656-.656 1-1.546 1.766-2.671 2.297-1.125.531-2.547.797-4.266.797Zm0-5.016c.703 0 1.234-.21 1.594-.633.36-.437.601-1.039.726-1.804.125-.766.188-1.649.188-2.649V17.594c0-1.063-.07-1.977-.211-2.742-.14-.766-.39-1.36-.75-1.782-.36-.422-.875-.633-1.547-.633-.703 0-1.242.211-1.617.633-.36.422-.61 1.016-.75 1.782-.125.765-.188 1.68-.188 2.742V33.32c0 1 .063 1.883.188 2.649.14.765.39 1.367.75 1.804.375.422.914.633 1.617.633ZM82.565 43V7.844h6.258v3.914c.407-1.36 1.11-2.422 2.11-3.188 1.015-.765 2.304-1.148 3.867-1.148.031 0 .047.266.047.797.015.531.023 1.14.023 1.828v2.625c-.719 0-1.5.086-2.344.258a8.694 8.694 0 0 0-2.273.797c-.672.343-1.148.804-1.43 1.382V43h-6.258Zm27.141 0V7.187h-4.828V1.75h15.726v5.438h-4.64V43h-6.258Zm21.563.422c-1.688 0-3.102-.258-4.243-.774-1.14-.53-2.047-1.289-2.718-2.273-.657-1-1.133-2.21-1.43-3.633-.281-1.437-.422-3.07-.422-4.898V18.695c0-2.203.281-4.148.844-5.836.578-1.703 1.515-3.03 2.812-3.984 1.297-.969 3.016-1.453 5.157-1.453 1.625 0 2.992.273 4.101.82a6.647 6.647 0 0 1 2.695 2.344c.688 1 1.188 2.187 1.5 3.562.313 1.375.469 2.891.469 4.547v13.149c0 1.797-.14 3.406-.422 4.828-.265 1.422-.734 2.64-1.406 3.656-.656 1-1.547 1.766-2.672 2.297-1.125.531-2.547.797-4.265.797Zm0-5.016c.703 0 1.234-.21 1.593-.633.36-.437.602-1.039.727-1.804.125-.766.187-1.649.187-2.649V17.594c0-1.063-.07-1.977-.211-2.742-.14-.766-.39-1.36-.75-1.782-.359-.422-.875-.633-1.546-.633-.704 0-1.243.211-1.618.633-.359.422-.609 1.016-.75 1.782-.125.765-.187 1.68-.187 2.742V33.32c0 1 .062 1.883.187 2.649.141.765.391 1.367.75 1.804.375.422.914.633 1.618.633Zm22.734 5.016c-1.688 0-3.102-.258-4.242-.774-1.141-.53-2.047-1.289-2.719-2.273-.656-1-1.133-2.21-1.43-3.633-.281-1.437-.422-3.07-.422-4.898V18.695c0-2.203.282-4.148.844-5.836.578-1.703 1.516-3.03 2.813-3.984 1.297-.969 3.015-1.453 5.156-1.453 1.625 0 2.992.273 4.101.82a6.657 6.657 0 0 1 2.696 2.344c.687 1 1.187 2.187 1.5 3.562.312 1.375.469 2.891.469 4.547v13.149c0 1.797-.141 3.406-.422 4.828-.266 1.422-.735 2.64-1.407 3.656-.656 1-1.546 1.766-2.671 2.297-1.125.531-2.547.797-4.266.797Zm0-5.016c.703 0 1.234-.21 1.594-.633.359-.437.601-1.039.726-1.804.125-.766.188-1.649.188-2.649V17.594c0-1.063-.071-1.977-.211-2.742-.141-.766-.391-1.36-.75-1.782-.36-.422-.875-.633-1.547-.633-.703 0-1.242.211-1.617.633-.36.422-.61 1.016-.75 1.782-.125.765-.188 1.68-.188 2.742V33.32c0 1 .063 1.883.188 2.649.14.765.39 1.367.75 1.804.375.422.914.633 1.617.633ZM168.44 43V1.398h6.188V43h-6.188Zm19.735.445c-2.828 0-4.93-.804-6.305-2.414s-2.062-4.242-2.062-7.898v-2.274h5.836v2.836c0 1.532.187 2.696.562 3.492.375.797.984 1.196 1.828 1.196.813 0 1.414-.274 1.805-.82.39-.547.586-1.493.586-2.836 0-.782-.117-1.54-.352-2.274a7.667 7.667 0 0 0-1.054-2.156c-.469-.719-1.079-1.414-1.829-2.086l-3.164-2.86c-1.453-1.312-2.539-2.726-3.257-4.242-.719-1.53-1.079-3.218-1.079-5.062 0-2.985.696-5.164 2.086-6.54 1.407-1.39 3.485-2.085 6.235-2.085 1.781 0 3.258.336 4.429 1.008 1.172.656 2.047 1.726 2.625 3.21.579 1.485.868 3.477.868 5.977v1.922h-5.555v-2.32c0-1.547-.18-2.719-.539-3.516-.344-.797-.938-1.195-1.781-1.195-.829 0-1.438.234-1.829.703-.39.453-.601 1.258-.632 2.414a6.196 6.196 0 0 0 .234 1.852c.172.593.438 1.18.797 1.757a9.294 9.294 0 0 0 1.453 1.664l3.328 3.024c1.75 1.578 3.039 3.226 3.867 4.945.844 1.719 1.266 3.578 1.266 5.578 0 2.953-.672 5.196-2.016 6.727-1.343 1.516-3.461 2.273-6.351 2.273Z"/></g><path stroke="#D9E6E7" stroke-width="2" d="M10.354 43.469c-2 0-3.664-.461-4.992-1.383-1.328-.922-2.328-2.266-3-4.031-.656-1.782-.984-3.93-.984-6.446V13.633c0-1.89.156-3.594.469-5.11.312-1.515.82-2.812 1.523-3.89a6.98 6.98 0 0 1 2.813-2.485c1.171-.578 2.617-.867 4.336-.867 1.562 0 2.89.258 3.984.774a6.6 6.6 0 0 1 2.695 2.18c.703.952 1.211 2.109 1.524 3.468.328 1.344.492 2.86.492 4.547v5.672h-6.07v-5.274c0-2.03-.172-3.523-.516-4.476-.344-.969-1.031-1.453-2.063-1.453-1.14 0-1.906.523-2.296 1.57-.375 1.031-.563 2.477-.563 4.336v19.266c0 1.437.078 2.617.234 3.539.172.906.454 1.578.844 2.015.39.422.938.633 1.64.633 1.063 0 1.782-.5 2.157-1.5s.563-2.586.563-4.758v-5.906h6.164v5.836c0 2.61-.305 4.79-.914 6.54-.61 1.733-1.579 3.03-2.907 3.89-1.312.86-3.023 1.289-5.133 1.289Zm22.571-.047c-1.688 0-3.102-.258-4.242-.774-1.141-.53-2.047-1.289-2.72-2.273-.655-1-1.132-2.21-1.429-3.633-.281-1.437-.422-3.07-.422-4.898V18.695c0-2.203.282-4.148.844-5.836.578-1.703 1.516-3.03 2.813-3.984 1.296-.969 3.015-1.453 5.156-1.453 1.625 0 2.992.273 4.101.82a6.654 6.654 0 0 1 2.696 2.344c.687 1 1.187 2.187 1.5 3.562.312 1.375.468 2.891.468 4.547v13.149c0 1.797-.14 3.406-.421 4.828-.266 1.422-.735 2.64-1.407 3.656-.656 1-1.547 1.766-2.672 2.297-1.125.531-2.546.797-4.265.797Zm0-5.016c.703 0 1.234-.21 1.594-.633.359-.437.601-1.039.726-1.804.125-.766.188-1.649.188-2.649V17.594c0-1.063-.07-1.977-.211-2.742-.14-.766-.39-1.36-.75-1.782-.36-.422-.875-.633-1.547-.633-.703 0-1.242.211-1.617.633-.36.422-.61 1.016-.75 1.782-.125.765-.188 1.68-.188 2.742V33.32c0 1 .063 1.883.188 2.649.14.765.39 1.367.75 1.804.375.422.914.633 1.617.633ZM47.362 43V1.398h6.188V43h-6.188Zm20.766.422c-1.688 0-3.102-.258-4.242-.774-1.14-.53-2.047-1.289-2.719-2.273-.656-1-1.133-2.21-1.43-3.633-.28-1.437-.422-3.07-.422-4.898V18.695c0-2.203.282-4.148.844-5.836.578-1.703 1.516-3.03 2.813-3.984 1.297-.969 3.015-1.453 5.156-1.453 1.625 0 2.992.273 4.102.82a6.654 6.654 0 0 1 2.695 2.344c.687 1 1.187 2.187 1.5 3.562.312 1.375.469 2.891.469 4.547v13.149c0 1.797-.141 3.406-.422 4.828-.266 1.422-.735 2.64-1.407 3.656-.656 1-1.546 1.766-2.671 2.297-1.125.531-2.547.797-4.266.797Zm0-5.016c.703 0 1.234-.21 1.594-.633.36-.437.601-1.039.726-1.804.125-.766.188-1.649.188-2.649V17.594c0-1.063-.07-1.977-.211-2.742-.14-.766-.39-1.36-.75-1.782-.36-.422-.875-.633-1.547-.633-.703 0-1.242.211-1.617.633-.36.422-.61 1.016-.75 1.782-.125.765-.188 1.68-.188 2.742V33.32c0 1 .063 1.883.188 2.649.14.765.39 1.367.75 1.804.375.422.914.633 1.617.633ZM82.565 43V7.844h6.258v3.914c.407-1.36 1.11-2.422 2.11-3.188 1.015-.765 2.304-1.148 3.867-1.148.031 0 .047.266.047.797.015.531.023 1.14.023 1.828v2.625c-.719 0-1.5.086-2.344.258a8.694 8.694 0 0 0-2.273.797c-.672.343-1.148.804-1.43 1.382V43h-6.258Zm27.141 0V7.187h-4.828V1.75h15.726v5.438h-4.64V43h-6.258Zm21.563.422c-1.688 0-3.102-.258-4.243-.774-1.14-.53-2.047-1.289-2.718-2.273-.657-1-1.133-2.21-1.43-3.633-.281-1.437-.422-3.07-.422-4.898V18.695c0-2.203.281-4.148.844-5.836.578-1.703 1.515-3.03 2.812-3.984 1.297-.969 3.016-1.453 5.157-1.453 1.625 0 2.992.273 4.101.82a6.647 6.647 0 0 1 2.695 2.344c.688 1 1.188 2.187 1.5 3.562.313 1.375.469 2.891.469 4.547v13.149c0 1.797-.14 3.406-.422 4.828-.265 1.422-.734 2.64-1.406 3.656-.656 1-1.547 1.766-2.672 2.297-1.125.531-2.547.797-4.265.797Zm0-5.016c.703 0 1.234-.21 1.593-.633.36-.437.602-1.039.727-1.804.125-.766.187-1.649.187-2.649V17.594c0-1.063-.07-1.977-.211-2.742-.14-.766-.39-1.36-.75-1.782-.359-.422-.875-.633-1.546-.633-.704 0-1.243.211-1.618.633-.359.422-.609 1.016-.75 1.782-.125.765-.187 1.68-.187 2.742V33.32c0 1 .062 1.883.187 2.649.141.765.391 1.367.75 1.804.375.422.914.633 1.618.633Zm22.734 5.016c-1.688 0-3.102-.258-4.242-.774-1.141-.53-2.047-1.289-2.719-2.273-.656-1-1.133-2.21-1.43-3.633-.281-1.437-.422-3.07-.422-4.898V18.695c0-2.203.282-4.148.844-5.836.578-1.703 1.516-3.03 2.813-3.984 1.297-.969 3.015-1.453 5.156-1.453 1.625 0 2.992.273 4.101.82a6.657 6.657 0 0 1 2.696 2.344c.687 1 1.187 2.187 1.5 3.562.312 1.375.469 2.891.469 4.547v13.149c0 1.797-.141 3.406-.422 4.828-.266 1.422-.735 2.64-1.407 3.656-.656 1-1.546 1.766-2.671 2.297-1.125.531-2.547.797-4.266.797Zm0-5.016c.703 0 1.234-.21 1.594-.633.359-.437.601-1.039.726-1.804.125-.766.188-1.649.188-2.649V17.594c0-1.063-.071-1.977-.211-2.742-.141-.766-.391-1.36-.75-1.782-.36-.422-.875-.633-1.547-.633-.703 0-1.242.211-1.617.633-.36.422-.61 1.016-.75 1.782-.125.765-.188 1.68-.188 2.742V33.32c0 1 .063 1.883.188 2.649.14.765.39 1.367.75 1.804.375.422.914.633 1.617.633ZM168.44 43V1.398h6.188V43h-6.188Zm19.735.445c-2.828 0-4.93-.804-6.305-2.414s-2.062-4.242-2.062-7.898v-2.274h5.836v2.836c0 1.532.187 2.696.562 3.492.375.797.984 1.196 1.828 1.196.813 0 1.414-.274 1.805-.82.39-.547.586-1.493.586-2.836 0-.782-.117-1.54-.352-2.274a7.667 7.667 0 0 0-1.054-2.156c-.469-.719-1.079-1.414-1.829-2.086l-3.164-2.86c-1.453-1.312-2.539-2.726-3.257-4.242-.719-1.53-1.079-3.218-1.079-5.062 0-2.985.696-5.164 2.086-6.54 1.407-1.39 3.485-2.085 6.235-2.085 1.781 0 3.258.336 4.429 1.008 1.172.656 2.047 1.726 2.625 3.21.579 1.485.868 3.477.868 5.977v1.922h-5.555v-2.32c0-1.547-.18-2.719-.539-3.516-.344-.797-.938-1.195-1.781-1.195-.829 0-1.438.234-1.829.703-.39.453-.601 1.258-.632 2.414a6.196 6.196 0 0 0 .234 1.852c.172.593.438 1.18.797 1.757a9.294 9.294 0 0 0 1.453 1.664l3.328 3.024c1.75 1.578 3.039 3.226 3.867 4.945.844 1.719 1.266 3.578 1.266 5.578 0 2.953-.672 5.196-2.016 6.727-1.343 1.516-3.461 2.273-6.351 2.273Z" mask="url(#b)"/><defs><filter id="a" width="201.164" height="48.188" x="-.622" y="-.719" color-interpolation-filters="sRGB" filterUnits="userSpaceOnUse"><feFlood flood-opacity="0" result="BackgroundImageFix"/><feBlend in="SourceGraphic" in2="BackgroundImageFix" result="shape"/><feColorMatrix in="SourceAlpha" result="hardAlpha" values="0 0 0 0 0 0 0 0 0 0 0 0 0 0 0 0 0 0 127 0"/><feOffset dx="-1" dy="-1"/><feGaussianBlur stdDeviation="1.5"/><feComposite in2="hardAlpha" k2="-1" k3="1" operator="arithmetic"/><feColorMatrix values="0 0 0 0 0.984314 0 0 0 0 0.984314 0 0 0 0 0.984314 0 0 0 1 0"/><feBlend in2="shape" result="effect1_innerShadow_127_2788"/><feColorMatrix in="SourceAlpha" result="hardAlpha" values="0 0 0 0 0 0 0 0 0 0 0 0 0 0 0 0 0 0 127 0"/><feOffset dx="3" dy="3"/><feGaussianBlur stdDeviation="4.5"/><feComposite in2="hardAlpha" k2="-1" k3="1" operator="arithmetic"/><feColorMatrix values="0 0 0 0 0.772549 0 0 0 0 0.772549 0 0 0 0 0.772549 0 0 0 1 0"/><feBlend in2="effect1_innerShadow_127_2788" result="effect2_innerShadow_127_2788"/></filter></defs></svg>