<svg xmlns="http://www.w3.org/2000/svg" width="97" height="84" fill="none"><g filter="url(#a)"><path fill="#D4EAEE" d="m24.53 0-.991 1.764L1.491 40.236.5 42l.991 1.764L23.54 82.236 24.53 84h48.287l.99-1.764 22.049-38.472.99-1.764-.99-1.764L73.808 1.764 72.816 0H24.53Zm8.6 7.055h21.607l-16.096 5.733-5.51-5.733Zm32.19 0L49.114 23.59l-7.718-8.046L65.32 7.055Zm-36.825.325 6.615 6.727-6.724 2.424V7.605l.11-.226Zm40.677.663L78.44 24.03 64.224 39.132l-12.57-13.006L69.172 8.043Zm-44.31 5.736v3.968l-2.868.992 2.868-4.96Zm12.897 3.087 8.928 9.26-13.115 13.338-5.183-5.514V20.284l9.37-3.418ZM24.862 21.49v8.71l-5.842-6.283.219-.44 5.623-1.987Zm-7.719 5.623 7.719 8.27V48.5l-7.828 8.043-8.378-14.547 8.487-14.884Zm62.838.445-4.85 22.82-8.488-8.71 13.338-14.11Zm-30.867 1.104 12.679 13.006-13.12 13.892-12.678-13.45 13.12-13.448Zm33.622 2.974L88.691 42l-8.05 13.998-2.424-2.533 4.52-21.83ZM28.39 39.132 31.145 42l-2.755 2.864v-5.732Zm35.827 5.073 10.142 10.36-1.21 5.623H52.97l-1.87-1.986 13.116-13.997Zm-30.644.44L46.25 58.203l-1.986 1.986H28.389V49.825l5.183-5.178Zm-8.71 8.82v6.723H19.13l-.331-.44 6.064-6.283Zm52.473 4.187 1.433 1.545-.55.991h-1.433l.55-2.536Zm-56.223 6.064h3.75v6.505l-3.75-6.505Zm7.278 0h12.568l-12.346 13.12-.222-.442V63.716Zm17.419 0h5.62l12.346 13.229H33.35l12.46-13.229Zm10.47 0h16.096L70.172 74.3l-1.545 2.646L56.28 63.717Zm19.733 0h.223l-.332.55.11-.55Z"/></g><defs><filter id="a" width="98.347" height="86" x="-.5" y="-1" color-interpolation-filters="sRGB" filterUnits="userSpaceOnUse"><feFlood flood-opacity="0" result="BackgroundImageFix"/><feBlend in="SourceGraphic" in2="BackgroundImageFix" result="shape"/><feColorMatrix in="SourceAlpha" result="hardAlpha" values="0 0 0 0 0 0 0 0 0 0 0 0 0 0 0 0 0 0 127 0"/><feOffset dx="-1" dy="-1"/><feGaussianBlur stdDeviation="1.5"/><feComposite in2="hardAlpha" k2="-1" k3="1" operator="arithmetic"/><feColorMatrix values="0 0 0 0 0.984314 0 0 0 0 0.984314 0 0 0 0 0.984314 0 0 0 1 0"/><feBlend in2="shape" result="effect1_innerShadow_72_2226"/><feColorMatrix in="SourceAlpha" result="hardAlpha" values="0 0 0 0 0 0 0 0 0 0 0 0 0 0 0 0 0 0 127 0"/><feOffset dx="1" dy="1"/><feGaussianBlur stdDeviation="1.5"/><feComposite in2="hardAlpha" k2="-1" k3="1" operator="arithmetic"/><feColorMatrix values="0 0 0 0 0.772549 0 0 0 0 0.772549 0 0 0 0 0.772549 0 0 0 1 0"/><feBlend in2="effect1_innerShadow_72_2226" result="effect2_innerShadow_72_2226"/></filter></defs></svg>