<svg xmlns="http://www.w3.org/2000/svg" width="344" height="53" fill="none"><mask id="b" width="343" height="53" x=".925" y=".219" fill="#000" maskUnits="userSpaceOnUse"><path fill="#fff" d="M.925.219h343v53h-343z"/><path d="M10.901 45.469c-2 0-3.664-.461-4.992-1.383-1.328-.922-2.328-2.266-3-4.031-.656-1.782-.984-3.93-.984-6.446V15.633c0-1.89.156-3.594.469-5.11.312-1.515.82-2.812 1.523-3.89a6.98 6.98 0 0 1 2.812-2.485c1.172-.578 2.618-.867 4.336-.867 1.563 0 2.891.258 3.985.774a6.6 6.6 0 0 1 2.695 2.18c.703.952 1.211 2.109 1.524 3.468.328 1.344.492 2.86.492 4.547v5.672h-6.07v-5.274c0-2.03-.172-3.523-.516-4.476-.344-.969-1.031-1.453-2.063-1.453-1.14 0-1.906.523-2.297 1.57-.375 1.031-.562 2.477-.562 4.336v19.266c0 1.437.078 2.617.234 3.539.172.906.453 1.578.844 2.015.39.422.938.633 1.64.633 1.063 0 1.782-.5 2.157-1.5s.562-2.586.562-4.758v-5.906h6.165v5.836c0 2.61-.305 4.79-.915 6.54-.609 1.733-1.578 3.03-2.906 3.89-1.312.86-3.023 1.289-5.133 1.289Zm22.571-.047c-1.688 0-3.102-.258-4.242-.774-1.141-.53-2.047-1.289-2.72-2.273-.655-1-1.132-2.21-1.429-3.633-.281-1.437-.422-3.07-.422-4.898V20.695c0-2.203.281-4.148.844-5.836.578-1.703 1.516-3.03 2.812-3.984 1.297-.969 3.016-1.453 5.157-1.453 1.625 0 2.992.273 4.101.82a6.654 6.654 0 0 1 2.696 2.344c.687 1 1.187 2.187 1.5 3.562.312 1.375.468 2.891.468 4.547v13.149c0 1.797-.14 3.406-.422 4.828-.265 1.422-.734 2.64-1.406 3.656-.656 1-1.547 1.766-2.672 2.297-1.125.531-2.547.797-4.265.797Zm0-5.016c.703 0 1.234-.21 1.593-.633.36-.437.602-1.039.727-1.804.125-.766.188-1.649.188-2.649V19.594c0-1.063-.07-1.977-.211-2.742-.141-.766-.391-1.36-.75-1.782-.36-.422-.875-.633-1.547-.633-.703 0-1.242.211-1.617.633-.36.422-.61 1.016-.75 1.782-.125.765-.188 1.68-.188 2.742V35.32c0 1 .063 1.883.188 2.649.14.765.39 1.367.75 1.804.375.422.914.633 1.617.633ZM47.886 45V9.844h6.21v3.82c.344-1.25.97-2.266 1.876-3.047.922-.797 2.172-1.195 3.75-1.195 1.203 0 2.25.265 3.14.797.89.531 1.578 1.445 2.063 2.742.594-1.094 1.375-1.953 2.344-2.578.968-.64 2.18-.961 3.632-.961 2.282 0 3.899.765 4.852 2.297.953 1.531 1.43 3.648 1.43 6.351V45h-6.188V18c0-1.25-.21-2.14-.633-2.672-.422-.547-1-.82-1.734-.82-.938 0-1.672.328-2.203.984-.516.64-.774 1.586-.774 2.836V45h-6.21V17.953c0-1.047-.18-1.883-.54-2.508-.343-.625-.93-.937-1.757-.937-1.079 0-1.86.414-2.344 1.242-.469.813-.703 1.781-.703 2.906V45h-6.211Zm35.274 6.68V9.844h6.21v3.164c.453-1.156 1.164-2.031 2.133-2.625.969-.594 1.945-.89 2.93-.89 1.796 0 3.156.484 4.078 1.452.922.953 1.547 2.258 1.875 3.914.328 1.657.492 3.516.492 5.579v12.82c0 2.25-.156 4.297-.469 6.14-.312 1.844-.976 3.313-1.992 4.407-1 1.078-2.531 1.617-4.594 1.617-.953 0-1.82-.258-2.601-.774-.782-.515-1.399-1.109-1.852-1.78v8.812h-6.21Zm8.952-11.297c1.047 0 1.727-.508 2.04-1.524.312-1.03.468-2.5.468-4.406V19.875c0-1.016-.055-1.93-.164-2.742-.094-.828-.312-1.485-.656-1.969-.344-.484-.89-.726-1.64-.726-.579 0-1.079.148-1.5.445-.407.297-.727.836-.962 1.617-.218.781-.328 1.898-.328 3.352V34.71c0 1.797.172 3.195.516 4.195.344.985 1.086 1.477 2.226 1.477Zm22.735 5.039c-1.688 0-3.102-.258-4.243-.774-1.14-.53-2.046-1.289-2.718-2.273-.657-1-1.133-2.21-1.43-3.633-.281-1.437-.422-3.07-.422-4.898V20.695c0-2.203.281-4.148.844-5.836.578-1.703 1.516-3.03 2.812-3.984 1.297-.969 3.016-1.453 5.157-1.453 1.625 0 2.992.273 4.101.82a6.657 6.657 0 0 1 2.696 2.344c.687 1 1.187 2.187 1.5 3.562.312 1.375.468 2.891.468 4.547v13.149c0 1.797-.14 3.406-.422 4.828-.265 1.422-.734 2.64-1.406 3.656-.656 1-1.547 1.766-2.672 2.297-1.125.531-2.547.797-4.265.797Zm0-5.016c.703 0 1.234-.21 1.593-.633.36-.437.602-1.039.727-1.804.125-.766.187-1.649.187-2.649V19.594c0-1.063-.07-1.977-.21-2.742-.141-.766-.391-1.36-.75-1.782-.36-.422-.875-.633-1.547-.633-.703 0-1.243.211-1.618.633-.359.422-.609 1.016-.75 1.782-.125.765-.187 1.68-.187 2.742V35.32c0 1 .062 1.883.187 2.649.141.765.391 1.367.75 1.804.375.422.915.633 1.618.633ZM129.261 45V9.844h6.211v4.031c.312-1.203.968-2.242 1.968-3.117 1-.89 2.227-1.336 3.68-1.336 2.031 0 3.555.68 4.57 2.039 1.016 1.344 1.524 3.297 1.524 5.86V45h-6.211V17.695c0-1.015-.234-1.812-.703-2.39-.453-.578-1.078-.867-1.875-.867-.641 0-1.188.18-1.641.539-.437.343-.765.828-.984 1.453-.219.61-.328 1.328-.328 2.156V45h-6.211Zm32.109.422c-1.766 0-3.219-.281-4.359-.844a6.34 6.34 0 0 1-2.649-2.437c-.625-1.063-1.062-2.336-1.312-3.82-.25-1.5-.375-3.173-.375-5.016V20.203c0-1.64.164-3.125.492-4.453.344-1.328.867-2.46 1.57-3.398.719-.938 1.649-1.657 2.789-2.157 1.141-.515 2.516-.773 4.125-.773 1.641 0 3.008.25 4.102.75 1.094.5 1.953 1.226 2.578 2.18.641.953 1.094 2.101 1.359 3.445.282 1.328.422 2.836.422 4.523v7.524h-11.179v6.914c0 1.703.132 3.07.398 4.101.266 1.032.992 1.547 2.18 1.547.797 0 1.359-.242 1.687-.726.344-.485.547-1.149.61-1.992.078-.86.117-1.836.117-2.93v-3.094h6.14v1.875c0 1.89-.117 3.57-.351 5.04-.219 1.468-.641 2.71-1.266 3.726-.609 1.015-1.484 1.789-2.625 2.32-1.14.531-2.625.797-4.453.797Zm-2.461-21.211h5.016v-4.5c0-1.172-.055-2.156-.164-2.953-.11-.813-.328-1.422-.657-1.828-.328-.407-.828-.61-1.5-.61-.828 0-1.437.242-1.828.727-.375.484-.617 1.148-.726 1.992a25.394 25.394 0 0 0-.141 2.836v4.336ZM175.339 45V9.844h6.211v4.031c.312-1.203.969-2.242 1.969-3.117 1-.89 2.226-1.336 3.679-1.336 2.031 0 3.555.68 4.571 2.039 1.015 1.344 1.523 3.297 1.523 5.86V45h-6.211V17.695c0-1.015-.234-1.812-.703-2.39-.453-.578-1.078-.867-1.875-.867-.641 0-1.188.18-1.641.539-.437.343-.765.828-.984 1.453-.219.61-.328 1.328-.328 2.156V45h-6.211Zm30.258.234c-1.5 0-2.649-.187-3.446-.562a3.15 3.15 0 0 1-1.64-1.828c-.297-.828-.446-1.899-.446-3.211V15.07h-2.859v-4.5h2.859V3.75h6.211v6.82h3.422v4.5h-3.422v23.485c0 .547.086.96.258 1.242.172.281.508.469 1.008.562.516.094 1.273.141 2.273.141v4.734h-4.218Zm17.25-.234V3.75h9.257c2.094 0 3.774.422 5.04 1.266 1.265.828 2.179 2.03 2.742 3.609.578 1.578.867 3.484.867 5.719l.023 18.61c0 2.702-.297 4.952-.89 6.75-.578 1.78-1.516 3.108-2.813 3.983-1.297.876-3.023 1.313-5.179 1.313h-9.047Zm6.281-4.875h2.062c.735 0 1.344-.148 1.829-.445.5-.297.867-.82 1.101-1.57.25-.766.375-1.844.375-3.235l-.023-20.367c0-2.11-.258-3.625-.774-4.547-.515-.922-1.422-1.383-2.719-1.383h-1.851v31.547Zm25.523 5.297c-1.765 0-3.218-.281-4.359-.844a6.331 6.331 0 0 1-2.648-2.437c-.625-1.063-1.063-2.336-1.313-3.82-.25-1.5-.375-3.173-.375-5.016V20.203c0-1.64.164-3.125.492-4.453.344-1.328.867-2.46 1.571-3.398.718-.938 1.648-1.657 2.789-2.157 1.14-.515 2.515-.773 4.125-.773 1.64 0 3.007.25 4.101.75 1.094.5 1.953 1.226 2.578 2.18.641.953 1.094 2.101 1.36 3.445.281 1.328.422 2.836.422 4.523v7.524h-11.18v6.914c0 1.703.133 3.07.398 4.101.266 1.032.992 1.547 2.18 1.547.797 0 1.359-.242 1.687-.726.344-.485.547-1.149.61-1.992.078-.86.117-1.836.117-2.93v-3.094h6.141v1.875c0 1.89-.118 3.57-.352 5.04-.219 1.468-.641 2.71-1.266 3.726-.609 1.015-1.484 1.789-2.625 2.32-1.14.531-2.625.797-4.453.797ZM252.19 24.21h5.016v-4.5c0-1.172-.055-2.156-.164-2.953-.109-.813-.328-1.422-.656-1.828-.328-.407-.828-.61-1.5-.61-.828 0-1.438.242-1.828.727-.375.484-.618 1.148-.727 1.992a25.394 25.394 0 0 0-.141 2.836v4.336Zm23.719 21.235c-2.828 0-4.93-.804-6.305-2.414s-2.062-4.242-2.062-7.898v-2.274h5.836v2.836c0 1.532.187 2.696.562 3.492.375.797.985 1.196 1.829 1.196.812 0 1.414-.274 1.804-.82.391-.547.586-1.493.586-2.836 0-.782-.117-1.54-.351-2.274a7.671 7.671 0 0 0-1.055-2.156c-.469-.719-1.078-1.414-1.828-2.086l-3.164-2.86c-1.453-1.312-2.539-2.726-3.258-4.242-.719-1.53-1.078-3.218-1.078-5.062 0-2.985.695-5.164 2.086-6.54 1.406-1.39 3.484-2.085 6.234-2.085 1.781 0 3.258.336 4.43 1.008 1.172.656 2.047 1.726 2.625 3.21.578 1.485.867 3.477.867 5.977v1.922h-5.555v-2.32c0-1.547-.179-2.719-.539-3.516-.344-.797-.937-1.195-1.781-1.195-.828 0-1.438.234-1.828.703-.391.453-.602 1.258-.633 2.414a6.228 6.228 0 0 0 .234 1.852c.172.593.438 1.18.797 1.757a9.29 9.29 0 0 0 1.453 1.664l3.329 3.024c1.75 1.578 3.039 3.226 3.867 4.945.843 1.719 1.265 3.578 1.265 5.578 0 2.953-.672 5.196-2.015 6.727-1.344 1.516-3.461 2.273-6.352 2.273ZM288.94 45V9.844h6.211V45h-6.211Zm-.023-38.39V1.218h6.258v5.39h-6.258Zm20.437 43.663c-1.937.032-3.585-.156-4.945-.562a10.289 10.289 0 0 1-3.703-1.945l2.18-3.914c.828.53 1.726.96 2.695 1.289.984.343 2.047.507 3.188.492 1.187-.016 2.093-.43 2.718-1.242.625-.813.938-1.899.938-3.258v-2.79c-.406 1.173-1.031 1.977-1.875 2.415-.828.437-1.836.656-3.024.656-1.656 0-2.961-.437-3.914-1.312-.937-.875-1.601-2.07-1.992-3.586s-.586-3.235-.586-5.157V20.04c0-2.047.203-3.867.61-5.46.406-1.61 1.101-2.876 2.085-3.798.985-.922 2.336-1.375 4.055-1.36 1.203 0 2.195.306 2.977.915.797.61 1.351 1.484 1.664 2.625V9.844h6.211v30.82c0 1.39-.157 2.672-.469 3.844-.313 1.156-.828 2.156-1.547 3-.719.86-1.672 1.523-2.859 1.992-1.188.484-2.657.742-4.407.773Zm.633-13.57c.563 0 1.024-.164 1.383-.492.359-.344.625-.922.797-1.734.172-.829.258-1.977.258-3.446V19.523c0-1.546-.188-2.78-.563-3.703-.375-.922-1.054-1.383-2.039-1.383-.75 0-1.304.22-1.664.657-.359.437-.594 1.039-.703 1.804-.109.75-.164 1.618-.164 2.602v11.578c0 1.735.164 3.11.492 4.125.328 1 1.063 1.5 2.203 1.5ZM324.636 45V9.844h6.211v4.031c.312-1.203.968-2.242 1.968-3.117 1-.89 2.227-1.336 3.68-1.336 2.031 0 3.555.68 4.57 2.039 1.016 1.344 1.524 3.297 1.524 5.86V45h-6.211V17.695c0-1.015-.234-1.812-.703-2.39-.453-.578-1.078-.867-1.875-.867-.641 0-1.188.18-1.641.539-.437.343-.765.828-.984 1.453-.219.61-.328 1.328-.328 2.156V45h-6.211Z"/></mask><g fill="#E0E0E0" filter="url(#a)"><path d="M10.901 45.469c-2 0-3.664-.461-4.992-1.383-1.328-.922-2.328-2.266-3-4.031-.656-1.782-.984-3.93-.984-6.446V15.633c0-1.89.156-3.594.469-5.11.312-1.515.82-2.812 1.523-3.89a6.98 6.98 0 0 1 2.812-2.485c1.172-.578 2.618-.867 4.336-.867 1.563 0 2.891.258 3.985.774a6.6 6.6 0 0 1 2.695 2.18c.703.952 1.211 2.109 1.524 3.468.328 1.344.492 2.86.492 4.547v5.672h-6.07v-5.274c0-2.03-.172-3.523-.516-4.476-.344-.969-1.031-1.453-2.063-1.453-1.14 0-1.906.523-2.297 1.57-.375 1.031-.562 2.477-.562 4.336v19.266c0 1.437.078 2.617.234 3.539.172.906.453 1.578.844 2.015.39.422.938.633 1.64.633 1.063 0 1.782-.5 2.157-1.5s.562-2.586.562-4.758v-5.906h6.165v5.836c0 2.61-.305 4.79-.915 6.54-.609 1.733-1.578 3.03-2.906 3.89-1.312.86-3.023 1.289-5.133 1.289Zm22.571-.047c-1.688 0-3.102-.258-4.242-.774-1.141-.53-2.047-1.289-2.72-2.273-.655-1-1.132-2.21-1.429-3.633-.281-1.437-.422-3.07-.422-4.898V20.695c0-2.203.281-4.148.844-5.836.578-1.703 1.516-3.03 2.812-3.984 1.297-.969 3.016-1.453 5.157-1.453 1.625 0 2.992.273 4.101.82a6.654 6.654 0 0 1 2.696 2.344c.687 1 1.187 2.187 1.5 3.562.312 1.375.468 2.891.468 4.547v13.149c0 1.797-.14 3.406-.422 4.828-.265 1.422-.734 2.64-1.406 3.656-.656 1-1.547 1.766-2.672 2.297-1.125.531-2.547.797-4.265.797Zm0-5.016c.703 0 1.234-.21 1.593-.633.36-.437.602-1.039.727-1.804.125-.766.188-1.649.188-2.649V19.594c0-1.063-.07-1.977-.211-2.742-.141-.766-.391-1.36-.75-1.782-.36-.422-.875-.633-1.547-.633-.703 0-1.242.211-1.617.633-.36.422-.61 1.016-.75 1.782-.125.765-.188 1.68-.188 2.742V35.32c0 1 .063 1.883.188 2.649.14.765.39 1.367.75 1.804.375.422.914.633 1.617.633ZM47.886 45V9.844h6.21v3.82c.344-1.25.97-2.266 1.876-3.047.922-.797 2.172-1.195 3.75-1.195 1.203 0 2.25.265 3.14.797.89.531 1.578 1.445 2.063 2.742.594-1.094 1.375-1.953 2.344-2.578.968-.64 2.18-.961 3.632-.961 2.282 0 3.899.765 4.852 2.297.953 1.531 1.43 3.648 1.43 6.351V45h-6.188V18c0-1.25-.21-2.14-.633-2.672-.422-.547-1-.82-1.734-.82-.938 0-1.672.328-2.203.984-.516.64-.774 1.586-.774 2.836V45h-6.21V17.953c0-1.047-.18-1.883-.54-2.508-.343-.625-.93-.937-1.757-.937-1.079 0-1.86.414-2.344 1.242-.469.813-.703 1.781-.703 2.906V45h-6.211Zm35.274 6.68V9.844h6.21v3.164c.453-1.156 1.164-2.031 2.133-2.625.969-.594 1.945-.89 2.93-.89 1.796 0 3.156.484 4.078 1.452.922.953 1.547 2.258 1.875 3.914.328 1.657.492 3.516.492 5.579v12.82c0 2.25-.156 4.297-.469 6.14-.312 1.844-.976 3.313-1.992 4.407-1 1.078-2.531 1.617-4.594 1.617-.953 0-1.82-.258-2.601-.774-.782-.515-1.399-1.109-1.852-1.78v8.812h-6.21Zm8.952-11.297c1.047 0 1.727-.508 2.04-1.524.312-1.03.468-2.5.468-4.406V19.875c0-1.016-.055-1.93-.164-2.742-.094-.828-.312-1.485-.656-1.969-.344-.484-.89-.726-1.64-.726-.579 0-1.079.148-1.5.445-.407.297-.727.836-.962 1.617-.218.781-.328 1.898-.328 3.352V34.71c0 1.797.172 3.195.516 4.195.344.985 1.086 1.477 2.226 1.477Zm22.735 5.039c-1.688 0-3.102-.258-4.243-.774-1.14-.53-2.046-1.289-2.718-2.273-.657-1-1.133-2.21-1.43-3.633-.281-1.437-.422-3.07-.422-4.898V20.695c0-2.203.281-4.148.844-5.836.578-1.703 1.516-3.03 2.812-3.984 1.297-.969 3.016-1.453 5.157-1.453 1.625 0 2.992.273 4.101.82a6.657 6.657 0 0 1 2.696 2.344c.687 1 1.187 2.187 1.5 3.562.312 1.375.468 2.891.468 4.547v13.149c0 1.797-.14 3.406-.422 4.828-.265 1.422-.734 2.64-1.406 3.656-.656 1-1.547 1.766-2.672 2.297-1.125.531-2.547.797-4.265.797Zm0-5.016c.703 0 1.234-.21 1.593-.633.36-.437.602-1.039.727-1.804.125-.766.187-1.649.187-2.649V19.594c0-1.063-.07-1.977-.21-2.742-.141-.766-.391-1.36-.75-1.782-.36-.422-.875-.633-1.547-.633-.703 0-1.243.211-1.618.633-.359.422-.609 1.016-.75 1.782-.125.765-.187 1.68-.187 2.742V35.32c0 1 .062 1.883.187 2.649.141.765.391 1.367.75 1.804.375.422.915.633 1.618.633ZM129.261 45V9.844h6.211v4.031c.312-1.203.968-2.242 1.968-3.117 1-.89 2.227-1.336 3.68-1.336 2.031 0 3.555.68 4.57 2.039 1.016 1.344 1.524 3.297 1.524 5.86V45h-6.211V17.695c0-1.015-.234-1.812-.703-2.39-.453-.578-1.078-.867-1.875-.867-.641 0-1.188.18-1.641.539-.437.343-.765.828-.984 1.453-.219.61-.328 1.328-.328 2.156V45h-6.211Zm32.109.422c-1.766 0-3.219-.281-4.359-.844a6.34 6.34 0 0 1-2.649-2.437c-.625-1.063-1.062-2.336-1.312-3.82-.25-1.5-.375-3.173-.375-5.016V20.203c0-1.64.164-3.125.492-4.453.344-1.328.867-2.46 1.57-3.398.719-.938 1.649-1.657 2.789-2.157 1.141-.515 2.516-.773 4.125-.773 1.641 0 3.008.25 4.102.75 1.094.5 1.953 1.226 2.578 2.18.641.953 1.094 2.101 1.359 3.445.282 1.328.422 2.836.422 4.523v7.524h-11.179v6.914c0 1.703.132 3.07.398 4.101.266 1.032.992 1.547 2.18 1.547.797 0 1.359-.242 1.687-.726.344-.485.547-1.149.61-1.992.078-.86.117-1.836.117-2.93v-3.094h6.14v1.875c0 1.89-.117 3.57-.351 5.04-.219 1.468-.641 2.71-1.266 3.726-.609 1.015-1.484 1.789-2.625 2.32-1.14.531-2.625.797-4.453.797Zm-2.461-21.211h5.016v-4.5c0-1.172-.055-2.156-.164-2.953-.11-.813-.328-1.422-.657-1.828-.328-.407-.828-.61-1.5-.61-.828 0-1.437.242-1.828.727-.375.484-.617 1.148-.726 1.992a25.394 25.394 0 0 0-.141 2.836v4.336ZM175.339 45V9.844h6.211v4.031c.312-1.203.969-2.242 1.969-3.117 1-.89 2.226-1.336 3.679-1.336 2.031 0 3.555.68 4.571 2.039 1.015 1.344 1.523 3.297 1.523 5.86V45h-6.211V17.695c0-1.015-.234-1.812-.703-2.39-.453-.578-1.078-.867-1.875-.867-.641 0-1.188.18-1.641.539-.437.343-.765.828-.984 1.453-.219.61-.328 1.328-.328 2.156V45h-6.211Zm30.258.234c-1.5 0-2.649-.187-3.446-.562a3.15 3.15 0 0 1-1.64-1.828c-.297-.828-.446-1.899-.446-3.211V15.07h-2.859v-4.5h2.859V3.75h6.211v6.82h3.422v4.5h-3.422v23.485c0 .547.086.96.258 1.242.172.281.508.469 1.008.562.516.094 1.273.141 2.273.141v4.734h-4.218Zm17.25-.234V3.75h9.257c2.094 0 3.774.422 5.04 1.266 1.265.828 2.179 2.03 2.742 3.609.578 1.578.867 3.484.867 5.719l.023 18.61c0 2.702-.297 4.952-.89 6.75-.578 1.78-1.516 3.108-2.813 3.983-1.297.876-3.023 1.313-5.179 1.313h-9.047Zm6.281-4.875h2.062c.735 0 1.344-.148 1.829-.445.5-.297.867-.82 1.101-1.57.25-.766.375-1.844.375-3.235l-.023-20.367c0-2.11-.258-3.625-.774-4.547-.515-.922-1.422-1.383-2.719-1.383h-1.851v31.547Zm25.523 5.297c-1.765 0-3.218-.281-4.359-.844a6.331 6.331 0 0 1-2.648-2.437c-.625-1.063-1.063-2.336-1.313-3.82-.25-1.5-.375-3.173-.375-5.016V20.203c0-1.64.164-3.125.492-4.453.344-1.328.867-2.46 1.571-3.398.718-.938 1.648-1.657 2.789-2.157 1.14-.515 2.515-.773 4.125-.773 1.64 0 3.007.25 4.101.75 1.094.5 1.953 1.226 2.578 2.18.641.953 1.094 2.101 1.36 3.445.281 1.328.422 2.836.422 4.523v7.524h-11.18v6.914c0 1.703.133 3.07.398 4.101.266 1.032.992 1.547 2.18 1.547.797 0 1.359-.242 1.687-.726.344-.485.547-1.149.61-1.992.078-.86.117-1.836.117-2.93v-3.094h6.141v1.875c0 1.89-.118 3.57-.352 5.04-.219 1.468-.641 2.71-1.266 3.726-.609 1.015-1.484 1.789-2.625 2.32-1.14.531-2.625.797-4.453.797ZM252.19 24.21h5.016v-4.5c0-1.172-.055-2.156-.164-2.953-.109-.813-.328-1.422-.656-1.828-.328-.407-.828-.61-1.5-.61-.828 0-1.438.242-1.828.727-.375.484-.618 1.148-.727 1.992a25.394 25.394 0 0 0-.141 2.836v4.336Zm23.719 21.235c-2.828 0-4.93-.804-6.305-2.414s-2.062-4.242-2.062-7.898v-2.274h5.836v2.836c0 1.532.187 2.696.562 3.492.375.797.985 1.196 1.829 1.196.812 0 1.414-.274 1.804-.82.391-.547.586-1.493.586-2.836 0-.782-.117-1.54-.351-2.274a7.671 7.671 0 0 0-1.055-2.156c-.469-.719-1.078-1.414-1.828-2.086l-3.164-2.86c-1.453-1.312-2.539-2.726-3.258-4.242-.719-1.53-1.078-3.218-1.078-5.062 0-2.985.695-5.164 2.086-6.54 1.406-1.39 3.484-2.085 6.234-2.085 1.781 0 3.258.336 4.43 1.008 1.172.656 2.047 1.726 2.625 3.21.578 1.485.867 3.477.867 5.977v1.922h-5.555v-2.32c0-1.547-.179-2.719-.539-3.516-.344-.797-.937-1.195-1.781-1.195-.828 0-1.438.234-1.828.703-.391.453-.602 1.258-.633 2.414a6.228 6.228 0 0 0 .234 1.852c.172.593.438 1.18.797 1.757a9.29 9.29 0 0 0 1.453 1.664l3.329 3.024c1.75 1.578 3.039 3.226 3.867 4.945.843 1.719 1.265 3.578 1.265 5.578 0 2.953-.672 5.196-2.015 6.727-1.344 1.516-3.461 2.273-6.352 2.273ZM288.94 45V9.844h6.211V45h-6.211Zm-.023-38.39V1.218h6.258v5.39h-6.258Zm20.437 43.663c-1.937.032-3.585-.156-4.945-.562a10.289 10.289 0 0 1-3.703-1.945l2.18-3.914c.828.53 1.726.96 2.695 1.289.984.343 2.047.507 3.188.492 1.187-.016 2.093-.43 2.718-1.242.625-.813.938-1.899.938-3.258v-2.79c-.406 1.173-1.031 1.977-1.875 2.415-.828.437-1.836.656-3.024.656-1.656 0-2.961-.437-3.914-1.312-.937-.875-1.601-2.07-1.992-3.586s-.586-3.235-.586-5.157V20.04c0-2.047.203-3.867.61-5.46.406-1.61 1.101-2.876 2.085-3.798.985-.922 2.336-1.375 4.055-1.36 1.203 0 2.195.306 2.977.915.797.61 1.351 1.484 1.664 2.625V9.844h6.211v30.82c0 1.39-.157 2.672-.469 3.844-.313 1.156-.828 2.156-1.547 3-.719.86-1.672 1.523-2.859 1.992-1.188.484-2.657.742-4.407.773Zm.633-13.57c.563 0 1.024-.164 1.383-.492.359-.344.625-.922.797-1.734.172-.829.258-1.977.258-3.446V19.523c0-1.546-.188-2.78-.563-3.703-.375-.922-1.054-1.383-2.039-1.383-.75 0-1.304.22-1.664.657-.359.437-.594 1.039-.703 1.804-.109.75-.164 1.618-.164 2.602v11.578c0 1.735.164 3.11.492 4.125.328 1 1.063 1.5 2.203 1.5ZM324.636 45V9.844h6.211v4.031c.312-1.203.968-2.242 1.968-3.117 1-.89 2.227-1.336 3.68-1.336 2.031 0 3.555.68 4.57 2.039 1.016 1.344 1.524 3.297 1.524 5.86V45h-6.211V17.695c0-1.015-.234-1.812-.703-2.39-.453-.578-1.078-.867-1.875-.867-.641 0-1.188.18-1.641.539-.437.343-.765.828-.984 1.453-.219.61-.328 1.328-.328 2.156V45h-6.211Z"/></g><path stroke="#EAEAEA" stroke-width="2" d="M10.901 45.469c-2 0-3.664-.461-4.992-1.383-1.328-.922-2.328-2.266-3-4.031-.656-1.782-.984-3.93-.984-6.446V15.633c0-1.89.156-3.594.469-5.11.312-1.515.82-2.812 1.523-3.89a6.98 6.98 0 0 1 2.812-2.485c1.172-.578 2.618-.867 4.336-.867 1.563 0 2.891.258 3.985.774a6.6 6.6 0 0 1 2.695 2.18c.703.952 1.211 2.109 1.524 3.468.328 1.344.492 2.86.492 4.547v5.672h-6.07v-5.274c0-2.03-.172-3.523-.516-4.476-.344-.969-1.031-1.453-2.063-1.453-1.14 0-1.906.523-2.297 1.57-.375 1.031-.562 2.477-.562 4.336v19.266c0 1.437.078 2.617.234 3.539.172.906.453 1.578.844 2.015.39.422.938.633 1.64.633 1.063 0 1.782-.5 2.157-1.5s.562-2.586.562-4.758v-5.906h6.165v5.836c0 2.61-.305 4.79-.915 6.54-.609 1.733-1.578 3.03-2.906 3.89-1.312.86-3.023 1.289-5.133 1.289Zm22.571-.047c-1.688 0-3.102-.258-4.242-.774-1.141-.53-2.047-1.289-2.72-2.273-.655-1-1.132-2.21-1.429-3.633-.281-1.437-.422-3.07-.422-4.898V20.695c0-2.203.281-4.148.844-5.836.578-1.703 1.516-3.03 2.812-3.984 1.297-.969 3.016-1.453 5.157-1.453 1.625 0 2.992.273 4.101.82a6.654 6.654 0 0 1 2.696 2.344c.687 1 1.187 2.187 1.5 3.562.312 1.375.468 2.891.468 4.547v13.149c0 1.797-.14 3.406-.422 4.828-.265 1.422-.734 2.64-1.406 3.656-.656 1-1.547 1.766-2.672 2.297-1.125.531-2.547.797-4.265.797Zm0-5.016c.703 0 1.234-.21 1.593-.633.36-.437.602-1.039.727-1.804.125-.766.188-1.649.188-2.649V19.594c0-1.063-.07-1.977-.211-2.742-.141-.766-.391-1.36-.75-1.782-.36-.422-.875-.633-1.547-.633-.703 0-1.242.211-1.617.633-.36.422-.61 1.016-.75 1.782-.125.765-.188 1.68-.188 2.742V35.32c0 1 .063 1.883.188 2.649.14.765.39 1.367.75 1.804.375.422.914.633 1.617.633ZM47.886 45V9.844h6.21v3.82c.344-1.25.97-2.266 1.876-3.047.922-.797 2.172-1.195 3.75-1.195 1.203 0 2.25.265 3.14.797.89.531 1.578 1.445 2.063 2.742.594-1.094 1.375-1.953 2.344-2.578.968-.64 2.18-.961 3.632-.961 2.282 0 3.899.765 4.852 2.297.953 1.531 1.43 3.648 1.43 6.351V45h-6.188V18c0-1.25-.21-2.14-.633-2.672-.422-.547-1-.82-1.734-.82-.938 0-1.672.328-2.203.984-.516.64-.774 1.586-.774 2.836V45h-6.21V17.953c0-1.047-.18-1.883-.54-2.508-.343-.625-.93-.937-1.757-.937-1.079 0-1.86.414-2.344 1.242-.469.813-.703 1.781-.703 2.906V45h-6.211Zm35.274 6.68V9.844h6.21v3.164c.453-1.156 1.164-2.031 2.133-2.625.969-.594 1.945-.89 2.93-.89 1.796 0 3.156.484 4.078 1.452.922.953 1.547 2.258 1.875 3.914.328 1.657.492 3.516.492 5.579v12.82c0 2.25-.156 4.297-.469 6.14-.312 1.844-.976 3.313-1.992 4.407-1 1.078-2.531 1.617-4.594 1.617-.953 0-1.82-.258-2.601-.774-.782-.515-1.399-1.109-1.852-1.78v8.812h-6.21Zm8.952-11.297c1.047 0 1.727-.508 2.04-1.524.312-1.03.468-2.5.468-4.406V19.875c0-1.016-.055-1.93-.164-2.742-.094-.828-.312-1.485-.656-1.969-.344-.484-.89-.726-1.64-.726-.579 0-1.079.148-1.5.445-.407.297-.727.836-.962 1.617-.218.781-.328 1.898-.328 3.352V34.71c0 1.797.172 3.195.516 4.195.344.985 1.086 1.477 2.226 1.477Zm22.735 5.039c-1.688 0-3.102-.258-4.243-.774-1.14-.53-2.046-1.289-2.718-2.273-.657-1-1.133-2.21-1.43-3.633-.281-1.437-.422-3.07-.422-4.898V20.695c0-2.203.281-4.148.844-5.836.578-1.703 1.516-3.03 2.812-3.984 1.297-.969 3.016-1.453 5.157-1.453 1.625 0 2.992.273 4.101.82a6.657 6.657 0 0 1 2.696 2.344c.687 1 1.187 2.187 1.5 3.562.312 1.375.468 2.891.468 4.547v13.149c0 1.797-.14 3.406-.422 4.828-.265 1.422-.734 2.64-1.406 3.656-.656 1-1.547 1.766-2.672 2.297-1.125.531-2.547.797-4.265.797Zm0-5.016c.703 0 1.234-.21 1.593-.633.36-.437.602-1.039.727-1.804.125-.766.187-1.649.187-2.649V19.594c0-1.063-.07-1.977-.21-2.742-.141-.766-.391-1.36-.75-1.782-.36-.422-.875-.633-1.547-.633-.703 0-1.243.211-1.618.633-.359.422-.609 1.016-.75 1.782-.125.765-.187 1.68-.187 2.742V35.32c0 1 .062 1.883.187 2.649.141.765.391 1.367.75 1.804.375.422.915.633 1.618.633ZM129.261 45V9.844h6.211v4.031c.312-1.203.968-2.242 1.968-3.117 1-.89 2.227-1.336 3.68-1.336 2.031 0 3.555.68 4.57 2.039 1.016 1.344 1.524 3.297 1.524 5.86V45h-6.211V17.695c0-1.015-.234-1.812-.703-2.39-.453-.578-1.078-.867-1.875-.867-.641 0-1.188.18-1.641.539-.437.343-.765.828-.984 1.453-.219.61-.328 1.328-.328 2.156V45h-6.211Zm32.109.422c-1.766 0-3.219-.281-4.359-.844a6.34 6.34 0 0 1-2.649-2.437c-.625-1.063-1.062-2.336-1.312-3.82-.25-1.5-.375-3.173-.375-5.016V20.203c0-1.64.164-3.125.492-4.453.344-1.328.867-2.46 1.57-3.398.719-.938 1.649-1.657 2.789-2.157 1.141-.515 2.516-.773 4.125-.773 1.641 0 3.008.25 4.102.75 1.094.5 1.953 1.226 2.578 2.18.641.953 1.094 2.101 1.359 3.445.282 1.328.422 2.836.422 4.523v7.524h-11.179v6.914c0 1.703.132 3.07.398 4.101.266 1.032.992 1.547 2.18 1.547.797 0 1.359-.242 1.687-.726.344-.485.547-1.149.61-1.992.078-.86.117-1.836.117-2.93v-3.094h6.14v1.875c0 1.89-.117 3.57-.351 5.04-.219 1.468-.641 2.71-1.266 3.726-.609 1.015-1.484 1.789-2.625 2.32-1.14.531-2.625.797-4.453.797Zm-2.461-21.211h5.016v-4.5c0-1.172-.055-2.156-.164-2.953-.11-.813-.328-1.422-.657-1.828-.328-.407-.828-.61-1.5-.61-.828 0-1.437.242-1.828.727-.375.484-.617 1.148-.726 1.992a25.394 25.394 0 0 0-.141 2.836v4.336ZM175.339 45V9.844h6.211v4.031c.312-1.203.969-2.242 1.969-3.117 1-.89 2.226-1.336 3.679-1.336 2.031 0 3.555.68 4.571 2.039 1.015 1.344 1.523 3.297 1.523 5.86V45h-6.211V17.695c0-1.015-.234-1.812-.703-2.39-.453-.578-1.078-.867-1.875-.867-.641 0-1.188.18-1.641.539-.437.343-.765.828-.984 1.453-.219.61-.328 1.328-.328 2.156V45h-6.211Zm30.258.234c-1.5 0-2.649-.187-3.446-.562a3.15 3.15 0 0 1-1.64-1.828c-.297-.828-.446-1.899-.446-3.211V15.07h-2.859v-4.5h2.859V3.75h6.211v6.82h3.422v4.5h-3.422v23.485c0 .547.086.96.258 1.242.172.281.508.469 1.008.562.516.094 1.273.141 2.273.141v4.734h-4.218Zm17.25-.234V3.75h9.257c2.094 0 3.774.422 5.04 1.266 1.265.828 2.179 2.03 2.742 3.609.578 1.578.867 3.484.867 5.719l.023 18.61c0 2.702-.297 4.952-.89 6.75-.578 1.78-1.516 3.108-2.813 3.983-1.297.876-3.023 1.313-5.179 1.313h-9.047Zm6.281-4.875h2.062c.735 0 1.344-.148 1.829-.445.5-.297.867-.82 1.101-1.57.25-.766.375-1.844.375-3.235l-.023-20.367c0-2.11-.258-3.625-.774-4.547-.515-.922-1.422-1.383-2.719-1.383h-1.851v31.547Zm25.523 5.297c-1.765 0-3.218-.281-4.359-.844a6.331 6.331 0 0 1-2.648-2.437c-.625-1.063-1.063-2.336-1.313-3.82-.25-1.5-.375-3.173-.375-5.016V20.203c0-1.64.164-3.125.492-4.453.344-1.328.867-2.46 1.571-3.398.718-.938 1.648-1.657 2.789-2.157 1.14-.515 2.515-.773 4.125-.773 1.64 0 3.007.25 4.101.75 1.094.5 1.953 1.226 2.578 2.18.641.953 1.094 2.101 1.36 3.445.281 1.328.422 2.836.422 4.523v7.524h-11.18v6.914c0 1.703.133 3.07.398 4.101.266 1.032.992 1.547 2.18 1.547.797 0 1.359-.242 1.687-.726.344-.485.547-1.149.61-1.992.078-.86.117-1.836.117-2.93v-3.094h6.141v1.875c0 1.89-.118 3.57-.352 5.04-.219 1.468-.641 2.71-1.266 3.726-.609 1.015-1.484 1.789-2.625 2.32-1.14.531-2.625.797-4.453.797ZM252.19 24.21h5.016v-4.5c0-1.172-.055-2.156-.164-2.953-.109-.813-.328-1.422-.656-1.828-.328-.407-.828-.61-1.5-.61-.828 0-1.438.242-1.828.727-.375.484-.618 1.148-.727 1.992a25.394 25.394 0 0 0-.141 2.836v4.336Zm23.719 21.235c-2.828 0-4.93-.804-6.305-2.414s-2.062-4.242-2.062-7.898v-2.274h5.836v2.836c0 1.532.187 2.696.562 3.492.375.797.985 1.196 1.829 1.196.812 0 1.414-.274 1.804-.82.391-.547.586-1.493.586-2.836 0-.782-.117-1.54-.351-2.274a7.671 7.671 0 0 0-1.055-2.156c-.469-.719-1.078-1.414-1.828-2.086l-3.164-2.86c-1.453-1.312-2.539-2.726-3.258-4.242-.719-1.53-1.078-3.218-1.078-5.062 0-2.985.695-5.164 2.086-6.54 1.406-1.39 3.484-2.085 6.234-2.085 1.781 0 3.258.336 4.43 1.008 1.172.656 2.047 1.726 2.625 3.21.578 1.485.867 3.477.867 5.977v1.922h-5.555v-2.32c0-1.547-.179-2.719-.539-3.516-.344-.797-.937-1.195-1.781-1.195-.828 0-1.438.234-1.828.703-.391.453-.602 1.258-.633 2.414a6.228 6.228 0 0 0 .234 1.852c.172.593.438 1.18.797 1.757a9.29 9.29 0 0 0 1.453 1.664l3.329 3.024c1.75 1.578 3.039 3.226 3.867 4.945.843 1.719 1.265 3.578 1.265 5.578 0 2.953-.672 5.196-2.015 6.727-1.344 1.516-3.461 2.273-6.352 2.273ZM288.94 45V9.844h6.211V45h-6.211Zm-.023-38.39V1.218h6.258v5.39h-6.258Zm20.437 43.663c-1.937.032-3.585-.156-4.945-.562a10.289 10.289 0 0 1-3.703-1.945l2.18-3.914c.828.53 1.726.96 2.695 1.289.984.343 2.047.507 3.188.492 1.187-.016 2.093-.43 2.718-1.242.625-.813.938-1.899.938-3.258v-2.79c-.406 1.173-1.031 1.977-1.875 2.415-.828.437-1.836.656-3.024.656-1.656 0-2.961-.437-3.914-1.312-.937-.875-1.601-2.07-1.992-3.586s-.586-3.235-.586-5.157V20.04c0-2.047.203-3.867.61-5.46.406-1.61 1.101-2.876 2.085-3.798.985-.922 2.336-1.375 4.055-1.36 1.203 0 2.195.306 2.977.915.797.61 1.351 1.484 1.664 2.625V9.844h6.211v30.82c0 1.39-.157 2.672-.469 3.844-.313 1.156-.828 2.156-1.547 3-.719.86-1.672 1.523-2.859 1.992-1.188.484-2.657.742-4.407.773Zm.633-13.57c.563 0 1.024-.164 1.383-.492.359-.344.625-.922.797-1.734.172-.829.258-1.977.258-3.446V19.523c0-1.546-.188-2.78-.563-3.703-.375-.922-1.054-1.383-2.039-1.383-.75 0-1.304.22-1.664.657-.359.437-.594 1.039-.703 1.804-.109.75-.164 1.618-.164 2.602v11.578c0 1.735.164 3.11.492 4.125.328 1 1.063 1.5 2.203 1.5ZM324.636 45V9.844h6.211v4.031c.312-1.203.968-2.242 1.968-3.117 1-.89 2.227-1.336 3.68-1.336 2.031 0 3.555.68 4.57 2.039 1.016 1.344 1.524 3.297 1.524 5.86V45h-6.211V17.695c0-1.015-.234-1.812-.703-2.39-.453-.578-1.078-.867-1.875-.867-.641 0-1.188.18-1.641.539-.437.343-.765.828-.984 1.453-.219.61-.328 1.328-.328 2.156V45h-6.211Z" mask="url(#b)"/><defs><filter id="a" width="346.664" height="56.461" x="-.075" y="-.781" color-interpolation-filters="sRGB" filterUnits="userSpaceOnUse"><feFlood flood-opacity="0" result="BackgroundImageFix"/><feBlend in="SourceGraphic" in2="BackgroundImageFix" result="shape"/><feColorMatrix in="SourceAlpha" result="hardAlpha" values="0 0 0 0 0 0 0 0 0 0 0 0 0 0 0 0 0 0 127 0"/><feOffset dx="-1" dy="-1"/><feGaussianBlur stdDeviation="1.5"/><feComposite in2="hardAlpha" k2="-1" k3="1" operator="arithmetic"/><feColorMatrix values="0 0 0 0 0.984314 0 0 0 0 0.984314 0 0 0 0 0.984314 0 0 0 1 0"/><feBlend in2="shape" result="effect1_innerShadow_127_2791"/><feColorMatrix in="SourceAlpha" result="hardAlpha" values="0 0 0 0 0 0 0 0 0 0 0 0 0 0 0 0 0 0 127 0"/><feOffset dx="3" dy="3"/><feGaussianBlur stdDeviation="4.5"/><feComposite in2="hardAlpha" k2="-1" k3="1" operator="arithmetic"/><feColorMatrix values="0 0 0 0 0.772549 0 0 0 0 0.772549 0 0 0 0 0.772549 0 0 0 1 0"/><feBlend in2="effect1_innerShadow_127_2791" result="effect2_innerShadow_127_2791"/></filter></defs></svg>