<svg xmlns="http://www.w3.org/2000/svg" width="573" height="54" fill="none"><mask id="b" width="573" height="54" x=".136" y=".219" fill="#000" maskUnits="userSpaceOnUse"><path fill="#fff" d="M.136.219h573v54h-573z"/><path d="M1.136 45V3.75h9.258c2.093 0 3.773.422 5.039 1.266 1.265.828 2.18 2.03 2.742 3.609.578 1.578.867 3.484.867 5.719l.023 18.61c0 2.702-.296 4.952-.89 6.75-.578 1.78-1.516 3.108-2.813 3.983-1.297.876-3.023 1.313-5.18 1.313H1.137Zm6.281-4.875h2.062c.735 0 1.344-.148 1.829-.445.5-.297.867-.82 1.101-1.57.25-.766.375-1.844.375-3.235l-.023-20.367c0-2.11-.258-3.625-.774-4.547-.515-.922-1.422-1.383-2.718-1.383H7.417v31.547Zm25.523 5.297c-1.765 0-3.218-.281-4.359-.844a6.336 6.336 0 0 1-2.648-2.437c-.625-1.063-1.063-2.336-1.313-3.82-.25-1.5-.375-3.173-.375-5.016V20.203c0-1.64.164-3.125.492-4.453.344-1.328.868-2.46 1.57-3.398.72-.938 1.65-1.657 2.79-2.157 1.14-.515 2.515-.773 4.125-.773 1.64 0 3.008.25 4.101.75 1.094.5 1.953 1.226 2.578 2.18.641.953 1.094 2.101 1.36 3.445.281 1.328.422 2.836.422 4.523v7.524h-11.18v6.914c0 1.703.133 3.07.398 4.101.266 1.032.993 1.547 2.18 1.547.797 0 1.36-.242 1.688-.726.343-.485.546-1.149.609-1.992.078-.86.117-1.836.117-2.93v-3.094h6.14v1.875c0 1.89-.116 3.57-.35 5.04-.22 1.468-.641 2.71-1.266 3.726-.61 1.015-1.485 1.789-2.625 2.32-1.141.531-2.625.797-4.454.797ZM30.48 24.21h5.015v-4.5c0-1.172-.055-2.156-.164-2.953-.11-.813-.328-1.422-.656-1.828-.328-.407-.828-.61-1.5-.61-.828 0-1.438.242-1.828.727-.375.484-.617 1.148-.727 1.992-.094.828-.14 1.773-.14 2.836v4.336Zm16.453 27.47V9.844h6.21v3.164c.454-1.156 1.165-2.031 2.133-2.625.97-.594 1.946-.89 2.93-.89 1.797 0 3.156.484 4.078 1.452.922.953 1.547 2.258 1.875 3.914.328 1.657.492 3.516.492 5.579v12.82c0 2.25-.156 4.297-.468 6.14-.313 1.844-.977 3.313-1.993 4.407-1 1.078-2.53 1.617-4.593 1.617-.953 0-1.82-.258-2.602-.774-.781-.515-1.398-1.109-1.851-1.78v8.812h-6.211Zm8.953-11.297c1.047 0 1.726-.508 2.039-1.524.312-1.03.469-2.5.469-4.406V19.875c0-1.016-.055-1.93-.164-2.742-.094-.828-.313-1.485-.657-1.969-.343-.484-.89-.726-1.64-.726-.578 0-1.078.148-1.5.445-.407.297-.727.836-.961 1.617-.22.781-.328 1.898-.328 3.352V34.71c0 1.797.171 3.195.515 4.195.344.985 1.086 1.477 2.227 1.477ZM70.323 45V3.398h6.188V45h-6.188Zm20.766.422c-1.688 0-3.102-.258-4.242-.774-1.14-.53-2.047-1.289-2.72-2.273-.655-1-1.132-2.21-1.429-3.633-.281-1.437-.422-3.07-.422-4.898V20.695c0-2.203.282-4.148.844-5.836.578-1.703 1.516-3.03 2.813-3.984 1.296-.969 3.015-1.453 5.156-1.453 1.625 0 2.992.273 4.101.82a6.653 6.653 0 0 1 2.696 2.344c.687 1 1.187 2.187 1.5 3.562.312 1.375.469 2.891.469 4.547v13.149c0 1.797-.141 3.406-.422 4.828-.266 1.422-.735 2.64-1.407 3.656-.656 1-1.546 1.766-2.671 2.297-1.126.531-2.547.797-4.266.797Zm0-5.016c.703 0 1.234-.21 1.594-.633.359-.437.601-1.039.726-1.804.125-.766.188-1.649.188-2.649V19.594c0-1.063-.07-1.977-.211-2.742-.14-.766-.39-1.36-.75-1.782-.36-.422-.875-.633-1.547-.633-.703 0-1.242.211-1.617.633-.36.422-.61 1.016-.75 1.782-.125.765-.188 1.68-.188 2.742V35.32c0 1 .063 1.883.188 2.649.14.765.39 1.367.75 1.804.375.422.914.633 1.617.633Zm13.43 10.804v-4.288h2.039c.687 0 1.265-.063 1.734-.188.469-.109.734-.359.797-.75.109-.203.148-.562.117-1.078a20.06 20.06 0 0 0-.141-1.5L103.44 9.844h5.907l2.25 17.976.937 9.47h.516l.844-9.47 2.062-17.976h5.883L115.745 46.5c-.172 1.11-.414 2.008-.726 2.695-.297.703-.75 1.211-1.36 1.524-.609.328-1.453.492-2.531.492h-6.609Zm21.14-6.21V9.844h6.211v3.82c.344-1.25.969-2.266 1.875-3.047.922-.797 2.172-1.195 3.75-1.195 1.203 0 2.25.265 3.141.797.89.531 1.578 1.445 2.062 2.742.594-1.094 1.375-1.953 2.344-2.578.969-.64 2.18-.961 3.633-.961 2.281 0 3.898.765 4.851 2.297.953 1.531 1.43 3.648 1.43 6.351V45h-6.187V18c0-1.25-.211-2.14-.633-2.672-.422-.547-1-.82-1.735-.82-.937 0-1.672.328-2.203.984-.515.64-.773 1.586-.773 2.836V45h-6.211V17.953c0-1.047-.18-1.883-.539-2.508-.344-.625-.93-.937-1.758-.937-1.078 0-1.859.414-2.344 1.242-.469.813-.703 1.781-.703 2.906V45h-6.211Zm43.453.422c-1.765 0-3.218-.281-4.359-.844a6.34 6.34 0 0 1-2.649-2.437c-.625-1.063-1.062-2.336-1.312-3.82-.25-1.5-.375-3.173-.375-5.016V20.203c0-1.64.164-3.125.492-4.453.344-1.328.867-2.46 1.57-3.398.719-.938 1.649-1.657 2.79-2.157 1.14-.515 2.515-.773 4.125-.773 1.64 0 3.007.25 4.101.75 1.094.5 1.953 1.226 2.578 2.18.641.953 1.094 2.101 1.36 3.445.281 1.328.421 2.836.421 4.523v7.524h-11.179v6.914c0 1.703.133 3.07.398 4.101.266 1.032.992 1.547 2.18 1.547.797 0 1.359-.242 1.687-.726.344-.485.547-1.149.61-1.992.078-.86.117-1.836.117-2.93v-3.094h6.141v1.875c0 1.89-.118 3.57-.352 5.04-.219 1.468-.641 2.71-1.266 3.726-.609 1.015-1.484 1.789-2.625 2.32-1.14.531-2.625.797-4.453.797Zm-2.461-21.211h5.016v-4.5c0-1.172-.055-2.156-.164-2.953-.109-.813-.328-1.422-.656-1.828-.328-.407-.828-.61-1.5-.61-.828 0-1.438.242-1.828.727-.375.484-.618 1.148-.727 1.992a25.394 25.394 0 0 0-.141 2.836v4.336ZM183.081 45V9.844h6.211v4.031c.312-1.203.969-2.242 1.969-3.117 1-.89 2.226-1.336 3.679-1.336 2.032 0 3.555.68 4.571 2.039 1.015 1.344 1.523 3.297 1.523 5.86V45h-6.211V17.695c0-1.015-.234-1.812-.703-2.39-.453-.578-1.078-.867-1.875-.867-.641 0-1.187.18-1.641.539-.437.343-.765.828-.984 1.453-.219.61-.328 1.328-.328 2.156V45h-6.211Zm30.258.234c-1.5 0-2.649-.187-3.445-.562a3.15 3.15 0 0 1-1.641-1.828c-.297-.828-.445-1.899-.445-3.211V15.07h-2.86v-4.5h2.86V3.75h6.211v6.82h3.421v4.5h-3.421v23.485c0 .547.085.96.257 1.242.172.281.508.469 1.008.562.516.094 1.274.141 2.274.141v4.734h-4.219Zm9.562 7.688L224.542 45h-2.93v-6.281h6.75v6.07l-2.39 8.133h-3.071ZM244.183 45V9.187h-4.829V3.75h15.727v5.438h-4.641V45h-6.257Zm21.445.422c-1.766 0-3.219-.281-4.359-.844a6.34 6.34 0 0 1-2.649-2.437c-.625-1.063-1.062-2.336-1.312-3.82-.25-1.5-.375-3.173-.375-5.016V20.203c0-1.64.164-3.125.492-4.453.344-1.328.867-2.46 1.57-3.398.719-.938 1.649-1.657 2.789-2.157 1.141-.515 2.516-.773 4.125-.773 1.641 0 3.008.25 4.102.75 1.093.5 1.953 1.226 2.578 2.18.64.953 1.094 2.101 1.359 3.445.281 1.328.422 2.836.422 4.523v7.524h-11.18v6.914c0 1.703.133 3.07.399 4.101.265 1.032.992 1.547 2.18 1.547.796 0 1.359-.242 1.687-.726.344-.485.547-1.149.609-1.992.079-.86.118-1.836.118-2.93v-3.094h6.14v1.875c0 1.89-.117 3.57-.351 5.04-.219 1.468-.641 2.71-1.266 3.726-.609 1.015-1.484 1.789-2.625 2.32-1.141.531-2.625.797-4.453.797Zm-2.461-21.211h5.016v-4.5c0-1.172-.055-2.156-.164-2.953-.11-.813-.329-1.422-.657-1.828-.328-.407-.828-.61-1.5-.61-.828 0-1.437.242-1.828.727-.375.484-.617 1.148-.726 1.992a25.394 25.394 0 0 0-.141 2.836v4.336Zm23.719 21.234c-2.828 0-4.93-.804-6.305-2.414s-2.062-4.242-2.062-7.898v-2.274h5.835v2.836c0 1.532.188 2.696.563 3.492.375.797.984 1.196 1.828 1.196.813 0 1.414-.274 1.805-.82.39-.547.586-1.493.586-2.836 0-.782-.117-1.54-.352-2.274a7.644 7.644 0 0 0-1.055-2.156c-.468-.719-1.078-1.414-1.828-2.086l-3.164-2.86c-1.453-1.312-2.539-2.726-3.258-4.242-.718-1.53-1.078-3.218-1.078-5.062 0-2.985.696-5.164 2.086-6.54 1.407-1.39 3.485-2.085 6.235-2.085 1.781 0 3.257.336 4.429 1.008 1.172.656 2.047 1.726 2.625 3.21.578 1.485.868 3.477.868 5.977v1.922h-5.555v-2.32c0-1.547-.18-2.719-.539-3.516-.344-.797-.938-1.195-1.781-1.195-.829 0-1.438.234-1.829.703-.39.453-.601 1.258-.632 2.414a6.196 6.196 0 0 0 .234 1.852 7.02 7.02 0 0 0 .797 1.757 9.294 9.294 0 0 0 1.453 1.664l3.328 3.024c1.75 1.578 3.039 3.226 3.867 4.945.844 1.719 1.266 3.578 1.266 5.578 0 2.953-.672 5.196-2.016 6.727-1.343 1.516-3.461 2.273-6.351 2.273Zm19.265-.211c-1.5 0-2.648-.187-3.445-.562a3.15 3.15 0 0 1-1.641-1.828c-.296-.828-.445-1.899-.445-3.211V15.07h-2.859v-4.5h2.859V3.75h6.211v6.82h3.422v4.5h-3.422v23.485c0 .547.086.96.258 1.242.172.281.508.469 1.008.562.515.094 1.273.141 2.273.141v4.734h-4.219ZM314.87 45V9.844h6.211V45h-6.211Zm-.023-38.39V1.218h6.257v5.39h-6.257ZM327.362 45V9.844h6.211v4.031c.313-1.203.969-2.242 1.969-3.117 1-.89 2.227-1.336 3.68-1.336 2.031 0 3.554.68 4.57 2.039 1.016 1.344 1.523 3.297 1.523 5.86V45h-6.211V17.695c0-1.015-.234-1.812-.703-2.39-.453-.578-1.078-.867-1.875-.867-.64 0-1.187.18-1.64.539-.438.343-.766.828-.985 1.453-.218.61-.328 1.328-.328 2.156V45h-6.211Zm31.828 5.273c-1.937.032-3.586-.156-4.945-.562a10.289 10.289 0 0 1-3.703-1.945l2.18-3.914c.828.53 1.726.96 2.695 1.289.984.343 2.047.507 3.187.492 1.188-.016 2.094-.43 2.719-1.242.625-.813.938-1.899.938-3.258v-2.79c-.407 1.173-1.032 1.977-1.875 2.415-.828.437-1.836.656-3.024.656-1.656 0-2.961-.437-3.914-1.312-.937-.875-1.601-2.07-1.992-3.586s-.586-3.235-.586-5.157V20.04c0-2.047.203-3.867.609-5.46.407-1.61 1.102-2.876 2.086-3.798.985-.922 2.336-1.375 4.055-1.36 1.203 0 2.195.306 2.977.915.797.61 1.351 1.484 1.664 2.625V9.844h6.211v30.82c0 1.39-.157 2.672-.469 3.844-.313 1.156-.828 2.156-1.547 3-.719.86-1.672 1.523-2.859 1.992-1.188.484-2.657.742-4.407.773Zm.633-13.57c.563 0 1.024-.164 1.383-.492.359-.344.625-.922.797-1.734.172-.829.258-1.977.258-3.446V19.523c0-1.546-.188-2.78-.563-3.703-.375-.922-1.054-1.383-2.039-1.383-.75 0-1.305.22-1.664.657-.359.437-.594 1.039-.703 1.804-.109.75-.164 1.618-.164 2.602v11.578c0 1.735.164 3.11.492 4.125.328 1 1.063 1.5 2.203 1.5ZM383.12 45V3.75h10.383c2.156 0 3.766.422 4.828 1.266 1.063.843 1.758 2.078 2.086 3.703.344 1.625.516 3.61.516 5.953 0 2.422-.25 4.328-.75 5.719-.485 1.375-1.485 2.297-3 2.765.718.125 1.32.422 1.804.89.485.454.875 1.126 1.172 2.017.297.875.508 2.007.633 3.398.141 1.375.211 3.062.211 5.062v3.868l.047 2.906c.015.969.039 1.797.07 2.484.031.688.07 1.094.117 1.219h-6.281c-.047-.078-.086-.477-.117-1.195-.016-.735-.039-1.664-.07-2.79-.016-1.124-.032-2.335-.047-3.632V30.21c0-1.234-.094-2.164-.282-2.79-.171-.64-.5-1.085-.984-1.335-.469-.25-1.148-.398-2.039-.445l-2.016-.118V45h-6.281Zm6.305-24.352h2.508c.765 0 1.343-.171 1.734-.515.406-.344.68-.977.82-1.899.157-.922.235-2.25.235-3.984v-.258c0-1.453-.071-2.57-.211-3.351-.141-.782-.438-1.32-.891-1.618-.437-.296-1.125-.445-2.062-.445h-2.133v12.07Zm25.125 24.774c-1.766 0-3.219-.281-4.36-.844a6.337 6.337 0 0 1-2.648-2.437c-.625-1.063-1.063-2.336-1.313-3.82-.25-1.5-.375-3.173-.375-5.016V20.203c0-1.64.165-3.125.493-4.453.343-1.328.867-2.46 1.57-3.398.719-.938 1.648-1.657 2.789-2.157 1.141-.515 2.516-.773 4.125-.773 1.641 0 3.008.25 4.102.75 1.093.5 1.953 1.226 2.578 2.18.64.953 1.093 2.101 1.359 3.445.281 1.328.422 2.836.422 4.523v7.524h-11.18v6.914c0 1.703.133 3.07.399 4.101.265 1.032.992 1.547 2.179 1.547.797 0 1.36-.242 1.688-.726.344-.485.547-1.149.609-1.992.078-.86.117-1.836.117-2.93v-3.094h6.141v1.875c0 1.89-.117 3.57-.351 5.04-.219 1.468-.641 2.71-1.266 3.726-.609 1.015-1.484 1.789-2.625 2.32-1.141.531-2.625.797-4.453.797Zm-2.461-21.211h5.015v-4.5c0-1.172-.054-2.156-.164-2.953-.109-.813-.328-1.422-.656-1.828-.328-.407-.828-.61-1.5-.61-.828 0-1.437.242-1.828.727-.375.484-.617 1.148-.727 1.992-.093.828-.14 1.773-.14 2.836v4.336Zm23.719 21.234c-2.829 0-4.93-.804-6.305-2.414s-2.063-4.242-2.063-7.898v-2.274h5.836v2.836c0 1.532.188 2.696.563 3.492.375.797.984 1.196 1.828 1.196.812 0 1.414-.274 1.805-.82.39-.547.586-1.493.586-2.836 0-.782-.118-1.54-.352-2.274a7.644 7.644 0 0 0-1.055-2.156c-.468-.719-1.078-1.414-1.828-2.086l-3.164-2.86c-1.453-1.312-2.539-2.726-3.258-4.242-.718-1.53-1.078-3.218-1.078-5.062 0-2.985.696-5.164 2.086-6.54 1.406-1.39 3.485-2.085 6.235-2.085 1.781 0 3.257.336 4.429 1.008 1.172.656 2.047 1.726 2.625 3.21.578 1.485.867 3.477.867 5.977v1.922h-5.554v-2.32c0-1.547-.18-2.719-.539-3.516-.344-.797-.938-1.195-1.782-1.195-.828 0-1.437.234-1.828.703-.39.453-.601 1.258-.633 2.414a6.229 6.229 0 0 0 .235 1.852 7.02 7.02 0 0 0 .797 1.757 9.294 9.294 0 0 0 1.453 1.664l3.328 3.024c1.75 1.578 3.039 3.226 3.867 4.945.844 1.719 1.266 3.578 1.266 5.578 0 2.953-.672 5.196-2.016 6.727-1.344 1.516-3.461 2.273-6.351 2.273Zm21.234-.023c-1.688 0-3.102-.258-4.242-.774-1.141-.53-2.047-1.289-2.719-2.273-.656-1-1.133-2.21-1.43-3.633-.281-1.437-.422-3.07-.422-4.898V20.695c0-2.203.282-4.148.844-5.836.578-1.703 1.516-3.03 2.813-3.984 1.297-.969 3.015-1.453 5.156-1.453 1.625 0 2.992.273 4.102.82a6.654 6.654 0 0 1 2.695 2.344c.687 1 1.187 2.187 1.5 3.562.312 1.375.469 2.891.469 4.547v13.149c0 1.797-.141 3.406-.422 4.828-.266 1.422-.735 2.64-1.407 3.656-.656 1-1.546 1.766-2.671 2.297-1.125.531-2.547.797-4.266.797Zm0-5.016c.703 0 1.234-.21 1.594-.633.359-.437.601-1.039.726-1.804.125-.766.188-1.649.188-2.649V19.594c0-1.063-.071-1.977-.211-2.742-.141-.766-.391-1.36-.75-1.782-.36-.422-.875-.633-1.547-.633-.703 0-1.242.211-1.617.633-.36.422-.61 1.016-.75 1.782-.125.765-.188 1.68-.188 2.742V35.32c0 1 .063 1.883.188 2.649.14.765.39 1.367.75 1.804.375.422.914.633 1.617.633Zm20.461 5.039c-1.391 0-2.555-.312-3.492-.937-.922-.625-1.617-1.555-2.086-2.79-.453-1.25-.68-2.812-.68-4.687V9.844h6.234V36.07c0 1.344.165 2.39.493 3.14.328.75 1.015 1.126 2.062 1.126 1.094 0 1.836-.422 2.227-1.266.406-.86.609-1.843.609-2.953l.024-26.273h6.187V45h-6.211v-3.656c-.437 1.187-1.07 2.172-1.898 2.953-.828.766-1.985 1.148-3.469 1.148ZM495.151 45V9.844h6.258v3.914c.406-1.36 1.11-2.422 2.11-3.188 1.015-.765 2.304-1.148 3.867-1.148.031 0 .047.265.047.797.015.531.023 1.14.023 1.828v2.625c-.719 0-1.5.086-2.344.258a8.687 8.687 0 0 0-2.273.797c-.672.343-1.149.804-1.43 1.382V45h-6.258Zm24.844.422c-1.797 0-3.281-.274-4.453-.82-1.172-.563-2.094-1.368-2.766-2.414-.656-1.047-1.117-2.32-1.382-3.82-.266-1.5-.399-3.196-.399-5.087v-11.39c0-2.594.242-4.82.727-6.68.484-1.86 1.375-3.29 2.672-4.29 1.312-1 3.203-1.5 5.671-1.5 1.516 0 2.797.235 3.844.704 1.047.469 1.891 1.148 2.531 2.04.641.874 1.102 1.937 1.383 3.187.297 1.25.446 2.656.446 4.218v3.867h-6V19.36c0-1.015-.047-1.882-.141-2.601-.094-.735-.305-1.29-.633-1.664-.328-.39-.851-.586-1.57-.586-.703 0-1.25.195-1.641.586-.39.39-.664.96-.82 1.71-.141.735-.211 1.618-.211 2.65v15.843c0 1.062.062 1.969.187 2.719.141.75.391 1.328.75 1.734.375.39.922.586 1.641.586.703 0 1.227-.203 1.57-.61.36-.421.594-1.007.703-1.757.11-.75.165-1.633.165-2.649v-4.172h6v3.563c0 1.61-.141 3.078-.422 4.406-.282 1.313-.743 2.438-1.383 3.375a6.432 6.432 0 0 1-2.555 2.18c-1.062.5-2.367.75-3.914.75Zm21.68 0c-1.766 0-3.219-.281-4.36-.844a6.337 6.337 0 0 1-2.648-2.437c-.625-1.063-1.063-2.336-1.313-3.82-.25-1.5-.375-3.173-.375-5.016V20.203c0-1.64.165-3.125.493-4.453.343-1.328.867-2.46 1.57-3.398.719-.938 1.648-1.657 2.789-2.157 1.141-.515 2.516-.773 4.125-.773 1.641 0 3.008.25 4.102.75 1.093.5 1.953 1.226 2.578 2.18.64.953 1.093 2.101 1.359 3.445.281 1.328.422 2.836.422 4.523v7.524h-11.18v6.914c0 1.703.133 3.07.399 4.101.265 1.032.992 1.547 2.179 1.547.797 0 1.36-.242 1.688-.726.344-.485.547-1.149.609-1.992.078-.86.117-1.836.117-2.93v-3.094h6.141v1.875c0 1.89-.117 3.57-.351 5.04-.219 1.468-.641 2.71-1.266 3.726-.609 1.015-1.484 1.789-2.625 2.32-1.141.531-2.625.797-4.453.797Zm-2.461-21.211h5.015v-4.5c0-1.172-.054-2.156-.164-2.953-.109-.813-.328-1.422-.656-1.828-.328-.407-.828-.61-1.5-.61-.828 0-1.437.242-1.828.727-.375.484-.617 1.148-.727 1.992-.093.828-.14 1.773-.14 2.836v4.336Zm23.719 21.234c-2.829 0-4.93-.804-6.305-2.414s-2.063-4.242-2.063-7.898v-2.274h5.836v2.836c0 1.532.188 2.696.563 3.492.375.797.984 1.196 1.828 1.196.812 0 1.414-.274 1.805-.82.39-.547.586-1.493.586-2.836 0-.782-.118-1.54-.352-2.274a7.644 7.644 0 0 0-1.055-2.156c-.468-.719-1.078-1.414-1.828-2.086l-3.164-2.86c-1.453-1.312-2.539-2.726-3.258-4.242-.718-1.53-1.078-3.218-1.078-5.062 0-2.985.696-5.164 2.086-6.54 1.406-1.39 3.485-2.085 6.235-2.085 1.781 0 3.257.336 4.429 1.008 1.172.656 2.047 1.726 2.625 3.21.578 1.485.867 3.477.867 5.977v1.922h-5.554v-2.32c0-1.547-.18-2.719-.539-3.516-.344-.797-.938-1.195-1.782-1.195-.828 0-1.437.234-1.828.703-.39.453-.601 1.258-.633 2.414a6.229 6.229 0 0 0 .235 1.852 7.02 7.02 0 0 0 .797 1.757 9.294 9.294 0 0 0 1.453 1.664l3.328 3.024c1.75 1.578 3.039 3.226 3.867 4.945.844 1.719 1.266 3.578 1.266 5.578 0 2.953-.672 5.196-2.016 6.727-1.344 1.516-3.461 2.273-6.351 2.273Z"/></mask><g fill="#E0E0E0" filter="url(#a)"><path d="M1.136 45V3.75h9.258c2.093 0 3.773.422 5.039 1.266 1.265.828 2.18 2.03 2.742 3.609.578 1.578.867 3.484.867 5.719l.023 18.61c0 2.702-.296 4.952-.89 6.75-.578 1.78-1.516 3.108-2.813 3.983-1.297.876-3.023 1.313-5.18 1.313H1.137Zm6.281-4.875h2.062c.735 0 1.344-.148 1.829-.445.5-.297.867-.82 1.101-1.57.25-.766.375-1.844.375-3.235l-.023-20.367c0-2.11-.258-3.625-.774-4.547-.515-.922-1.422-1.383-2.718-1.383H7.417v31.547Zm25.523 5.297c-1.765 0-3.218-.281-4.359-.844a6.336 6.336 0 0 1-2.648-2.437c-.625-1.063-1.063-2.336-1.313-3.82-.25-1.5-.375-3.173-.375-5.016V20.203c0-1.64.164-3.125.492-4.453.344-1.328.868-2.46 1.57-3.398.72-.938 1.65-1.657 2.79-2.157 1.14-.515 2.515-.773 4.125-.773 1.64 0 3.008.25 4.101.75 1.094.5 1.953 1.226 2.578 2.18.641.953 1.094 2.101 1.36 3.445.281 1.328.422 2.836.422 4.523v7.524h-11.18v6.914c0 1.703.133 3.07.398 4.101.266 1.032.993 1.547 2.18 1.547.797 0 1.36-.242 1.688-.726.343-.485.546-1.149.609-1.992.078-.86.117-1.836.117-2.93v-3.094h6.14v1.875c0 1.89-.116 3.57-.35 5.04-.22 1.468-.641 2.71-1.266 3.726-.61 1.015-1.485 1.789-2.625 2.32-1.141.531-2.625.797-4.454.797ZM30.48 24.21h5.015v-4.5c0-1.172-.055-2.156-.164-2.953-.11-.813-.328-1.422-.656-1.828-.328-.407-.828-.61-1.5-.61-.828 0-1.438.242-1.828.727-.375.484-.617 1.148-.727 1.992-.094.828-.14 1.773-.14 2.836v4.336Zm16.453 27.47V9.844h6.21v3.164c.454-1.156 1.165-2.031 2.133-2.625.97-.594 1.946-.89 2.93-.89 1.797 0 3.156.484 4.078 1.452.922.953 1.547 2.258 1.875 3.914.328 1.657.492 3.516.492 5.579v12.82c0 2.25-.156 4.297-.468 6.14-.313 1.844-.977 3.313-1.993 4.407-1 1.078-2.53 1.617-4.593 1.617-.953 0-1.82-.258-2.602-.774-.781-.515-1.398-1.109-1.851-1.78v8.812h-6.211Zm8.953-11.297c1.047 0 1.726-.508 2.039-1.524.312-1.03.469-2.5.469-4.406V19.875c0-1.016-.055-1.93-.164-2.742-.094-.828-.313-1.485-.657-1.969-.343-.484-.89-.726-1.64-.726-.578 0-1.078.148-1.5.445-.407.297-.727.836-.961 1.617-.22.781-.328 1.898-.328 3.352V34.71c0 1.797.171 3.195.515 4.195.344.985 1.086 1.477 2.227 1.477ZM70.323 45V3.398h6.188V45h-6.188Zm20.766.422c-1.688 0-3.102-.258-4.242-.774-1.14-.53-2.047-1.289-2.72-2.273-.655-1-1.132-2.21-1.429-3.633-.281-1.437-.422-3.07-.422-4.898V20.695c0-2.203.282-4.148.844-5.836.578-1.703 1.516-3.03 2.813-3.984 1.296-.969 3.015-1.453 5.156-1.453 1.625 0 2.992.273 4.101.82a6.653 6.653 0 0 1 2.696 2.344c.687 1 1.187 2.187 1.5 3.562.312 1.375.469 2.891.469 4.547v13.149c0 1.797-.141 3.406-.422 4.828-.266 1.422-.735 2.64-1.407 3.656-.656 1-1.546 1.766-2.671 2.297-1.126.531-2.547.797-4.266.797Zm0-5.016c.703 0 1.234-.21 1.594-.633.359-.437.601-1.039.726-1.804.125-.766.188-1.649.188-2.649V19.594c0-1.063-.07-1.977-.211-2.742-.14-.766-.39-1.36-.75-1.782-.36-.422-.875-.633-1.547-.633-.703 0-1.242.211-1.617.633-.36.422-.61 1.016-.75 1.782-.125.765-.188 1.68-.188 2.742V35.32c0 1 .063 1.883.188 2.649.14.765.39 1.367.75 1.804.375.422.914.633 1.617.633Zm13.43 10.804v-4.288h2.039c.687 0 1.265-.063 1.734-.188.469-.109.734-.359.797-.75.109-.203.148-.562.117-1.078a20.06 20.06 0 0 0-.141-1.5L103.44 9.844h5.907l2.25 17.976.937 9.47h.516l.844-9.47 2.062-17.976h5.883L115.745 46.5c-.172 1.11-.414 2.008-.726 2.695-.297.703-.75 1.211-1.36 1.524-.609.328-1.453.492-2.531.492h-6.609Zm21.14-6.21V9.844h6.211v3.82c.344-1.25.969-2.266 1.875-3.047.922-.797 2.172-1.195 3.75-1.195 1.203 0 2.25.265 3.141.797.89.531 1.578 1.445 2.062 2.742.594-1.094 1.375-1.953 2.344-2.578.969-.64 2.18-.961 3.633-.961 2.281 0 3.898.765 4.851 2.297.953 1.531 1.43 3.648 1.43 6.351V45h-6.187V18c0-1.25-.211-2.14-.633-2.672-.422-.547-1-.82-1.735-.82-.937 0-1.672.328-2.203.984-.515.64-.773 1.586-.773 2.836V45h-6.211V17.953c0-1.047-.18-1.883-.539-2.508-.344-.625-.93-.937-1.758-.937-1.078 0-1.859.414-2.344 1.242-.469.813-.703 1.781-.703 2.906V45h-6.211Zm43.453.422c-1.765 0-3.218-.281-4.359-.844a6.34 6.34 0 0 1-2.649-2.437c-.625-1.063-1.062-2.336-1.312-3.82-.25-1.5-.375-3.173-.375-5.016V20.203c0-1.64.164-3.125.492-4.453.344-1.328.867-2.46 1.57-3.398.719-.938 1.649-1.657 2.79-2.157 1.14-.515 2.515-.773 4.125-.773 1.64 0 3.007.25 4.101.75 1.094.5 1.953 1.226 2.578 2.18.641.953 1.094 2.101 1.36 3.445.281 1.328.421 2.836.421 4.523v7.524h-11.179v6.914c0 1.703.133 3.07.398 4.101.266 1.032.992 1.547 2.18 1.547.797 0 1.359-.242 1.687-.726.344-.485.547-1.149.61-1.992.078-.86.117-1.836.117-2.93v-3.094h6.141v1.875c0 1.89-.118 3.57-.352 5.04-.219 1.468-.641 2.71-1.266 3.726-.609 1.015-1.484 1.789-2.625 2.32-1.14.531-2.625.797-4.453.797Zm-2.461-21.211h5.016v-4.5c0-1.172-.055-2.156-.164-2.953-.109-.813-.328-1.422-.656-1.828-.328-.407-.828-.61-1.5-.61-.828 0-1.438.242-1.828.727-.375.484-.618 1.148-.727 1.992a25.394 25.394 0 0 0-.141 2.836v4.336ZM183.081 45V9.844h6.211v4.031c.312-1.203.969-2.242 1.969-3.117 1-.89 2.226-1.336 3.679-1.336 2.032 0 3.555.68 4.571 2.039 1.015 1.344 1.523 3.297 1.523 5.86V45h-6.211V17.695c0-1.015-.234-1.812-.703-2.39-.453-.578-1.078-.867-1.875-.867-.641 0-1.187.18-1.641.539-.437.343-.765.828-.984 1.453-.219.61-.328 1.328-.328 2.156V45h-6.211Zm30.258.234c-1.5 0-2.649-.187-3.445-.562a3.15 3.15 0 0 1-1.641-1.828c-.297-.828-.445-1.899-.445-3.211V15.07h-2.86v-4.5h2.86V3.75h6.211v6.82h3.421v4.5h-3.421v23.485c0 .547.085.96.257 1.242.172.281.508.469 1.008.562.516.094 1.274.141 2.274.141v4.734h-4.219Zm9.562 7.688L224.542 45h-2.93v-6.281h6.75v6.07l-2.39 8.133h-3.071ZM244.183 45V9.187h-4.829V3.75h15.727v5.438h-4.641V45h-6.257Zm21.445.422c-1.766 0-3.219-.281-4.359-.844a6.34 6.34 0 0 1-2.649-2.437c-.625-1.063-1.062-2.336-1.312-3.82-.25-1.5-.375-3.173-.375-5.016V20.203c0-1.64.164-3.125.492-4.453.344-1.328.867-2.46 1.57-3.398.719-.938 1.649-1.657 2.789-2.157 1.141-.515 2.516-.773 4.125-.773 1.641 0 3.008.25 4.102.75 1.093.5 1.953 1.226 2.578 2.18.64.953 1.094 2.101 1.359 3.445.281 1.328.422 2.836.422 4.523v7.524h-11.18v6.914c0 1.703.133 3.07.399 4.101.265 1.032.992 1.547 2.18 1.547.796 0 1.359-.242 1.687-.726.344-.485.547-1.149.609-1.992.079-.86.118-1.836.118-2.93v-3.094h6.14v1.875c0 1.89-.117 3.57-.351 5.04-.219 1.468-.641 2.71-1.266 3.726-.609 1.015-1.484 1.789-2.625 2.32-1.141.531-2.625.797-4.453.797Zm-2.461-21.211h5.016v-4.5c0-1.172-.055-2.156-.164-2.953-.11-.813-.329-1.422-.657-1.828-.328-.407-.828-.61-1.5-.61-.828 0-1.437.242-1.828.727-.375.484-.617 1.148-.726 1.992a25.394 25.394 0 0 0-.141 2.836v4.336Zm23.719 21.234c-2.828 0-4.93-.804-6.305-2.414s-2.062-4.242-2.062-7.898v-2.274h5.835v2.836c0 1.532.188 2.696.563 3.492.375.797.984 1.196 1.828 1.196.813 0 1.414-.274 1.805-.82.39-.547.586-1.493.586-2.836 0-.782-.117-1.54-.352-2.274a7.644 7.644 0 0 0-1.055-2.156c-.468-.719-1.078-1.414-1.828-2.086l-3.164-2.86c-1.453-1.312-2.539-2.726-3.258-4.242-.718-1.53-1.078-3.218-1.078-5.062 0-2.985.696-5.164 2.086-6.54 1.407-1.39 3.485-2.085 6.235-2.085 1.781 0 3.257.336 4.429 1.008 1.172.656 2.047 1.726 2.625 3.21.578 1.485.868 3.477.868 5.977v1.922h-5.555v-2.32c0-1.547-.18-2.719-.539-3.516-.344-.797-.938-1.195-1.781-1.195-.829 0-1.438.234-1.829.703-.39.453-.601 1.258-.632 2.414a6.196 6.196 0 0 0 .234 1.852 7.02 7.02 0 0 0 .797 1.757 9.294 9.294 0 0 0 1.453 1.664l3.328 3.024c1.75 1.578 3.039 3.226 3.867 4.945.844 1.719 1.266 3.578 1.266 5.578 0 2.953-.672 5.196-2.016 6.727-1.343 1.516-3.461 2.273-6.351 2.273Zm19.265-.211c-1.5 0-2.648-.187-3.445-.562a3.15 3.15 0 0 1-1.641-1.828c-.296-.828-.445-1.899-.445-3.211V15.07h-2.859v-4.5h2.859V3.75h6.211v6.82h3.422v4.5h-3.422v23.485c0 .547.086.96.258 1.242.172.281.508.469 1.008.562.515.094 1.273.141 2.273.141v4.734h-4.219ZM314.87 45V9.844h6.211V45h-6.211Zm-.023-38.39V1.218h6.257v5.39h-6.257ZM327.362 45V9.844h6.211v4.031c.313-1.203.969-2.242 1.969-3.117 1-.89 2.227-1.336 3.68-1.336 2.031 0 3.554.68 4.57 2.039 1.016 1.344 1.523 3.297 1.523 5.86V45h-6.211V17.695c0-1.015-.234-1.812-.703-2.39-.453-.578-1.078-.867-1.875-.867-.64 0-1.187.18-1.64.539-.438.343-.766.828-.985 1.453-.218.61-.328 1.328-.328 2.156V45h-6.211Zm31.828 5.273c-1.937.032-3.586-.156-4.945-.562a10.289 10.289 0 0 1-3.703-1.945l2.18-3.914c.828.53 1.726.96 2.695 1.289.984.343 2.047.507 3.187.492 1.188-.016 2.094-.43 2.719-1.242.625-.813.938-1.899.938-3.258v-2.79c-.407 1.173-1.032 1.977-1.875 2.415-.828.437-1.836.656-3.024.656-1.656 0-2.961-.437-3.914-1.312-.937-.875-1.601-2.07-1.992-3.586s-.586-3.235-.586-5.157V20.04c0-2.047.203-3.867.609-5.46.407-1.61 1.102-2.876 2.086-3.798.985-.922 2.336-1.375 4.055-1.36 1.203 0 2.195.306 2.977.915.797.61 1.351 1.484 1.664 2.625V9.844h6.211v30.82c0 1.39-.157 2.672-.469 3.844-.313 1.156-.828 2.156-1.547 3-.719.86-1.672 1.523-2.859 1.992-1.188.484-2.657.742-4.407.773Zm.633-13.57c.563 0 1.024-.164 1.383-.492.359-.344.625-.922.797-1.734.172-.829.258-1.977.258-3.446V19.523c0-1.546-.188-2.78-.563-3.703-.375-.922-1.054-1.383-2.039-1.383-.75 0-1.305.22-1.664.657-.359.437-.594 1.039-.703 1.804-.109.75-.164 1.618-.164 2.602v11.578c0 1.735.164 3.11.492 4.125.328 1 1.063 1.5 2.203 1.5ZM383.12 45V3.75h10.383c2.156 0 3.766.422 4.828 1.266 1.063.843 1.758 2.078 2.086 3.703.344 1.625.516 3.61.516 5.953 0 2.422-.25 4.328-.75 5.719-.485 1.375-1.485 2.297-3 2.765.718.125 1.32.422 1.804.89.485.454.875 1.126 1.172 2.017.297.875.508 2.007.633 3.398.141 1.375.211 3.062.211 5.062v3.868l.047 2.906c.015.969.039 1.797.07 2.484.031.688.07 1.094.117 1.219h-6.281c-.047-.078-.086-.477-.117-1.195-.016-.735-.039-1.664-.07-2.79-.016-1.124-.032-2.335-.047-3.632V30.21c0-1.234-.094-2.164-.282-2.79-.171-.64-.5-1.085-.984-1.335-.469-.25-1.148-.398-2.039-.445l-2.016-.118V45h-6.281Zm6.305-24.352h2.508c.765 0 1.343-.171 1.734-.515.406-.344.68-.977.82-1.899.157-.922.235-2.25.235-3.984v-.258c0-1.453-.071-2.57-.211-3.351-.141-.782-.438-1.32-.891-1.618-.437-.296-1.125-.445-2.062-.445h-2.133v12.07Zm25.125 24.774c-1.766 0-3.219-.281-4.36-.844a6.337 6.337 0 0 1-2.648-2.437c-.625-1.063-1.063-2.336-1.313-3.82-.25-1.5-.375-3.173-.375-5.016V20.203c0-1.64.165-3.125.493-4.453.343-1.328.867-2.46 1.57-3.398.719-.938 1.648-1.657 2.789-2.157 1.141-.515 2.516-.773 4.125-.773 1.641 0 3.008.25 4.102.75 1.093.5 1.953 1.226 2.578 2.18.64.953 1.093 2.101 1.359 3.445.281 1.328.422 2.836.422 4.523v7.524h-11.18v6.914c0 1.703.133 3.07.399 4.101.265 1.032.992 1.547 2.179 1.547.797 0 1.36-.242 1.688-.726.344-.485.547-1.149.609-1.992.078-.86.117-1.836.117-2.93v-3.094h6.141v1.875c0 1.89-.117 3.57-.351 5.04-.219 1.468-.641 2.71-1.266 3.726-.609 1.015-1.484 1.789-2.625 2.32-1.141.531-2.625.797-4.453.797Zm-2.461-21.211h5.015v-4.5c0-1.172-.054-2.156-.164-2.953-.109-.813-.328-1.422-.656-1.828-.328-.407-.828-.61-1.5-.61-.828 0-1.437.242-1.828.727-.375.484-.617 1.148-.727 1.992-.093.828-.14 1.773-.14 2.836v4.336Zm23.719 21.234c-2.829 0-4.93-.804-6.305-2.414s-2.063-4.242-2.063-7.898v-2.274h5.836v2.836c0 1.532.188 2.696.563 3.492.375.797.984 1.196 1.828 1.196.812 0 1.414-.274 1.805-.82.39-.547.586-1.493.586-2.836 0-.782-.118-1.54-.352-2.274a7.644 7.644 0 0 0-1.055-2.156c-.468-.719-1.078-1.414-1.828-2.086l-3.164-2.86c-1.453-1.312-2.539-2.726-3.258-4.242-.718-1.53-1.078-3.218-1.078-5.062 0-2.985.696-5.164 2.086-6.54 1.406-1.39 3.485-2.085 6.235-2.085 1.781 0 3.257.336 4.429 1.008 1.172.656 2.047 1.726 2.625 3.21.578 1.485.867 3.477.867 5.977v1.922h-5.554v-2.32c0-1.547-.18-2.719-.539-3.516-.344-.797-.938-1.195-1.782-1.195-.828 0-1.437.234-1.828.703-.39.453-.601 1.258-.633 2.414a6.229 6.229 0 0 0 .235 1.852 7.02 7.02 0 0 0 .797 1.757 9.294 9.294 0 0 0 1.453 1.664l3.328 3.024c1.75 1.578 3.039 3.226 3.867 4.945.844 1.719 1.266 3.578 1.266 5.578 0 2.953-.672 5.196-2.016 6.727-1.344 1.516-3.461 2.273-6.351 2.273Zm21.234-.023c-1.688 0-3.102-.258-4.242-.774-1.141-.53-2.047-1.289-2.719-2.273-.656-1-1.133-2.21-1.43-3.633-.281-1.437-.422-3.07-.422-4.898V20.695c0-2.203.282-4.148.844-5.836.578-1.703 1.516-3.03 2.813-3.984 1.297-.969 3.015-1.453 5.156-1.453 1.625 0 2.992.273 4.102.82a6.654 6.654 0 0 1 2.695 2.344c.687 1 1.187 2.187 1.5 3.562.312 1.375.469 2.891.469 4.547v13.149c0 1.797-.141 3.406-.422 4.828-.266 1.422-.735 2.64-1.407 3.656-.656 1-1.546 1.766-2.671 2.297-1.125.531-2.547.797-4.266.797Zm0-5.016c.703 0 1.234-.21 1.594-.633.359-.437.601-1.039.726-1.804.125-.766.188-1.649.188-2.649V19.594c0-1.063-.071-1.977-.211-2.742-.141-.766-.391-1.36-.75-1.782-.36-.422-.875-.633-1.547-.633-.703 0-1.242.211-1.617.633-.36.422-.61 1.016-.75 1.782-.125.765-.188 1.68-.188 2.742V35.32c0 1 .063 1.883.188 2.649.14.765.39 1.367.75 1.804.375.422.914.633 1.617.633Zm20.461 5.039c-1.391 0-2.555-.312-3.492-.937-.922-.625-1.617-1.555-2.086-2.79-.453-1.25-.68-2.812-.68-4.687V9.844h6.234V36.07c0 1.344.165 2.39.493 3.14.328.75 1.015 1.126 2.062 1.126 1.094 0 1.836-.422 2.227-1.266.406-.86.609-1.843.609-2.953l.024-26.273h6.187V45h-6.211v-3.656c-.437 1.187-1.07 2.172-1.898 2.953-.828.766-1.985 1.148-3.469 1.148ZM495.151 45V9.844h6.258v3.914c.406-1.36 1.11-2.422 2.11-3.188 1.015-.765 2.304-1.148 3.867-1.148.031 0 .047.265.047.797.015.531.023 1.14.023 1.828v2.625c-.719 0-1.5.086-2.344.258a8.687 8.687 0 0 0-2.273.797c-.672.343-1.149.804-1.43 1.382V45h-6.258Zm24.844.422c-1.797 0-3.281-.274-4.453-.82-1.172-.563-2.094-1.368-2.766-2.414-.656-1.047-1.117-2.32-1.382-3.82-.266-1.5-.399-3.196-.399-5.087v-11.39c0-2.594.242-4.82.727-6.68.484-1.86 1.375-3.29 2.672-4.29 1.312-1 3.203-1.5 5.671-1.5 1.516 0 2.797.235 3.844.704 1.047.469 1.891 1.148 2.531 2.04.641.874 1.102 1.937 1.383 3.187.297 1.25.446 2.656.446 4.218v3.867h-6V19.36c0-1.015-.047-1.882-.141-2.601-.094-.735-.305-1.29-.633-1.664-.328-.39-.851-.586-1.57-.586-.703 0-1.25.195-1.641.586-.39.39-.664.96-.82 1.71-.141.735-.211 1.618-.211 2.65v15.843c0 1.062.062 1.969.187 2.719.141.75.391 1.328.75 1.734.375.39.922.586 1.641.586.703 0 1.227-.203 1.57-.61.36-.421.594-1.007.703-1.757.11-.75.165-1.633.165-2.649v-4.172h6v3.563c0 1.61-.141 3.078-.422 4.406-.282 1.313-.743 2.438-1.383 3.375a6.432 6.432 0 0 1-2.555 2.18c-1.062.5-2.367.75-3.914.75Zm21.68 0c-1.766 0-3.219-.281-4.36-.844a6.337 6.337 0 0 1-2.648-2.437c-.625-1.063-1.063-2.336-1.313-3.82-.25-1.5-.375-3.173-.375-5.016V20.203c0-1.64.165-3.125.493-4.453.343-1.328.867-2.46 1.57-3.398.719-.938 1.648-1.657 2.789-2.157 1.141-.515 2.516-.773 4.125-.773 1.641 0 3.008.25 4.102.75 1.093.5 1.953 1.226 2.578 2.18.64.953 1.093 2.101 1.359 3.445.281 1.328.422 2.836.422 4.523v7.524h-11.18v6.914c0 1.703.133 3.07.399 4.101.265 1.032.992 1.547 2.179 1.547.797 0 1.36-.242 1.688-.726.344-.485.547-1.149.609-1.992.078-.86.117-1.836.117-2.93v-3.094h6.141v1.875c0 1.89-.117 3.57-.351 5.04-.219 1.468-.641 2.71-1.266 3.726-.609 1.015-1.484 1.789-2.625 2.32-1.141.531-2.625.797-4.453.797Zm-2.461-21.211h5.015v-4.5c0-1.172-.054-2.156-.164-2.953-.109-.813-.328-1.422-.656-1.828-.328-.407-.828-.61-1.5-.61-.828 0-1.437.242-1.828.727-.375.484-.617 1.148-.727 1.992-.093.828-.14 1.773-.14 2.836v4.336Zm23.719 21.234c-2.829 0-4.93-.804-6.305-2.414s-2.063-4.242-2.063-7.898v-2.274h5.836v2.836c0 1.532.188 2.696.563 3.492.375.797.984 1.196 1.828 1.196.812 0 1.414-.274 1.805-.82.39-.547.586-1.493.586-2.836 0-.782-.118-1.54-.352-2.274a7.644 7.644 0 0 0-1.055-2.156c-.468-.719-1.078-1.414-1.828-2.086l-3.164-2.86c-1.453-1.312-2.539-2.726-3.258-4.242-.718-1.53-1.078-3.218-1.078-5.062 0-2.985.696-5.164 2.086-6.54 1.406-1.39 3.485-2.085 6.235-2.085 1.781 0 3.257.336 4.429 1.008 1.172.656 2.047 1.726 2.625 3.21.578 1.485.867 3.477.867 5.977v1.922h-5.554v-2.32c0-1.547-.18-2.719-.539-3.516-.344-.797-.938-1.195-1.782-1.195-.828 0-1.437.234-1.828.703-.39.453-.601 1.258-.633 2.414a6.229 6.229 0 0 0 .235 1.852 7.02 7.02 0 0 0 .797 1.757 9.294 9.294 0 0 0 1.453 1.664l3.328 3.024c1.75 1.578 3.039 3.226 3.867 4.945.844 1.719 1.266 3.578 1.266 5.578 0 2.953-.672 5.196-2.016 6.727-1.344 1.516-3.461 2.273-6.351 2.273Z"/></g><path stroke="#EAEAEA" stroke-width="2" d="M1.136 45V3.75h9.258c2.093 0 3.773.422 5.039 1.266 1.265.828 2.18 2.03 2.742 3.609.578 1.578.867 3.484.867 5.719l.023 18.61c0 2.702-.296 4.952-.89 6.75-.578 1.78-1.516 3.108-2.813 3.983-1.297.876-3.023 1.313-5.18 1.313H1.137Zm6.281-4.875h2.062c.735 0 1.344-.148 1.829-.445.5-.297.867-.82 1.101-1.57.25-.766.375-1.844.375-3.235l-.023-20.367c0-2.11-.258-3.625-.774-4.547-.515-.922-1.422-1.383-2.718-1.383H7.417v31.547Zm25.523 5.297c-1.765 0-3.218-.281-4.359-.844a6.336 6.336 0 0 1-2.648-2.437c-.625-1.063-1.063-2.336-1.313-3.82-.25-1.5-.375-3.173-.375-5.016V20.203c0-1.64.164-3.125.492-4.453.344-1.328.868-2.46 1.57-3.398.72-.938 1.65-1.657 2.79-2.157 1.14-.515 2.515-.773 4.125-.773 1.64 0 3.008.25 4.101.75 1.094.5 1.953 1.226 2.578 2.18.641.953 1.094 2.101 1.36 3.445.281 1.328.422 2.836.422 4.523v7.524h-11.18v6.914c0 1.703.133 3.07.398 4.101.266 1.032.993 1.547 2.18 1.547.797 0 1.36-.242 1.688-.726.343-.485.546-1.149.609-1.992.078-.86.117-1.836.117-2.93v-3.094h6.14v1.875c0 1.89-.116 3.57-.35 5.04-.22 1.468-.641 2.71-1.266 3.726-.61 1.015-1.485 1.789-2.625 2.32-1.141.531-2.625.797-4.454.797ZM30.48 24.21h5.015v-4.5c0-1.172-.055-2.156-.164-2.953-.11-.813-.328-1.422-.656-1.828-.328-.407-.828-.61-1.5-.61-.828 0-1.438.242-1.828.727-.375.484-.617 1.148-.727 1.992-.094.828-.14 1.773-.14 2.836v4.336Zm16.453 27.47V9.844h6.21v3.164c.454-1.156 1.165-2.031 2.133-2.625.97-.594 1.946-.89 2.93-.89 1.797 0 3.156.484 4.078 1.452.922.953 1.547 2.258 1.875 3.914.328 1.657.492 3.516.492 5.579v12.82c0 2.25-.156 4.297-.468 6.14-.313 1.844-.977 3.313-1.993 4.407-1 1.078-2.53 1.617-4.593 1.617-.953 0-1.82-.258-2.602-.774-.781-.515-1.398-1.109-1.851-1.78v8.812h-6.211Zm8.953-11.297c1.047 0 1.726-.508 2.039-1.524.312-1.03.469-2.5.469-4.406V19.875c0-1.016-.055-1.93-.164-2.742-.094-.828-.313-1.485-.657-1.969-.343-.484-.89-.726-1.64-.726-.578 0-1.078.148-1.5.445-.407.297-.727.836-.961 1.617-.22.781-.328 1.898-.328 3.352V34.71c0 1.797.171 3.195.515 4.195.344.985 1.086 1.477 2.227 1.477ZM70.323 45V3.398h6.188V45h-6.188Zm20.766.422c-1.688 0-3.102-.258-4.242-.774-1.14-.53-2.047-1.289-2.72-2.273-.655-1-1.132-2.21-1.429-3.633-.281-1.437-.422-3.07-.422-4.898V20.695c0-2.203.282-4.148.844-5.836.578-1.703 1.516-3.03 2.813-3.984 1.296-.969 3.015-1.453 5.156-1.453 1.625 0 2.992.273 4.101.82a6.653 6.653 0 0 1 2.696 2.344c.687 1 1.187 2.187 1.5 3.562.312 1.375.469 2.891.469 4.547v13.149c0 1.797-.141 3.406-.422 4.828-.266 1.422-.735 2.64-1.407 3.656-.656 1-1.546 1.766-2.671 2.297-1.126.531-2.547.797-4.266.797Zm0-5.016c.703 0 1.234-.21 1.594-.633.359-.437.601-1.039.726-1.804.125-.766.188-1.649.188-2.649V19.594c0-1.063-.07-1.977-.211-2.742-.14-.766-.39-1.36-.75-1.782-.36-.422-.875-.633-1.547-.633-.703 0-1.242.211-1.617.633-.36.422-.61 1.016-.75 1.782-.125.765-.188 1.68-.188 2.742V35.32c0 1 .063 1.883.188 2.649.14.765.39 1.367.75 1.804.375.422.914.633 1.617.633Zm13.43 10.804v-4.288h2.039c.687 0 1.265-.063 1.734-.188.469-.109.734-.359.797-.75.109-.203.148-.562.117-1.078a20.06 20.06 0 0 0-.141-1.5L103.44 9.844h5.907l2.25 17.976.937 9.47h.516l.844-9.47 2.062-17.976h5.883L115.745 46.5c-.172 1.11-.414 2.008-.726 2.695-.297.703-.75 1.211-1.36 1.524-.609.328-1.453.492-2.531.492h-6.609Zm21.14-6.21V9.844h6.211v3.82c.344-1.25.969-2.266 1.875-3.047.922-.797 2.172-1.195 3.75-1.195 1.203 0 2.25.265 3.141.797.89.531 1.578 1.445 2.062 2.742.594-1.094 1.375-1.953 2.344-2.578.969-.64 2.18-.961 3.633-.961 2.281 0 3.898.765 4.851 2.297.953 1.531 1.43 3.648 1.43 6.351V45h-6.187V18c0-1.25-.211-2.14-.633-2.672-.422-.547-1-.82-1.735-.82-.937 0-1.672.328-2.203.984-.515.64-.773 1.586-.773 2.836V45h-6.211V17.953c0-1.047-.18-1.883-.539-2.508-.344-.625-.93-.937-1.758-.937-1.078 0-1.859.414-2.344 1.242-.469.813-.703 1.781-.703 2.906V45h-6.211Zm43.453.422c-1.765 0-3.218-.281-4.359-.844a6.34 6.34 0 0 1-2.649-2.437c-.625-1.063-1.062-2.336-1.312-3.82-.25-1.5-.375-3.173-.375-5.016V20.203c0-1.64.164-3.125.492-4.453.344-1.328.867-2.46 1.57-3.398.719-.938 1.649-1.657 2.79-2.157 1.14-.515 2.515-.773 4.125-.773 1.64 0 3.007.25 4.101.75 1.094.5 1.953 1.226 2.578 2.18.641.953 1.094 2.101 1.36 3.445.281 1.328.421 2.836.421 4.523v7.524h-11.179v6.914c0 1.703.133 3.07.398 4.101.266 1.032.992 1.547 2.18 1.547.797 0 1.359-.242 1.687-.726.344-.485.547-1.149.61-1.992.078-.86.117-1.836.117-2.93v-3.094h6.141v1.875c0 1.89-.118 3.57-.352 5.04-.219 1.468-.641 2.71-1.266 3.726-.609 1.015-1.484 1.789-2.625 2.32-1.14.531-2.625.797-4.453.797Zm-2.461-21.211h5.016v-4.5c0-1.172-.055-2.156-.164-2.953-.109-.813-.328-1.422-.656-1.828-.328-.407-.828-.61-1.5-.61-.828 0-1.438.242-1.828.727-.375.484-.618 1.148-.727 1.992a25.394 25.394 0 0 0-.141 2.836v4.336ZM183.081 45V9.844h6.211v4.031c.312-1.203.969-2.242 1.969-3.117 1-.89 2.226-1.336 3.679-1.336 2.032 0 3.555.68 4.571 2.039 1.015 1.344 1.523 3.297 1.523 5.86V45h-6.211V17.695c0-1.015-.234-1.812-.703-2.39-.453-.578-1.078-.867-1.875-.867-.641 0-1.187.18-1.641.539-.437.343-.765.828-.984 1.453-.219.61-.328 1.328-.328 2.156V45h-6.211Zm30.258.234c-1.5 0-2.649-.187-3.445-.562a3.15 3.15 0 0 1-1.641-1.828c-.297-.828-.445-1.899-.445-3.211V15.07h-2.86v-4.5h2.86V3.75h6.211v6.82h3.421v4.5h-3.421v23.485c0 .547.085.96.257 1.242.172.281.508.469 1.008.562.516.094 1.274.141 2.274.141v4.734h-4.219Zm9.562 7.688L224.542 45h-2.93v-6.281h6.75v6.07l-2.39 8.133h-3.071ZM244.183 45V9.187h-4.829V3.75h15.727v5.438h-4.641V45h-6.257Zm21.445.422c-1.766 0-3.219-.281-4.359-.844a6.34 6.34 0 0 1-2.649-2.437c-.625-1.063-1.062-2.336-1.312-3.82-.25-1.5-.375-3.173-.375-5.016V20.203c0-1.64.164-3.125.492-4.453.344-1.328.867-2.46 1.57-3.398.719-.938 1.649-1.657 2.789-2.157 1.141-.515 2.516-.773 4.125-.773 1.641 0 3.008.25 4.102.75 1.093.5 1.953 1.226 2.578 2.18.64.953 1.094 2.101 1.359 3.445.281 1.328.422 2.836.422 4.523v7.524h-11.18v6.914c0 1.703.133 3.07.399 4.101.265 1.032.992 1.547 2.18 1.547.796 0 1.359-.242 1.687-.726.344-.485.547-1.149.609-1.992.079-.86.118-1.836.118-2.93v-3.094h6.14v1.875c0 1.89-.117 3.57-.351 5.04-.219 1.468-.641 2.71-1.266 3.726-.609 1.015-1.484 1.789-2.625 2.32-1.141.531-2.625.797-4.453.797Zm-2.461-21.211h5.016v-4.5c0-1.172-.055-2.156-.164-2.953-.11-.813-.329-1.422-.657-1.828-.328-.407-.828-.61-1.5-.61-.828 0-1.437.242-1.828.727-.375.484-.617 1.148-.726 1.992a25.394 25.394 0 0 0-.141 2.836v4.336Zm23.719 21.234c-2.828 0-4.93-.804-6.305-2.414s-2.062-4.242-2.062-7.898v-2.274h5.835v2.836c0 1.532.188 2.696.563 3.492.375.797.984 1.196 1.828 1.196.813 0 1.414-.274 1.805-.82.39-.547.586-1.493.586-2.836 0-.782-.117-1.54-.352-2.274a7.644 7.644 0 0 0-1.055-2.156c-.468-.719-1.078-1.414-1.828-2.086l-3.164-2.86c-1.453-1.312-2.539-2.726-3.258-4.242-.718-1.53-1.078-3.218-1.078-5.062 0-2.985.696-5.164 2.086-6.54 1.407-1.39 3.485-2.085 6.235-2.085 1.781 0 3.257.336 4.429 1.008 1.172.656 2.047 1.726 2.625 3.21.578 1.485.868 3.477.868 5.977v1.922h-5.555v-2.32c0-1.547-.18-2.719-.539-3.516-.344-.797-.938-1.195-1.781-1.195-.829 0-1.438.234-1.829.703-.39.453-.601 1.258-.632 2.414a6.196 6.196 0 0 0 .234 1.852 7.02 7.02 0 0 0 .797 1.757 9.294 9.294 0 0 0 1.453 1.664l3.328 3.024c1.75 1.578 3.039 3.226 3.867 4.945.844 1.719 1.266 3.578 1.266 5.578 0 2.953-.672 5.196-2.016 6.727-1.343 1.516-3.461 2.273-6.351 2.273Zm19.265-.211c-1.5 0-2.648-.187-3.445-.562a3.15 3.15 0 0 1-1.641-1.828c-.296-.828-.445-1.899-.445-3.211V15.07h-2.859v-4.5h2.859V3.75h6.211v6.82h3.422v4.5h-3.422v23.485c0 .547.086.96.258 1.242.172.281.508.469 1.008.562.515.094 1.273.141 2.273.141v4.734h-4.219ZM314.87 45V9.844h6.211V45h-6.211Zm-.023-38.39V1.218h6.257v5.39h-6.257ZM327.362 45V9.844h6.211v4.031c.313-1.203.969-2.242 1.969-3.117 1-.89 2.227-1.336 3.68-1.336 2.031 0 3.554.68 4.57 2.039 1.016 1.344 1.523 3.297 1.523 5.86V45h-6.211V17.695c0-1.015-.234-1.812-.703-2.39-.453-.578-1.078-.867-1.875-.867-.64 0-1.187.18-1.64.539-.438.343-.766.828-.985 1.453-.218.61-.328 1.328-.328 2.156V45h-6.211Zm31.828 5.273c-1.937.032-3.586-.156-4.945-.562a10.289 10.289 0 0 1-3.703-1.945l2.18-3.914c.828.53 1.726.96 2.695 1.289.984.343 2.047.507 3.187.492 1.188-.016 2.094-.43 2.719-1.242.625-.813.938-1.899.938-3.258v-2.79c-.407 1.173-1.032 1.977-1.875 2.415-.828.437-1.836.656-3.024.656-1.656 0-2.961-.437-3.914-1.312-.937-.875-1.601-2.07-1.992-3.586s-.586-3.235-.586-5.157V20.04c0-2.047.203-3.867.609-5.46.407-1.61 1.102-2.876 2.086-3.798.985-.922 2.336-1.375 4.055-1.36 1.203 0 2.195.306 2.977.915.797.61 1.351 1.484 1.664 2.625V9.844h6.211v30.82c0 1.39-.157 2.672-.469 3.844-.313 1.156-.828 2.156-1.547 3-.719.86-1.672 1.523-2.859 1.992-1.188.484-2.657.742-4.407.773Zm.633-13.57c.563 0 1.024-.164 1.383-.492.359-.344.625-.922.797-1.734.172-.829.258-1.977.258-3.446V19.523c0-1.546-.188-2.78-.563-3.703-.375-.922-1.054-1.383-2.039-1.383-.75 0-1.305.22-1.664.657-.359.437-.594 1.039-.703 1.804-.109.75-.164 1.618-.164 2.602v11.578c0 1.735.164 3.11.492 4.125.328 1 1.063 1.5 2.203 1.5ZM383.12 45V3.75h10.383c2.156 0 3.766.422 4.828 1.266 1.063.843 1.758 2.078 2.086 3.703.344 1.625.516 3.61.516 5.953 0 2.422-.25 4.328-.75 5.719-.485 1.375-1.485 2.297-3 2.765.718.125 1.32.422 1.804.89.485.454.875 1.126 1.172 2.017.297.875.508 2.007.633 3.398.141 1.375.211 3.062.211 5.062v3.868l.047 2.906c.015.969.039 1.797.07 2.484.031.688.07 1.094.117 1.219h-6.281c-.047-.078-.086-.477-.117-1.195-.016-.735-.039-1.664-.07-2.79-.016-1.124-.032-2.335-.047-3.632V30.21c0-1.234-.094-2.164-.282-2.79-.171-.64-.5-1.085-.984-1.335-.469-.25-1.148-.398-2.039-.445l-2.016-.118V45h-6.281Zm6.305-24.352h2.508c.765 0 1.343-.171 1.734-.515.406-.344.68-.977.82-1.899.157-.922.235-2.25.235-3.984v-.258c0-1.453-.071-2.57-.211-3.351-.141-.782-.438-1.32-.891-1.618-.437-.296-1.125-.445-2.062-.445h-2.133v12.07Zm25.125 24.774c-1.766 0-3.219-.281-4.36-.844a6.337 6.337 0 0 1-2.648-2.437c-.625-1.063-1.063-2.336-1.313-3.82-.25-1.5-.375-3.173-.375-5.016V20.203c0-1.64.165-3.125.493-4.453.343-1.328.867-2.46 1.57-3.398.719-.938 1.648-1.657 2.789-2.157 1.141-.515 2.516-.773 4.125-.773 1.641 0 3.008.25 4.102.75 1.093.5 1.953 1.226 2.578 2.18.64.953 1.093 2.101 1.359 3.445.281 1.328.422 2.836.422 4.523v7.524h-11.18v6.914c0 1.703.133 3.07.399 4.101.265 1.032.992 1.547 2.179 1.547.797 0 1.36-.242 1.688-.726.344-.485.547-1.149.609-1.992.078-.86.117-1.836.117-2.93v-3.094h6.141v1.875c0 1.89-.117 3.57-.351 5.04-.219 1.468-.641 2.71-1.266 3.726-.609 1.015-1.484 1.789-2.625 2.32-1.141.531-2.625.797-4.453.797Zm-2.461-21.211h5.015v-4.5c0-1.172-.054-2.156-.164-2.953-.109-.813-.328-1.422-.656-1.828-.328-.407-.828-.61-1.5-.61-.828 0-1.437.242-1.828.727-.375.484-.617 1.148-.727 1.992-.093.828-.14 1.773-.14 2.836v4.336Zm23.719 21.234c-2.829 0-4.93-.804-6.305-2.414s-2.063-4.242-2.063-7.898v-2.274h5.836v2.836c0 1.532.188 2.696.563 3.492.375.797.984 1.196 1.828 1.196.812 0 1.414-.274 1.805-.82.39-.547.586-1.493.586-2.836 0-.782-.118-1.54-.352-2.274a7.644 7.644 0 0 0-1.055-2.156c-.468-.719-1.078-1.414-1.828-2.086l-3.164-2.86c-1.453-1.312-2.539-2.726-3.258-4.242-.718-1.53-1.078-3.218-1.078-5.062 0-2.985.696-5.164 2.086-6.54 1.406-1.39 3.485-2.085 6.235-2.085 1.781 0 3.257.336 4.429 1.008 1.172.656 2.047 1.726 2.625 3.21.578 1.485.867 3.477.867 5.977v1.922h-5.554v-2.32c0-1.547-.18-2.719-.539-3.516-.344-.797-.938-1.195-1.782-1.195-.828 0-1.437.234-1.828.703-.39.453-.601 1.258-.633 2.414a6.229 6.229 0 0 0 .235 1.852 7.02 7.02 0 0 0 .797 1.757 9.294 9.294 0 0 0 1.453 1.664l3.328 3.024c1.75 1.578 3.039 3.226 3.867 4.945.844 1.719 1.266 3.578 1.266 5.578 0 2.953-.672 5.196-2.016 6.727-1.344 1.516-3.461 2.273-6.351 2.273Zm21.234-.023c-1.688 0-3.102-.258-4.242-.774-1.141-.53-2.047-1.289-2.719-2.273-.656-1-1.133-2.21-1.43-3.633-.281-1.437-.422-3.07-.422-4.898V20.695c0-2.203.282-4.148.844-5.836.578-1.703 1.516-3.03 2.813-3.984 1.297-.969 3.015-1.453 5.156-1.453 1.625 0 2.992.273 4.102.82a6.654 6.654 0 0 1 2.695 2.344c.687 1 1.187 2.187 1.5 3.562.312 1.375.469 2.891.469 4.547v13.149c0 1.797-.141 3.406-.422 4.828-.266 1.422-.735 2.64-1.407 3.656-.656 1-1.546 1.766-2.671 2.297-1.125.531-2.547.797-4.266.797Zm0-5.016c.703 0 1.234-.21 1.594-.633.359-.437.601-1.039.726-1.804.125-.766.188-1.649.188-2.649V19.594c0-1.063-.071-1.977-.211-2.742-.141-.766-.391-1.36-.75-1.782-.36-.422-.875-.633-1.547-.633-.703 0-1.242.211-1.617.633-.36.422-.61 1.016-.75 1.782-.125.765-.188 1.68-.188 2.742V35.32c0 1 .063 1.883.188 2.649.14.765.39 1.367.75 1.804.375.422.914.633 1.617.633Zm20.461 5.039c-1.391 0-2.555-.312-3.492-.937-.922-.625-1.617-1.555-2.086-2.79-.453-1.25-.68-2.812-.68-4.687V9.844h6.234V36.07c0 1.344.165 2.39.493 3.14.328.75 1.015 1.126 2.062 1.126 1.094 0 1.836-.422 2.227-1.266.406-.86.609-1.843.609-2.953l.024-26.273h6.187V45h-6.211v-3.656c-.437 1.187-1.07 2.172-1.898 2.953-.828.766-1.985 1.148-3.469 1.148ZM495.151 45V9.844h6.258v3.914c.406-1.36 1.11-2.422 2.11-3.188 1.015-.765 2.304-1.148 3.867-1.148.031 0 .047.265.047.797.015.531.023 1.14.023 1.828v2.625c-.719 0-1.5.086-2.344.258a8.687 8.687 0 0 0-2.273.797c-.672.343-1.149.804-1.43 1.382V45h-6.258Zm24.844.422c-1.797 0-3.281-.274-4.453-.82-1.172-.563-2.094-1.368-2.766-2.414-.656-1.047-1.117-2.32-1.382-3.82-.266-1.5-.399-3.196-.399-5.087v-11.39c0-2.594.242-4.82.727-6.68.484-1.86 1.375-3.29 2.672-4.29 1.312-1 3.203-1.5 5.671-1.5 1.516 0 2.797.235 3.844.704 1.047.469 1.891 1.148 2.531 2.04.641.874 1.102 1.937 1.383 3.187.297 1.25.446 2.656.446 4.218v3.867h-6V19.36c0-1.015-.047-1.882-.141-2.601-.094-.735-.305-1.29-.633-1.664-.328-.39-.851-.586-1.57-.586-.703 0-1.25.195-1.641.586-.39.39-.664.96-.82 1.71-.141.735-.211 1.618-.211 2.65v15.843c0 1.062.062 1.969.187 2.719.141.75.391 1.328.75 1.734.375.39.922.586 1.641.586.703 0 1.227-.203 1.57-.61.36-.421.594-1.007.703-1.757.11-.75.165-1.633.165-2.649v-4.172h6v3.563c0 1.61-.141 3.078-.422 4.406-.282 1.313-.743 2.438-1.383 3.375a6.432 6.432 0 0 1-2.555 2.18c-1.062.5-2.367.75-3.914.75Zm21.68 0c-1.766 0-3.219-.281-4.36-.844a6.337 6.337 0 0 1-2.648-2.437c-.625-1.063-1.063-2.336-1.313-3.82-.25-1.5-.375-3.173-.375-5.016V20.203c0-1.64.165-3.125.493-4.453.343-1.328.867-2.46 1.57-3.398.719-.938 1.648-1.657 2.789-2.157 1.141-.515 2.516-.773 4.125-.773 1.641 0 3.008.25 4.102.75 1.093.5 1.953 1.226 2.578 2.18.64.953 1.093 2.101 1.359 3.445.281 1.328.422 2.836.422 4.523v7.524h-11.18v6.914c0 1.703.133 3.07.399 4.101.265 1.032.992 1.547 2.179 1.547.797 0 1.36-.242 1.688-.726.344-.485.547-1.149.609-1.992.078-.86.117-1.836.117-2.93v-3.094h6.141v1.875c0 1.89-.117 3.57-.351 5.04-.219 1.468-.641 2.71-1.266 3.726-.609 1.015-1.484 1.789-2.625 2.32-1.141.531-2.625.797-4.453.797Zm-2.461-21.211h5.015v-4.5c0-1.172-.054-2.156-.164-2.953-.109-.813-.328-1.422-.656-1.828-.328-.407-.828-.61-1.5-.61-.828 0-1.437.242-1.828.727-.375.484-.617 1.148-.727 1.992-.093.828-.14 1.773-.14 2.836v4.336Zm23.719 21.234c-2.829 0-4.93-.804-6.305-2.414s-2.063-4.242-2.063-7.898v-2.274h5.836v2.836c0 1.532.188 2.696.563 3.492.375.797.984 1.196 1.828 1.196.812 0 1.414-.274 1.805-.82.39-.547.586-1.493.586-2.836 0-.782-.118-1.54-.352-2.274a7.644 7.644 0 0 0-1.055-2.156c-.468-.719-1.078-1.414-1.828-2.086l-3.164-2.86c-1.453-1.312-2.539-2.726-3.258-4.242-.718-1.53-1.078-3.218-1.078-5.062 0-2.985.696-5.164 2.086-6.54 1.406-1.39 3.485-2.085 6.235-2.085 1.781 0 3.257.336 4.429 1.008 1.172.656 2.047 1.726 2.625 3.21.578 1.485.867 3.477.867 5.977v1.922h-5.554v-2.32c0-1.547-.18-2.719-.539-3.516-.344-.797-.938-1.195-1.782-1.195-.828 0-1.437.234-1.828.703-.39.453-.601 1.258-.633 2.414a6.229 6.229 0 0 0 .235 1.852 7.02 7.02 0 0 0 .797 1.757 9.294 9.294 0 0 0 1.453 1.664l3.328 3.024c1.75 1.578 3.039 3.226 3.867 4.945.844 1.719 1.266 3.578 1.266 5.578 0 2.953-.672 5.196-2.016 6.727-1.344 1.516-3.461 2.273-6.351 2.273Z" mask="url(#b)"/><defs><filter id="a" width="576.164" height="57.703" x="-.864" y="-.781" color-interpolation-filters="sRGB" filterUnits="userSpaceOnUse"><feFlood flood-opacity="0" result="BackgroundImageFix"/><feBlend in="SourceGraphic" in2="BackgroundImageFix" result="shape"/><feColorMatrix in="SourceAlpha" result="hardAlpha" values="0 0 0 0 0 0 0 0 0 0 0 0 0 0 0 0 0 0 127 0"/><feOffset dx="-1" dy="-1"/><feGaussianBlur stdDeviation="1.5"/><feComposite in2="hardAlpha" k2="-1" k3="1" operator="arithmetic"/><feColorMatrix values="0 0 0 0 0.984314 0 0 0 0 0.984314 0 0 0 0 0.984314 0 0 0 1 0"/><feBlend in2="shape" result="effect1_innerShadow_127_2793"/><feColorMatrix in="SourceAlpha" result="hardAlpha" values="0 0 0 0 0 0 0 0 0 0 0 0 0 0 0 0 0 0 127 0"/><feOffset dx="3" dy="3"/><feGaussianBlur stdDeviation="4.5"/><feComposite in2="hardAlpha" k2="-1" k3="1" operator="arithmetic"/><feColorMatrix values="0 0 0 0 0.772549 0 0 0 0 0.772549 0 0 0 0 0.772549 0 0 0 1 0"/><feBlend in2="effect1_innerShadow_127_2793" result="effect2_innerShadow_127_2793"/></filter></defs></svg>