<svg xmlns="http://www.w3.org/2000/svg" width="264" height="45" fill="none"><mask id="b" width="264" height="45" x=".401" y=".258" fill="#000" maskUnits="userSpaceOnUse"><path fill="#fff" d="M.401.258h264v45h-264z"/><path d="M10.378 43.469c-2 0-3.664-.461-4.992-1.383-1.328-.922-2.328-2.266-3-4.031-.657-1.782-.985-3.93-.985-6.446V13.633c0-1.89.157-3.594.47-5.11.312-1.515.82-2.812 1.523-3.89a6.98 6.98 0 0 1 2.812-2.485c1.172-.578 2.617-.867 4.336-.867 1.563 0 2.89.258 3.984.774a6.6 6.6 0 0 1 2.696 2.18c.703.952 1.21 2.109 1.523 3.468.328 1.344.492 2.86.492 4.547v5.672h-6.07v-5.274c0-2.03-.172-3.523-.516-4.476-.343-.969-1.03-1.453-2.062-1.453-1.14 0-1.906.523-2.297 1.57-.375 1.031-.563 2.477-.563 4.336v19.266c0 1.437.079 2.617.235 3.539.172.906.453 1.578.844 2.015.39.422.937.633 1.64.633 1.063 0 1.781-.5 2.156-1.5.376-1 .563-2.586.563-4.758v-5.906h6.164v5.836c0 2.61-.305 4.79-.914 6.54-.61 1.733-1.578 3.03-2.906 3.89-1.313.86-3.024 1.289-5.133 1.289Zm21.797 0c-1.719 0-3.156-.266-4.313-.797a6.561 6.561 0 0 1-2.718-2.367c-.657-1.047-1.125-2.313-1.407-3.797-.28-1.5-.422-3.203-.422-5.11v-3.68h5.954v4.15c0 2.218.187 3.812.562 4.78.375.97 1.117 1.454 2.227 1.454.75 0 1.312-.172 1.687-.516.39-.36.649-.922.774-1.688.14-.78.21-1.796.21-3.046 0-1.547-.328-2.961-.984-4.243-.64-1.28-1.617-2.609-2.93-3.984l-3.046-3.14a22.915 22.915 0 0 1-2.297-2.79 13.374 13.374 0 0 1-1.617-3.28c-.391-1.22-.586-2.58-.586-4.08 0-2.17.265-4.007.796-5.507.532-1.5 1.43-2.633 2.696-3.398 1.265-.782 3-1.172 5.203-1.172 1.656 0 3.016.258 4.078.773 1.078.5 1.914 1.242 2.508 2.227.61.969 1.039 2.156 1.289 3.562.25 1.39.375 2.985.375 4.782v2.554h-5.79v-2.953c0-1.25-.07-2.289-.21-3.117-.125-.828-.367-1.445-.727-1.852-.36-.421-.883-.632-1.57-.632-.656 0-1.188.148-1.594.445-.406.281-.703.726-.89 1.336-.172.594-.258 1.367-.258 2.32 0 .86.11 1.602.328 2.227a6.302 6.302 0 0 0 1.008 1.804 30.165 30.165 0 0 0 1.687 1.946l3.399 3.68c1.625 1.75 2.89 3.57 3.797 5.46.906 1.89 1.359 4 1.359 6.328 0 2.47-.266 4.547-.797 6.235-.531 1.672-1.422 2.937-2.672 3.797-1.25.86-2.953 1.289-5.11 1.289Zm20.531 0c-1.719 0-3.156-.266-4.312-.797a6.562 6.562 0 0 1-2.72-2.367c-.655-1.047-1.124-2.313-1.405-3.797-.282-1.5-.422-3.203-.422-5.11v-3.68H49.8v4.15c0 2.218.187 3.812.562 4.78.375.97 1.117 1.454 2.227 1.454.75 0 1.312-.172 1.687-.516.391-.36.649-.922.774-1.688.14-.78.21-1.796.21-3.046 0-1.547-.327-2.961-.984-4.243-.64-1.28-1.617-2.609-2.93-3.984l-3.046-3.14a22.924 22.924 0 0 1-2.297-2.79 13.381 13.381 0 0 1-1.617-3.28c-.39-1.22-.586-2.58-.586-4.08 0-2.17.265-4.007.797-5.507.53-1.5 1.43-2.633 2.695-3.398 1.266-.782 3-1.172 5.203-1.172 1.656 0 3.016.258 4.078.773 1.078.5 1.914 1.242 2.508 2.227.61.969 1.04 2.156 1.29 3.562.25 1.39.374 2.985.374 4.782v2.554h-5.789v-2.953c0-1.25-.07-2.289-.21-3.117-.126-.828-.368-1.445-.727-1.852-.36-.421-.883-.632-1.57-.632-.657 0-1.188.148-1.594.445-.407.281-.704.726-.891 1.336-.172.594-.258 1.367-.258 2.32 0 .86.11 1.602.328 2.227a6.3 6.3 0 0 0 1.008 1.804 30.103 30.103 0 0 0 1.688 1.946l3.398 3.68c1.625 1.75 2.89 3.57 3.797 5.46.906 1.89 1.36 4 1.36 6.328 0 2.47-.266 4.547-.798 6.235-.53 1.672-1.422 2.937-2.672 3.797-1.25.86-2.953 1.289-5.109 1.289ZM74.339 43V1.75h10.383c2.156 0 3.765.422 4.828 1.266 1.062.843 1.758 2.078 2.086 3.703.344 1.625.515 3.61.515 5.953 0 2.422-.25 4.328-.75 5.719-.484 1.375-1.484 2.297-3 2.765.72.125 1.32.422 1.805.89.484.454.875 1.126 1.172 2.017.297.875.508 2.007.633 3.398.14 1.375.21 3.062.21 5.062v3.868l.048 2.906c.015.969.039 1.797.07 2.484.031.688.07 1.094.117 1.219h-6.281c-.047-.078-.086-.477-.117-1.195a613 613 0 0 0-.07-2.79 1921.27 1921.27 0 0 1-.048-3.632V28.21c0-1.234-.093-2.164-.28-2.79-.173-.64-.5-1.085-.985-1.335-.469-.25-1.149-.398-2.04-.445l-2.015-.118V43h-6.28Zm6.305-24.352h2.507c.766 0 1.344-.171 1.735-.515.406-.344.68-.977.82-1.899.156-.922.234-2.25.234-3.984v-.258c0-1.453-.07-2.57-.21-3.351-.141-.782-.438-1.32-.891-1.618-.438-.296-1.125-.445-2.063-.445h-2.132v12.07Zm25.125 24.774c-1.766 0-3.219-.281-4.36-.844a6.336 6.336 0 0 1-2.648-2.437c-.625-1.063-1.063-2.336-1.313-3.82-.25-1.5-.375-3.173-.375-5.016V18.203c0-1.64.164-3.125.492-4.453.344-1.328.868-2.46 1.57-3.398.72-.938 1.649-1.657 2.79-2.157 1.14-.515 2.515-.773 4.125-.773 1.64 0 3.008.25 4.101.75 1.094.5 1.953 1.226 2.578 2.18.641.953 1.094 2.101 1.36 3.445.281 1.328.422 2.836.422 4.523v7.524h-11.18v6.914c0 1.703.133 3.07.398 4.101.266 1.032.993 1.547 2.18 1.547.797 0 1.36-.242 1.688-.726.343-.485.547-1.149.609-1.992.078-.86.117-1.836.117-2.93v-3.094h6.141v1.875c0 1.89-.117 3.57-.352 5.04-.218 1.468-.64 2.71-1.265 3.726-.61 1.015-1.485 1.789-2.625 2.32-1.141.531-2.625.797-4.453.797Zm-2.461-21.211h5.015v-4.5c0-1.172-.054-2.156-.164-2.953-.109-.813-.328-1.422-.656-1.828-.328-.407-.828-.61-1.5-.61-.828 0-1.438.242-1.828.727-.375.484-.617 1.148-.727 1.992a25.42 25.42 0 0 0-.14 2.836v4.336Zm23.718 21.234c-2.828 0-4.929-.804-6.304-2.414s-2.063-4.242-2.063-7.898v-2.274h5.836v2.836c0 1.532.188 2.696.563 3.492.375.797.984 1.196 1.828 1.196.812 0 1.414-.274 1.804-.82.391-.547.586-1.493.586-2.836 0-.782-.117-1.54-.351-2.274a7.671 7.671 0 0 0-1.055-2.156c-.469-.719-1.078-1.414-1.828-2.086l-3.164-2.86c-1.453-1.312-2.539-2.726-3.258-4.242-.719-1.53-1.078-3.218-1.078-5.062 0-2.985.695-5.164 2.086-6.54 1.406-1.39 3.484-2.085 6.234-2.085 1.782 0 3.258.336 4.43 1.008 1.172.656 2.047 1.726 2.625 3.21.578 1.485.867 3.477.867 5.977v1.922h-5.555v-2.32c0-1.547-.179-2.719-.539-3.516-.343-.797-.937-1.195-1.781-1.195-.828 0-1.437.234-1.828.703-.391.453-.602 1.258-.633 2.414a6.229 6.229 0 0 0 .235 1.852c.171.593.437 1.18.796 1.757.375.563.86 1.118 1.454 1.664l3.328 3.024c1.75 1.578 3.039 3.226 3.867 4.945.844 1.719 1.266 3.578 1.266 5.578 0 2.953-.672 5.196-2.016 6.727-1.344 1.516-3.461 2.273-6.352 2.273Zm21.235-.023c-1.688 0-3.102-.258-4.242-.774-1.141-.53-2.047-1.289-2.719-2.273-.656-1-1.133-2.21-1.43-3.633-.281-1.437-.422-3.07-.422-4.898V18.695c0-2.203.281-4.148.844-5.836.578-1.703 1.516-3.03 2.812-3.984 1.297-.969 3.016-1.453 5.157-1.453 1.625 0 2.992.273 4.101.82a6.657 6.657 0 0 1 2.696 2.344c.687 1 1.187 2.187 1.5 3.562.312 1.375.468 2.891.468 4.547v13.149c0 1.797-.14 3.406-.422 4.828-.265 1.422-.734 2.64-1.406 3.656-.656 1-1.547 1.766-2.672 2.297-1.125.531-2.547.797-4.265.797Zm0-5.016c.703 0 1.234-.21 1.593-.633.36-.437.602-1.039.727-1.804.125-.766.188-1.649.188-2.649V17.594c0-1.063-.071-1.977-.211-2.742-.141-.766-.391-1.36-.75-1.782-.36-.422-.875-.633-1.547-.633-.703 0-1.242.211-1.617.633-.36.422-.61 1.016-.75 1.782-.125.765-.188 1.68-.188 2.742V33.32c0 1 .063 1.883.188 2.649.14.765.39 1.367.75 1.804.375.422.914.633 1.617.633Zm20.461 5.039c-1.391 0-2.555-.312-3.493-.937-.921-.625-1.617-1.555-2.085-2.79-.454-1.25-.68-2.812-.68-4.687V7.844h6.234V34.07c0 1.344.164 2.39.492 3.14.329.75 1.016 1.126 2.063 1.126 1.094 0 1.836-.422 2.226-1.266.407-.86.61-1.843.61-2.953l.023-26.273h6.188V43h-6.211v-3.656c-.438 1.187-1.07 2.172-1.899 2.953-.828.766-1.984 1.148-3.468 1.148ZM186.37 43V7.844h6.258v3.914c.406-1.36 1.109-2.422 2.109-3.188 1.016-.765 2.305-1.148 3.867-1.148.032 0 .047.266.047.797.016.531.024 1.14.024 1.828v2.625c-.719 0-1.5.086-2.344.258a8.687 8.687 0 0 0-2.273.797c-.672.343-1.149.804-1.43 1.382V43h-6.258Zm24.844.422c-1.797 0-3.281-.274-4.453-.82-1.172-.563-2.094-1.368-2.766-2.414-.656-1.047-1.117-2.32-1.383-3.82-.265-1.5-.398-3.196-.398-5.087v-11.39c0-2.594.242-4.82.726-6.68.485-1.86 1.375-3.29 2.672-4.29 1.313-1 3.203-1.5 5.672-1.5 1.516 0 2.797.235 3.844.704 1.047.469 1.891 1.148 2.531 2.04.641.874 1.102 1.937 1.383 3.187.297 1.25.445 2.656.445 4.218v3.867h-6V17.36c0-1.015-.047-1.882-.14-2.601-.094-.735-.305-1.29-.633-1.664-.328-.39-.852-.586-1.57-.586-.704 0-1.25.195-1.641.586-.391.39-.664.96-.82 1.71-.141.735-.211 1.618-.211 2.65v15.843c0 1.062.062 1.969.187 2.719.141.75.391 1.328.75 1.734.375.39.922.586 1.641.586.703 0 1.226-.203 1.57-.61.359-.421.594-1.007.703-1.757.11-.75.164-1.633.164-2.649v-4.172h6v3.563c0 1.61-.14 3.078-.422 4.406-.281 1.313-.742 2.438-1.382 3.375a6.439 6.439 0 0 1-2.555 2.18c-1.063.5-2.367.75-3.914.75Zm21.68 0c-1.766 0-3.219-.281-4.36-.844a6.331 6.331 0 0 1-2.648-2.437c-.625-1.063-1.063-2.336-1.313-3.82-.25-1.5-.375-3.173-.375-5.016V18.203c0-1.64.164-3.125.492-4.453.344-1.328.868-2.46 1.571-3.398.718-.938 1.648-1.657 2.789-2.157 1.14-.515 2.515-.773 4.125-.773 1.64 0 3.008.25 4.101.75 1.094.5 1.953 1.226 2.578 2.18.641.953 1.094 2.101 1.36 3.445.281 1.328.422 2.836.422 4.523v7.524h-11.18v6.914c0 1.703.133 3.07.398 4.101.266 1.032.993 1.547 2.18 1.547.797 0 1.36-.242 1.688-.726.343-.485.547-1.149.609-1.992.078-.86.117-1.836.117-2.93v-3.094h6.141v1.875c0 1.89-.117 3.57-.352 5.04-.218 1.468-.64 2.71-1.265 3.726-.61 1.015-1.485 1.789-2.625 2.32-1.141.531-2.625.797-4.453.797Zm-2.461-21.211h5.015v-4.5c0-1.172-.054-2.156-.164-2.953-.109-.813-.328-1.422-.656-1.828-.328-.407-.828-.61-1.5-.61-.828 0-1.438.242-1.828.727-.375.484-.617 1.148-.727 1.992a25.42 25.42 0 0 0-.14 2.836v4.336Zm23.718 21.234c-2.828 0-4.929-.804-6.304-2.414s-2.063-4.242-2.063-7.898v-2.274h5.836v2.836c0 1.532.188 2.696.563 3.492.375.797.984 1.196 1.828 1.196.812 0 1.414-.274 1.804-.82.391-.547.586-1.493.586-2.836 0-.782-.117-1.54-.351-2.274a7.671 7.671 0 0 0-1.055-2.156c-.469-.719-1.078-1.414-1.828-2.086l-3.164-2.86c-1.453-1.312-2.539-2.726-3.258-4.242-.719-1.53-1.078-3.218-1.078-5.062 0-2.985.695-5.164 2.086-6.54 1.406-1.39 3.484-2.085 6.234-2.085 1.782 0 3.258.336 4.43 1.008 1.172.656 2.047 1.726 2.625 3.21.578 1.485.867 3.477.867 5.977v1.922h-5.555v-2.32c0-1.547-.179-2.719-.539-3.516-.343-.797-.937-1.195-1.781-1.195-.828 0-1.437.234-1.828.703-.391.453-.602 1.258-.633 2.414a6.229 6.229 0 0 0 .235 1.852c.171.593.437 1.18.796 1.757.375.563.86 1.118 1.454 1.664l3.328 3.024c1.75 1.578 3.039 3.226 3.867 4.945.844 1.719 1.266 3.578 1.266 5.578 0 2.953-.672 5.196-2.016 6.727-1.344 1.516-3.461 2.273-6.352 2.273Z"/></mask><g fill="#E0E0E0" filter="url(#a)"><path d="M10.378 43.469c-2 0-3.664-.461-4.992-1.383-1.328-.922-2.328-2.266-3-4.031-.657-1.782-.985-3.93-.985-6.446V13.633c0-1.89.157-3.594.47-5.11.312-1.515.82-2.812 1.523-3.89a6.98 6.98 0 0 1 2.812-2.485c1.172-.578 2.617-.867 4.336-.867 1.563 0 2.89.258 3.984.774a6.6 6.6 0 0 1 2.696 2.18c.703.952 1.21 2.109 1.523 3.468.328 1.344.492 2.86.492 4.547v5.672h-6.07v-5.274c0-2.03-.172-3.523-.516-4.476-.343-.969-1.03-1.453-2.062-1.453-1.14 0-1.906.523-2.297 1.57-.375 1.031-.563 2.477-.563 4.336v19.266c0 1.437.079 2.617.235 3.539.172.906.453 1.578.844 2.015.39.422.937.633 1.64.633 1.063 0 1.781-.5 2.156-1.5.376-1 .563-2.586.563-4.758v-5.906h6.164v5.836c0 2.61-.305 4.79-.914 6.54-.61 1.733-1.578 3.03-2.906 3.89-1.313.86-3.024 1.289-5.133 1.289Zm21.797 0c-1.719 0-3.156-.266-4.313-.797a6.561 6.561 0 0 1-2.718-2.367c-.657-1.047-1.125-2.313-1.407-3.797-.28-1.5-.422-3.203-.422-5.11v-3.68h5.954v4.15c0 2.218.187 3.812.562 4.78.375.97 1.117 1.454 2.227 1.454.75 0 1.312-.172 1.687-.516.39-.36.649-.922.774-1.688.14-.78.21-1.796.21-3.046 0-1.547-.328-2.961-.984-4.243-.64-1.28-1.617-2.609-2.93-3.984l-3.046-3.14a22.915 22.915 0 0 1-2.297-2.79 13.374 13.374 0 0 1-1.617-3.28c-.391-1.22-.586-2.58-.586-4.08 0-2.17.265-4.007.796-5.507.532-1.5 1.43-2.633 2.696-3.398 1.265-.782 3-1.172 5.203-1.172 1.656 0 3.016.258 4.078.773 1.078.5 1.914 1.242 2.508 2.227.61.969 1.039 2.156 1.289 3.562.25 1.39.375 2.985.375 4.782v2.554h-5.79v-2.953c0-1.25-.07-2.289-.21-3.117-.125-.828-.367-1.445-.727-1.852-.36-.421-.883-.632-1.57-.632-.656 0-1.188.148-1.594.445-.406.281-.703.726-.89 1.336-.172.594-.258 1.367-.258 2.32 0 .86.11 1.602.328 2.227a6.302 6.302 0 0 0 1.008 1.804 30.165 30.165 0 0 0 1.687 1.946l3.399 3.68c1.625 1.75 2.89 3.57 3.797 5.46.906 1.89 1.359 4 1.359 6.328 0 2.47-.266 4.547-.797 6.235-.531 1.672-1.422 2.937-2.672 3.797-1.25.86-2.953 1.289-5.11 1.289Zm20.531 0c-1.719 0-3.156-.266-4.312-.797a6.562 6.562 0 0 1-2.72-2.367c-.655-1.047-1.124-2.313-1.405-3.797-.282-1.5-.422-3.203-.422-5.11v-3.68H49.8v4.15c0 2.218.187 3.812.562 4.78.375.97 1.117 1.454 2.227 1.454.75 0 1.312-.172 1.687-.516.391-.36.649-.922.774-1.688.14-.78.21-1.796.21-3.046 0-1.547-.327-2.961-.984-4.243-.64-1.28-1.617-2.609-2.93-3.984l-3.046-3.14a22.924 22.924 0 0 1-2.297-2.79 13.381 13.381 0 0 1-1.617-3.28c-.39-1.22-.586-2.58-.586-4.08 0-2.17.265-4.007.797-5.507.53-1.5 1.43-2.633 2.695-3.398 1.266-.782 3-1.172 5.203-1.172 1.656 0 3.016.258 4.078.773 1.078.5 1.914 1.242 2.508 2.227.61.969 1.04 2.156 1.29 3.562.25 1.39.374 2.985.374 4.782v2.554h-5.789v-2.953c0-1.25-.07-2.289-.21-3.117-.126-.828-.368-1.445-.727-1.852-.36-.421-.883-.632-1.57-.632-.657 0-1.188.148-1.594.445-.407.281-.704.726-.891 1.336-.172.594-.258 1.367-.258 2.32 0 .86.11 1.602.328 2.227a6.3 6.3 0 0 0 1.008 1.804 30.103 30.103 0 0 0 1.688 1.946l3.398 3.68c1.625 1.75 2.89 3.57 3.797 5.46.906 1.89 1.36 4 1.36 6.328 0 2.47-.266 4.547-.798 6.235-.53 1.672-1.422 2.937-2.672 3.797-1.25.86-2.953 1.289-5.109 1.289ZM74.339 43V1.75h10.383c2.156 0 3.765.422 4.828 1.266 1.062.843 1.758 2.078 2.086 3.703.344 1.625.515 3.61.515 5.953 0 2.422-.25 4.328-.75 5.719-.484 1.375-1.484 2.297-3 2.765.72.125 1.32.422 1.805.89.484.454.875 1.126 1.172 2.017.297.875.508 2.007.633 3.398.14 1.375.21 3.062.21 5.062v3.868l.048 2.906c.015.969.039 1.797.07 2.484.031.688.07 1.094.117 1.219h-6.281c-.047-.078-.086-.477-.117-1.195a613 613 0 0 0-.07-2.79 1921.27 1921.27 0 0 1-.048-3.632V28.21c0-1.234-.093-2.164-.28-2.79-.173-.64-.5-1.085-.985-1.335-.469-.25-1.149-.398-2.04-.445l-2.015-.118V43h-6.28Zm6.305-24.352h2.507c.766 0 1.344-.171 1.735-.515.406-.344.68-.977.82-1.899.156-.922.234-2.25.234-3.984v-.258c0-1.453-.07-2.57-.21-3.351-.141-.782-.438-1.32-.891-1.618-.438-.296-1.125-.445-2.063-.445h-2.132v12.07Zm25.125 24.774c-1.766 0-3.219-.281-4.36-.844a6.336 6.336 0 0 1-2.648-2.437c-.625-1.063-1.063-2.336-1.313-3.82-.25-1.5-.375-3.173-.375-5.016V18.203c0-1.64.164-3.125.492-4.453.344-1.328.868-2.46 1.57-3.398.72-.938 1.649-1.657 2.79-2.157 1.14-.515 2.515-.773 4.125-.773 1.64 0 3.008.25 4.101.75 1.094.5 1.953 1.226 2.578 2.18.641.953 1.094 2.101 1.36 3.445.281 1.328.422 2.836.422 4.523v7.524h-11.18v6.914c0 1.703.133 3.07.398 4.101.266 1.032.993 1.547 2.18 1.547.797 0 1.36-.242 1.688-.726.343-.485.547-1.149.609-1.992.078-.86.117-1.836.117-2.93v-3.094h6.141v1.875c0 1.89-.117 3.57-.352 5.04-.218 1.468-.64 2.71-1.265 3.726-.61 1.015-1.485 1.789-2.625 2.32-1.141.531-2.625.797-4.453.797Zm-2.461-21.211h5.015v-4.5c0-1.172-.054-2.156-.164-2.953-.109-.813-.328-1.422-.656-1.828-.328-.407-.828-.61-1.5-.61-.828 0-1.438.242-1.828.727-.375.484-.617 1.148-.727 1.992a25.42 25.42 0 0 0-.14 2.836v4.336Zm23.718 21.234c-2.828 0-4.929-.804-6.304-2.414s-2.063-4.242-2.063-7.898v-2.274h5.836v2.836c0 1.532.188 2.696.563 3.492.375.797.984 1.196 1.828 1.196.812 0 1.414-.274 1.804-.82.391-.547.586-1.493.586-2.836 0-.782-.117-1.54-.351-2.274a7.671 7.671 0 0 0-1.055-2.156c-.469-.719-1.078-1.414-1.828-2.086l-3.164-2.86c-1.453-1.312-2.539-2.726-3.258-4.242-.719-1.53-1.078-3.218-1.078-5.062 0-2.985.695-5.164 2.086-6.54 1.406-1.39 3.484-2.085 6.234-2.085 1.782 0 3.258.336 4.43 1.008 1.172.656 2.047 1.726 2.625 3.21.578 1.485.867 3.477.867 5.977v1.922h-5.555v-2.32c0-1.547-.179-2.719-.539-3.516-.343-.797-.937-1.195-1.781-1.195-.828 0-1.437.234-1.828.703-.391.453-.602 1.258-.633 2.414a6.229 6.229 0 0 0 .235 1.852c.171.593.437 1.18.796 1.757.375.563.86 1.118 1.454 1.664l3.328 3.024c1.75 1.578 3.039 3.226 3.867 4.945.844 1.719 1.266 3.578 1.266 5.578 0 2.953-.672 5.196-2.016 6.727-1.344 1.516-3.461 2.273-6.352 2.273Zm21.235-.023c-1.688 0-3.102-.258-4.242-.774-1.141-.53-2.047-1.289-2.719-2.273-.656-1-1.133-2.21-1.43-3.633-.281-1.437-.422-3.07-.422-4.898V18.695c0-2.203.281-4.148.844-5.836.578-1.703 1.516-3.03 2.812-3.984 1.297-.969 3.016-1.453 5.157-1.453 1.625 0 2.992.273 4.101.82a6.657 6.657 0 0 1 2.696 2.344c.687 1 1.187 2.187 1.5 3.562.312 1.375.468 2.891.468 4.547v13.149c0 1.797-.14 3.406-.422 4.828-.265 1.422-.734 2.64-1.406 3.656-.656 1-1.547 1.766-2.672 2.297-1.125.531-2.547.797-4.265.797Zm0-5.016c.703 0 1.234-.21 1.593-.633.36-.437.602-1.039.727-1.804.125-.766.188-1.649.188-2.649V17.594c0-1.063-.071-1.977-.211-2.742-.141-.766-.391-1.36-.75-1.782-.36-.422-.875-.633-1.547-.633-.703 0-1.242.211-1.617.633-.36.422-.61 1.016-.75 1.782-.125.765-.188 1.68-.188 2.742V33.32c0 1 .063 1.883.188 2.649.14.765.39 1.367.75 1.804.375.422.914.633 1.617.633Zm20.461 5.039c-1.391 0-2.555-.312-3.493-.937-.921-.625-1.617-1.555-2.085-2.79-.454-1.25-.68-2.812-.68-4.687V7.844h6.234V34.07c0 1.344.164 2.39.492 3.14.329.75 1.016 1.126 2.063 1.126 1.094 0 1.836-.422 2.226-1.266.407-.86.61-1.843.61-2.953l.023-26.273h6.188V43h-6.211v-3.656c-.438 1.187-1.07 2.172-1.899 2.953-.828.766-1.984 1.148-3.468 1.148ZM186.37 43V7.844h6.258v3.914c.406-1.36 1.109-2.422 2.109-3.188 1.016-.765 2.305-1.148 3.867-1.148.032 0 .047.266.047.797.016.531.024 1.14.024 1.828v2.625c-.719 0-1.5.086-2.344.258a8.687 8.687 0 0 0-2.273.797c-.672.343-1.149.804-1.43 1.382V43h-6.258Zm24.844.422c-1.797 0-3.281-.274-4.453-.82-1.172-.563-2.094-1.368-2.766-2.414-.656-1.047-1.117-2.32-1.383-3.82-.265-1.5-.398-3.196-.398-5.087v-11.39c0-2.594.242-4.82.726-6.68.485-1.86 1.375-3.29 2.672-4.29 1.313-1 3.203-1.5 5.672-1.5 1.516 0 2.797.235 3.844.704 1.047.469 1.891 1.148 2.531 2.04.641.874 1.102 1.937 1.383 3.187.297 1.25.445 2.656.445 4.218v3.867h-6V17.36c0-1.015-.047-1.882-.14-2.601-.094-.735-.305-1.29-.633-1.664-.328-.39-.852-.586-1.57-.586-.704 0-1.25.195-1.641.586-.391.39-.664.96-.82 1.71-.141.735-.211 1.618-.211 2.65v15.843c0 1.062.062 1.969.187 2.719.141.75.391 1.328.75 1.734.375.39.922.586 1.641.586.703 0 1.226-.203 1.57-.61.359-.421.594-1.007.703-1.757.11-.75.164-1.633.164-2.649v-4.172h6v3.563c0 1.61-.14 3.078-.422 4.406-.281 1.313-.742 2.438-1.382 3.375a6.439 6.439 0 0 1-2.555 2.18c-1.063.5-2.367.75-3.914.75Zm21.68 0c-1.766 0-3.219-.281-4.36-.844a6.331 6.331 0 0 1-2.648-2.437c-.625-1.063-1.063-2.336-1.313-3.82-.25-1.5-.375-3.173-.375-5.016V18.203c0-1.64.164-3.125.492-4.453.344-1.328.868-2.46 1.571-3.398.718-.938 1.648-1.657 2.789-2.157 1.14-.515 2.515-.773 4.125-.773 1.64 0 3.008.25 4.101.75 1.094.5 1.953 1.226 2.578 2.18.641.953 1.094 2.101 1.36 3.445.281 1.328.422 2.836.422 4.523v7.524h-11.18v6.914c0 1.703.133 3.07.398 4.101.266 1.032.993 1.547 2.18 1.547.797 0 1.36-.242 1.688-.726.343-.485.547-1.149.609-1.992.078-.86.117-1.836.117-2.93v-3.094h6.141v1.875c0 1.89-.117 3.57-.352 5.04-.218 1.468-.64 2.71-1.265 3.726-.61 1.015-1.485 1.789-2.625 2.32-1.141.531-2.625.797-4.453.797Zm-2.461-21.211h5.015v-4.5c0-1.172-.054-2.156-.164-2.953-.109-.813-.328-1.422-.656-1.828-.328-.407-.828-.61-1.5-.61-.828 0-1.438.242-1.828.727-.375.484-.617 1.148-.727 1.992a25.42 25.42 0 0 0-.14 2.836v4.336Zm23.718 21.234c-2.828 0-4.929-.804-6.304-2.414s-2.063-4.242-2.063-7.898v-2.274h5.836v2.836c0 1.532.188 2.696.563 3.492.375.797.984 1.196 1.828 1.196.812 0 1.414-.274 1.804-.82.391-.547.586-1.493.586-2.836 0-.782-.117-1.54-.351-2.274a7.671 7.671 0 0 0-1.055-2.156c-.469-.719-1.078-1.414-1.828-2.086l-3.164-2.86c-1.453-1.312-2.539-2.726-3.258-4.242-.719-1.53-1.078-3.218-1.078-5.062 0-2.985.695-5.164 2.086-6.54 1.406-1.39 3.484-2.085 6.234-2.085 1.782 0 3.258.336 4.43 1.008 1.172.656 2.047 1.726 2.625 3.21.578 1.485.867 3.477.867 5.977v1.922h-5.555v-2.32c0-1.547-.179-2.719-.539-3.516-.343-.797-.937-1.195-1.781-1.195-.828 0-1.437.234-1.828.703-.391.453-.602 1.258-.633 2.414a6.229 6.229 0 0 0 .235 1.852c.171.593.437 1.18.796 1.757.375.563.86 1.118 1.454 1.664l3.328 3.024c1.75 1.578 3.039 3.226 3.867 4.945.844 1.719 1.266 3.578 1.266 5.578 0 2.953-.672 5.196-2.016 6.727-1.344 1.516-3.461 2.273-6.352 2.273Z"/></g><path stroke="#EAEAEA" stroke-width="2" d="M10.378 43.469c-2 0-3.664-.461-4.992-1.383-1.328-.922-2.328-2.266-3-4.031-.657-1.782-.985-3.93-.985-6.446V13.633c0-1.89.157-3.594.47-5.11.312-1.515.82-2.812 1.523-3.89a6.98 6.98 0 0 1 2.812-2.485c1.172-.578 2.617-.867 4.336-.867 1.563 0 2.89.258 3.984.774a6.6 6.6 0 0 1 2.696 2.18c.703.952 1.21 2.109 1.523 3.468.328 1.344.492 2.86.492 4.547v5.672h-6.07v-5.274c0-2.03-.172-3.523-.516-4.476-.343-.969-1.03-1.453-2.062-1.453-1.14 0-1.906.523-2.297 1.57-.375 1.031-.563 2.477-.563 4.336v19.266c0 1.437.079 2.617.235 3.539.172.906.453 1.578.844 2.015.39.422.937.633 1.64.633 1.063 0 1.781-.5 2.156-1.5.376-1 .563-2.586.563-4.758v-5.906h6.164v5.836c0 2.61-.305 4.79-.914 6.54-.61 1.733-1.578 3.03-2.906 3.89-1.313.86-3.024 1.289-5.133 1.289Zm21.797 0c-1.719 0-3.156-.266-4.313-.797a6.561 6.561 0 0 1-2.718-2.367c-.657-1.047-1.125-2.313-1.407-3.797-.28-1.5-.422-3.203-.422-5.11v-3.68h5.954v4.15c0 2.218.187 3.812.562 4.78.375.97 1.117 1.454 2.227 1.454.75 0 1.312-.172 1.687-.516.39-.36.649-.922.774-1.688.14-.78.21-1.796.21-3.046 0-1.547-.328-2.961-.984-4.243-.64-1.28-1.617-2.609-2.93-3.984l-3.046-3.14a22.915 22.915 0 0 1-2.297-2.79 13.374 13.374 0 0 1-1.617-3.28c-.391-1.22-.586-2.58-.586-4.08 0-2.17.265-4.007.796-5.507.532-1.5 1.43-2.633 2.696-3.398 1.265-.782 3-1.172 5.203-1.172 1.656 0 3.016.258 4.078.773 1.078.5 1.914 1.242 2.508 2.227.61.969 1.039 2.156 1.289 3.562.25 1.39.375 2.985.375 4.782v2.554h-5.79v-2.953c0-1.25-.07-2.289-.21-3.117-.125-.828-.367-1.445-.727-1.852-.36-.421-.883-.632-1.57-.632-.656 0-1.188.148-1.594.445-.406.281-.703.726-.89 1.336-.172.594-.258 1.367-.258 2.32 0 .86.11 1.602.328 2.227a6.302 6.302 0 0 0 1.008 1.804 30.165 30.165 0 0 0 1.687 1.946l3.399 3.68c1.625 1.75 2.89 3.57 3.797 5.46.906 1.89 1.359 4 1.359 6.328 0 2.47-.266 4.547-.797 6.235-.531 1.672-1.422 2.937-2.672 3.797-1.25.86-2.953 1.289-5.11 1.289Zm20.531 0c-1.719 0-3.156-.266-4.312-.797a6.562 6.562 0 0 1-2.72-2.367c-.655-1.047-1.124-2.313-1.405-3.797-.282-1.5-.422-3.203-.422-5.11v-3.68H49.8v4.15c0 2.218.187 3.812.562 4.78.375.97 1.117 1.454 2.227 1.454.75 0 1.312-.172 1.687-.516.391-.36.649-.922.774-1.688.14-.78.21-1.796.21-3.046 0-1.547-.327-2.961-.984-4.243-.64-1.28-1.617-2.609-2.93-3.984l-3.046-3.14a22.924 22.924 0 0 1-2.297-2.79 13.381 13.381 0 0 1-1.617-3.28c-.39-1.22-.586-2.58-.586-4.08 0-2.17.265-4.007.797-5.507.53-1.5 1.43-2.633 2.695-3.398 1.266-.782 3-1.172 5.203-1.172 1.656 0 3.016.258 4.078.773 1.078.5 1.914 1.242 2.508 2.227.61.969 1.04 2.156 1.29 3.562.25 1.39.374 2.985.374 4.782v2.554h-5.789v-2.953c0-1.25-.07-2.289-.21-3.117-.126-.828-.368-1.445-.727-1.852-.36-.421-.883-.632-1.57-.632-.657 0-1.188.148-1.594.445-.407.281-.704.726-.891 1.336-.172.594-.258 1.367-.258 2.32 0 .86.11 1.602.328 2.227a6.3 6.3 0 0 0 1.008 1.804 30.103 30.103 0 0 0 1.688 1.946l3.398 3.68c1.625 1.75 2.89 3.57 3.797 5.46.906 1.89 1.36 4 1.36 6.328 0 2.47-.266 4.547-.798 6.235-.53 1.672-1.422 2.937-2.672 3.797-1.25.86-2.953 1.289-5.109 1.289ZM74.339 43V1.75h10.383c2.156 0 3.765.422 4.828 1.266 1.062.843 1.758 2.078 2.086 3.703.344 1.625.515 3.61.515 5.953 0 2.422-.25 4.328-.75 5.719-.484 1.375-1.484 2.297-3 2.765.72.125 1.32.422 1.805.89.484.454.875 1.126 1.172 2.017.297.875.508 2.007.633 3.398.14 1.375.21 3.062.21 5.062v3.868l.048 2.906c.015.969.039 1.797.07 2.484.031.688.07 1.094.117 1.219h-6.281c-.047-.078-.086-.477-.117-1.195a613 613 0 0 0-.07-2.79 1921.27 1921.27 0 0 1-.048-3.632V28.21c0-1.234-.093-2.164-.28-2.79-.173-.64-.5-1.085-.985-1.335-.469-.25-1.149-.398-2.04-.445l-2.015-.118V43h-6.28Zm6.305-24.352h2.507c.766 0 1.344-.171 1.735-.515.406-.344.68-.977.82-1.899.156-.922.234-2.25.234-3.984v-.258c0-1.453-.07-2.57-.21-3.351-.141-.782-.438-1.32-.891-1.618-.438-.296-1.125-.445-2.063-.445h-2.132v12.07Zm25.125 24.774c-1.766 0-3.219-.281-4.36-.844a6.336 6.336 0 0 1-2.648-2.437c-.625-1.063-1.063-2.336-1.313-3.82-.25-1.5-.375-3.173-.375-5.016V18.203c0-1.64.164-3.125.492-4.453.344-1.328.868-2.46 1.57-3.398.72-.938 1.649-1.657 2.79-2.157 1.14-.515 2.515-.773 4.125-.773 1.64 0 3.008.25 4.101.75 1.094.5 1.953 1.226 2.578 2.18.641.953 1.094 2.101 1.36 3.445.281 1.328.422 2.836.422 4.523v7.524h-11.18v6.914c0 1.703.133 3.07.398 4.101.266 1.032.993 1.547 2.18 1.547.797 0 1.36-.242 1.688-.726.343-.485.547-1.149.609-1.992.078-.86.117-1.836.117-2.93v-3.094h6.141v1.875c0 1.89-.117 3.57-.352 5.04-.218 1.468-.64 2.71-1.265 3.726-.61 1.015-1.485 1.789-2.625 2.32-1.141.531-2.625.797-4.453.797Zm-2.461-21.211h5.015v-4.5c0-1.172-.054-2.156-.164-2.953-.109-.813-.328-1.422-.656-1.828-.328-.407-.828-.61-1.5-.61-.828 0-1.438.242-1.828.727-.375.484-.617 1.148-.727 1.992a25.42 25.42 0 0 0-.14 2.836v4.336Zm23.718 21.234c-2.828 0-4.929-.804-6.304-2.414s-2.063-4.242-2.063-7.898v-2.274h5.836v2.836c0 1.532.188 2.696.563 3.492.375.797.984 1.196 1.828 1.196.812 0 1.414-.274 1.804-.82.391-.547.586-1.493.586-2.836 0-.782-.117-1.54-.351-2.274a7.671 7.671 0 0 0-1.055-2.156c-.469-.719-1.078-1.414-1.828-2.086l-3.164-2.86c-1.453-1.312-2.539-2.726-3.258-4.242-.719-1.53-1.078-3.218-1.078-5.062 0-2.985.695-5.164 2.086-6.54 1.406-1.39 3.484-2.085 6.234-2.085 1.782 0 3.258.336 4.43 1.008 1.172.656 2.047 1.726 2.625 3.21.578 1.485.867 3.477.867 5.977v1.922h-5.555v-2.32c0-1.547-.179-2.719-.539-3.516-.343-.797-.937-1.195-1.781-1.195-.828 0-1.437.234-1.828.703-.391.453-.602 1.258-.633 2.414a6.229 6.229 0 0 0 .235 1.852c.171.593.437 1.18.796 1.757.375.563.86 1.118 1.454 1.664l3.328 3.024c1.75 1.578 3.039 3.226 3.867 4.945.844 1.719 1.266 3.578 1.266 5.578 0 2.953-.672 5.196-2.016 6.727-1.344 1.516-3.461 2.273-6.352 2.273Zm21.235-.023c-1.688 0-3.102-.258-4.242-.774-1.141-.53-2.047-1.289-2.719-2.273-.656-1-1.133-2.21-1.43-3.633-.281-1.437-.422-3.07-.422-4.898V18.695c0-2.203.281-4.148.844-5.836.578-1.703 1.516-3.03 2.812-3.984 1.297-.969 3.016-1.453 5.157-1.453 1.625 0 2.992.273 4.101.82a6.657 6.657 0 0 1 2.696 2.344c.687 1 1.187 2.187 1.5 3.562.312 1.375.468 2.891.468 4.547v13.149c0 1.797-.14 3.406-.422 4.828-.265 1.422-.734 2.64-1.406 3.656-.656 1-1.547 1.766-2.672 2.297-1.125.531-2.547.797-4.265.797Zm0-5.016c.703 0 1.234-.21 1.593-.633.36-.437.602-1.039.727-1.804.125-.766.188-1.649.188-2.649V17.594c0-1.063-.071-1.977-.211-2.742-.141-.766-.391-1.36-.75-1.782-.36-.422-.875-.633-1.547-.633-.703 0-1.242.211-1.617.633-.36.422-.61 1.016-.75 1.782-.125.765-.188 1.68-.188 2.742V33.32c0 1 .063 1.883.188 2.649.14.765.39 1.367.75 1.804.375.422.914.633 1.617.633Zm20.461 5.039c-1.391 0-2.555-.312-3.493-.937-.921-.625-1.617-1.555-2.085-2.79-.454-1.25-.68-2.812-.68-4.687V7.844h6.234V34.07c0 1.344.164 2.39.492 3.14.329.75 1.016 1.126 2.063 1.126 1.094 0 1.836-.422 2.226-1.266.407-.86.61-1.843.61-2.953l.023-26.273h6.188V43h-6.211v-3.656c-.438 1.187-1.07 2.172-1.899 2.953-.828.766-1.984 1.148-3.468 1.148ZM186.37 43V7.844h6.258v3.914c.406-1.36 1.109-2.422 2.109-3.188 1.016-.765 2.305-1.148 3.867-1.148.032 0 .047.266.047.797.016.531.024 1.14.024 1.828v2.625c-.719 0-1.5.086-2.344.258a8.687 8.687 0 0 0-2.273.797c-.672.343-1.149.804-1.43 1.382V43h-6.258Zm24.844.422c-1.797 0-3.281-.274-4.453-.82-1.172-.563-2.094-1.368-2.766-2.414-.656-1.047-1.117-2.32-1.383-3.82-.265-1.5-.398-3.196-.398-5.087v-11.39c0-2.594.242-4.82.726-6.68.485-1.86 1.375-3.29 2.672-4.29 1.313-1 3.203-1.5 5.672-1.5 1.516 0 2.797.235 3.844.704 1.047.469 1.891 1.148 2.531 2.04.641.874 1.102 1.937 1.383 3.187.297 1.25.445 2.656.445 4.218v3.867h-6V17.36c0-1.015-.047-1.882-.14-2.601-.094-.735-.305-1.29-.633-1.664-.328-.39-.852-.586-1.57-.586-.704 0-1.25.195-1.641.586-.391.39-.664.96-.82 1.71-.141.735-.211 1.618-.211 2.65v15.843c0 1.062.062 1.969.187 2.719.141.75.391 1.328.75 1.734.375.39.922.586 1.641.586.703 0 1.226-.203 1.57-.61.359-.421.594-1.007.703-1.757.11-.75.164-1.633.164-2.649v-4.172h6v3.563c0 1.61-.14 3.078-.422 4.406-.281 1.313-.742 2.438-1.382 3.375a6.439 6.439 0 0 1-2.555 2.18c-1.063.5-2.367.75-3.914.75Zm21.68 0c-1.766 0-3.219-.281-4.36-.844a6.331 6.331 0 0 1-2.648-2.437c-.625-1.063-1.063-2.336-1.313-3.82-.25-1.5-.375-3.173-.375-5.016V18.203c0-1.64.164-3.125.492-4.453.344-1.328.868-2.46 1.571-3.398.718-.938 1.648-1.657 2.789-2.157 1.14-.515 2.515-.773 4.125-.773 1.64 0 3.008.25 4.101.75 1.094.5 1.953 1.226 2.578 2.18.641.953 1.094 2.101 1.36 3.445.281 1.328.422 2.836.422 4.523v7.524h-11.18v6.914c0 1.703.133 3.07.398 4.101.266 1.032.993 1.547 2.18 1.547.797 0 1.36-.242 1.688-.726.343-.485.547-1.149.609-1.992.078-.86.117-1.836.117-2.93v-3.094h6.141v1.875c0 1.89-.117 3.57-.352 5.04-.218 1.468-.64 2.71-1.265 3.726-.61 1.015-1.485 1.789-2.625 2.32-1.141.531-2.625.797-4.453.797Zm-2.461-21.211h5.015v-4.5c0-1.172-.054-2.156-.164-2.953-.109-.813-.328-1.422-.656-1.828-.328-.407-.828-.61-1.5-.61-.828 0-1.438.242-1.828.727-.375.484-.617 1.148-.727 1.992a25.42 25.42 0 0 0-.14 2.836v4.336Zm23.718 21.234c-2.828 0-4.929-.804-6.304-2.414s-2.063-4.242-2.063-7.898v-2.274h5.836v2.836c0 1.532.188 2.696.563 3.492.375.797.984 1.196 1.828 1.196.812 0 1.414-.274 1.804-.82.391-.547.586-1.493.586-2.836 0-.782-.117-1.54-.351-2.274a7.671 7.671 0 0 0-1.055-2.156c-.469-.719-1.078-1.414-1.828-2.086l-3.164-2.86c-1.453-1.312-2.539-2.726-3.258-4.242-.719-1.53-1.078-3.218-1.078-5.062 0-2.985.695-5.164 2.086-6.54 1.406-1.39 3.484-2.085 6.234-2.085 1.782 0 3.258.336 4.43 1.008 1.172.656 2.047 1.726 2.625 3.21.578 1.485.867 3.477.867 5.977v1.922h-5.555v-2.32c0-1.547-.179-2.719-.539-3.516-.343-.797-.937-1.195-1.781-1.195-.828 0-1.437.234-1.828.703-.391.453-.602 1.258-.633 2.414a6.229 6.229 0 0 0 .235 1.852c.171.593.437 1.18.796 1.757.375.563.86 1.118 1.454 1.664l3.328 3.024c1.75 1.578 3.039 3.226 3.867 4.945.844 1.719 1.266 3.578 1.266 5.578 0 2.953-.672 5.196-2.016 6.727-1.344 1.516-3.461 2.273-6.352 2.273Z" mask="url(#b)"/><defs><filter id="a" width="267.117" height="48.211" x="-.599" y="-.742" color-interpolation-filters="sRGB" filterUnits="userSpaceOnUse"><feFlood flood-opacity="0" result="BackgroundImageFix"/><feBlend in="SourceGraphic" in2="BackgroundImageFix" result="shape"/><feColorMatrix in="SourceAlpha" result="hardAlpha" values="0 0 0 0 0 0 0 0 0 0 0 0 0 0 0 0 0 0 127 0"/><feOffset dx="-1" dy="-1"/><feGaussianBlur stdDeviation="1.5"/><feComposite in2="hardAlpha" k2="-1" k3="1" operator="arithmetic"/><feColorMatrix values="0 0 0 0 0.984314 0 0 0 0 0.984314 0 0 0 0 0.984314 0 0 0 1 0"/><feBlend in2="shape" result="effect1_innerShadow_127_2783"/><feColorMatrix in="SourceAlpha" result="hardAlpha" values="0 0 0 0 0 0 0 0 0 0 0 0 0 0 0 0 0 0 127 0"/><feOffset dx="3" dy="3"/><feGaussianBlur stdDeviation="4.5"/><feComposite in2="hardAlpha" k2="-1" k3="1" operator="arithmetic"/><feColorMatrix values="0 0 0 0 0.772549 0 0 0 0 0.772549 0 0 0 0 0.772549 0 0 0 1 0"/><feBlend in2="effect1_innerShadow_127_2783" result="effect2_innerShadow_127_2783"/></filter></defs></svg>