<svg xmlns="http://www.w3.org/2000/svg" width="337" height="53" fill="none"><mask id="b" width="337" height="53" x=".253" y=".219" fill="#000" maskUnits="userSpaceOnUse"><path fill="#fff" d="M.253.219h337v53h-337z"/><path d="M1.253 45V3.75h9.258c2.094 0 3.773.422 5.039 1.266 1.265.828 2.18 2.03 2.742 3.609.578 1.578.867 3.484.867 5.719l.024 18.61c0 2.702-.297 4.952-.891 6.75-.578 1.78-1.516 3.108-2.813 3.983C14.184 44.563 12.457 45 10.3 45H1.254Zm6.281-4.875h2.063c.734 0 1.343-.148 1.828-.445.5-.297.867-.82 1.101-1.57.25-.766.375-1.844.375-3.235l-.023-20.367c0-2.11-.258-3.625-.774-4.547-.515-.922-1.421-1.383-2.718-1.383H7.534v31.547Zm25.524 5.297c-1.766 0-3.22-.281-4.36-.844a6.336 6.336 0 0 1-2.648-2.437c-.625-1.063-1.063-2.336-1.313-3.82-.25-1.5-.375-3.173-.375-5.016V20.203c0-1.64.164-3.125.493-4.453.343-1.328.867-2.46 1.57-3.398.719-.938 1.648-1.657 2.789-2.157 1.14-.515 2.516-.773 4.125-.773 1.64 0 3.008.25 4.101.75 1.094.5 1.954 1.226 2.579 2.18.64.953 1.093 2.101 1.359 3.445.281 1.328.422 2.836.422 4.523v7.524H30.62v6.914c0 1.703.133 3.07.399 4.101.265 1.032.992 1.547 2.18 1.547.796 0 1.359-.242 1.687-.726.343-.485.547-1.149.61-1.992.077-.86.116-1.836.116-2.93v-3.094h6.14v1.875c0 1.89-.116 3.57-.35 5.04-.22 1.468-.641 2.71-1.266 3.726-.61 1.015-1.485 1.789-2.625 2.32-1.14.531-2.625.797-4.453.797ZM30.597 24.21h5.015v-4.5c0-1.172-.054-2.156-.164-2.953-.11-.813-.328-1.422-.656-1.828-.328-.407-.828-.61-1.5-.61-.828 0-1.438.242-1.828.727-.375.484-.617 1.148-.727 1.992-.093.828-.14 1.773-.14 2.836v4.336Zm23.718 21.235c-2.828 0-4.93-.804-6.304-2.414-1.375-1.61-2.063-4.242-2.063-7.898v-2.274h5.836v2.836c0 1.532.188 2.696.563 3.492.375.797.984 1.196 1.828 1.196.812 0 1.414-.274 1.805-.82.39-.547.585-1.493.585-2.836 0-.782-.117-1.54-.351-2.274a7.654 7.654 0 0 0-1.055-2.156c-.469-.719-1.078-1.414-1.828-2.086l-3.164-2.86c-1.453-1.312-2.54-2.726-3.258-4.242-.719-1.53-1.078-3.218-1.078-5.062 0-2.985.695-5.164 2.086-6.54 1.406-1.39 3.484-2.085 6.234-2.085 1.782 0 3.258.336 4.43 1.008 1.172.656 2.047 1.726 2.625 3.21.578 1.485.867 3.477.867 5.977v1.922H56.52v-2.32c0-1.547-.18-2.719-.54-3.516-.343-.797-.937-1.195-1.78-1.195-.829 0-1.438.234-1.829.703-.39.453-.601 1.258-.633 2.414a6.212 6.212 0 0 0 .235 1.852c.172.593.437 1.18.797 1.757a9.25 9.25 0 0 0 1.453 1.664l3.328 3.024c1.75 1.578 3.039 3.226 3.867 4.945.844 1.719 1.266 3.578 1.266 5.578 0 2.953-.672 5.196-2.016 6.727-1.344 1.516-3.46 2.273-6.352 2.273ZM67.347 45V9.844h6.21V45h-6.21Zm-.024-38.39V1.218h6.258v5.39h-6.258ZM87.76 50.273c-1.937.032-3.585-.156-4.945-.562a10.29 10.29 0 0 1-3.703-1.945l2.18-3.914c.828.53 1.727.96 2.695 1.289.985.343 2.047.507 3.188.492 1.187-.016 2.094-.43 2.719-1.242.625-.813.937-1.899.937-3.258v-2.79c-.406 1.173-1.031 1.977-1.875 2.415-.828.437-1.836.656-3.023.656-1.657 0-2.961-.437-3.914-1.312-.938-.875-1.602-2.07-1.993-3.586-.39-1.516-.586-3.235-.586-5.157V20.04c0-2.047.204-3.867.61-5.46.406-1.61 1.101-2.876 2.086-3.798.984-.922 2.336-1.375 4.054-1.36 1.204 0 2.196.306 2.977.915.797.61 1.352 1.484 1.664 2.625V9.844h6.211v30.82c0 1.39-.156 2.672-.469 3.844-.312 1.156-.828 2.156-1.547 3-.718.86-1.671 1.523-2.859 1.992-1.188.484-2.656.742-4.406.773Zm.634-13.57c.562 0 1.023-.164 1.382-.492.36-.344.625-.922.797-1.734.172-.829.258-1.977.258-3.446V19.523c0-1.546-.187-2.78-.562-3.703-.375-.922-1.055-1.383-2.04-1.383-.75 0-1.304.22-1.664.657-.359.437-.593 1.039-.703 1.804-.11.75-.164 1.618-.164 2.602v11.578c0 1.735.164 3.11.492 4.125.329 1 1.063 1.5 2.204 1.5ZM103.042 45V9.844h6.211v4.031c.312-1.203.969-2.242 1.969-3.117 1-.89 2.226-1.336 3.679-1.336 2.032 0 3.555.68 4.571 2.039 1.015 1.344 1.523 3.297 1.523 5.86V45h-6.211V17.695c0-1.015-.234-1.812-.703-2.39-.453-.578-1.078-.867-1.875-.867-.641 0-1.187.18-1.641.539-.437.343-.765.828-.984 1.453-.219.61-.328 1.328-.328 2.156V45h-6.211Zm32.695 0V3.75h6.282V45h-6.282Zm12.586 0V9.844h6.211v4.031c.313-1.203.969-2.242 1.969-3.117 1-.89 2.226-1.336 3.68-1.336 2.031 0 3.554.68 4.57 2.039 1.016 1.344 1.523 3.297 1.523 5.86V45h-6.211V17.695c0-1.015-.234-1.812-.703-2.39-.453-.578-1.078-.867-1.875-.867-.64 0-1.187.18-1.64.539-.438.343-.766.828-.985 1.453-.218.61-.328 1.328-.328 2.156V45h-6.211Zm31.196.445c-2.829 0-4.93-.804-6.305-2.414s-2.063-4.242-2.063-7.898v-2.274h5.836v2.836c0 1.532.188 2.696.563 3.492.375.797.984 1.196 1.828 1.196.812 0 1.414-.274 1.805-.82.39-.547.586-1.493.586-2.836 0-.782-.118-1.54-.352-2.274a7.644 7.644 0 0 0-1.055-2.156c-.468-.719-1.078-1.414-1.828-2.086l-3.164-2.86c-1.453-1.312-2.539-2.726-3.258-4.242-.718-1.53-1.078-3.218-1.078-5.062 0-2.985.695-5.164 2.086-6.54 1.406-1.39 3.484-2.085 6.234-2.085 1.782 0 3.258.336 4.43 1.008 1.172.656 2.047 1.726 2.625 3.21.578 1.485.867 3.477.867 5.977v1.922h-5.554v-2.32c0-1.547-.18-2.719-.539-3.516-.344-.797-.938-1.195-1.782-1.195-.828 0-1.437.234-1.828.703-.39.453-.601 1.258-.633 2.414a6.229 6.229 0 0 0 .235 1.852 7.02 7.02 0 0 0 .797 1.757 9.294 9.294 0 0 0 1.453 1.664l3.328 3.024c1.75 1.578 3.039 3.226 3.867 4.945.844 1.719 1.266 3.578 1.266 5.578 0 2.953-.672 5.196-2.016 6.727-1.344 1.516-3.461 2.273-6.351 2.273Zm12.937 6.235V9.844h6.211v3.164c.453-1.156 1.164-2.031 2.133-2.625.969-.594 1.945-.89 2.929-.89 1.797 0 3.157.484 4.079 1.452.921.953 1.546 2.258 1.875 3.914.328 1.657.492 3.516.492 5.579v12.82c0 2.25-.156 4.297-.469 6.14-.312 1.844-.977 3.313-1.992 4.407-1 1.078-2.531 1.617-4.594 1.617a4.62 4.62 0 0 1-2.601-.774c-.782-.515-1.399-1.109-1.852-1.78v8.812h-6.211Zm8.953-11.297c1.047 0 1.727-.508 2.039-1.524.313-1.03.469-2.5.469-4.406V19.875c0-1.016-.055-1.93-.164-2.742-.094-.828-.313-1.485-.656-1.969-.344-.484-.891-.726-1.641-.726-.578 0-1.078.148-1.5.445-.406.297-.727.836-.961 1.617-.219.781-.328 1.898-.328 3.352V34.71c0 1.797.172 3.195.516 4.195.343.985 1.086 1.477 2.226 1.477ZM215.94 45V9.844h6.211V45h-6.211Zm-.023-38.39V1.218h6.258v5.39h-6.258ZM228.456 45V9.844h6.258v3.914c.406-1.36 1.109-2.422 2.109-3.188 1.016-.765 2.305-1.148 3.867-1.148.032 0 .047.265.047.797.016.531.024 1.14.024 1.828v2.625c-.719 0-1.5.086-2.344.258a8.687 8.687 0 0 0-2.273.797c-.672.343-1.149.804-1.43 1.382V45h-6.258Zm22.078.352c-2.406 0-4.078-.875-5.015-2.625-.922-1.75-1.399-4.07-1.43-6.961v-2.25c0-1.875.265-3.399.797-4.57.547-1.173 1.32-2.126 2.32-2.86 1-.734 2.195-1.375 3.586-1.922a216.492 216.492 0 0 1 4.641-1.758v-3.07c0-1.188-.047-2.133-.141-2.836-.094-.719-.305-1.242-.633-1.57-.328-.328-.836-.492-1.523-.492-.672 0-1.188.171-1.547.515-.344.328-.578.844-.703 1.547-.125.688-.188 1.57-.188 2.648v1.57h-6.14v-1.054c0-1.61.132-3.047.398-4.312.281-1.266.75-2.336 1.406-3.211.657-.891 1.547-1.563 2.672-2.016 1.141-.469 2.57-.703 4.289-.703 1.516 0 2.813.219 3.891.656 1.078.422 1.953 1.063 2.625 1.922.672.844 1.164 1.906 1.476 3.188.313 1.28.469 2.773.469 4.476V45h-6.258v-3.492a5.567 5.567 0 0 1-.961 1.898 5.196 5.196 0 0 1-1.711 1.407c-.671.359-1.445.539-2.32.539Zm2.156-4.782c.782 0 1.407-.28 1.875-.843.469-.563.758-1.133.868-1.711V25.922c-.938.422-1.727.82-2.368 1.195-.64.36-1.156.758-1.546 1.195a3.925 3.925 0 0 0-.844 1.547c-.172.594-.258 1.32-.258 2.18v3.938c0 1.609.164 2.78.492 3.515.344.719.938 1.078 1.781 1.078Zm21.188 4.664c-1.5 0-2.649-.187-3.445-.562a3.15 3.15 0 0 1-1.641-1.828c-.297-.828-.445-1.899-.445-3.211V15.07h-2.86v-4.5h2.86V3.75h6.211v6.82h3.421v4.5h-3.421v23.485c0 .547.086.96.257 1.242.172.281.508.469 1.008.562.516.094 1.274.141 2.274.141v4.734h-4.219Zm8.719-.234V9.844h6.211V45h-6.211Zm-.024-38.39V1.218h6.258v5.39h-6.258Zm20.836 38.812c-1.687 0-3.101-.258-4.242-.774-1.141-.53-2.047-1.289-2.719-2.273-.656-1-1.133-2.21-1.429-3.633-.282-1.437-.422-3.07-.422-4.898V20.695c0-2.203.281-4.148.843-5.836.579-1.703 1.516-3.03 2.813-3.984 1.297-.969 3.016-1.453 5.156-1.453 1.625 0 2.992.273 4.102.82a6.654 6.654 0 0 1 2.695 2.344c.688 1 1.188 2.187 1.5 3.562.313 1.375.469 2.891.469 4.547v13.149c0 1.797-.141 3.406-.422 4.828-.266 1.422-.734 2.64-1.406 3.656-.657 1-1.547 1.766-2.672 2.297-1.125.531-2.547.797-4.266.797Zm0-5.016c.703 0 1.235-.21 1.594-.633.359-.437.601-1.039.726-1.804.125-.766.188-1.649.188-2.649V19.594c0-1.063-.07-1.977-.211-2.742-.141-.766-.391-1.36-.75-1.782-.359-.422-.875-.633-1.547-.633-.703 0-1.242.211-1.617.633-.359.422-.609 1.016-.75 1.782-.125.765-.188 1.68-.188 2.742V35.32c0 1 .063 1.883.188 2.649.141.765.391 1.367.75 1.804.375.422.914.633 1.617.633ZM317.823 45V9.844h6.211v4.031c.313-1.203.969-2.242 1.969-3.117 1-.89 2.226-1.336 3.68-1.336 2.031 0 3.554.68 4.57 2.039 1.016 1.344 1.523 3.297 1.523 5.86V45h-6.211V17.695c0-1.015-.234-1.812-.703-2.39-.453-.578-1.078-.867-1.875-.867-.64 0-1.187.18-1.64.539-.438.343-.766.828-.985 1.453-.218.61-.328 1.328-.328 2.156V45h-6.211Z"/></mask><g fill="#E0E0E0" filter="url(#a)"><path d="M1.253 45V3.75h9.258c2.094 0 3.773.422 5.039 1.266 1.265.828 2.18 2.03 2.742 3.609.578 1.578.867 3.484.867 5.719l.024 18.61c0 2.702-.297 4.952-.891 6.75-.578 1.78-1.516 3.108-2.813 3.983C14.184 44.563 12.457 45 10.3 45H1.254Zm6.281-4.875h2.063c.734 0 1.343-.148 1.828-.445.5-.297.867-.82 1.101-1.57.25-.766.375-1.844.375-3.235l-.023-20.367c0-2.11-.258-3.625-.774-4.547-.515-.922-1.421-1.383-2.718-1.383H7.534v31.547Zm25.524 5.297c-1.766 0-3.22-.281-4.36-.844a6.336 6.336 0 0 1-2.648-2.437c-.625-1.063-1.063-2.336-1.313-3.82-.25-1.5-.375-3.173-.375-5.016V20.203c0-1.64.164-3.125.493-4.453.343-1.328.867-2.46 1.57-3.398.719-.938 1.648-1.657 2.789-2.157 1.14-.515 2.516-.773 4.125-.773 1.64 0 3.008.25 4.101.75 1.094.5 1.954 1.226 2.579 2.18.64.953 1.093 2.101 1.359 3.445.281 1.328.422 2.836.422 4.523v7.524H30.62v6.914c0 1.703.133 3.07.399 4.101.265 1.032.992 1.547 2.18 1.547.796 0 1.359-.242 1.687-.726.343-.485.547-1.149.61-1.992.077-.86.116-1.836.116-2.93v-3.094h6.14v1.875c0 1.89-.116 3.57-.35 5.04-.22 1.468-.641 2.71-1.266 3.726-.61 1.015-1.485 1.789-2.625 2.32-1.14.531-2.625.797-4.453.797ZM30.597 24.21h5.015v-4.5c0-1.172-.054-2.156-.164-2.953-.11-.813-.328-1.422-.656-1.828-.328-.407-.828-.61-1.5-.61-.828 0-1.438.242-1.828.727-.375.484-.617 1.148-.727 1.992-.093.828-.14 1.773-.14 2.836v4.336Zm23.718 21.235c-2.828 0-4.93-.804-6.304-2.414-1.375-1.61-2.063-4.242-2.063-7.898v-2.274h5.836v2.836c0 1.532.188 2.696.563 3.492.375.797.984 1.196 1.828 1.196.812 0 1.414-.274 1.805-.82.39-.547.585-1.493.585-2.836 0-.782-.117-1.54-.351-2.274a7.654 7.654 0 0 0-1.055-2.156c-.469-.719-1.078-1.414-1.828-2.086l-3.164-2.86c-1.453-1.312-2.54-2.726-3.258-4.242-.719-1.53-1.078-3.218-1.078-5.062 0-2.985.695-5.164 2.086-6.54 1.406-1.39 3.484-2.085 6.234-2.085 1.782 0 3.258.336 4.43 1.008 1.172.656 2.047 1.726 2.625 3.21.578 1.485.867 3.477.867 5.977v1.922H56.52v-2.32c0-1.547-.18-2.719-.54-3.516-.343-.797-.937-1.195-1.78-1.195-.829 0-1.438.234-1.829.703-.39.453-.601 1.258-.633 2.414a6.212 6.212 0 0 0 .235 1.852c.172.593.437 1.18.797 1.757a9.25 9.25 0 0 0 1.453 1.664l3.328 3.024c1.75 1.578 3.039 3.226 3.867 4.945.844 1.719 1.266 3.578 1.266 5.578 0 2.953-.672 5.196-2.016 6.727-1.344 1.516-3.46 2.273-6.352 2.273ZM67.347 45V9.844h6.21V45h-6.21Zm-.024-38.39V1.218h6.258v5.39h-6.258ZM87.76 50.273c-1.937.032-3.585-.156-4.945-.562a10.29 10.29 0 0 1-3.703-1.945l2.18-3.914c.828.53 1.727.96 2.695 1.289.985.343 2.047.507 3.188.492 1.187-.016 2.094-.43 2.719-1.242.625-.813.937-1.899.937-3.258v-2.79c-.406 1.173-1.031 1.977-1.875 2.415-.828.437-1.836.656-3.023.656-1.657 0-2.961-.437-3.914-1.312-.938-.875-1.602-2.07-1.993-3.586-.39-1.516-.586-3.235-.586-5.157V20.04c0-2.047.204-3.867.61-5.46.406-1.61 1.101-2.876 2.086-3.798.984-.922 2.336-1.375 4.054-1.36 1.204 0 2.196.306 2.977.915.797.61 1.352 1.484 1.664 2.625V9.844h6.211v30.82c0 1.39-.156 2.672-.469 3.844-.312 1.156-.828 2.156-1.547 3-.718.86-1.671 1.523-2.859 1.992-1.188.484-2.656.742-4.406.773Zm.634-13.57c.562 0 1.023-.164 1.382-.492.36-.344.625-.922.797-1.734.172-.829.258-1.977.258-3.446V19.523c0-1.546-.187-2.78-.562-3.703-.375-.922-1.055-1.383-2.04-1.383-.75 0-1.304.22-1.664.657-.359.437-.593 1.039-.703 1.804-.11.75-.164 1.618-.164 2.602v11.578c0 1.735.164 3.11.492 4.125.329 1 1.063 1.5 2.204 1.5ZM103.042 45V9.844h6.211v4.031c.312-1.203.969-2.242 1.969-3.117 1-.89 2.226-1.336 3.679-1.336 2.032 0 3.555.68 4.571 2.039 1.015 1.344 1.523 3.297 1.523 5.86V45h-6.211V17.695c0-1.015-.234-1.812-.703-2.39-.453-.578-1.078-.867-1.875-.867-.641 0-1.187.18-1.641.539-.437.343-.765.828-.984 1.453-.219.61-.328 1.328-.328 2.156V45h-6.211Zm32.695 0V3.75h6.282V45h-6.282Zm12.586 0V9.844h6.211v4.031c.313-1.203.969-2.242 1.969-3.117 1-.89 2.226-1.336 3.68-1.336 2.031 0 3.554.68 4.57 2.039 1.016 1.344 1.523 3.297 1.523 5.86V45h-6.211V17.695c0-1.015-.234-1.812-.703-2.39-.453-.578-1.078-.867-1.875-.867-.64 0-1.187.18-1.64.539-.438.343-.766.828-.985 1.453-.218.61-.328 1.328-.328 2.156V45h-6.211Zm31.196.445c-2.829 0-4.93-.804-6.305-2.414s-2.063-4.242-2.063-7.898v-2.274h5.836v2.836c0 1.532.188 2.696.563 3.492.375.797.984 1.196 1.828 1.196.812 0 1.414-.274 1.805-.82.39-.547.586-1.493.586-2.836 0-.782-.118-1.54-.352-2.274a7.644 7.644 0 0 0-1.055-2.156c-.468-.719-1.078-1.414-1.828-2.086l-3.164-2.86c-1.453-1.312-2.539-2.726-3.258-4.242-.718-1.53-1.078-3.218-1.078-5.062 0-2.985.695-5.164 2.086-6.54 1.406-1.39 3.484-2.085 6.234-2.085 1.782 0 3.258.336 4.43 1.008 1.172.656 2.047 1.726 2.625 3.21.578 1.485.867 3.477.867 5.977v1.922h-5.554v-2.32c0-1.547-.18-2.719-.539-3.516-.344-.797-.938-1.195-1.782-1.195-.828 0-1.437.234-1.828.703-.39.453-.601 1.258-.633 2.414a6.229 6.229 0 0 0 .235 1.852 7.02 7.02 0 0 0 .797 1.757 9.294 9.294 0 0 0 1.453 1.664l3.328 3.024c1.75 1.578 3.039 3.226 3.867 4.945.844 1.719 1.266 3.578 1.266 5.578 0 2.953-.672 5.196-2.016 6.727-1.344 1.516-3.461 2.273-6.351 2.273Zm12.937 6.235V9.844h6.211v3.164c.453-1.156 1.164-2.031 2.133-2.625.969-.594 1.945-.89 2.929-.89 1.797 0 3.157.484 4.079 1.452.921.953 1.546 2.258 1.875 3.914.328 1.657.492 3.516.492 5.579v12.82c0 2.25-.156 4.297-.469 6.14-.312 1.844-.977 3.313-1.992 4.407-1 1.078-2.531 1.617-4.594 1.617a4.62 4.62 0 0 1-2.601-.774c-.782-.515-1.399-1.109-1.852-1.78v8.812h-6.211Zm8.953-11.297c1.047 0 1.727-.508 2.039-1.524.313-1.03.469-2.5.469-4.406V19.875c0-1.016-.055-1.93-.164-2.742-.094-.828-.313-1.485-.656-1.969-.344-.484-.891-.726-1.641-.726-.578 0-1.078.148-1.5.445-.406.297-.727.836-.961 1.617-.219.781-.328 1.898-.328 3.352V34.71c0 1.797.172 3.195.516 4.195.343.985 1.086 1.477 2.226 1.477ZM215.94 45V9.844h6.211V45h-6.211Zm-.023-38.39V1.218h6.258v5.39h-6.258ZM228.456 45V9.844h6.258v3.914c.406-1.36 1.109-2.422 2.109-3.188 1.016-.765 2.305-1.148 3.867-1.148.032 0 .047.265.047.797.016.531.024 1.14.024 1.828v2.625c-.719 0-1.5.086-2.344.258a8.687 8.687 0 0 0-2.273.797c-.672.343-1.149.804-1.43 1.382V45h-6.258Zm22.078.352c-2.406 0-4.078-.875-5.015-2.625-.922-1.75-1.399-4.07-1.43-6.961v-2.25c0-1.875.265-3.399.797-4.57.547-1.173 1.32-2.126 2.32-2.86 1-.734 2.195-1.375 3.586-1.922a216.492 216.492 0 0 1 4.641-1.758v-3.07c0-1.188-.047-2.133-.141-2.836-.094-.719-.305-1.242-.633-1.57-.328-.328-.836-.492-1.523-.492-.672 0-1.188.171-1.547.515-.344.328-.578.844-.703 1.547-.125.688-.188 1.57-.188 2.648v1.57h-6.14v-1.054c0-1.61.132-3.047.398-4.312.281-1.266.75-2.336 1.406-3.211.657-.891 1.547-1.563 2.672-2.016 1.141-.469 2.57-.703 4.289-.703 1.516 0 2.813.219 3.891.656 1.078.422 1.953 1.063 2.625 1.922.672.844 1.164 1.906 1.476 3.188.313 1.28.469 2.773.469 4.476V45h-6.258v-3.492a5.567 5.567 0 0 1-.961 1.898 5.196 5.196 0 0 1-1.711 1.407c-.671.359-1.445.539-2.32.539Zm2.156-4.782c.782 0 1.407-.28 1.875-.843.469-.563.758-1.133.868-1.711V25.922c-.938.422-1.727.82-2.368 1.195-.64.36-1.156.758-1.546 1.195a3.925 3.925 0 0 0-.844 1.547c-.172.594-.258 1.32-.258 2.18v3.938c0 1.609.164 2.78.492 3.515.344.719.938 1.078 1.781 1.078Zm21.188 4.664c-1.5 0-2.649-.187-3.445-.562a3.15 3.15 0 0 1-1.641-1.828c-.297-.828-.445-1.899-.445-3.211V15.07h-2.86v-4.5h2.86V3.75h6.211v6.82h3.421v4.5h-3.421v23.485c0 .547.086.96.257 1.242.172.281.508.469 1.008.562.516.094 1.274.141 2.274.141v4.734h-4.219Zm8.719-.234V9.844h6.211V45h-6.211Zm-.024-38.39V1.218h6.258v5.39h-6.258Zm20.836 38.812c-1.687 0-3.101-.258-4.242-.774-1.141-.53-2.047-1.289-2.719-2.273-.656-1-1.133-2.21-1.429-3.633-.282-1.437-.422-3.07-.422-4.898V20.695c0-2.203.281-4.148.843-5.836.579-1.703 1.516-3.03 2.813-3.984 1.297-.969 3.016-1.453 5.156-1.453 1.625 0 2.992.273 4.102.82a6.654 6.654 0 0 1 2.695 2.344c.688 1 1.188 2.187 1.5 3.562.313 1.375.469 2.891.469 4.547v13.149c0 1.797-.141 3.406-.422 4.828-.266 1.422-.734 2.64-1.406 3.656-.657 1-1.547 1.766-2.672 2.297-1.125.531-2.547.797-4.266.797Zm0-5.016c.703 0 1.235-.21 1.594-.633.359-.437.601-1.039.726-1.804.125-.766.188-1.649.188-2.649V19.594c0-1.063-.07-1.977-.211-2.742-.141-.766-.391-1.36-.75-1.782-.359-.422-.875-.633-1.547-.633-.703 0-1.242.211-1.617.633-.359.422-.609 1.016-.75 1.782-.125.765-.188 1.68-.188 2.742V35.32c0 1 .063 1.883.188 2.649.141.765.391 1.367.75 1.804.375.422.914.633 1.617.633ZM317.823 45V9.844h6.211v4.031c.313-1.203.969-2.242 1.969-3.117 1-.89 2.226-1.336 3.68-1.336 2.031 0 3.554.68 4.57 2.039 1.016 1.344 1.523 3.297 1.523 5.86V45h-6.211V17.695c0-1.015-.234-1.812-.703-2.39-.453-.578-1.078-.867-1.875-.867-.64 0-1.187.18-1.64.539-.438.343-.766.828-.985 1.453-.218.61-.328 1.328-.328 2.156V45h-6.211Z"/></g><path stroke="#EAEAEA" stroke-width="2" d="M1.253 45V3.75h9.258c2.094 0 3.773.422 5.039 1.266 1.265.828 2.18 2.03 2.742 3.609.578 1.578.867 3.484.867 5.719l.024 18.61c0 2.702-.297 4.952-.891 6.75-.578 1.78-1.516 3.108-2.813 3.983C14.184 44.563 12.457 45 10.3 45H1.254Zm6.281-4.875h2.063c.734 0 1.343-.148 1.828-.445.5-.297.867-.82 1.101-1.57.25-.766.375-1.844.375-3.235l-.023-20.367c0-2.11-.258-3.625-.774-4.547-.515-.922-1.421-1.383-2.718-1.383H7.534v31.547Zm25.524 5.297c-1.766 0-3.22-.281-4.36-.844a6.336 6.336 0 0 1-2.648-2.437c-.625-1.063-1.063-2.336-1.313-3.82-.25-1.5-.375-3.173-.375-5.016V20.203c0-1.64.164-3.125.493-4.453.343-1.328.867-2.46 1.57-3.398.719-.938 1.648-1.657 2.789-2.157 1.14-.515 2.516-.773 4.125-.773 1.64 0 3.008.25 4.101.75 1.094.5 1.954 1.226 2.579 2.18.64.953 1.093 2.101 1.359 3.445.281 1.328.422 2.836.422 4.523v7.524H30.62v6.914c0 1.703.133 3.07.399 4.101.265 1.032.992 1.547 2.18 1.547.796 0 1.359-.242 1.687-.726.343-.485.547-1.149.61-1.992.077-.86.116-1.836.116-2.93v-3.094h6.14v1.875c0 1.89-.116 3.57-.35 5.04-.22 1.468-.641 2.71-1.266 3.726-.61 1.015-1.485 1.789-2.625 2.32-1.14.531-2.625.797-4.453.797ZM30.597 24.21h5.015v-4.5c0-1.172-.054-2.156-.164-2.953-.11-.813-.328-1.422-.656-1.828-.328-.407-.828-.61-1.5-.61-.828 0-1.438.242-1.828.727-.375.484-.617 1.148-.727 1.992-.093.828-.14 1.773-.14 2.836v4.336Zm23.718 21.235c-2.828 0-4.93-.804-6.304-2.414-1.375-1.61-2.063-4.242-2.063-7.898v-2.274h5.836v2.836c0 1.532.188 2.696.563 3.492.375.797.984 1.196 1.828 1.196.812 0 1.414-.274 1.805-.82.39-.547.585-1.493.585-2.836 0-.782-.117-1.54-.351-2.274a7.654 7.654 0 0 0-1.055-2.156c-.469-.719-1.078-1.414-1.828-2.086l-3.164-2.86c-1.453-1.312-2.54-2.726-3.258-4.242-.719-1.53-1.078-3.218-1.078-5.062 0-2.985.695-5.164 2.086-6.54 1.406-1.39 3.484-2.085 6.234-2.085 1.782 0 3.258.336 4.43 1.008 1.172.656 2.047 1.726 2.625 3.21.578 1.485.867 3.477.867 5.977v1.922H56.52v-2.32c0-1.547-.18-2.719-.54-3.516-.343-.797-.937-1.195-1.78-1.195-.829 0-1.438.234-1.829.703-.39.453-.601 1.258-.633 2.414a6.212 6.212 0 0 0 .235 1.852c.172.593.437 1.18.797 1.757a9.25 9.25 0 0 0 1.453 1.664l3.328 3.024c1.75 1.578 3.039 3.226 3.867 4.945.844 1.719 1.266 3.578 1.266 5.578 0 2.953-.672 5.196-2.016 6.727-1.344 1.516-3.46 2.273-6.352 2.273ZM67.347 45V9.844h6.21V45h-6.21Zm-.024-38.39V1.218h6.258v5.39h-6.258ZM87.76 50.273c-1.937.032-3.585-.156-4.945-.562a10.29 10.29 0 0 1-3.703-1.945l2.18-3.914c.828.53 1.727.96 2.695 1.289.985.343 2.047.507 3.188.492 1.187-.016 2.094-.43 2.719-1.242.625-.813.937-1.899.937-3.258v-2.79c-.406 1.173-1.031 1.977-1.875 2.415-.828.437-1.836.656-3.023.656-1.657 0-2.961-.437-3.914-1.312-.938-.875-1.602-2.07-1.993-3.586-.39-1.516-.586-3.235-.586-5.157V20.04c0-2.047.204-3.867.61-5.46.406-1.61 1.101-2.876 2.086-3.798.984-.922 2.336-1.375 4.054-1.36 1.204 0 2.196.306 2.977.915.797.61 1.352 1.484 1.664 2.625V9.844h6.211v30.82c0 1.39-.156 2.672-.469 3.844-.312 1.156-.828 2.156-1.547 3-.718.86-1.671 1.523-2.859 1.992-1.188.484-2.656.742-4.406.773Zm.634-13.57c.562 0 1.023-.164 1.382-.492.36-.344.625-.922.797-1.734.172-.829.258-1.977.258-3.446V19.523c0-1.546-.187-2.78-.562-3.703-.375-.922-1.055-1.383-2.04-1.383-.75 0-1.304.22-1.664.657-.359.437-.593 1.039-.703 1.804-.11.75-.164 1.618-.164 2.602v11.578c0 1.735.164 3.11.492 4.125.329 1 1.063 1.5 2.204 1.5ZM103.042 45V9.844h6.211v4.031c.312-1.203.969-2.242 1.969-3.117 1-.89 2.226-1.336 3.679-1.336 2.032 0 3.555.68 4.571 2.039 1.015 1.344 1.523 3.297 1.523 5.86V45h-6.211V17.695c0-1.015-.234-1.812-.703-2.39-.453-.578-1.078-.867-1.875-.867-.641 0-1.187.18-1.641.539-.437.343-.765.828-.984 1.453-.219.61-.328 1.328-.328 2.156V45h-6.211Zm32.695 0V3.75h6.282V45h-6.282Zm12.586 0V9.844h6.211v4.031c.313-1.203.969-2.242 1.969-3.117 1-.89 2.226-1.336 3.68-1.336 2.031 0 3.554.68 4.57 2.039 1.016 1.344 1.523 3.297 1.523 5.86V45h-6.211V17.695c0-1.015-.234-1.812-.703-2.39-.453-.578-1.078-.867-1.875-.867-.64 0-1.187.18-1.64.539-.438.343-.766.828-.985 1.453-.218.61-.328 1.328-.328 2.156V45h-6.211Zm31.196.445c-2.829 0-4.93-.804-6.305-2.414s-2.063-4.242-2.063-7.898v-2.274h5.836v2.836c0 1.532.188 2.696.563 3.492.375.797.984 1.196 1.828 1.196.812 0 1.414-.274 1.805-.82.39-.547.586-1.493.586-2.836 0-.782-.118-1.54-.352-2.274a7.644 7.644 0 0 0-1.055-2.156c-.468-.719-1.078-1.414-1.828-2.086l-3.164-2.86c-1.453-1.312-2.539-2.726-3.258-4.242-.718-1.53-1.078-3.218-1.078-5.062 0-2.985.695-5.164 2.086-6.54 1.406-1.39 3.484-2.085 6.234-2.085 1.782 0 3.258.336 4.43 1.008 1.172.656 2.047 1.726 2.625 3.21.578 1.485.867 3.477.867 5.977v1.922h-5.554v-2.32c0-1.547-.18-2.719-.539-3.516-.344-.797-.938-1.195-1.782-1.195-.828 0-1.437.234-1.828.703-.39.453-.601 1.258-.633 2.414a6.229 6.229 0 0 0 .235 1.852 7.02 7.02 0 0 0 .797 1.757 9.294 9.294 0 0 0 1.453 1.664l3.328 3.024c1.75 1.578 3.039 3.226 3.867 4.945.844 1.719 1.266 3.578 1.266 5.578 0 2.953-.672 5.196-2.016 6.727-1.344 1.516-3.461 2.273-6.351 2.273Zm12.937 6.235V9.844h6.211v3.164c.453-1.156 1.164-2.031 2.133-2.625.969-.594 1.945-.89 2.929-.89 1.797 0 3.157.484 4.079 1.452.921.953 1.546 2.258 1.875 3.914.328 1.657.492 3.516.492 5.579v12.82c0 2.25-.156 4.297-.469 6.14-.312 1.844-.977 3.313-1.992 4.407-1 1.078-2.531 1.617-4.594 1.617a4.62 4.62 0 0 1-2.601-.774c-.782-.515-1.399-1.109-1.852-1.78v8.812h-6.211Zm8.953-11.297c1.047 0 1.727-.508 2.039-1.524.313-1.03.469-2.5.469-4.406V19.875c0-1.016-.055-1.93-.164-2.742-.094-.828-.313-1.485-.656-1.969-.344-.484-.891-.726-1.641-.726-.578 0-1.078.148-1.5.445-.406.297-.727.836-.961 1.617-.219.781-.328 1.898-.328 3.352V34.71c0 1.797.172 3.195.516 4.195.343.985 1.086 1.477 2.226 1.477ZM215.94 45V9.844h6.211V45h-6.211Zm-.023-38.39V1.218h6.258v5.39h-6.258ZM228.456 45V9.844h6.258v3.914c.406-1.36 1.109-2.422 2.109-3.188 1.016-.765 2.305-1.148 3.867-1.148.032 0 .047.265.047.797.016.531.024 1.14.024 1.828v2.625c-.719 0-1.5.086-2.344.258a8.687 8.687 0 0 0-2.273.797c-.672.343-1.149.804-1.43 1.382V45h-6.258Zm22.078.352c-2.406 0-4.078-.875-5.015-2.625-.922-1.75-1.399-4.07-1.43-6.961v-2.25c0-1.875.265-3.399.797-4.57.547-1.173 1.32-2.126 2.32-2.86 1-.734 2.195-1.375 3.586-1.922a216.492 216.492 0 0 1 4.641-1.758v-3.07c0-1.188-.047-2.133-.141-2.836-.094-.719-.305-1.242-.633-1.57-.328-.328-.836-.492-1.523-.492-.672 0-1.188.171-1.547.515-.344.328-.578.844-.703 1.547-.125.688-.188 1.57-.188 2.648v1.57h-6.14v-1.054c0-1.61.132-3.047.398-4.312.281-1.266.75-2.336 1.406-3.211.657-.891 1.547-1.563 2.672-2.016 1.141-.469 2.57-.703 4.289-.703 1.516 0 2.813.219 3.891.656 1.078.422 1.953 1.063 2.625 1.922.672.844 1.164 1.906 1.476 3.188.313 1.28.469 2.773.469 4.476V45h-6.258v-3.492a5.567 5.567 0 0 1-.961 1.898 5.196 5.196 0 0 1-1.711 1.407c-.671.359-1.445.539-2.32.539Zm2.156-4.782c.782 0 1.407-.28 1.875-.843.469-.563.758-1.133.868-1.711V25.922c-.938.422-1.727.82-2.368 1.195-.64.36-1.156.758-1.546 1.195a3.925 3.925 0 0 0-.844 1.547c-.172.594-.258 1.32-.258 2.18v3.938c0 1.609.164 2.78.492 3.515.344.719.938 1.078 1.781 1.078Zm21.188 4.664c-1.5 0-2.649-.187-3.445-.562a3.15 3.15 0 0 1-1.641-1.828c-.297-.828-.445-1.899-.445-3.211V15.07h-2.86v-4.5h2.86V3.75h6.211v6.82h3.421v4.5h-3.421v23.485c0 .547.086.96.257 1.242.172.281.508.469 1.008.562.516.094 1.274.141 2.274.141v4.734h-4.219Zm8.719-.234V9.844h6.211V45h-6.211Zm-.024-38.39V1.218h6.258v5.39h-6.258Zm20.836 38.812c-1.687 0-3.101-.258-4.242-.774-1.141-.53-2.047-1.289-2.719-2.273-.656-1-1.133-2.21-1.429-3.633-.282-1.437-.422-3.07-.422-4.898V20.695c0-2.203.281-4.148.843-5.836.579-1.703 1.516-3.03 2.813-3.984 1.297-.969 3.016-1.453 5.156-1.453 1.625 0 2.992.273 4.102.82a6.654 6.654 0 0 1 2.695 2.344c.688 1 1.188 2.187 1.5 3.562.313 1.375.469 2.891.469 4.547v13.149c0 1.797-.141 3.406-.422 4.828-.266 1.422-.734 2.64-1.406 3.656-.657 1-1.547 1.766-2.672 2.297-1.125.531-2.547.797-4.266.797Zm0-5.016c.703 0 1.235-.21 1.594-.633.359-.437.601-1.039.726-1.804.125-.766.188-1.649.188-2.649V19.594c0-1.063-.07-1.977-.211-2.742-.141-.766-.391-1.36-.75-1.782-.359-.422-.875-.633-1.547-.633-.703 0-1.242.211-1.617.633-.359.422-.609 1.016-.75 1.782-.125.765-.188 1.68-.188 2.742V35.32c0 1 .063 1.883.188 2.649.141.765.391 1.367.75 1.804.375.422.914.633 1.617.633ZM317.823 45V9.844h6.211v4.031c.313-1.203.969-2.242 1.969-3.117 1-.89 2.226-1.336 3.68-1.336 2.031 0 3.554.68 4.57 2.039 1.016 1.344 1.523 3.297 1.523 5.86V45h-6.211V17.695c0-1.015-.234-1.812-.703-2.39-.453-.578-1.078-.867-1.875-.867-.64 0-1.187.18-1.64.539-.438.343-.766.828-.985 1.453-.218.61-.328 1.328-.328 2.156V45h-6.211Z" mask="url(#b)"/><defs><filter id="a" width="340.523" height="56.461" x="-.747" y="-.781" color-interpolation-filters="sRGB" filterUnits="userSpaceOnUse"><feFlood flood-opacity="0" result="BackgroundImageFix"/><feBlend in="SourceGraphic" in2="BackgroundImageFix" result="shape"/><feColorMatrix in="SourceAlpha" result="hardAlpha" values="0 0 0 0 0 0 0 0 0 0 0 0 0 0 0 0 0 0 127 0"/><feOffset dx="-1" dy="-1"/><feGaussianBlur stdDeviation="1.5"/><feComposite in2="hardAlpha" k2="-1" k3="1" operator="arithmetic"/><feColorMatrix values="0 0 0 0 0.984314 0 0 0 0 0.984314 0 0 0 0 0.984314 0 0 0 1 0"/><feBlend in2="shape" result="effect1_innerShadow_127_2789"/><feColorMatrix in="SourceAlpha" result="hardAlpha" values="0 0 0 0 0 0 0 0 0 0 0 0 0 0 0 0 0 0 127 0"/><feOffset dx="3" dy="3"/><feGaussianBlur stdDeviation="4.5"/><feComposite in2="hardAlpha" k2="-1" k3="1" operator="arithmetic"/><feColorMatrix values="0 0 0 0 0.772549 0 0 0 0 0.772549 0 0 0 0 0.772549 0 0 0 1 0"/><feBlend in2="effect1_innerShadow_127_2789" result="effect2_innerShadow_127_2789"/></filter></defs></svg>