<svg xmlns="http://www.w3.org/2000/svg" width="543" height="52" fill="none"><mask id="b" width="543" height="52" x=".253" y=".219" fill="#000" maskUnits="userSpaceOnUse"><path fill="#fff" d="M.253.219h543v52h-543z"/><path d="M1.253 45V3.75h6.281V45H1.253Zm12.586 0V9.844h6.21v4.031c.313-1.203.97-2.242 1.97-3.117 1-.89 2.226-1.336 3.68-1.336 2.03 0 3.554.68 4.57 2.039 1.015 1.344 1.523 3.297 1.523 5.86V45h-6.21V17.695c0-1.015-.235-1.812-.704-2.39-.453-.578-1.078-.867-1.875-.867-.64 0-1.188.18-1.64.539-.438.343-.766.828-.985 1.453-.219.61-.328 1.328-.328 2.156V45h-6.211Zm30.258.234c-1.5 0-2.649-.187-3.446-.562a3.15 3.15 0 0 1-1.64-1.828c-.297-.828-.446-1.899-.446-3.211V15.07h-2.859v-4.5h2.86V3.75h6.21v6.82h3.422v4.5h-3.422v23.485c0 .547.086.96.258 1.242.172.281.508.469 1.008.562.516.094 1.273.141 2.273.141v4.734h-4.218Zm16.804.188c-1.765 0-3.218-.281-4.359-.844a6.336 6.336 0 0 1-2.648-2.437c-.625-1.063-1.063-2.336-1.313-3.82-.25-1.5-.375-3.173-.375-5.016V20.203c0-1.64.164-3.125.492-4.453.344-1.328.867-2.46 1.57-3.398.72-.938 1.649-1.657 2.79-2.157 1.14-.515 2.515-.773 4.125-.773 1.64 0 3.007.25 4.101.75 1.094.5 1.953 1.226 2.578 2.18.64.953 1.094 2.101 1.36 3.445.28 1.328.422 2.836.422 4.523v7.524h-11.18v6.914c0 1.703.133 3.07.398 4.101.266 1.032.992 1.547 2.18 1.547.797 0 1.36-.242 1.688-.726.343-.485.546-1.149.609-1.992.078-.86.117-1.836.117-2.93v-3.094h6.14v1.875c0 1.89-.117 3.57-.35 5.04-.22 1.468-.641 2.71-1.266 3.726-.61 1.015-1.485 1.789-2.626 2.32-1.14.531-2.624.797-4.453.797Zm-2.46-21.211h5.015v-4.5c0-1.172-.055-2.156-.164-2.953-.11-.813-.328-1.422-.656-1.828-.328-.407-.828-.61-1.5-.61-.828 0-1.438.242-1.828.727-.375.484-.618 1.148-.727 1.992-.094.828-.14 1.773-.14 2.836v4.336ZM74.894 45V9.844h6.257v3.914c.407-1.36 1.11-2.422 2.11-3.188 1.015-.765 2.304-1.148 3.867-1.148.031 0 .047.265.047.797.015.531.023 1.14.023 1.828v2.625c-.718 0-1.5.086-2.343.258a8.695 8.695 0 0 0-2.274.797c-.672.343-1.148.804-1.43 1.382V45h-6.257Zm22.078.352c-2.407 0-4.078-.875-5.016-2.625-.922-1.75-1.398-4.07-1.43-6.961v-2.25c0-1.875.266-3.399.797-4.57.547-1.173 1.32-2.126 2.32-2.86 1-.734 2.196-1.375 3.587-1.922a217.61 217.61 0 0 1 4.64-1.758v-3.07c0-1.188-.047-2.133-.141-2.836-.093-.719-.304-1.242-.632-1.57-.328-.328-.836-.492-1.524-.492-.672 0-1.187.171-1.547.515-.343.328-.578.844-.703 1.547-.125.688-.187 1.57-.187 2.648v1.57h-6.14v-1.054c0-1.61.132-3.047.398-4.312.28-1.266.75-2.336 1.406-3.211.656-.891 1.547-1.563 2.672-2.016 1.14-.469 2.57-.703 4.289-.703 1.515 0 2.812.219 3.89.656 1.078.422 1.953 1.063 2.625 1.922.672.844 1.164 1.906 1.477 3.188.312 1.28.469 2.773.469 4.476V45h-6.258v-3.492a5.603 5.603 0 0 1-.961 1.898 5.201 5.201 0 0 1-1.711 1.407c-.672.359-1.445.539-2.32.539Zm2.156-4.782c.781 0 1.406-.28 1.875-.843.469-.563.758-1.133.867-1.711V25.922c-.937.422-1.726.82-2.367 1.195-.64.36-1.156.758-1.547 1.195-.39.438-.672.954-.844 1.547-.172.594-.257 1.32-.257 2.18v3.938c0 1.609.164 2.78.492 3.515.343.719.937 1.078 1.78 1.078Zm23.344 4.852c-1.797 0-3.282-.274-4.453-.82-1.172-.563-2.094-1.368-2.766-2.414-.656-1.047-1.117-2.32-1.383-3.82s-.398-3.196-.398-5.087v-11.39c0-2.594.242-4.82.726-6.68.485-1.86 1.375-3.29 2.672-4.29 1.313-1 3.203-1.5 5.672-1.5 1.516 0 2.797.235 3.844.704 1.047.469 1.89 1.148 2.531 2.04.641.874 1.102 1.937 1.383 3.187.297 1.25.445 2.656.445 4.218v3.867h-6V19.36c0-1.015-.047-1.882-.141-2.601-.093-.735-.304-1.29-.632-1.664-.328-.39-.852-.586-1.571-.586-.703 0-1.25.195-1.64.586-.391.39-.664.96-.821 1.71-.14.735-.211 1.618-.211 2.65v15.843c0 1.062.063 1.969.188 2.719.141.75.391 1.328.75 1.734.375.39.922.586 1.641.586.703 0 1.226-.203 1.57-.61.359-.421.594-1.007.703-1.757.109-.75.164-1.633.164-2.649v-4.172h6v3.563c0 1.61-.141 3.078-.422 4.406-.281 1.313-.742 2.438-1.383 3.375-.64.938-1.492 1.664-2.554 2.18-1.063.5-2.367.75-3.914.75Zm19.828-.188c-1.5 0-2.649-.187-3.446-.562-.796-.39-1.343-1-1.64-1.828-.297-.828-.445-1.899-.445-3.211V15.07h-2.86v-4.5h2.86V3.75h6.21v6.82h3.422v4.5h-3.422v23.485c0 .547.086.96.258 1.242.172.281.508.469 1.008.562.516.094 1.274.141 2.274.141v4.734H142.3Zm8.719-.234V9.844h6.21V45h-6.21Zm-.024-38.39V1.218h6.258v5.39h-6.258Zm20.836 38.812c-1.687 0-3.102-.258-4.242-.774-1.141-.53-2.047-1.289-2.719-2.273-.656-1-1.133-2.21-1.43-3.633-.281-1.437-.421-3.07-.421-4.898V20.695c0-2.203.281-4.148.843-5.836.578-1.703 1.516-3.03 2.813-3.984 1.297-.969 3.015-1.453 5.156-1.453 1.625 0 2.992.273 4.102.82a6.654 6.654 0 0 1 2.695 2.344c.687 1 1.187 2.187 1.5 3.562.312 1.375.469 2.891.469 4.547v13.149c0 1.797-.141 3.406-.422 4.828-.266 1.422-.735 2.64-1.406 3.656-.657 1-1.547 1.766-2.672 2.297-1.125.531-2.547.797-4.266.797Zm0-5.016c.703 0 1.234-.21 1.594-.633.359-.437.601-1.039.726-1.804.125-.766.188-1.649.188-2.649V19.594c0-1.063-.07-1.977-.211-2.742-.141-.766-.391-1.36-.75-1.782-.359-.422-.875-.633-1.547-.633-.703 0-1.242.211-1.617.633-.36.422-.61 1.016-.75 1.782-.125.765-.188 1.68-.188 2.742V35.32c0 1 .063 1.883.188 2.649.14.765.39 1.367.75 1.804.375.422.914.633 1.617.633ZM186.245 45V9.844h6.211v4.031c.313-1.203.969-2.242 1.969-3.117 1-.89 2.226-1.336 3.679-1.336 2.032 0 3.555.68 4.571 2.039 1.015 1.344 1.523 3.297 1.523 5.86V45h-6.211V17.695c0-1.015-.234-1.812-.703-2.39-.453-.578-1.078-.867-1.875-.867-.64 0-1.187.18-1.64.539-.438.343-.766.828-.985 1.453-.219.61-.328 1.328-.328 2.156V45h-6.211Zm32.555 0V3.75h9.258c2.093 0 3.773.422 5.039 1.266 1.265.828 2.179 2.03 2.742 3.609.578 1.578.867 3.484.867 5.719l.023 18.61c0 2.702-.296 4.952-.89 6.75-.578 1.78-1.516 3.108-2.813 3.983-1.297.876-3.023 1.313-5.179 1.313H218.8Zm6.281-4.875h2.063c.734 0 1.343-.148 1.828-.445.5-.297.867-.82 1.101-1.57.25-.766.375-1.844.375-3.235l-.023-20.367c0-2.11-.258-3.625-.774-4.547-.515-.922-1.422-1.383-2.718-1.383h-1.852v31.547Zm25.523 5.297c-1.765 0-3.218-.281-4.359-.844a6.331 6.331 0 0 1-2.648-2.437c-.625-1.063-1.063-2.336-1.313-3.82-.25-1.5-.375-3.173-.375-5.016V20.203c0-1.64.164-3.125.492-4.453.344-1.328.868-2.46 1.571-3.398.718-.938 1.648-1.657 2.789-2.157 1.14-.515 2.515-.773 4.125-.773 1.64 0 3.008.25 4.101.75 1.094.5 1.953 1.226 2.578 2.18.641.953 1.094 2.101 1.36 3.445.281 1.328.422 2.836.422 4.523v7.524h-11.18v6.914c0 1.703.133 3.07.398 4.101.266 1.032.993 1.547 2.18 1.547.797 0 1.359-.242 1.688-.726.343-.485.546-1.149.609-1.992.078-.86.117-1.836.117-2.93v-3.094h6.141v1.875c0 1.89-.117 3.57-.352 5.04-.219 1.468-.64 2.71-1.265 3.726-.61 1.015-1.485 1.789-2.625 2.32-1.141.531-2.625.797-4.454.797Zm-2.46-21.211h5.015v-4.5c0-1.172-.055-2.156-.164-2.953-.109-.813-.328-1.422-.656-1.828-.328-.407-.828-.61-1.5-.61-.828 0-1.438.242-1.828.727-.375.484-.617 1.148-.727 1.992-.094.828-.14 1.773-.14 2.836v4.336Zm23.718 21.234c-2.828 0-4.929-.804-6.304-2.414s-2.063-4.242-2.063-7.898v-2.274h5.836v2.836c0 1.532.188 2.696.563 3.492.375.797.984 1.196 1.828 1.196.812 0 1.414-.274 1.804-.82.391-.547.586-1.493.586-2.836 0-.782-.117-1.54-.351-2.274a7.671 7.671 0 0 0-1.055-2.156c-.469-.719-1.078-1.414-1.828-2.086l-3.164-2.86c-1.453-1.312-2.539-2.726-3.258-4.242-.719-1.53-1.078-3.218-1.078-5.062 0-2.985.695-5.164 2.086-6.54 1.406-1.39 3.484-2.085 6.234-2.085 1.781 0 3.258.336 4.43 1.008 1.172.656 2.047 1.726 2.625 3.21.578 1.485.867 3.477.867 5.977v1.922h-5.555v-2.32c0-1.547-.179-2.719-.539-3.516-.343-.797-.937-1.195-1.781-1.195-.828 0-1.437.234-1.828.703-.391.453-.602 1.258-.633 2.414a6.229 6.229 0 0 0 .235 1.852c.171.593.437 1.18.796 1.757.375.563.86 1.118 1.454 1.664l3.328 3.024c1.75 1.578 3.039 3.226 3.867 4.945.844 1.719 1.265 3.578 1.265 5.578 0 2.953-.671 5.196-2.015 6.727-1.344 1.516-3.461 2.273-6.352 2.273ZM284.894 45V9.844h6.21V45h-6.21Zm-.024-38.39V1.218h6.258v5.39h-6.258Zm20.438 43.663c-1.938.032-3.586-.156-4.946-.562a10.297 10.297 0 0 1-3.703-1.945l2.18-3.914c.828.53 1.726.96 2.695 1.289.985.343 2.047.507 3.188.492 1.187-.016 2.093-.43 2.718-1.242.625-.813.938-1.899.938-3.258v-2.79c-.406 1.173-1.031 1.977-1.875 2.415-.828.437-1.836.656-3.024.656-1.656 0-2.96-.437-3.914-1.312-.937-.875-1.601-2.07-1.992-3.586-.39-1.516-.586-3.235-.586-5.157V20.04c0-2.047.203-3.867.61-5.46.406-1.61 1.101-2.876 2.086-3.798.984-.922 2.336-1.375 4.054-1.36 1.203 0 2.196.306 2.977.915.797.61 1.351 1.484 1.664 2.625V9.844h6.211v30.82c0 1.39-.156 2.672-.469 3.844-.312 1.156-.828 2.156-1.547 3-.719.86-1.672 1.523-2.859 1.992-1.188.484-2.656.742-4.406.773Zm.632-13.57c.563 0 1.024-.164 1.383-.492.36-.344.625-.922.797-1.734.172-.829.258-1.977.258-3.446V19.523c0-1.546-.188-2.78-.563-3.703-.375-.922-1.054-1.383-2.039-1.383-.75 0-1.304.22-1.664.657-.359.437-.593 1.039-.703 1.804-.109.75-.164 1.618-.164 2.602v11.578c0 1.735.164 3.11.492 4.125.328 1 1.063 1.5 2.203 1.5ZM320.589 45V9.844h6.211v4.031c.312-1.203.969-2.242 1.969-3.117 1-.89 2.226-1.336 3.679-1.336 2.031 0 3.555.68 4.571 2.039 1.015 1.344 1.523 3.297 1.523 5.86V45h-6.211V17.695c0-1.015-.234-1.812-.703-2.39-.453-.578-1.078-.867-1.875-.867-.641 0-1.188.18-1.641.539-.437.343-.765.828-.984 1.453-.219.61-.328 1.328-.328 2.156V45h-6.211Zm32.555 0V3.75h10.382c2.157 0 3.766.422 4.828 1.266 1.063.843 1.758 2.078 2.086 3.703.344 1.625.516 3.61.516 5.953 0 2.422-.25 4.328-.75 5.719-.484 1.375-1.484 2.297-3 2.765.719.125 1.32.422 1.805.89.484.454.875 1.126 1.172 2.017.296.875.507 2.007.632 3.398.141 1.375.211 3.062.211 5.062v3.868l.047 2.906c.016.969.039 1.797.071 2.484.031.688.07 1.094.117 1.219h-6.282c-.046-.078-.085-.477-.117-1.195-.015-.735-.039-1.664-.07-2.79a1976.02 1976.02 0 0 1-.047-3.632V30.21c0-1.234-.094-2.164-.281-2.79-.172-.64-.5-1.085-.985-1.335-.468-.25-1.148-.398-2.039-.445l-2.015-.118V45h-6.281Zm6.304-24.352h2.508c.766 0 1.344-.171 1.734-.515.407-.344.68-.977.821-1.899.156-.922.234-2.25.234-3.984v-.258c0-1.453-.07-2.57-.211-3.351-.14-.782-.437-1.32-.89-1.618-.438-.296-1.125-.445-2.063-.445h-2.133v12.07Zm25.125 24.774c-1.765 0-3.219-.281-4.359-.844a6.34 6.34 0 0 1-2.649-2.437c-.625-1.063-1.062-2.336-1.312-3.82-.25-1.5-.375-3.173-.375-5.016V20.203c0-1.64.164-3.125.492-4.453.344-1.328.867-2.46 1.57-3.398.719-.938 1.649-1.657 2.789-2.157 1.141-.515 2.516-.773 4.125-.773 1.641 0 3.008.25 4.102.75 1.094.5 1.953 1.226 2.578 2.18.641.953 1.094 2.101 1.36 3.445.281 1.328.421 2.836.421 4.523v7.524h-11.179v6.914c0 1.703.133 3.07.398 4.101.266 1.032.992 1.547 2.18 1.547.797 0 1.359-.242 1.687-.726.344-.485.547-1.149.61-1.992.078-.86.117-1.836.117-2.93v-3.094h6.141v1.875c0 1.89-.118 3.57-.352 5.04-.219 1.468-.641 2.71-1.266 3.726-.609 1.015-1.484 1.789-2.625 2.32-1.14.531-2.625.797-4.453.797Zm-2.461-21.211h5.016v-4.5c0-1.172-.055-2.156-.164-2.953-.11-.813-.328-1.422-.656-1.828-.329-.407-.829-.61-1.5-.61-.829 0-1.438.242-1.829.727-.375.484-.617 1.148-.726 1.992a25.394 25.394 0 0 0-.141 2.836v4.336Zm23.719 21.234c-2.828 0-4.93-.804-6.305-2.414s-2.062-4.242-2.062-7.898v-2.274h5.836v2.836c0 1.532.187 2.696.562 3.492.375.797.985 1.196 1.828 1.196.813 0 1.414-.274 1.805-.82.391-.547.586-1.493.586-2.836 0-.782-.117-1.54-.352-2.274a7.64 7.64 0 0 0-1.054-2.156c-.469-.719-1.078-1.414-1.828-2.086l-3.164-2.86c-1.454-1.312-2.539-2.726-3.258-4.242-.719-1.53-1.078-3.218-1.078-5.062 0-2.985.695-5.164 2.086-6.54 1.406-1.39 3.484-2.085 6.234-2.085 1.781 0 3.258.336 4.43 1.008 1.172.656 2.047 1.726 2.625 3.21.578 1.485.867 3.477.867 5.977v1.922h-5.555v-2.32c0-1.547-.18-2.719-.539-3.516-.344-.797-.937-1.195-1.781-1.195-.828 0-1.438.234-1.828.703-.391.453-.602 1.258-.633 2.414a6.196 6.196 0 0 0 .234 1.852c.172.593.438 1.18.797 1.757a9.29 9.29 0 0 0 1.453 1.664l3.328 3.024c1.75 1.578 3.039 3.226 3.868 4.945.843 1.719 1.265 3.578 1.265 5.578 0 2.953-.672 5.196-2.015 6.727-1.344 1.516-3.461 2.273-6.352 2.273Zm21.234-.023c-1.687 0-3.101-.258-4.242-.774-1.14-.53-2.047-1.289-2.719-2.273-.656-1-1.132-2.21-1.429-3.633-.281-1.437-.422-3.07-.422-4.898V20.695c0-2.203.281-4.148.844-5.836.578-1.703 1.515-3.03 2.812-3.984 1.297-.969 3.016-1.453 5.156-1.453 1.625 0 2.993.273 4.102.82a6.654 6.654 0 0 1 2.695 2.344c.688 1 1.188 2.187 1.5 3.562.313 1.375.469 2.891.469 4.547v13.149c0 1.797-.141 3.406-.422 4.828-.265 1.422-.734 2.64-1.406 3.656-.656 1-1.547 1.766-2.672 2.297-1.125.531-2.547.797-4.266.797Zm0-5.016c.704 0 1.235-.21 1.594-.633.36-.437.602-1.039.727-1.804.125-.766.187-1.649.187-2.649V19.594c0-1.063-.07-1.977-.211-2.742-.14-.766-.39-1.36-.75-1.782-.359-.422-.875-.633-1.547-.633-.703 0-1.242.211-1.617.633-.359.422-.609 1.016-.75 1.782-.125.765-.187 1.68-.187 2.742V35.32c0 1 .062 1.883.187 2.649.141.765.391 1.367.75 1.804.375.422.914.633 1.617.633Zm20.461 5.039c-1.39 0-2.554-.312-3.492-.937-.922-.625-1.617-1.555-2.086-2.79-.453-1.25-.679-2.812-.679-4.687V9.844h6.234V36.07c0 1.344.164 2.39.492 3.14.328.75 1.016 1.126 2.063 1.126 1.093 0 1.836-.422 2.226-1.266.406-.86.61-1.843.61-2.953l.023-26.273h6.187V45h-6.21v-3.656c-.438 1.187-1.071 2.172-1.899 2.953-.828.766-1.984 1.148-3.469 1.148ZM465.175 45V9.844h6.258v3.914c.406-1.36 1.109-2.422 2.109-3.188 1.016-.765 2.305-1.148 3.867-1.148.031 0 .047.265.047.797.016.531.023 1.14.023 1.828v2.625c-.718 0-1.5.086-2.343.258a8.707 8.707 0 0 0-2.274.797c-.672.343-1.148.804-1.429 1.382V45h-6.258Zm24.844.422c-1.797 0-3.282-.274-4.454-.82-1.171-.563-2.093-1.368-2.765-2.414-.656-1.047-1.117-2.32-1.383-3.82s-.398-3.196-.398-5.087v-11.39c0-2.594.242-4.82.726-6.68.484-1.86 1.375-3.29 2.672-4.29 1.312-1 3.203-1.5 5.672-1.5 1.515 0 2.797.235 3.844.704 1.046.469 1.89 1.148 2.531 2.04.64.874 1.101 1.937 1.383 3.187.297 1.25.445 2.656.445 4.218v3.867h-6V19.36c0-1.015-.047-1.882-.141-2.601-.093-.735-.304-1.29-.632-1.664-.329-.39-.852-.586-1.571-.586-.703 0-1.25.195-1.64.586-.391.39-.664.96-.821 1.71-.14.735-.211 1.618-.211 2.65v15.843c0 1.062.063 1.969.188 2.719.14.75.39 1.328.75 1.734.375.39.922.586 1.64.586.704 0 1.227-.203 1.571-.61.359-.421.594-1.007.703-1.757.109-.75.164-1.633.164-2.649v-4.172h6v3.563c0 1.61-.141 3.078-.422 4.406-.281 1.313-.742 2.438-1.383 3.375-.64.938-1.492 1.664-2.554 2.18-1.063.5-2.368.75-3.914.75Zm21.679 0c-1.765 0-3.219-.281-4.359-.844a6.34 6.34 0 0 1-2.649-2.437c-.625-1.063-1.062-2.336-1.312-3.82-.25-1.5-.375-3.173-.375-5.016V20.203c0-1.64.164-3.125.492-4.453.344-1.328.867-2.46 1.57-3.398.719-.938 1.649-1.657 2.789-2.157 1.141-.515 2.516-.773 4.125-.773 1.641 0 3.008.25 4.102.75 1.094.5 1.953 1.226 2.578 2.18.641.953 1.094 2.101 1.36 3.445.281 1.328.421 2.836.421 4.523v7.524h-11.179v6.914c0 1.703.133 3.07.398 4.101.266 1.032.992 1.547 2.18 1.547.797 0 1.359-.242 1.687-.726.344-.485.547-1.149.61-1.992.078-.86.117-1.836.117-2.93v-3.094h6.141v1.875c0 1.89-.118 3.57-.352 5.04-.219 1.468-.641 2.71-1.266 3.726-.609 1.015-1.484 1.789-2.625 2.32-1.14.531-2.625.797-4.453.797Zm-2.461-21.211h5.016v-4.5c0-1.172-.055-2.156-.164-2.953-.11-.813-.328-1.422-.656-1.828-.329-.407-.829-.61-1.5-.61-.829 0-1.438.242-1.829.727-.375.484-.617 1.148-.726 1.992a25.394 25.394 0 0 0-.141 2.836v4.336Zm23.719 21.234c-2.828 0-4.93-.804-6.305-2.414s-2.062-4.242-2.062-7.898v-2.274h5.836v2.836c0 1.532.187 2.696.562 3.492.375.797.985 1.196 1.828 1.196.813 0 1.414-.274 1.805-.82.391-.547.586-1.493.586-2.836 0-.782-.117-1.54-.352-2.274a7.64 7.64 0 0 0-1.054-2.156c-.469-.719-1.078-1.414-1.828-2.086l-3.164-2.86c-1.454-1.312-2.539-2.726-3.258-4.242-.719-1.53-1.078-3.218-1.078-5.062 0-2.985.695-5.164 2.086-6.54 1.406-1.39 3.484-2.085 6.234-2.085 1.781 0 3.258.336 4.43 1.008 1.172.656 2.047 1.726 2.625 3.21.578 1.485.867 3.477.867 5.977v1.922h-5.555v-2.32c0-1.547-.18-2.719-.539-3.516-.344-.797-.937-1.195-1.781-1.195-.828 0-1.438.234-1.828.703-.391.453-.602 1.258-.633 2.414a6.196 6.196 0 0 0 .234 1.852c.172.593.438 1.18.797 1.757a9.29 9.29 0 0 0 1.453 1.664l3.328 3.024c1.75 1.578 3.039 3.226 3.868 4.945.843 1.719 1.265 3.578 1.265 5.578 0 2.953-.672 5.196-2.015 6.727-1.344 1.516-3.461 2.273-6.352 2.273Z"/></mask><g fill="#D1DADB" filter="url(#a)"><path d="M1.253 45V3.75h6.281V45H1.253Zm12.586 0V9.844h6.21v4.031c.313-1.203.97-2.242 1.97-3.117 1-.89 2.226-1.336 3.68-1.336 2.03 0 3.554.68 4.57 2.039 1.015 1.344 1.523 3.297 1.523 5.86V45h-6.21V17.695c0-1.015-.235-1.812-.704-2.39-.453-.578-1.078-.867-1.875-.867-.64 0-1.188.18-1.64.539-.438.343-.766.828-.985 1.453-.219.61-.328 1.328-.328 2.156V45h-6.211Zm30.258.234c-1.5 0-2.649-.187-3.446-.562a3.15 3.15 0 0 1-1.64-1.828c-.297-.828-.446-1.899-.446-3.211V15.07h-2.859v-4.5h2.86V3.75h6.21v6.82h3.422v4.5h-3.422v23.485c0 .547.086.96.258 1.242.172.281.508.469 1.008.562.516.094 1.273.141 2.273.141v4.734h-4.218Zm16.804.188c-1.765 0-3.218-.281-4.359-.844a6.336 6.336 0 0 1-2.648-2.437c-.625-1.063-1.063-2.336-1.313-3.82-.25-1.5-.375-3.173-.375-5.016V20.203c0-1.64.164-3.125.492-4.453.344-1.328.867-2.46 1.57-3.398.72-.938 1.649-1.657 2.79-2.157 1.14-.515 2.515-.773 4.125-.773 1.64 0 3.007.25 4.101.75 1.094.5 1.953 1.226 2.578 2.18.64.953 1.094 2.101 1.36 3.445.28 1.328.422 2.836.422 4.523v7.524h-11.18v6.914c0 1.703.133 3.07.398 4.101.266 1.032.992 1.547 2.18 1.547.797 0 1.36-.242 1.688-.726.343-.485.546-1.149.609-1.992.078-.86.117-1.836.117-2.93v-3.094h6.14v1.875c0 1.89-.117 3.57-.35 5.04-.22 1.468-.641 2.71-1.266 3.726-.61 1.015-1.485 1.789-2.626 2.32-1.14.531-2.624.797-4.453.797Zm-2.46-21.211h5.015v-4.5c0-1.172-.055-2.156-.164-2.953-.11-.813-.328-1.422-.656-1.828-.328-.407-.828-.61-1.5-.61-.828 0-1.438.242-1.828.727-.375.484-.618 1.148-.727 1.992-.094.828-.14 1.773-.14 2.836v4.336ZM74.894 45V9.844h6.257v3.914c.407-1.36 1.11-2.422 2.11-3.188 1.015-.765 2.304-1.148 3.867-1.148.031 0 .047.265.047.797.015.531.023 1.14.023 1.828v2.625c-.718 0-1.5.086-2.343.258a8.695 8.695 0 0 0-2.274.797c-.672.343-1.148.804-1.43 1.382V45h-6.257Zm22.078.352c-2.407 0-4.078-.875-5.016-2.625-.922-1.75-1.398-4.07-1.43-6.961v-2.25c0-1.875.266-3.399.797-4.57.547-1.173 1.32-2.126 2.32-2.86 1-.734 2.196-1.375 3.587-1.922a217.61 217.61 0 0 1 4.64-1.758v-3.07c0-1.188-.047-2.133-.141-2.836-.093-.719-.304-1.242-.632-1.57-.328-.328-.836-.492-1.524-.492-.672 0-1.187.171-1.547.515-.343.328-.578.844-.703 1.547-.125.688-.187 1.57-.187 2.648v1.57h-6.14v-1.054c0-1.61.132-3.047.398-4.312.28-1.266.75-2.336 1.406-3.211.656-.891 1.547-1.563 2.672-2.016 1.14-.469 2.57-.703 4.289-.703 1.515 0 2.812.219 3.89.656 1.078.422 1.953 1.063 2.625 1.922.672.844 1.164 1.906 1.477 3.188.312 1.28.469 2.773.469 4.476V45h-6.258v-3.492a5.603 5.603 0 0 1-.961 1.898 5.201 5.201 0 0 1-1.711 1.407c-.672.359-1.445.539-2.32.539Zm2.156-4.782c.781 0 1.406-.28 1.875-.843.469-.563.758-1.133.867-1.711V25.922c-.937.422-1.726.82-2.367 1.195-.64.36-1.156.758-1.547 1.195-.39.438-.672.954-.844 1.547-.172.594-.257 1.32-.257 2.18v3.938c0 1.609.164 2.78.492 3.515.343.719.937 1.078 1.78 1.078Zm23.344 4.852c-1.797 0-3.282-.274-4.453-.82-1.172-.563-2.094-1.368-2.766-2.414-.656-1.047-1.117-2.32-1.383-3.82s-.398-3.196-.398-5.087v-11.39c0-2.594.242-4.82.726-6.68.485-1.86 1.375-3.29 2.672-4.29 1.313-1 3.203-1.5 5.672-1.5 1.516 0 2.797.235 3.844.704 1.047.469 1.89 1.148 2.531 2.04.641.874 1.102 1.937 1.383 3.187.297 1.25.445 2.656.445 4.218v3.867h-6V19.36c0-1.015-.047-1.882-.141-2.601-.093-.735-.304-1.29-.632-1.664-.328-.39-.852-.586-1.571-.586-.703 0-1.25.195-1.64.586-.391.39-.664.96-.821 1.71-.14.735-.211 1.618-.211 2.65v15.843c0 1.062.063 1.969.188 2.719.141.75.391 1.328.75 1.734.375.39.922.586 1.641.586.703 0 1.226-.203 1.57-.61.359-.421.594-1.007.703-1.757.109-.75.164-1.633.164-2.649v-4.172h6v3.563c0 1.61-.141 3.078-.422 4.406-.281 1.313-.742 2.438-1.383 3.375-.64.938-1.492 1.664-2.554 2.18-1.063.5-2.367.75-3.914.75Zm19.828-.188c-1.5 0-2.649-.187-3.446-.562-.796-.39-1.343-1-1.64-1.828-.297-.828-.445-1.899-.445-3.211V15.07h-2.86v-4.5h2.86V3.75h6.21v6.82h3.422v4.5h-3.422v23.485c0 .547.086.96.258 1.242.172.281.508.469 1.008.562.516.094 1.274.141 2.274.141v4.734H142.3Zm8.719-.234V9.844h6.21V45h-6.21Zm-.024-38.39V1.218h6.258v5.39h-6.258Zm20.836 38.812c-1.687 0-3.102-.258-4.242-.774-1.141-.53-2.047-1.289-2.719-2.273-.656-1-1.133-2.21-1.43-3.633-.281-1.437-.421-3.07-.421-4.898V20.695c0-2.203.281-4.148.843-5.836.578-1.703 1.516-3.03 2.813-3.984 1.297-.969 3.015-1.453 5.156-1.453 1.625 0 2.992.273 4.102.82a6.654 6.654 0 0 1 2.695 2.344c.687 1 1.187 2.187 1.5 3.562.312 1.375.469 2.891.469 4.547v13.149c0 1.797-.141 3.406-.422 4.828-.266 1.422-.735 2.64-1.406 3.656-.657 1-1.547 1.766-2.672 2.297-1.125.531-2.547.797-4.266.797Zm0-5.016c.703 0 1.234-.21 1.594-.633.359-.437.601-1.039.726-1.804.125-.766.188-1.649.188-2.649V19.594c0-1.063-.07-1.977-.211-2.742-.141-.766-.391-1.36-.75-1.782-.359-.422-.875-.633-1.547-.633-.703 0-1.242.211-1.617.633-.36.422-.61 1.016-.75 1.782-.125.765-.188 1.68-.188 2.742V35.32c0 1 .063 1.883.188 2.649.14.765.39 1.367.75 1.804.375.422.914.633 1.617.633ZM186.245 45V9.844h6.211v4.031c.313-1.203.969-2.242 1.969-3.117 1-.89 2.226-1.336 3.679-1.336 2.032 0 3.555.68 4.571 2.039 1.015 1.344 1.523 3.297 1.523 5.86V45h-6.211V17.695c0-1.015-.234-1.812-.703-2.39-.453-.578-1.078-.867-1.875-.867-.64 0-1.187.18-1.64.539-.438.343-.766.828-.985 1.453-.219.61-.328 1.328-.328 2.156V45h-6.211Zm32.555 0V3.75h9.258c2.093 0 3.773.422 5.039 1.266 1.265.828 2.179 2.03 2.742 3.609.578 1.578.867 3.484.867 5.719l.023 18.61c0 2.702-.296 4.952-.89 6.75-.578 1.78-1.516 3.108-2.813 3.983-1.297.876-3.023 1.313-5.179 1.313H218.8Zm6.281-4.875h2.063c.734 0 1.343-.148 1.828-.445.5-.297.867-.82 1.101-1.57.25-.766.375-1.844.375-3.235l-.023-20.367c0-2.11-.258-3.625-.774-4.547-.515-.922-1.422-1.383-2.718-1.383h-1.852v31.547Zm25.523 5.297c-1.765 0-3.218-.281-4.359-.844a6.331 6.331 0 0 1-2.648-2.437c-.625-1.063-1.063-2.336-1.313-3.82-.25-1.5-.375-3.173-.375-5.016V20.203c0-1.64.164-3.125.492-4.453.344-1.328.868-2.46 1.571-3.398.718-.938 1.648-1.657 2.789-2.157 1.14-.515 2.515-.773 4.125-.773 1.64 0 3.008.25 4.101.75 1.094.5 1.953 1.226 2.578 2.18.641.953 1.094 2.101 1.36 3.445.281 1.328.422 2.836.422 4.523v7.524h-11.18v6.914c0 1.703.133 3.07.398 4.101.266 1.032.993 1.547 2.18 1.547.797 0 1.359-.242 1.688-.726.343-.485.546-1.149.609-1.992.078-.86.117-1.836.117-2.93v-3.094h6.141v1.875c0 1.89-.117 3.57-.352 5.04-.219 1.468-.64 2.71-1.265 3.726-.61 1.015-1.485 1.789-2.625 2.32-1.141.531-2.625.797-4.454.797Zm-2.46-21.211h5.015v-4.5c0-1.172-.055-2.156-.164-2.953-.109-.813-.328-1.422-.656-1.828-.328-.407-.828-.61-1.5-.61-.828 0-1.438.242-1.828.727-.375.484-.617 1.148-.727 1.992-.094.828-.14 1.773-.14 2.836v4.336Zm23.718 21.234c-2.828 0-4.929-.804-6.304-2.414s-2.063-4.242-2.063-7.898v-2.274h5.836v2.836c0 1.532.188 2.696.563 3.492.375.797.984 1.196 1.828 1.196.812 0 1.414-.274 1.804-.82.391-.547.586-1.493.586-2.836 0-.782-.117-1.54-.351-2.274a7.671 7.671 0 0 0-1.055-2.156c-.469-.719-1.078-1.414-1.828-2.086l-3.164-2.86c-1.453-1.312-2.539-2.726-3.258-4.242-.719-1.53-1.078-3.218-1.078-5.062 0-2.985.695-5.164 2.086-6.54 1.406-1.39 3.484-2.085 6.234-2.085 1.781 0 3.258.336 4.43 1.008 1.172.656 2.047 1.726 2.625 3.21.578 1.485.867 3.477.867 5.977v1.922h-5.555v-2.32c0-1.547-.179-2.719-.539-3.516-.343-.797-.937-1.195-1.781-1.195-.828 0-1.437.234-1.828.703-.391.453-.602 1.258-.633 2.414a6.229 6.229 0 0 0 .235 1.852c.171.593.437 1.18.796 1.757.375.563.86 1.118 1.454 1.664l3.328 3.024c1.75 1.578 3.039 3.226 3.867 4.945.844 1.719 1.265 3.578 1.265 5.578 0 2.953-.671 5.196-2.015 6.727-1.344 1.516-3.461 2.273-6.352 2.273ZM284.894 45V9.844h6.21V45h-6.21Zm-.024-38.39V1.218h6.258v5.39h-6.258Zm20.438 43.663c-1.938.032-3.586-.156-4.946-.562a10.297 10.297 0 0 1-3.703-1.945l2.18-3.914c.828.53 1.726.96 2.695 1.289.985.343 2.047.507 3.188.492 1.187-.016 2.093-.43 2.718-1.242.625-.813.938-1.899.938-3.258v-2.79c-.406 1.173-1.031 1.977-1.875 2.415-.828.437-1.836.656-3.024.656-1.656 0-2.96-.437-3.914-1.312-.937-.875-1.601-2.07-1.992-3.586-.39-1.516-.586-3.235-.586-5.157V20.04c0-2.047.203-3.867.61-5.46.406-1.61 1.101-2.876 2.086-3.798.984-.922 2.336-1.375 4.054-1.36 1.203 0 2.196.306 2.977.915.797.61 1.351 1.484 1.664 2.625V9.844h6.211v30.82c0 1.39-.156 2.672-.469 3.844-.312 1.156-.828 2.156-1.547 3-.719.86-1.672 1.523-2.859 1.992-1.188.484-2.656.742-4.406.773Zm.632-13.57c.563 0 1.024-.164 1.383-.492.36-.344.625-.922.797-1.734.172-.829.258-1.977.258-3.446V19.523c0-1.546-.188-2.78-.563-3.703-.375-.922-1.054-1.383-2.039-1.383-.75 0-1.304.22-1.664.657-.359.437-.593 1.039-.703 1.804-.109.75-.164 1.618-.164 2.602v11.578c0 1.735.164 3.11.492 4.125.328 1 1.063 1.5 2.203 1.5ZM320.589 45V9.844h6.211v4.031c.312-1.203.969-2.242 1.969-3.117 1-.89 2.226-1.336 3.679-1.336 2.031 0 3.555.68 4.571 2.039 1.015 1.344 1.523 3.297 1.523 5.86V45h-6.211V17.695c0-1.015-.234-1.812-.703-2.39-.453-.578-1.078-.867-1.875-.867-.641 0-1.188.18-1.641.539-.437.343-.765.828-.984 1.453-.219.61-.328 1.328-.328 2.156V45h-6.211Zm32.555 0V3.75h10.382c2.157 0 3.766.422 4.828 1.266 1.063.843 1.758 2.078 2.086 3.703.344 1.625.516 3.61.516 5.953 0 2.422-.25 4.328-.75 5.719-.484 1.375-1.484 2.297-3 2.765.719.125 1.32.422 1.805.89.484.454.875 1.126 1.172 2.017.296.875.507 2.007.632 3.398.141 1.375.211 3.062.211 5.062v3.868l.047 2.906c.016.969.039 1.797.071 2.484.031.688.07 1.094.117 1.219h-6.282c-.046-.078-.085-.477-.117-1.195-.015-.735-.039-1.664-.07-2.79a1976.02 1976.02 0 0 1-.047-3.632V30.21c0-1.234-.094-2.164-.281-2.79-.172-.64-.5-1.085-.985-1.335-.468-.25-1.148-.398-2.039-.445l-2.015-.118V45h-6.281Zm6.304-24.352h2.508c.766 0 1.344-.171 1.734-.515.407-.344.68-.977.821-1.899.156-.922.234-2.25.234-3.984v-.258c0-1.453-.07-2.57-.211-3.351-.14-.782-.437-1.32-.89-1.618-.438-.296-1.125-.445-2.063-.445h-2.133v12.07Zm25.125 24.774c-1.765 0-3.219-.281-4.359-.844a6.34 6.34 0 0 1-2.649-2.437c-.625-1.063-1.062-2.336-1.312-3.82-.25-1.5-.375-3.173-.375-5.016V20.203c0-1.64.164-3.125.492-4.453.344-1.328.867-2.46 1.57-3.398.719-.938 1.649-1.657 2.789-2.157 1.141-.515 2.516-.773 4.125-.773 1.641 0 3.008.25 4.102.75 1.094.5 1.953 1.226 2.578 2.18.641.953 1.094 2.101 1.36 3.445.281 1.328.421 2.836.421 4.523v7.524h-11.179v6.914c0 1.703.133 3.07.398 4.101.266 1.032.992 1.547 2.18 1.547.797 0 1.359-.242 1.687-.726.344-.485.547-1.149.61-1.992.078-.86.117-1.836.117-2.93v-3.094h6.141v1.875c0 1.89-.118 3.57-.352 5.04-.219 1.468-.641 2.71-1.266 3.726-.609 1.015-1.484 1.789-2.625 2.32-1.14.531-2.625.797-4.453.797Zm-2.461-21.211h5.016v-4.5c0-1.172-.055-2.156-.164-2.953-.11-.813-.328-1.422-.656-1.828-.329-.407-.829-.61-1.5-.61-.829 0-1.438.242-1.829.727-.375.484-.617 1.148-.726 1.992a25.394 25.394 0 0 0-.141 2.836v4.336Zm23.719 21.234c-2.828 0-4.93-.804-6.305-2.414s-2.062-4.242-2.062-7.898v-2.274h5.836v2.836c0 1.532.187 2.696.562 3.492.375.797.985 1.196 1.828 1.196.813 0 1.414-.274 1.805-.82.391-.547.586-1.493.586-2.836 0-.782-.117-1.54-.352-2.274a7.64 7.64 0 0 0-1.054-2.156c-.469-.719-1.078-1.414-1.828-2.086l-3.164-2.86c-1.454-1.312-2.539-2.726-3.258-4.242-.719-1.53-1.078-3.218-1.078-5.062 0-2.985.695-5.164 2.086-6.54 1.406-1.39 3.484-2.085 6.234-2.085 1.781 0 3.258.336 4.43 1.008 1.172.656 2.047 1.726 2.625 3.21.578 1.485.867 3.477.867 5.977v1.922h-5.555v-2.32c0-1.547-.18-2.719-.539-3.516-.344-.797-.937-1.195-1.781-1.195-.828 0-1.438.234-1.828.703-.391.453-.602 1.258-.633 2.414a6.196 6.196 0 0 0 .234 1.852c.172.593.438 1.18.797 1.757a9.29 9.29 0 0 0 1.453 1.664l3.328 3.024c1.75 1.578 3.039 3.226 3.868 4.945.843 1.719 1.265 3.578 1.265 5.578 0 2.953-.672 5.196-2.015 6.727-1.344 1.516-3.461 2.273-6.352 2.273Zm21.234-.023c-1.687 0-3.101-.258-4.242-.774-1.14-.53-2.047-1.289-2.719-2.273-.656-1-1.132-2.21-1.429-3.633-.281-1.437-.422-3.07-.422-4.898V20.695c0-2.203.281-4.148.844-5.836.578-1.703 1.515-3.03 2.812-3.984 1.297-.969 3.016-1.453 5.156-1.453 1.625 0 2.993.273 4.102.82a6.654 6.654 0 0 1 2.695 2.344c.688 1 1.188 2.187 1.5 3.562.313 1.375.469 2.891.469 4.547v13.149c0 1.797-.141 3.406-.422 4.828-.265 1.422-.734 2.64-1.406 3.656-.656 1-1.547 1.766-2.672 2.297-1.125.531-2.547.797-4.266.797Zm0-5.016c.704 0 1.235-.21 1.594-.633.36-.437.602-1.039.727-1.804.125-.766.187-1.649.187-2.649V19.594c0-1.063-.07-1.977-.211-2.742-.14-.766-.39-1.36-.75-1.782-.359-.422-.875-.633-1.547-.633-.703 0-1.242.211-1.617.633-.359.422-.609 1.016-.75 1.782-.125.765-.187 1.68-.187 2.742V35.32c0 1 .062 1.883.187 2.649.141.765.391 1.367.75 1.804.375.422.914.633 1.617.633Zm20.461 5.039c-1.39 0-2.554-.312-3.492-.937-.922-.625-1.617-1.555-2.086-2.79-.453-1.25-.679-2.812-.679-4.687V9.844h6.234V36.07c0 1.344.164 2.39.492 3.14.328.75 1.016 1.126 2.063 1.126 1.093 0 1.836-.422 2.226-1.266.406-.86.61-1.843.61-2.953l.023-26.273h6.187V45h-6.21v-3.656c-.438 1.187-1.071 2.172-1.899 2.953-.828.766-1.984 1.148-3.469 1.148ZM465.175 45V9.844h6.258v3.914c.406-1.36 1.109-2.422 2.109-3.188 1.016-.765 2.305-1.148 3.867-1.148.031 0 .047.265.047.797.016.531.023 1.14.023 1.828v2.625c-.718 0-1.5.086-2.343.258a8.707 8.707 0 0 0-2.274.797c-.672.343-1.148.804-1.429 1.382V45h-6.258Zm24.844.422c-1.797 0-3.282-.274-4.454-.82-1.171-.563-2.093-1.368-2.765-2.414-.656-1.047-1.117-2.32-1.383-3.82s-.398-3.196-.398-5.087v-11.39c0-2.594.242-4.82.726-6.68.484-1.86 1.375-3.29 2.672-4.29 1.312-1 3.203-1.5 5.672-1.5 1.515 0 2.797.235 3.844.704 1.046.469 1.89 1.148 2.531 2.04.64.874 1.101 1.937 1.383 3.187.297 1.25.445 2.656.445 4.218v3.867h-6V19.36c0-1.015-.047-1.882-.141-2.601-.093-.735-.304-1.29-.632-1.664-.329-.39-.852-.586-1.571-.586-.703 0-1.25.195-1.64.586-.391.39-.664.96-.821 1.71-.14.735-.211 1.618-.211 2.65v15.843c0 1.062.063 1.969.188 2.719.14.75.39 1.328.75 1.734.375.39.922.586 1.64.586.704 0 1.227-.203 1.571-.61.359-.421.594-1.007.703-1.757.109-.75.164-1.633.164-2.649v-4.172h6v3.563c0 1.61-.141 3.078-.422 4.406-.281 1.313-.742 2.438-1.383 3.375-.64.938-1.492 1.664-2.554 2.18-1.063.5-2.368.75-3.914.75Zm21.679 0c-1.765 0-3.219-.281-4.359-.844a6.34 6.34 0 0 1-2.649-2.437c-.625-1.063-1.062-2.336-1.312-3.82-.25-1.5-.375-3.173-.375-5.016V20.203c0-1.64.164-3.125.492-4.453.344-1.328.867-2.46 1.57-3.398.719-.938 1.649-1.657 2.789-2.157 1.141-.515 2.516-.773 4.125-.773 1.641 0 3.008.25 4.102.75 1.094.5 1.953 1.226 2.578 2.18.641.953 1.094 2.101 1.36 3.445.281 1.328.421 2.836.421 4.523v7.524h-11.179v6.914c0 1.703.133 3.07.398 4.101.266 1.032.992 1.547 2.18 1.547.797 0 1.359-.242 1.687-.726.344-.485.547-1.149.61-1.992.078-.86.117-1.836.117-2.93v-3.094h6.141v1.875c0 1.89-.118 3.57-.352 5.04-.219 1.468-.641 2.71-1.266 3.726-.609 1.015-1.484 1.789-2.625 2.32-1.14.531-2.625.797-4.453.797Zm-2.461-21.211h5.016v-4.5c0-1.172-.055-2.156-.164-2.953-.11-.813-.328-1.422-.656-1.828-.329-.407-.829-.61-1.5-.61-.829 0-1.438.242-1.829.727-.375.484-.617 1.148-.726 1.992a25.394 25.394 0 0 0-.141 2.836v4.336Zm23.719 21.234c-2.828 0-4.93-.804-6.305-2.414s-2.062-4.242-2.062-7.898v-2.274h5.836v2.836c0 1.532.187 2.696.562 3.492.375.797.985 1.196 1.828 1.196.813 0 1.414-.274 1.805-.82.391-.547.586-1.493.586-2.836 0-.782-.117-1.54-.352-2.274a7.64 7.64 0 0 0-1.054-2.156c-.469-.719-1.078-1.414-1.828-2.086l-3.164-2.86c-1.454-1.312-2.539-2.726-3.258-4.242-.719-1.53-1.078-3.218-1.078-5.062 0-2.985.695-5.164 2.086-6.54 1.406-1.39 3.484-2.085 6.234-2.085 1.781 0 3.258.336 4.43 1.008 1.172.656 2.047 1.726 2.625 3.21.578 1.485.867 3.477.867 5.977v1.922h-5.555v-2.32c0-1.547-.18-2.719-.539-3.516-.344-.797-.937-1.195-1.781-1.195-.828 0-1.438.234-1.828.703-.391.453-.602 1.258-.633 2.414a6.196 6.196 0 0 0 .234 1.852c.172.593.438 1.18.797 1.757a9.29 9.29 0 0 0 1.453 1.664l3.328 3.024c1.75 1.578 3.039 3.226 3.868 4.945.843 1.719 1.265 3.578 1.265 5.578 0 2.953-.672 5.196-2.015 6.727-1.344 1.516-3.461 2.273-6.352 2.273Z"/></g><path stroke="#D9E6E7" stroke-width="2" d="M1.253 45V3.75h6.281V45H1.253Zm12.586 0V9.844h6.21v4.031c.313-1.203.97-2.242 1.97-3.117 1-.89 2.226-1.336 3.68-1.336 2.03 0 3.554.68 4.57 2.039 1.015 1.344 1.523 3.297 1.523 5.86V45h-6.21V17.695c0-1.015-.235-1.812-.704-2.39-.453-.578-1.078-.867-1.875-.867-.64 0-1.188.18-1.64.539-.438.343-.766.828-.985 1.453-.219.61-.328 1.328-.328 2.156V45h-6.211Zm30.258.234c-1.5 0-2.649-.187-3.446-.562a3.15 3.15 0 0 1-1.64-1.828c-.297-.828-.446-1.899-.446-3.211V15.07h-2.859v-4.5h2.86V3.75h6.21v6.82h3.422v4.5h-3.422v23.485c0 .547.086.96.258 1.242.172.281.508.469 1.008.562.516.094 1.273.141 2.273.141v4.734h-4.218Zm16.804.188c-1.765 0-3.218-.281-4.359-.844a6.336 6.336 0 0 1-2.648-2.437c-.625-1.063-1.063-2.336-1.313-3.82-.25-1.5-.375-3.173-.375-5.016V20.203c0-1.64.164-3.125.492-4.453.344-1.328.867-2.46 1.57-3.398.72-.938 1.649-1.657 2.79-2.157 1.14-.515 2.515-.773 4.125-.773 1.64 0 3.007.25 4.101.75 1.094.5 1.953 1.226 2.578 2.18.64.953 1.094 2.101 1.36 3.445.28 1.328.422 2.836.422 4.523v7.524h-11.18v6.914c0 1.703.133 3.07.398 4.101.266 1.032.992 1.547 2.18 1.547.797 0 1.36-.242 1.688-.726.343-.485.546-1.149.609-1.992.078-.86.117-1.836.117-2.93v-3.094h6.14v1.875c0 1.89-.117 3.57-.35 5.04-.22 1.468-.641 2.71-1.266 3.726-.61 1.015-1.485 1.789-2.626 2.32-1.14.531-2.624.797-4.453.797Zm-2.46-21.211h5.015v-4.5c0-1.172-.055-2.156-.164-2.953-.11-.813-.328-1.422-.656-1.828-.328-.407-.828-.61-1.5-.61-.828 0-1.438.242-1.828.727-.375.484-.618 1.148-.727 1.992-.094.828-.14 1.773-.14 2.836v4.336ZM74.894 45V9.844h6.257v3.914c.407-1.36 1.11-2.422 2.11-3.188 1.015-.765 2.304-1.148 3.867-1.148.031 0 .047.265.047.797.015.531.023 1.14.023 1.828v2.625c-.718 0-1.5.086-2.343.258a8.695 8.695 0 0 0-2.274.797c-.672.343-1.148.804-1.43 1.382V45h-6.257Zm22.078.352c-2.407 0-4.078-.875-5.016-2.625-.922-1.75-1.398-4.07-1.43-6.961v-2.25c0-1.875.266-3.399.797-4.57.547-1.173 1.32-2.126 2.32-2.86 1-.734 2.196-1.375 3.587-1.922a217.61 217.61 0 0 1 4.64-1.758v-3.07c0-1.188-.047-2.133-.141-2.836-.093-.719-.304-1.242-.632-1.57-.328-.328-.836-.492-1.524-.492-.672 0-1.187.171-1.547.515-.343.328-.578.844-.703 1.547-.125.688-.187 1.57-.187 2.648v1.57h-6.14v-1.054c0-1.61.132-3.047.398-4.312.28-1.266.75-2.336 1.406-3.211.656-.891 1.547-1.563 2.672-2.016 1.14-.469 2.57-.703 4.289-.703 1.515 0 2.812.219 3.89.656 1.078.422 1.953 1.063 2.625 1.922.672.844 1.164 1.906 1.477 3.188.312 1.28.469 2.773.469 4.476V45h-6.258v-3.492a5.603 5.603 0 0 1-.961 1.898 5.201 5.201 0 0 1-1.711 1.407c-.672.359-1.445.539-2.32.539Zm2.156-4.782c.781 0 1.406-.28 1.875-.843.469-.563.758-1.133.867-1.711V25.922c-.937.422-1.726.82-2.367 1.195-.64.36-1.156.758-1.547 1.195-.39.438-.672.954-.844 1.547-.172.594-.257 1.32-.257 2.18v3.938c0 1.609.164 2.78.492 3.515.343.719.937 1.078 1.78 1.078Zm23.344 4.852c-1.797 0-3.282-.274-4.453-.82-1.172-.563-2.094-1.368-2.766-2.414-.656-1.047-1.117-2.32-1.383-3.82s-.398-3.196-.398-5.087v-11.39c0-2.594.242-4.82.726-6.68.485-1.86 1.375-3.29 2.672-4.29 1.313-1 3.203-1.5 5.672-1.5 1.516 0 2.797.235 3.844.704 1.047.469 1.89 1.148 2.531 2.04.641.874 1.102 1.937 1.383 3.187.297 1.25.445 2.656.445 4.218v3.867h-6V19.36c0-1.015-.047-1.882-.141-2.601-.093-.735-.304-1.29-.632-1.664-.328-.39-.852-.586-1.571-.586-.703 0-1.25.195-1.64.586-.391.39-.664.96-.821 1.71-.14.735-.211 1.618-.211 2.65v15.843c0 1.062.063 1.969.188 2.719.141.75.391 1.328.75 1.734.375.39.922.586 1.641.586.703 0 1.226-.203 1.57-.61.359-.421.594-1.007.703-1.757.109-.75.164-1.633.164-2.649v-4.172h6v3.563c0 1.61-.141 3.078-.422 4.406-.281 1.313-.742 2.438-1.383 3.375-.64.938-1.492 1.664-2.554 2.18-1.063.5-2.367.75-3.914.75Zm19.828-.188c-1.5 0-2.649-.187-3.446-.562-.796-.39-1.343-1-1.64-1.828-.297-.828-.445-1.899-.445-3.211V15.07h-2.86v-4.5h2.86V3.75h6.21v6.82h3.422v4.5h-3.422v23.485c0 .547.086.96.258 1.242.172.281.508.469 1.008.562.516.094 1.274.141 2.274.141v4.734H142.3Zm8.719-.234V9.844h6.21V45h-6.21Zm-.024-38.39V1.218h6.258v5.39h-6.258Zm20.836 38.812c-1.687 0-3.102-.258-4.242-.774-1.141-.53-2.047-1.289-2.719-2.273-.656-1-1.133-2.21-1.43-3.633-.281-1.437-.421-3.07-.421-4.898V20.695c0-2.203.281-4.148.843-5.836.578-1.703 1.516-3.03 2.813-3.984 1.297-.969 3.015-1.453 5.156-1.453 1.625 0 2.992.273 4.102.82a6.654 6.654 0 0 1 2.695 2.344c.687 1 1.187 2.187 1.5 3.562.312 1.375.469 2.891.469 4.547v13.149c0 1.797-.141 3.406-.422 4.828-.266 1.422-.735 2.64-1.406 3.656-.657 1-1.547 1.766-2.672 2.297-1.125.531-2.547.797-4.266.797Zm0-5.016c.703 0 1.234-.21 1.594-.633.359-.437.601-1.039.726-1.804.125-.766.188-1.649.188-2.649V19.594c0-1.063-.07-1.977-.211-2.742-.141-.766-.391-1.36-.75-1.782-.359-.422-.875-.633-1.547-.633-.703 0-1.242.211-1.617.633-.36.422-.61 1.016-.75 1.782-.125.765-.188 1.68-.188 2.742V35.32c0 1 .063 1.883.188 2.649.14.765.39 1.367.75 1.804.375.422.914.633 1.617.633ZM186.245 45V9.844h6.211v4.031c.313-1.203.969-2.242 1.969-3.117 1-.89 2.226-1.336 3.679-1.336 2.032 0 3.555.68 4.571 2.039 1.015 1.344 1.523 3.297 1.523 5.86V45h-6.211V17.695c0-1.015-.234-1.812-.703-2.39-.453-.578-1.078-.867-1.875-.867-.64 0-1.187.18-1.64.539-.438.343-.766.828-.985 1.453-.219.61-.328 1.328-.328 2.156V45h-6.211Zm32.555 0V3.75h9.258c2.093 0 3.773.422 5.039 1.266 1.265.828 2.179 2.03 2.742 3.609.578 1.578.867 3.484.867 5.719l.023 18.61c0 2.702-.296 4.952-.89 6.75-.578 1.78-1.516 3.108-2.813 3.983-1.297.876-3.023 1.313-5.179 1.313H218.8Zm6.281-4.875h2.063c.734 0 1.343-.148 1.828-.445.5-.297.867-.82 1.101-1.57.25-.766.375-1.844.375-3.235l-.023-20.367c0-2.11-.258-3.625-.774-4.547-.515-.922-1.422-1.383-2.718-1.383h-1.852v31.547Zm25.523 5.297c-1.765 0-3.218-.281-4.359-.844a6.331 6.331 0 0 1-2.648-2.437c-.625-1.063-1.063-2.336-1.313-3.82-.25-1.5-.375-3.173-.375-5.016V20.203c0-1.64.164-3.125.492-4.453.344-1.328.868-2.46 1.571-3.398.718-.938 1.648-1.657 2.789-2.157 1.14-.515 2.515-.773 4.125-.773 1.64 0 3.008.25 4.101.75 1.094.5 1.953 1.226 2.578 2.18.641.953 1.094 2.101 1.36 3.445.281 1.328.422 2.836.422 4.523v7.524h-11.18v6.914c0 1.703.133 3.07.398 4.101.266 1.032.993 1.547 2.18 1.547.797 0 1.359-.242 1.688-.726.343-.485.546-1.149.609-1.992.078-.86.117-1.836.117-2.93v-3.094h6.141v1.875c0 1.89-.117 3.57-.352 5.04-.219 1.468-.64 2.71-1.265 3.726-.61 1.015-1.485 1.789-2.625 2.32-1.141.531-2.625.797-4.454.797Zm-2.46-21.211h5.015v-4.5c0-1.172-.055-2.156-.164-2.953-.109-.813-.328-1.422-.656-1.828-.328-.407-.828-.61-1.5-.61-.828 0-1.438.242-1.828.727-.375.484-.617 1.148-.727 1.992-.094.828-.14 1.773-.14 2.836v4.336Zm23.718 21.234c-2.828 0-4.929-.804-6.304-2.414s-2.063-4.242-2.063-7.898v-2.274h5.836v2.836c0 1.532.188 2.696.563 3.492.375.797.984 1.196 1.828 1.196.812 0 1.414-.274 1.804-.82.391-.547.586-1.493.586-2.836 0-.782-.117-1.54-.351-2.274a7.671 7.671 0 0 0-1.055-2.156c-.469-.719-1.078-1.414-1.828-2.086l-3.164-2.86c-1.453-1.312-2.539-2.726-3.258-4.242-.719-1.53-1.078-3.218-1.078-5.062 0-2.985.695-5.164 2.086-6.54 1.406-1.39 3.484-2.085 6.234-2.085 1.781 0 3.258.336 4.43 1.008 1.172.656 2.047 1.726 2.625 3.21.578 1.485.867 3.477.867 5.977v1.922h-5.555v-2.32c0-1.547-.179-2.719-.539-3.516-.343-.797-.937-1.195-1.781-1.195-.828 0-1.437.234-1.828.703-.391.453-.602 1.258-.633 2.414a6.229 6.229 0 0 0 .235 1.852c.171.593.437 1.18.796 1.757.375.563.86 1.118 1.454 1.664l3.328 3.024c1.75 1.578 3.039 3.226 3.867 4.945.844 1.719 1.265 3.578 1.265 5.578 0 2.953-.671 5.196-2.015 6.727-1.344 1.516-3.461 2.273-6.352 2.273ZM284.894 45V9.844h6.21V45h-6.21Zm-.024-38.39V1.218h6.258v5.39h-6.258Zm20.438 43.663c-1.938.032-3.586-.156-4.946-.562a10.297 10.297 0 0 1-3.703-1.945l2.18-3.914c.828.53 1.726.96 2.695 1.289.985.343 2.047.507 3.188.492 1.187-.016 2.093-.43 2.718-1.242.625-.813.938-1.899.938-3.258v-2.79c-.406 1.173-1.031 1.977-1.875 2.415-.828.437-1.836.656-3.024.656-1.656 0-2.96-.437-3.914-1.312-.937-.875-1.601-2.07-1.992-3.586-.39-1.516-.586-3.235-.586-5.157V20.04c0-2.047.203-3.867.61-5.46.406-1.61 1.101-2.876 2.086-3.798.984-.922 2.336-1.375 4.054-1.36 1.203 0 2.196.306 2.977.915.797.61 1.351 1.484 1.664 2.625V9.844h6.211v30.82c0 1.39-.156 2.672-.469 3.844-.312 1.156-.828 2.156-1.547 3-.719.86-1.672 1.523-2.859 1.992-1.188.484-2.656.742-4.406.773Zm.632-13.57c.563 0 1.024-.164 1.383-.492.36-.344.625-.922.797-1.734.172-.829.258-1.977.258-3.446V19.523c0-1.546-.188-2.78-.563-3.703-.375-.922-1.054-1.383-2.039-1.383-.75 0-1.304.22-1.664.657-.359.437-.593 1.039-.703 1.804-.109.75-.164 1.618-.164 2.602v11.578c0 1.735.164 3.11.492 4.125.328 1 1.063 1.5 2.203 1.5ZM320.589 45V9.844h6.211v4.031c.312-1.203.969-2.242 1.969-3.117 1-.89 2.226-1.336 3.679-1.336 2.031 0 3.555.68 4.571 2.039 1.015 1.344 1.523 3.297 1.523 5.86V45h-6.211V17.695c0-1.015-.234-1.812-.703-2.39-.453-.578-1.078-.867-1.875-.867-.641 0-1.188.18-1.641.539-.437.343-.765.828-.984 1.453-.219.61-.328 1.328-.328 2.156V45h-6.211Zm32.555 0V3.75h10.382c2.157 0 3.766.422 4.828 1.266 1.063.843 1.758 2.078 2.086 3.703.344 1.625.516 3.61.516 5.953 0 2.422-.25 4.328-.75 5.719-.484 1.375-1.484 2.297-3 2.765.719.125 1.32.422 1.805.89.484.454.875 1.126 1.172 2.017.296.875.507 2.007.632 3.398.141 1.375.211 3.062.211 5.062v3.868l.047 2.906c.016.969.039 1.797.071 2.484.031.688.07 1.094.117 1.219h-6.282c-.046-.078-.085-.477-.117-1.195-.015-.735-.039-1.664-.07-2.79a1976.02 1976.02 0 0 1-.047-3.632V30.21c0-1.234-.094-2.164-.281-2.79-.172-.64-.5-1.085-.985-1.335-.468-.25-1.148-.398-2.039-.445l-2.015-.118V45h-6.281Zm6.304-24.352h2.508c.766 0 1.344-.171 1.734-.515.407-.344.68-.977.821-1.899.156-.922.234-2.25.234-3.984v-.258c0-1.453-.07-2.57-.211-3.351-.14-.782-.437-1.32-.89-1.618-.438-.296-1.125-.445-2.063-.445h-2.133v12.07Zm25.125 24.774c-1.765 0-3.219-.281-4.359-.844a6.34 6.34 0 0 1-2.649-2.437c-.625-1.063-1.062-2.336-1.312-3.82-.25-1.5-.375-3.173-.375-5.016V20.203c0-1.64.164-3.125.492-4.453.344-1.328.867-2.46 1.57-3.398.719-.938 1.649-1.657 2.789-2.157 1.141-.515 2.516-.773 4.125-.773 1.641 0 3.008.25 4.102.75 1.094.5 1.953 1.226 2.578 2.18.641.953 1.094 2.101 1.36 3.445.281 1.328.421 2.836.421 4.523v7.524h-11.179v6.914c0 1.703.133 3.07.398 4.101.266 1.032.992 1.547 2.18 1.547.797 0 1.359-.242 1.687-.726.344-.485.547-1.149.61-1.992.078-.86.117-1.836.117-2.93v-3.094h6.141v1.875c0 1.89-.118 3.57-.352 5.04-.219 1.468-.641 2.71-1.266 3.726-.609 1.015-1.484 1.789-2.625 2.32-1.14.531-2.625.797-4.453.797Zm-2.461-21.211h5.016v-4.5c0-1.172-.055-2.156-.164-2.953-.11-.813-.328-1.422-.656-1.828-.329-.407-.829-.61-1.5-.61-.829 0-1.438.242-1.829.727-.375.484-.617 1.148-.726 1.992a25.394 25.394 0 0 0-.141 2.836v4.336Zm23.719 21.234c-2.828 0-4.93-.804-6.305-2.414s-2.062-4.242-2.062-7.898v-2.274h5.836v2.836c0 1.532.187 2.696.562 3.492.375.797.985 1.196 1.828 1.196.813 0 1.414-.274 1.805-.82.391-.547.586-1.493.586-2.836 0-.782-.117-1.54-.352-2.274a7.64 7.64 0 0 0-1.054-2.156c-.469-.719-1.078-1.414-1.828-2.086l-3.164-2.86c-1.454-1.312-2.539-2.726-3.258-4.242-.719-1.53-1.078-3.218-1.078-5.062 0-2.985.695-5.164 2.086-6.54 1.406-1.39 3.484-2.085 6.234-2.085 1.781 0 3.258.336 4.43 1.008 1.172.656 2.047 1.726 2.625 3.21.578 1.485.867 3.477.867 5.977v1.922h-5.555v-2.32c0-1.547-.18-2.719-.539-3.516-.344-.797-.937-1.195-1.781-1.195-.828 0-1.438.234-1.828.703-.391.453-.602 1.258-.633 2.414a6.196 6.196 0 0 0 .234 1.852c.172.593.438 1.18.797 1.757a9.29 9.29 0 0 0 1.453 1.664l3.328 3.024c1.75 1.578 3.039 3.226 3.868 4.945.843 1.719 1.265 3.578 1.265 5.578 0 2.953-.672 5.196-2.015 6.727-1.344 1.516-3.461 2.273-6.352 2.273Zm21.234-.023c-1.687 0-3.101-.258-4.242-.774-1.14-.53-2.047-1.289-2.719-2.273-.656-1-1.132-2.21-1.429-3.633-.281-1.437-.422-3.07-.422-4.898V20.695c0-2.203.281-4.148.844-5.836.578-1.703 1.515-3.03 2.812-3.984 1.297-.969 3.016-1.453 5.156-1.453 1.625 0 2.993.273 4.102.82a6.654 6.654 0 0 1 2.695 2.344c.688 1 1.188 2.187 1.5 3.562.313 1.375.469 2.891.469 4.547v13.149c0 1.797-.141 3.406-.422 4.828-.265 1.422-.734 2.64-1.406 3.656-.656 1-1.547 1.766-2.672 2.297-1.125.531-2.547.797-4.266.797Zm0-5.016c.704 0 1.235-.21 1.594-.633.36-.437.602-1.039.727-1.804.125-.766.187-1.649.187-2.649V19.594c0-1.063-.07-1.977-.211-2.742-.14-.766-.39-1.36-.75-1.782-.359-.422-.875-.633-1.547-.633-.703 0-1.242.211-1.617.633-.359.422-.609 1.016-.75 1.782-.125.765-.187 1.68-.187 2.742V35.32c0 1 .062 1.883.187 2.649.141.765.391 1.367.75 1.804.375.422.914.633 1.617.633Zm20.461 5.039c-1.39 0-2.554-.312-3.492-.937-.922-.625-1.617-1.555-2.086-2.79-.453-1.25-.679-2.812-.679-4.687V9.844h6.234V36.07c0 1.344.164 2.39.492 3.14.328.75 1.016 1.126 2.063 1.126 1.093 0 1.836-.422 2.226-1.266.406-.86.61-1.843.61-2.953l.023-26.273h6.187V45h-6.21v-3.656c-.438 1.187-1.071 2.172-1.899 2.953-.828.766-1.984 1.148-3.469 1.148ZM465.175 45V9.844h6.258v3.914c.406-1.36 1.109-2.422 2.109-3.188 1.016-.765 2.305-1.148 3.867-1.148.031 0 .047.265.047.797.016.531.023 1.14.023 1.828v2.625c-.718 0-1.5.086-2.343.258a8.707 8.707 0 0 0-2.274.797c-.672.343-1.148.804-1.429 1.382V45h-6.258Zm24.844.422c-1.797 0-3.282-.274-4.454-.82-1.171-.563-2.093-1.368-2.765-2.414-.656-1.047-1.117-2.32-1.383-3.82s-.398-3.196-.398-5.087v-11.39c0-2.594.242-4.82.726-6.68.484-1.86 1.375-3.29 2.672-4.29 1.312-1 3.203-1.5 5.672-1.5 1.515 0 2.797.235 3.844.704 1.046.469 1.89 1.148 2.531 2.04.64.874 1.101 1.937 1.383 3.187.297 1.25.445 2.656.445 4.218v3.867h-6V19.36c0-1.015-.047-1.882-.141-2.601-.093-.735-.304-1.29-.632-1.664-.329-.39-.852-.586-1.571-.586-.703 0-1.25.195-1.64.586-.391.39-.664.96-.821 1.71-.14.735-.211 1.618-.211 2.65v15.843c0 1.062.063 1.969.188 2.719.14.75.39 1.328.75 1.734.375.39.922.586 1.64.586.704 0 1.227-.203 1.571-.61.359-.421.594-1.007.703-1.757.109-.75.164-1.633.164-2.649v-4.172h6v3.563c0 1.61-.141 3.078-.422 4.406-.281 1.313-.742 2.438-1.383 3.375-.64.938-1.492 1.664-2.554 2.18-1.063.5-2.368.75-3.914.75Zm21.679 0c-1.765 0-3.219-.281-4.359-.844a6.34 6.34 0 0 1-2.649-2.437c-.625-1.063-1.062-2.336-1.312-3.82-.25-1.5-.375-3.173-.375-5.016V20.203c0-1.64.164-3.125.492-4.453.344-1.328.867-2.46 1.57-3.398.719-.938 1.649-1.657 2.789-2.157 1.141-.515 2.516-.773 4.125-.773 1.641 0 3.008.25 4.102.75 1.094.5 1.953 1.226 2.578 2.18.641.953 1.094 2.101 1.36 3.445.281 1.328.421 2.836.421 4.523v7.524h-11.179v6.914c0 1.703.133 3.07.398 4.101.266 1.032.992 1.547 2.18 1.547.797 0 1.359-.242 1.687-.726.344-.485.547-1.149.61-1.992.078-.86.117-1.836.117-2.93v-3.094h6.141v1.875c0 1.89-.118 3.57-.352 5.04-.219 1.468-.641 2.71-1.266 3.726-.609 1.015-1.484 1.789-2.625 2.32-1.14.531-2.625.797-4.453.797Zm-2.461-21.211h5.016v-4.5c0-1.172-.055-2.156-.164-2.953-.11-.813-.328-1.422-.656-1.828-.329-.407-.829-.61-1.5-.61-.829 0-1.438.242-1.829.727-.375.484-.617 1.148-.726 1.992a25.394 25.394 0 0 0-.141 2.836v4.336Zm23.719 21.234c-2.828 0-4.93-.804-6.305-2.414s-2.062-4.242-2.062-7.898v-2.274h5.836v2.836c0 1.532.187 2.696.562 3.492.375.797.985 1.196 1.828 1.196.813 0 1.414-.274 1.805-.82.391-.547.586-1.493.586-2.836 0-.782-.117-1.54-.352-2.274a7.64 7.64 0 0 0-1.054-2.156c-.469-.719-1.078-1.414-1.828-2.086l-3.164-2.86c-1.454-1.312-2.539-2.726-3.258-4.242-.719-1.53-1.078-3.218-1.078-5.062 0-2.985.695-5.164 2.086-6.54 1.406-1.39 3.484-2.085 6.234-2.085 1.781 0 3.258.336 4.43 1.008 1.172.656 2.047 1.726 2.625 3.21.578 1.485.867 3.477.867 5.977v1.922h-5.555v-2.32c0-1.547-.18-2.719-.539-3.516-.344-.797-.937-1.195-1.781-1.195-.828 0-1.438.234-1.828.703-.391.453-.602 1.258-.633 2.414a6.196 6.196 0 0 0 .234 1.852c.172.593.438 1.18.797 1.757a9.29 9.29 0 0 0 1.453 1.664l3.328 3.024c1.75 1.578 3.039 3.226 3.868 4.945.843 1.719 1.265 3.578 1.265 5.578 0 2.953-.672 5.196-2.015 6.727-1.344 1.516-3.461 2.273-6.352 2.273Z" mask="url(#b)"/><defs><filter id="a" width="546.07" height="55.058" x="-.747" y="-.781" color-interpolation-filters="sRGB" filterUnits="userSpaceOnUse"><feFlood flood-opacity="0" result="BackgroundImageFix"/><feBlend in="SourceGraphic" in2="BackgroundImageFix" result="shape"/><feColorMatrix in="SourceAlpha" result="hardAlpha" values="0 0 0 0 0 0 0 0 0 0 0 0 0 0 0 0 0 0 127 0"/><feOffset dx="-1" dy="-1"/><feGaussianBlur stdDeviation="1.5"/><feComposite in2="hardAlpha" k2="-1" k3="1" operator="arithmetic"/><feColorMatrix values="0 0 0 0 0.984314 0 0 0 0 0.984314 0 0 0 0 0.984314 0 0 0 1 0"/><feBlend in2="shape" result="effect1_innerShadow_127_2790"/><feColorMatrix in="SourceAlpha" result="hardAlpha" values="0 0 0 0 0 0 0 0 0 0 0 0 0 0 0 0 0 0 127 0"/><feOffset dx="3" dy="3"/><feGaussianBlur stdDeviation="4.5"/><feComposite in2="hardAlpha" k2="-1" k3="1" operator="arithmetic"/><feColorMatrix values="0 0 0 0 0.772549 0 0 0 0 0.772549 0 0 0 0 0.772549 0 0 0 1 0"/><feBlend in2="effect1_innerShadow_127_2790" result="effect2_innerShadow_127_2790"/></filter></defs></svg>