<svg xmlns="http://www.w3.org/2000/svg" width="455" height="51" fill="none"><mask id="b" width="455" height="51" x=".198" y=".258" fill="#000" maskUnits="userSpaceOnUse"><path fill="#fff" d="M.198.258h455v51h-455z"/><path d="M1.198 43V1.75h14.156v5.46H7.48v10.97h7.313v5.484H7.479V43H1.2Zm26.391.422c-1.688 0-3.102-.258-4.242-.774-1.14-.53-2.047-1.289-2.72-2.273-.655-1-1.132-2.21-1.429-3.633-.281-1.437-.422-3.07-.422-4.898V18.695c0-2.203.282-4.148.844-5.836.578-1.703 1.516-3.03 2.813-3.984 1.297-.969 3.015-1.453 5.156-1.453 1.625 0 2.992.273 4.101.82a6.653 6.653 0 0 1 2.696 2.344c.687 1 1.187 2.187 1.5 3.562.312 1.375.468 2.891.468 4.547v13.149c0 1.797-.14 3.406-.421 4.828-.266 1.422-.735 2.64-1.407 3.656-.656 1-1.547 1.766-2.672 2.297-1.124.531-2.546.797-4.265.797Zm0-5.016c.703 0 1.234-.21 1.594-.633.359-.437.601-1.039.726-1.804.125-.766.188-1.649.188-2.649V17.594c0-1.063-.07-1.977-.211-2.742-.14-.766-.39-1.36-.75-1.782-.36-.422-.875-.633-1.547-.633-.703 0-1.242.211-1.617.633-.36.422-.61 1.016-.75 1.782-.125.765-.188 1.68-.188 2.742V33.32c0 1 .063 1.883.188 2.649.14.765.39 1.367.75 1.804.375.422.914.633 1.617.633ZM42.003 43V7.844h6.21v4.031c.313-1.203.97-2.242 1.97-3.117 1-.89 2.226-1.336 3.68-1.336 2.03 0 3.554.68 4.57 2.039 1.015 1.344 1.523 3.297 1.523 5.86V43h-6.21V15.695c0-1.015-.235-1.812-.704-2.39-.453-.578-1.078-.867-1.875-.867-.64 0-1.188.18-1.64.539-.438.343-.766.828-.985 1.453-.219.61-.328 1.328-.328 2.156V43h-6.211Zm30.257.234c-1.5 0-2.648-.187-3.445-.562-.796-.39-1.343-1-1.64-1.828-.297-.828-.445-1.899-.445-3.211V13.07h-2.86v-4.5h2.86V1.75h6.21v6.82h3.422v4.5H72.94v23.485c0 .547.086.96.258 1.242.172.281.508.469 1.008.562.516.094 1.273.141 2.273.141v4.734h-4.218Zm15.891.211c-2.828 0-4.93-.804-6.304-2.414-1.375-1.61-2.063-4.242-2.063-7.898v-2.274h5.836v2.836c0 1.532.188 2.696.563 3.492.375.797.984 1.196 1.828 1.196.812 0 1.414-.274 1.804-.82.391-.547.586-1.493.586-2.836 0-.782-.117-1.54-.351-2.274a7.651 7.651 0 0 0-1.055-2.156c-.469-.719-1.078-1.414-1.828-2.086l-3.164-2.86c-1.453-1.312-2.54-2.726-3.258-4.242-.719-1.53-1.078-3.218-1.078-5.062 0-2.985.695-5.164 2.086-6.54 1.406-1.39 3.484-2.085 6.234-2.085 1.782 0 3.258.336 4.43 1.008 1.172.656 2.047 1.726 2.625 3.21.578 1.485.867 3.477.867 5.977v1.922h-5.555v-2.32c0-1.547-.18-2.719-.539-3.516-.343-.797-.937-1.195-1.78-1.195-.829 0-1.438.234-1.829.703-.39.453-.602 1.258-.633 2.414a6.212 6.212 0 0 0 .235 1.852c.171.593.437 1.18.796 1.757.376.563.86 1.118 1.454 1.664l3.328 3.024c1.75 1.578 3.039 3.226 3.867 4.945.844 1.719 1.266 3.578 1.266 5.578 0 2.953-.672 5.196-2.016 6.727-1.344 1.516-3.461 2.273-6.352 2.273Zm27.703.024c-2.328 0-4.164-.797-5.507-2.39-1.344-1.61-2.016-3.923-2.016-6.938 0-1.61.313-3.149.938-4.618a22.046 22.046 0 0 1 2.414-4.289c1-1.39 2.054-2.734 3.164-4.03a105.798 105.798 0 0 1-2.391-6.868c-.641-2.11-.961-3.734-.961-4.875 0-2.656.688-4.688 2.063-6.094 1.39-1.406 3.226-2.11 5.507-2.11 1.657 0 3.032.321 4.125.962 1.094.625 1.914 1.547 2.461 2.765.547 1.204.821 2.672.821 4.407a11.98 11.98 0 0 1-.774 4.242 21.662 21.662 0 0 1-2.015 3.984 50.825 50.825 0 0 1-2.696 3.774l3.024 7.523a77.572 77.572 0 0 1 1.992-3.14 37.924 37.924 0 0 1 2.461-3.258l2.555 4.312a20.726 20.726 0 0 0-2.579 3.586 161.706 161.706 0 0 0-2.132 3.938L130.011 43h-5.813l-1.336-3.047a12.335 12.335 0 0 1-1.898 1.828 7.817 7.817 0 0 1-2.274 1.242c-.843.297-1.789.446-2.836.446Zm1.055-5.367c.469 0 .906-.133 1.313-.399.406-.266.804-.633 1.195-1.101.391-.485.789-1.055 1.195-1.711l-3.633-8.438a35.427 35.427 0 0 0-1.664 2.414 14.407 14.407 0 0 0-1.171 2.367 7.372 7.372 0 0 0-.493 2.32c-.047 1.485.196 2.618.727 3.4.547.765 1.391 1.148 2.531 1.148Zm2.133-21.914c.906-1.172 1.648-2.329 2.227-3.47.578-1.14.867-2.28.867-3.421 0-1.344-.164-2.313-.492-2.906-.329-.594-.954-.891-1.875-.891-.547 0-.993.11-1.336.328a2.2 2.2 0 0 0-.797.89c-.172.36-.289.759-.352 1.196a9.344 9.344 0 0 0-.094 1.313c0 .625.164 1.546.493 2.765a72.51 72.51 0 0 0 1.359 4.195ZM145.151 43V7.187h-4.828V1.75h15.727v5.438h-4.641V43h-6.258Zm13.43 6.21v-4.288h2.039c.688 0 1.266-.063 1.734-.188.469-.109.735-.359.797-.75.11-.203.149-.562.118-1.078a21.177 21.177 0 0 0-.141-1.5l-5.625-33.562h5.906l2.25 17.976.938 9.47h.515l.844-9.47 2.063-17.976h5.882L169.808 44.5c-.172 1.11-.414 2.008-.727 2.695-.297.703-.75 1.211-1.359 1.524-.61.328-1.453.492-2.532.492h-6.609Zm21.164.47V7.844h6.211v3.164c.453-1.156 1.164-2.031 2.133-2.625.969-.594 1.945-.89 2.93-.89 1.796 0 3.156.484 4.078 1.452.922.953 1.547 2.258 1.875 3.914.328 1.657.492 3.516.492 5.579v12.82c0 2.25-.156 4.297-.469 6.14-.312 1.844-.976 3.313-1.992 4.407-1 1.078-2.531 1.617-4.594 1.617a4.62 4.62 0 0 1-2.601-.774c-.782-.515-1.399-1.109-1.852-1.78v8.812h-6.211Zm8.953-11.297c1.047 0 1.727-.508 2.039-1.524.313-1.03.469-2.5.469-4.406V17.875c0-1.016-.055-1.93-.164-2.742-.094-.828-.313-1.485-.656-1.969-.344-.484-.891-.726-1.641-.726-.578 0-1.078.148-1.5.445-.406.297-.726.836-.961 1.617-.219.781-.328 1.898-.328 3.352V32.71c0 1.797.172 3.195.516 4.195.343.985 1.086 1.477 2.226 1.477Zm22.735 5.039c-1.688 0-3.102-.258-4.243-.774-1.14-.53-2.046-1.289-2.718-2.273-.657-1-1.133-2.21-1.43-3.633-.281-1.437-.422-3.07-.422-4.898V18.695c0-2.203.281-4.148.844-5.836.578-1.703 1.515-3.03 2.812-3.984 1.297-.969 3.016-1.453 5.157-1.453 1.625 0 2.992.273 4.101.82a6.647 6.647 0 0 1 2.695 2.344c.688 1 1.188 2.187 1.5 3.562.313 1.375.469 2.891.469 4.547v13.149c0 1.797-.14 3.406-.422 4.828-.265 1.422-.734 2.64-1.406 3.656-.656 1-1.547 1.766-2.672 2.297-1.125.531-2.547.797-4.265.797Zm0-5.016c.703 0 1.234-.21 1.593-.633.36-.437.602-1.039.727-1.804.125-.766.187-1.649.187-2.649V17.594c0-1.063-.07-1.977-.211-2.742-.14-.766-.39-1.36-.75-1.782-.359-.422-.875-.633-1.546-.633-.704 0-1.243.211-1.618.633-.359.422-.609 1.016-.75 1.782-.125.765-.187 1.68-.187 2.742V33.32c0 1 .062 1.883.187 2.649.141.765.391 1.367.75 1.804.375.422.914.633 1.618.633Zm22.336 9.867c-1.938.032-3.586-.156-4.946-.562a10.289 10.289 0 0 1-3.703-1.945l2.18-3.914c.828.53 1.726.96 2.695 1.289.984.343 2.047.507 3.188.492 1.187-.016 2.093-.43 2.718-1.242.625-.813.938-1.899.938-3.258v-2.79c-.406 1.173-1.031 1.977-1.875 2.415-.828.437-1.836.656-3.024.656-1.656 0-2.961-.437-3.914-1.312-.937-.875-1.601-2.07-1.992-3.586-.39-1.516-.586-3.235-.586-5.157V18.04c0-2.047.203-3.867.61-5.46.406-1.61 1.101-2.876 2.086-3.798.984-.922 2.335-1.375 4.054-1.36 1.203 0 2.196.306 2.977.915.797.61 1.351 1.484 1.664 2.625V7.844h6.211v30.82c0 1.39-.156 2.672-.469 3.844-.312 1.156-.828 2.156-1.547 3-.719.86-1.672 1.523-2.859 1.992-1.188.484-2.656.742-4.406.773Zm.632-13.57c.563 0 1.024-.164 1.383-.492.36-.344.625-.922.797-1.734.172-.829.258-1.977.258-3.446V17.523c0-1.546-.188-2.78-.563-3.703-.375-.922-1.054-1.383-2.039-1.383-.75 0-1.304.22-1.664.657-.359.437-.594 1.039-.703 1.804-.109.75-.164 1.618-.164 2.602v11.578c0 1.735.164 3.11.492 4.125.328 1 1.063 1.5 2.203 1.5ZM249.073 43V7.844h6.258v3.914c.406-1.36 1.109-2.422 2.109-3.188 1.016-.765 2.305-1.148 3.868-1.148.031 0 .046.266.046.797.016.531.024 1.14.024 1.828v2.625c-.719 0-1.5.086-2.344.258a8.687 8.687 0 0 0-2.273.797c-.672.343-1.149.804-1.43 1.382V43h-6.258Zm22.078.352c-2.406 0-4.078-.875-5.015-2.625-.922-1.75-1.399-4.07-1.43-6.961v-2.25c0-1.875.266-3.399.797-4.57.547-1.173 1.32-2.126 2.32-2.86 1-.734 2.196-1.375 3.586-1.922a218.541 218.541 0 0 1 4.641-1.758v-3.07c0-1.188-.047-2.133-.141-2.836-.094-.719-.305-1.242-.633-1.57-.328-.328-.836-.492-1.523-.492-.672 0-1.188.171-1.547.515-.344.328-.578.844-.703 1.547-.125.688-.188 1.57-.188 2.648v1.57h-6.14v-1.054c0-1.61.133-3.047.398-4.312.281-1.266.75-2.336 1.406-3.211.657-.891 1.547-1.563 2.672-2.016 1.141-.469 2.571-.703 4.289-.703 1.516 0 2.813.219 3.891.656 1.078.422 1.953 1.063 2.625 1.922.672.844 1.164 1.906 1.477 3.188.312 1.28.468 2.773.468 4.476V43h-6.257v-3.492a5.603 5.603 0 0 1-.961 1.898 5.217 5.217 0 0 1-1.711 1.407c-.672.359-1.446.539-2.321.539Zm2.157-4.782c.781 0 1.406-.28 1.875-.843.468-.563.757-1.133.867-1.711V23.922c-.938.422-1.727.82-2.367 1.195-.641.36-1.157.758-1.547 1.195a3.925 3.925 0 0 0-.844 1.547c-.172.594-.258 1.32-.258 2.18v3.938c0 1.609.164 2.78.492 3.515.344.719.938 1.078 1.782 1.078Zm14.859 11.11V7.844h6.211v3.164c.453-1.156 1.164-2.031 2.133-2.625.968-.594 1.945-.89 2.929-.89 1.797 0 3.157.484 4.079 1.452.921.953 1.546 2.258 1.875 3.914.328 1.657.492 3.516.492 5.579v12.82c0 2.25-.157 4.297-.469 6.14-.313 1.844-.977 3.313-1.992 4.407-1 1.078-2.531 1.617-4.594 1.617-.953 0-1.82-.258-2.602-.774-.781-.515-1.398-1.109-1.851-1.78v8.812h-6.211Zm8.953-11.297c1.047 0 1.727-.508 2.039-1.524.313-1.03.469-2.5.469-4.406V17.875c0-1.016-.055-1.93-.164-2.742-.094-.828-.313-1.485-.656-1.969-.344-.484-.891-.726-1.641-.726-.578 0-1.078.148-1.5.445-.406.297-.727.836-.961 1.617-.219.781-.328 1.898-.328 3.352V32.71c0 1.797.172 3.195.516 4.195.343.985 1.085 1.477 2.226 1.477ZM311.628 43V1.398h6.211v10.477c.312-1.203.937-2.242 1.875-3.117.953-.89 2.148-1.336 3.586-1.336 2.047 0 3.586.68 4.617 2.039 1.047 1.344 1.57 3.297 1.57 5.86V43H323.3V15.906c0-1.125-.219-1.969-.656-2.531-.422-.578-1.032-.867-1.829-.867-.64 0-1.187.18-1.64.539-.438.36-.774.867-1.008 1.523-.219.657-.328 1.422-.328 2.297V43h-6.211Zm22.828 6.21v-4.288h2.039c.688 0 1.266-.063 1.734-.188.469-.109.735-.359.797-.75.11-.203.149-.562.118-1.078a21.177 21.177 0 0 0-.141-1.5l-5.625-33.562h5.906l2.25 17.976.938 9.47h.515l.844-9.47 2.063-17.976h5.882L345.683 44.5c-.172 1.11-.414 2.008-.727 2.695-.297.703-.75 1.211-1.359 1.524-.61.328-1.453.492-2.532.492h-6.609ZM366.401 43V7.187h-4.828V1.75H377.3v5.438h-4.641V43h-6.258Zm21.563.422c-1.688 0-3.102-.258-4.242-.774-1.141-.53-2.047-1.289-2.719-2.273-.656-1-1.133-2.21-1.43-3.633-.281-1.437-.422-3.07-.422-4.898V18.695c0-2.203.282-4.148.844-5.836.578-1.703 1.516-3.03 2.813-3.984 1.296-.969 3.015-1.453 5.156-1.453 1.625 0 2.992.273 4.101.82a6.657 6.657 0 0 1 2.696 2.344c.687 1 1.187 2.187 1.5 3.562.312 1.375.468 2.891.468 4.547v13.149c0 1.797-.14 3.406-.421 4.828-.266 1.422-.735 2.64-1.407 3.656-.656 1-1.547 1.766-2.672 2.297-1.125.531-2.546.797-4.265.797Zm0-5.016c.703 0 1.234-.21 1.594-.633.359-.437.601-1.039.726-1.804.125-.766.188-1.649.188-2.649V17.594c0-1.063-.071-1.977-.211-2.742-.141-.766-.391-1.36-.75-1.782-.36-.422-.875-.633-1.547-.633-.703 0-1.242.211-1.617.633-.36.422-.61 1.016-.75 1.782-.125.765-.188 1.68-.188 2.742V33.32c0 1 .063 1.883.188 2.649.14.765.39 1.367.75 1.804.375.422.914.633 1.617.633Zm22.734 5.016c-1.687 0-3.101-.258-4.242-.774-1.141-.53-2.047-1.289-2.719-2.273-.656-1-1.133-2.21-1.429-3.633-.282-1.437-.422-3.07-.422-4.898V18.695c0-2.203.281-4.148.843-5.836.579-1.703 1.516-3.03 2.813-3.984 1.297-.969 3.016-1.453 5.156-1.453 1.625 0 2.992.273 4.102.82a6.654 6.654 0 0 1 2.695 2.344c.688 1 1.188 2.187 1.5 3.562.313 1.375.469 2.891.469 4.547v13.149c0 1.797-.141 3.406-.422 4.828-.266 1.422-.734 2.64-1.406 3.656-.657 1-1.547 1.766-2.672 2.297-1.125.531-2.547.797-4.266.797Zm0-5.016c.703 0 1.235-.21 1.594-.633.359-.437.602-1.039.727-1.804.125-.766.187-1.649.187-2.649V17.594c0-1.063-.07-1.977-.211-2.742-.141-.766-.391-1.36-.75-1.782-.359-.422-.875-.633-1.547-.633-.703 0-1.242.211-1.617.633-.359.422-.609 1.016-.75 1.782-.125.765-.187 1.68-.187 2.742V33.32c0 1 .062 1.883.187 2.649.141.765.391 1.367.75 1.804.375.422.914.633 1.617.633ZM425.136 43V1.398h6.187V43h-6.187Zm19.734.445c-2.828 0-4.93-.804-6.305-2.414s-2.062-4.242-2.062-7.898v-2.274h5.836v2.836c0 1.532.187 2.696.562 3.492.375.797.985 1.196 1.828 1.196.813 0 1.415-.274 1.805-.82.391-.547.586-1.493.586-2.836 0-.782-.117-1.54-.351-2.274a7.671 7.671 0 0 0-1.055-2.156c-.469-.719-1.078-1.414-1.828-2.086l-3.164-2.86c-1.453-1.312-2.539-2.726-3.258-4.242-.719-1.53-1.078-3.218-1.078-5.062 0-2.985.695-5.164 2.086-6.54 1.406-1.39 3.484-2.085 6.234-2.085 1.781 0 3.258.336 4.43 1.008 1.172.656 2.047 1.726 2.625 3.21.578 1.485.867 3.477.867 5.977v1.922h-5.555v-2.32c0-1.547-.179-2.719-.539-3.516-.344-.797-.937-1.195-1.781-1.195-.828 0-1.438.234-1.828.703-.391.453-.602 1.258-.633 2.414a6.196 6.196 0 0 0 .234 1.852c.172.593.438 1.18.797 1.757a9.29 9.29 0 0 0 1.453 1.664l3.328 3.024c1.75 1.578 3.04 3.226 3.868 4.945.843 1.719 1.265 3.578 1.265 5.578 0 2.953-.672 5.196-2.015 6.727-1.344 1.516-3.461 2.273-6.352 2.273Z"/></mask><g fill="#D1DADB" filter="url(#a)"><path d="M1.198 43V1.75h14.156v5.46H7.48v10.97h7.313v5.484H7.479V43H1.2Zm26.391.422c-1.688 0-3.102-.258-4.242-.774-1.14-.53-2.047-1.289-2.72-2.273-.655-1-1.132-2.21-1.429-3.633-.281-1.437-.422-3.07-.422-4.898V18.695c0-2.203.282-4.148.844-5.836.578-1.703 1.516-3.03 2.813-3.984 1.297-.969 3.015-1.453 5.156-1.453 1.625 0 2.992.273 4.101.82a6.653 6.653 0 0 1 2.696 2.344c.687 1 1.187 2.187 1.5 3.562.312 1.375.468 2.891.468 4.547v13.149c0 1.797-.14 3.406-.421 4.828-.266 1.422-.735 2.64-1.407 3.656-.656 1-1.547 1.766-2.672 2.297-1.124.531-2.546.797-4.265.797Zm0-5.016c.703 0 1.234-.21 1.594-.633.359-.437.601-1.039.726-1.804.125-.766.188-1.649.188-2.649V17.594c0-1.063-.07-1.977-.211-2.742-.14-.766-.39-1.36-.75-1.782-.36-.422-.875-.633-1.547-.633-.703 0-1.242.211-1.617.633-.36.422-.61 1.016-.75 1.782-.125.765-.188 1.68-.188 2.742V33.32c0 1 .063 1.883.188 2.649.14.765.39 1.367.75 1.804.375.422.914.633 1.617.633ZM42.003 43V7.844h6.21v4.031c.313-1.203.97-2.242 1.97-3.117 1-.89 2.226-1.336 3.68-1.336 2.03 0 3.554.68 4.57 2.039 1.015 1.344 1.523 3.297 1.523 5.86V43h-6.21V15.695c0-1.015-.235-1.812-.704-2.39-.453-.578-1.078-.867-1.875-.867-.64 0-1.188.18-1.64.539-.438.343-.766.828-.985 1.453-.219.61-.328 1.328-.328 2.156V43h-6.211Zm30.257.234c-1.5 0-2.648-.187-3.445-.562-.796-.39-1.343-1-1.64-1.828-.297-.828-.445-1.899-.445-3.211V13.07h-2.86v-4.5h2.86V1.75h6.21v6.82h3.422v4.5H72.94v23.485c0 .547.086.96.258 1.242.172.281.508.469 1.008.562.516.094 1.273.141 2.273.141v4.734h-4.218Zm15.891.211c-2.828 0-4.93-.804-6.304-2.414-1.375-1.61-2.063-4.242-2.063-7.898v-2.274h5.836v2.836c0 1.532.188 2.696.563 3.492.375.797.984 1.196 1.828 1.196.812 0 1.414-.274 1.804-.82.391-.547.586-1.493.586-2.836 0-.782-.117-1.54-.351-2.274a7.651 7.651 0 0 0-1.055-2.156c-.469-.719-1.078-1.414-1.828-2.086l-3.164-2.86c-1.453-1.312-2.54-2.726-3.258-4.242-.719-1.53-1.078-3.218-1.078-5.062 0-2.985.695-5.164 2.086-6.54 1.406-1.39 3.484-2.085 6.234-2.085 1.782 0 3.258.336 4.43 1.008 1.172.656 2.047 1.726 2.625 3.21.578 1.485.867 3.477.867 5.977v1.922h-5.555v-2.32c0-1.547-.18-2.719-.539-3.516-.343-.797-.937-1.195-1.78-1.195-.829 0-1.438.234-1.829.703-.39.453-.602 1.258-.633 2.414a6.212 6.212 0 0 0 .235 1.852c.171.593.437 1.18.796 1.757.376.563.86 1.118 1.454 1.664l3.328 3.024c1.75 1.578 3.039 3.226 3.867 4.945.844 1.719 1.266 3.578 1.266 5.578 0 2.953-.672 5.196-2.016 6.727-1.344 1.516-3.461 2.273-6.352 2.273Zm27.703.024c-2.328 0-4.164-.797-5.507-2.39-1.344-1.61-2.016-3.923-2.016-6.938 0-1.61.313-3.149.938-4.618a22.046 22.046 0 0 1 2.414-4.289c1-1.39 2.054-2.734 3.164-4.03a105.798 105.798 0 0 1-2.391-6.868c-.641-2.11-.961-3.734-.961-4.875 0-2.656.688-4.688 2.063-6.094 1.39-1.406 3.226-2.11 5.507-2.11 1.657 0 3.032.321 4.125.962 1.094.625 1.914 1.547 2.461 2.765.547 1.204.821 2.672.821 4.407a11.98 11.98 0 0 1-.774 4.242 21.662 21.662 0 0 1-2.015 3.984 50.825 50.825 0 0 1-2.696 3.774l3.024 7.523a77.572 77.572 0 0 1 1.992-3.14 37.924 37.924 0 0 1 2.461-3.258l2.555 4.312a20.726 20.726 0 0 0-2.579 3.586 161.706 161.706 0 0 0-2.132 3.938L130.011 43h-5.813l-1.336-3.047a12.335 12.335 0 0 1-1.898 1.828 7.817 7.817 0 0 1-2.274 1.242c-.843.297-1.789.446-2.836.446Zm1.055-5.367c.469 0 .906-.133 1.313-.399.406-.266.804-.633 1.195-1.101.391-.485.789-1.055 1.195-1.711l-3.633-8.438a35.427 35.427 0 0 0-1.664 2.414 14.407 14.407 0 0 0-1.171 2.367 7.372 7.372 0 0 0-.493 2.32c-.047 1.485.196 2.618.727 3.4.547.765 1.391 1.148 2.531 1.148Zm2.133-21.914c.906-1.172 1.648-2.329 2.227-3.47.578-1.14.867-2.28.867-3.421 0-1.344-.164-2.313-.492-2.906-.329-.594-.954-.891-1.875-.891-.547 0-.993.11-1.336.328a2.2 2.2 0 0 0-.797.89c-.172.36-.289.759-.352 1.196a9.344 9.344 0 0 0-.094 1.313c0 .625.164 1.546.493 2.765a72.51 72.51 0 0 0 1.359 4.195ZM145.151 43V7.187h-4.828V1.75h15.727v5.438h-4.641V43h-6.258Zm13.43 6.21v-4.288h2.039c.688 0 1.266-.063 1.734-.188.469-.109.735-.359.797-.75.11-.203.149-.562.118-1.078a21.177 21.177 0 0 0-.141-1.5l-5.625-33.562h5.906l2.25 17.976.938 9.47h.515l.844-9.47 2.063-17.976h5.882L169.808 44.5c-.172 1.11-.414 2.008-.727 2.695-.297.703-.75 1.211-1.359 1.524-.61.328-1.453.492-2.532.492h-6.609Zm21.164.47V7.844h6.211v3.164c.453-1.156 1.164-2.031 2.133-2.625.969-.594 1.945-.89 2.93-.89 1.796 0 3.156.484 4.078 1.452.922.953 1.547 2.258 1.875 3.914.328 1.657.492 3.516.492 5.579v12.82c0 2.25-.156 4.297-.469 6.14-.312 1.844-.976 3.313-1.992 4.407-1 1.078-2.531 1.617-4.594 1.617a4.62 4.62 0 0 1-2.601-.774c-.782-.515-1.399-1.109-1.852-1.78v8.812h-6.211Zm8.953-11.297c1.047 0 1.727-.508 2.039-1.524.313-1.03.469-2.5.469-4.406V17.875c0-1.016-.055-1.93-.164-2.742-.094-.828-.313-1.485-.656-1.969-.344-.484-.891-.726-1.641-.726-.578 0-1.078.148-1.5.445-.406.297-.726.836-.961 1.617-.219.781-.328 1.898-.328 3.352V32.71c0 1.797.172 3.195.516 4.195.343.985 1.086 1.477 2.226 1.477Zm22.735 5.039c-1.688 0-3.102-.258-4.243-.774-1.14-.53-2.046-1.289-2.718-2.273-.657-1-1.133-2.21-1.43-3.633-.281-1.437-.422-3.07-.422-4.898V18.695c0-2.203.281-4.148.844-5.836.578-1.703 1.515-3.03 2.812-3.984 1.297-.969 3.016-1.453 5.157-1.453 1.625 0 2.992.273 4.101.82a6.647 6.647 0 0 1 2.695 2.344c.688 1 1.188 2.187 1.5 3.562.313 1.375.469 2.891.469 4.547v13.149c0 1.797-.14 3.406-.422 4.828-.265 1.422-.734 2.64-1.406 3.656-.656 1-1.547 1.766-2.672 2.297-1.125.531-2.547.797-4.265.797Zm0-5.016c.703 0 1.234-.21 1.593-.633.36-.437.602-1.039.727-1.804.125-.766.187-1.649.187-2.649V17.594c0-1.063-.07-1.977-.211-2.742-.14-.766-.39-1.36-.75-1.782-.359-.422-.875-.633-1.546-.633-.704 0-1.243.211-1.618.633-.359.422-.609 1.016-.75 1.782-.125.765-.187 1.68-.187 2.742V33.32c0 1 .062 1.883.187 2.649.141.765.391 1.367.75 1.804.375.422.914.633 1.618.633Zm22.336 9.867c-1.938.032-3.586-.156-4.946-.562a10.289 10.289 0 0 1-3.703-1.945l2.18-3.914c.828.53 1.726.96 2.695 1.289.984.343 2.047.507 3.188.492 1.187-.016 2.093-.43 2.718-1.242.625-.813.938-1.899.938-3.258v-2.79c-.406 1.173-1.031 1.977-1.875 2.415-.828.437-1.836.656-3.024.656-1.656 0-2.961-.437-3.914-1.312-.937-.875-1.601-2.07-1.992-3.586-.39-1.516-.586-3.235-.586-5.157V18.04c0-2.047.203-3.867.61-5.46.406-1.61 1.101-2.876 2.086-3.798.984-.922 2.335-1.375 4.054-1.36 1.203 0 2.196.306 2.977.915.797.61 1.351 1.484 1.664 2.625V7.844h6.211v30.82c0 1.39-.156 2.672-.469 3.844-.312 1.156-.828 2.156-1.547 3-.719.86-1.672 1.523-2.859 1.992-1.188.484-2.656.742-4.406.773Zm.632-13.57c.563 0 1.024-.164 1.383-.492.36-.344.625-.922.797-1.734.172-.829.258-1.977.258-3.446V17.523c0-1.546-.188-2.78-.563-3.703-.375-.922-1.054-1.383-2.039-1.383-.75 0-1.304.22-1.664.657-.359.437-.594 1.039-.703 1.804-.109.75-.164 1.618-.164 2.602v11.578c0 1.735.164 3.11.492 4.125.328 1 1.063 1.5 2.203 1.5ZM249.073 43V7.844h6.258v3.914c.406-1.36 1.109-2.422 2.109-3.188 1.016-.765 2.305-1.148 3.868-1.148.031 0 .046.266.046.797.016.531.024 1.14.024 1.828v2.625c-.719 0-1.5.086-2.344.258a8.687 8.687 0 0 0-2.273.797c-.672.343-1.149.804-1.43 1.382V43h-6.258Zm22.078.352c-2.406 0-4.078-.875-5.015-2.625-.922-1.75-1.399-4.07-1.43-6.961v-2.25c0-1.875.266-3.399.797-4.57.547-1.173 1.32-2.126 2.32-2.86 1-.734 2.196-1.375 3.586-1.922a218.541 218.541 0 0 1 4.641-1.758v-3.07c0-1.188-.047-2.133-.141-2.836-.094-.719-.305-1.242-.633-1.57-.328-.328-.836-.492-1.523-.492-.672 0-1.188.171-1.547.515-.344.328-.578.844-.703 1.547-.125.688-.188 1.57-.188 2.648v1.57h-6.14v-1.054c0-1.61.133-3.047.398-4.312.281-1.266.75-2.336 1.406-3.211.657-.891 1.547-1.563 2.672-2.016 1.141-.469 2.571-.703 4.289-.703 1.516 0 2.813.219 3.891.656 1.078.422 1.953 1.063 2.625 1.922.672.844 1.164 1.906 1.477 3.188.312 1.28.468 2.773.468 4.476V43h-6.257v-3.492a5.603 5.603 0 0 1-.961 1.898 5.217 5.217 0 0 1-1.711 1.407c-.672.359-1.446.539-2.321.539Zm2.157-4.782c.781 0 1.406-.28 1.875-.843.468-.563.757-1.133.867-1.711V23.922c-.938.422-1.727.82-2.367 1.195-.641.36-1.157.758-1.547 1.195a3.925 3.925 0 0 0-.844 1.547c-.172.594-.258 1.32-.258 2.18v3.938c0 1.609.164 2.78.492 3.515.344.719.938 1.078 1.782 1.078Zm14.859 11.11V7.844h6.211v3.164c.453-1.156 1.164-2.031 2.133-2.625.968-.594 1.945-.89 2.929-.89 1.797 0 3.157.484 4.079 1.452.921.953 1.546 2.258 1.875 3.914.328 1.657.492 3.516.492 5.579v12.82c0 2.25-.157 4.297-.469 6.14-.313 1.844-.977 3.313-1.992 4.407-1 1.078-2.531 1.617-4.594 1.617-.953 0-1.82-.258-2.602-.774-.781-.515-1.398-1.109-1.851-1.78v8.812h-6.211Zm8.953-11.297c1.047 0 1.727-.508 2.039-1.524.313-1.03.469-2.5.469-4.406V17.875c0-1.016-.055-1.93-.164-2.742-.094-.828-.313-1.485-.656-1.969-.344-.484-.891-.726-1.641-.726-.578 0-1.078.148-1.5.445-.406.297-.727.836-.961 1.617-.219.781-.328 1.898-.328 3.352V32.71c0 1.797.172 3.195.516 4.195.343.985 1.085 1.477 2.226 1.477ZM311.628 43V1.398h6.211v10.477c.312-1.203.937-2.242 1.875-3.117.953-.89 2.148-1.336 3.586-1.336 2.047 0 3.586.68 4.617 2.039 1.047 1.344 1.57 3.297 1.57 5.86V43H323.3V15.906c0-1.125-.219-1.969-.656-2.531-.422-.578-1.032-.867-1.829-.867-.64 0-1.187.18-1.64.539-.438.36-.774.867-1.008 1.523-.219.657-.328 1.422-.328 2.297V43h-6.211Zm22.828 6.21v-4.288h2.039c.688 0 1.266-.063 1.734-.188.469-.109.735-.359.797-.75.11-.203.149-.562.118-1.078a21.177 21.177 0 0 0-.141-1.5l-5.625-33.562h5.906l2.25 17.976.938 9.47h.515l.844-9.47 2.063-17.976h5.882L345.683 44.5c-.172 1.11-.414 2.008-.727 2.695-.297.703-.75 1.211-1.359 1.524-.61.328-1.453.492-2.532.492h-6.609ZM366.401 43V7.187h-4.828V1.75H377.3v5.438h-4.641V43h-6.258Zm21.563.422c-1.688 0-3.102-.258-4.242-.774-1.141-.53-2.047-1.289-2.719-2.273-.656-1-1.133-2.21-1.43-3.633-.281-1.437-.422-3.07-.422-4.898V18.695c0-2.203.282-4.148.844-5.836.578-1.703 1.516-3.03 2.813-3.984 1.296-.969 3.015-1.453 5.156-1.453 1.625 0 2.992.273 4.101.82a6.657 6.657 0 0 1 2.696 2.344c.687 1 1.187 2.187 1.5 3.562.312 1.375.468 2.891.468 4.547v13.149c0 1.797-.14 3.406-.421 4.828-.266 1.422-.735 2.64-1.407 3.656-.656 1-1.547 1.766-2.672 2.297-1.125.531-2.546.797-4.265.797Zm0-5.016c.703 0 1.234-.21 1.594-.633.359-.437.601-1.039.726-1.804.125-.766.188-1.649.188-2.649V17.594c0-1.063-.071-1.977-.211-2.742-.141-.766-.391-1.36-.75-1.782-.36-.422-.875-.633-1.547-.633-.703 0-1.242.211-1.617.633-.36.422-.61 1.016-.75 1.782-.125.765-.188 1.68-.188 2.742V33.32c0 1 .063 1.883.188 2.649.14.765.39 1.367.75 1.804.375.422.914.633 1.617.633Zm22.734 5.016c-1.687 0-3.101-.258-4.242-.774-1.141-.53-2.047-1.289-2.719-2.273-.656-1-1.133-2.21-1.429-3.633-.282-1.437-.422-3.07-.422-4.898V18.695c0-2.203.281-4.148.843-5.836.579-1.703 1.516-3.03 2.813-3.984 1.297-.969 3.016-1.453 5.156-1.453 1.625 0 2.992.273 4.102.82a6.654 6.654 0 0 1 2.695 2.344c.688 1 1.188 2.187 1.5 3.562.313 1.375.469 2.891.469 4.547v13.149c0 1.797-.141 3.406-.422 4.828-.266 1.422-.734 2.64-1.406 3.656-.657 1-1.547 1.766-2.672 2.297-1.125.531-2.547.797-4.266.797Zm0-5.016c.703 0 1.235-.21 1.594-.633.359-.437.602-1.039.727-1.804.125-.766.187-1.649.187-2.649V17.594c0-1.063-.07-1.977-.211-2.742-.141-.766-.391-1.36-.75-1.782-.359-.422-.875-.633-1.547-.633-.703 0-1.242.211-1.617.633-.359.422-.609 1.016-.75 1.782-.125.765-.187 1.68-.187 2.742V33.32c0 1 .062 1.883.187 2.649.141.765.391 1.367.75 1.804.375.422.914.633 1.617.633ZM425.136 43V1.398h6.187V43h-6.187Zm19.734.445c-2.828 0-4.93-.804-6.305-2.414s-2.062-4.242-2.062-7.898v-2.274h5.836v2.836c0 1.532.187 2.696.562 3.492.375.797.985 1.196 1.828 1.196.813 0 1.415-.274 1.805-.82.391-.547.586-1.493.586-2.836 0-.782-.117-1.54-.351-2.274a7.671 7.671 0 0 0-1.055-2.156c-.469-.719-1.078-1.414-1.828-2.086l-3.164-2.86c-1.453-1.312-2.539-2.726-3.258-4.242-.719-1.53-1.078-3.218-1.078-5.062 0-2.985.695-5.164 2.086-6.54 1.406-1.39 3.484-2.085 6.234-2.085 1.781 0 3.258.336 4.43 1.008 1.172.656 2.047 1.726 2.625 3.21.578 1.485.867 3.477.867 5.977v1.922h-5.555v-2.32c0-1.547-.179-2.719-.539-3.516-.344-.797-.937-1.195-1.781-1.195-.828 0-1.438.234-1.828.703-.391.453-.602 1.258-.633 2.414a6.196 6.196 0 0 0 .234 1.852c.172.593.438 1.18.797 1.757a9.29 9.29 0 0 0 1.453 1.664l3.328 3.024c1.75 1.578 3.04 3.226 3.868 4.945.843 1.719 1.265 3.578 1.265 5.578 0 2.953-.672 5.196-2.015 6.727-1.344 1.516-3.461 2.273-6.352 2.273Z"/></g><path stroke="#D9E6E7" stroke-width="2" d="M1.198 43V1.75h14.156v5.46H7.48v10.97h7.313v5.484H7.479V43H1.2Zm26.391.422c-1.688 0-3.102-.258-4.242-.774-1.14-.53-2.047-1.289-2.72-2.273-.655-1-1.132-2.21-1.429-3.633-.281-1.437-.422-3.07-.422-4.898V18.695c0-2.203.282-4.148.844-5.836.578-1.703 1.516-3.03 2.813-3.984 1.297-.969 3.015-1.453 5.156-1.453 1.625 0 2.992.273 4.101.82a6.653 6.653 0 0 1 2.696 2.344c.687 1 1.187 2.187 1.5 3.562.312 1.375.468 2.891.468 4.547v13.149c0 1.797-.14 3.406-.421 4.828-.266 1.422-.735 2.64-1.407 3.656-.656 1-1.547 1.766-2.672 2.297-1.124.531-2.546.797-4.265.797Zm0-5.016c.703 0 1.234-.21 1.594-.633.359-.437.601-1.039.726-1.804.125-.766.188-1.649.188-2.649V17.594c0-1.063-.07-1.977-.211-2.742-.14-.766-.39-1.36-.75-1.782-.36-.422-.875-.633-1.547-.633-.703 0-1.242.211-1.617.633-.36.422-.61 1.016-.75 1.782-.125.765-.188 1.68-.188 2.742V33.32c0 1 .063 1.883.188 2.649.14.765.39 1.367.75 1.804.375.422.914.633 1.617.633ZM42.003 43V7.844h6.21v4.031c.313-1.203.97-2.242 1.97-3.117 1-.89 2.226-1.336 3.68-1.336 2.03 0 3.554.68 4.57 2.039 1.015 1.344 1.523 3.297 1.523 5.86V43h-6.21V15.695c0-1.015-.235-1.812-.704-2.39-.453-.578-1.078-.867-1.875-.867-.64 0-1.188.18-1.64.539-.438.343-.766.828-.985 1.453-.219.61-.328 1.328-.328 2.156V43h-6.211Zm30.257.234c-1.5 0-2.648-.187-3.445-.562-.796-.39-1.343-1-1.64-1.828-.297-.828-.445-1.899-.445-3.211V13.07h-2.86v-4.5h2.86V1.75h6.21v6.82h3.422v4.5H72.94v23.485c0 .547.086.96.258 1.242.172.281.508.469 1.008.562.516.094 1.273.141 2.273.141v4.734h-4.218Zm15.891.211c-2.828 0-4.93-.804-6.304-2.414-1.375-1.61-2.063-4.242-2.063-7.898v-2.274h5.836v2.836c0 1.532.188 2.696.563 3.492.375.797.984 1.196 1.828 1.196.812 0 1.414-.274 1.804-.82.391-.547.586-1.493.586-2.836 0-.782-.117-1.54-.351-2.274a7.651 7.651 0 0 0-1.055-2.156c-.469-.719-1.078-1.414-1.828-2.086l-3.164-2.86c-1.453-1.312-2.54-2.726-3.258-4.242-.719-1.53-1.078-3.218-1.078-5.062 0-2.985.695-5.164 2.086-6.54 1.406-1.39 3.484-2.085 6.234-2.085 1.782 0 3.258.336 4.43 1.008 1.172.656 2.047 1.726 2.625 3.21.578 1.485.867 3.477.867 5.977v1.922h-5.555v-2.32c0-1.547-.18-2.719-.539-3.516-.343-.797-.937-1.195-1.78-1.195-.829 0-1.438.234-1.829.703-.39.453-.602 1.258-.633 2.414a6.212 6.212 0 0 0 .235 1.852c.171.593.437 1.18.796 1.757.376.563.86 1.118 1.454 1.664l3.328 3.024c1.75 1.578 3.039 3.226 3.867 4.945.844 1.719 1.266 3.578 1.266 5.578 0 2.953-.672 5.196-2.016 6.727-1.344 1.516-3.461 2.273-6.352 2.273Zm27.703.024c-2.328 0-4.164-.797-5.507-2.39-1.344-1.61-2.016-3.923-2.016-6.938 0-1.61.313-3.149.938-4.618a22.046 22.046 0 0 1 2.414-4.289c1-1.39 2.054-2.734 3.164-4.03a105.798 105.798 0 0 1-2.391-6.868c-.641-2.11-.961-3.734-.961-4.875 0-2.656.688-4.688 2.063-6.094 1.39-1.406 3.226-2.11 5.507-2.11 1.657 0 3.032.321 4.125.962 1.094.625 1.914 1.547 2.461 2.765.547 1.204.821 2.672.821 4.407a11.98 11.98 0 0 1-.774 4.242 21.662 21.662 0 0 1-2.015 3.984 50.825 50.825 0 0 1-2.696 3.774l3.024 7.523a77.572 77.572 0 0 1 1.992-3.14 37.924 37.924 0 0 1 2.461-3.258l2.555 4.312a20.726 20.726 0 0 0-2.579 3.586 161.706 161.706 0 0 0-2.132 3.938L130.011 43h-5.813l-1.336-3.047a12.335 12.335 0 0 1-1.898 1.828 7.817 7.817 0 0 1-2.274 1.242c-.843.297-1.789.446-2.836.446Zm1.055-5.367c.469 0 .906-.133 1.313-.399.406-.266.804-.633 1.195-1.101.391-.485.789-1.055 1.195-1.711l-3.633-8.438a35.427 35.427 0 0 0-1.664 2.414 14.407 14.407 0 0 0-1.171 2.367 7.372 7.372 0 0 0-.493 2.32c-.047 1.485.196 2.618.727 3.4.547.765 1.391 1.148 2.531 1.148Zm2.133-21.914c.906-1.172 1.648-2.329 2.227-3.47.578-1.14.867-2.28.867-3.421 0-1.344-.164-2.313-.492-2.906-.329-.594-.954-.891-1.875-.891-.547 0-.993.11-1.336.328a2.2 2.2 0 0 0-.797.89c-.172.36-.289.759-.352 1.196a9.344 9.344 0 0 0-.094 1.313c0 .625.164 1.546.493 2.765a72.51 72.51 0 0 0 1.359 4.195ZM145.151 43V7.187h-4.828V1.75h15.727v5.438h-4.641V43h-6.258Zm13.43 6.21v-4.288h2.039c.688 0 1.266-.063 1.734-.188.469-.109.735-.359.797-.75.11-.203.149-.562.118-1.078a21.177 21.177 0 0 0-.141-1.5l-5.625-33.562h5.906l2.25 17.976.938 9.47h.515l.844-9.47 2.063-17.976h5.882L169.808 44.5c-.172 1.11-.414 2.008-.727 2.695-.297.703-.75 1.211-1.359 1.524-.61.328-1.453.492-2.532.492h-6.609Zm21.164.47V7.844h6.211v3.164c.453-1.156 1.164-2.031 2.133-2.625.969-.594 1.945-.89 2.93-.89 1.796 0 3.156.484 4.078 1.452.922.953 1.547 2.258 1.875 3.914.328 1.657.492 3.516.492 5.579v12.82c0 2.25-.156 4.297-.469 6.14-.312 1.844-.976 3.313-1.992 4.407-1 1.078-2.531 1.617-4.594 1.617a4.62 4.62 0 0 1-2.601-.774c-.782-.515-1.399-1.109-1.852-1.78v8.812h-6.211Zm8.953-11.297c1.047 0 1.727-.508 2.039-1.524.313-1.03.469-2.5.469-4.406V17.875c0-1.016-.055-1.93-.164-2.742-.094-.828-.313-1.485-.656-1.969-.344-.484-.891-.726-1.641-.726-.578 0-1.078.148-1.5.445-.406.297-.726.836-.961 1.617-.219.781-.328 1.898-.328 3.352V32.71c0 1.797.172 3.195.516 4.195.343.985 1.086 1.477 2.226 1.477Zm22.735 5.039c-1.688 0-3.102-.258-4.243-.774-1.14-.53-2.046-1.289-2.718-2.273-.657-1-1.133-2.21-1.43-3.633-.281-1.437-.422-3.07-.422-4.898V18.695c0-2.203.281-4.148.844-5.836.578-1.703 1.515-3.03 2.812-3.984 1.297-.969 3.016-1.453 5.157-1.453 1.625 0 2.992.273 4.101.82a6.647 6.647 0 0 1 2.695 2.344c.688 1 1.188 2.187 1.5 3.562.313 1.375.469 2.891.469 4.547v13.149c0 1.797-.14 3.406-.422 4.828-.265 1.422-.734 2.64-1.406 3.656-.656 1-1.547 1.766-2.672 2.297-1.125.531-2.547.797-4.265.797Zm0-5.016c.703 0 1.234-.21 1.593-.633.36-.437.602-1.039.727-1.804.125-.766.187-1.649.187-2.649V17.594c0-1.063-.07-1.977-.211-2.742-.14-.766-.39-1.36-.75-1.782-.359-.422-.875-.633-1.546-.633-.704 0-1.243.211-1.618.633-.359.422-.609 1.016-.75 1.782-.125.765-.187 1.68-.187 2.742V33.32c0 1 .062 1.883.187 2.649.141.765.391 1.367.75 1.804.375.422.914.633 1.618.633Zm22.336 9.867c-1.938.032-3.586-.156-4.946-.562a10.289 10.289 0 0 1-3.703-1.945l2.18-3.914c.828.53 1.726.96 2.695 1.289.984.343 2.047.507 3.188.492 1.187-.016 2.093-.43 2.718-1.242.625-.813.938-1.899.938-3.258v-2.79c-.406 1.173-1.031 1.977-1.875 2.415-.828.437-1.836.656-3.024.656-1.656 0-2.961-.437-3.914-1.312-.937-.875-1.601-2.07-1.992-3.586-.39-1.516-.586-3.235-.586-5.157V18.04c0-2.047.203-3.867.61-5.46.406-1.61 1.101-2.876 2.086-3.798.984-.922 2.335-1.375 4.054-1.36 1.203 0 2.196.306 2.977.915.797.61 1.351 1.484 1.664 2.625V7.844h6.211v30.82c0 1.39-.156 2.672-.469 3.844-.312 1.156-.828 2.156-1.547 3-.719.86-1.672 1.523-2.859 1.992-1.188.484-2.656.742-4.406.773Zm.632-13.57c.563 0 1.024-.164 1.383-.492.36-.344.625-.922.797-1.734.172-.829.258-1.977.258-3.446V17.523c0-1.546-.188-2.78-.563-3.703-.375-.922-1.054-1.383-2.039-1.383-.75 0-1.304.22-1.664.657-.359.437-.594 1.039-.703 1.804-.109.75-.164 1.618-.164 2.602v11.578c0 1.735.164 3.11.492 4.125.328 1 1.063 1.5 2.203 1.5ZM249.073 43V7.844h6.258v3.914c.406-1.36 1.109-2.422 2.109-3.188 1.016-.765 2.305-1.148 3.868-1.148.031 0 .046.266.046.797.016.531.024 1.14.024 1.828v2.625c-.719 0-1.5.086-2.344.258a8.687 8.687 0 0 0-2.273.797c-.672.343-1.149.804-1.43 1.382V43h-6.258Zm22.078.352c-2.406 0-4.078-.875-5.015-2.625-.922-1.75-1.399-4.07-1.43-6.961v-2.25c0-1.875.266-3.399.797-4.57.547-1.173 1.32-2.126 2.32-2.86 1-.734 2.196-1.375 3.586-1.922a218.541 218.541 0 0 1 4.641-1.758v-3.07c0-1.188-.047-2.133-.141-2.836-.094-.719-.305-1.242-.633-1.57-.328-.328-.836-.492-1.523-.492-.672 0-1.188.171-1.547.515-.344.328-.578.844-.703 1.547-.125.688-.188 1.57-.188 2.648v1.57h-6.14v-1.054c0-1.61.133-3.047.398-4.312.281-1.266.75-2.336 1.406-3.211.657-.891 1.547-1.563 2.672-2.016 1.141-.469 2.571-.703 4.289-.703 1.516 0 2.813.219 3.891.656 1.078.422 1.953 1.063 2.625 1.922.672.844 1.164 1.906 1.477 3.188.312 1.28.468 2.773.468 4.476V43h-6.257v-3.492a5.603 5.603 0 0 1-.961 1.898 5.217 5.217 0 0 1-1.711 1.407c-.672.359-1.446.539-2.321.539Zm2.157-4.782c.781 0 1.406-.28 1.875-.843.468-.563.757-1.133.867-1.711V23.922c-.938.422-1.727.82-2.367 1.195-.641.36-1.157.758-1.547 1.195a3.925 3.925 0 0 0-.844 1.547c-.172.594-.258 1.32-.258 2.18v3.938c0 1.609.164 2.78.492 3.515.344.719.938 1.078 1.782 1.078Zm14.859 11.11V7.844h6.211v3.164c.453-1.156 1.164-2.031 2.133-2.625.968-.594 1.945-.89 2.929-.89 1.797 0 3.157.484 4.079 1.452.921.953 1.546 2.258 1.875 3.914.328 1.657.492 3.516.492 5.579v12.82c0 2.25-.157 4.297-.469 6.14-.313 1.844-.977 3.313-1.992 4.407-1 1.078-2.531 1.617-4.594 1.617-.953 0-1.82-.258-2.602-.774-.781-.515-1.398-1.109-1.851-1.78v8.812h-6.211Zm8.953-11.297c1.047 0 1.727-.508 2.039-1.524.313-1.03.469-2.5.469-4.406V17.875c0-1.016-.055-1.93-.164-2.742-.094-.828-.313-1.485-.656-1.969-.344-.484-.891-.726-1.641-.726-.578 0-1.078.148-1.5.445-.406.297-.727.836-.961 1.617-.219.781-.328 1.898-.328 3.352V32.71c0 1.797.172 3.195.516 4.195.343.985 1.085 1.477 2.226 1.477ZM311.628 43V1.398h6.211v10.477c.312-1.203.937-2.242 1.875-3.117.953-.89 2.148-1.336 3.586-1.336 2.047 0 3.586.68 4.617 2.039 1.047 1.344 1.57 3.297 1.57 5.86V43H323.3V15.906c0-1.125-.219-1.969-.656-2.531-.422-.578-1.032-.867-1.829-.867-.64 0-1.187.18-1.64.539-.438.36-.774.867-1.008 1.523-.219.657-.328 1.422-.328 2.297V43h-6.211Zm22.828 6.21v-4.288h2.039c.688 0 1.266-.063 1.734-.188.469-.109.735-.359.797-.75.11-.203.149-.562.118-1.078a21.177 21.177 0 0 0-.141-1.5l-5.625-33.562h5.906l2.25 17.976.938 9.47h.515l.844-9.47 2.063-17.976h5.882L345.683 44.5c-.172 1.11-.414 2.008-.727 2.695-.297.703-.75 1.211-1.359 1.524-.61.328-1.453.492-2.532.492h-6.609ZM366.401 43V7.187h-4.828V1.75H377.3v5.438h-4.641V43h-6.258Zm21.563.422c-1.688 0-3.102-.258-4.242-.774-1.141-.53-2.047-1.289-2.719-2.273-.656-1-1.133-2.21-1.43-3.633-.281-1.437-.422-3.07-.422-4.898V18.695c0-2.203.282-4.148.844-5.836.578-1.703 1.516-3.03 2.813-3.984 1.296-.969 3.015-1.453 5.156-1.453 1.625 0 2.992.273 4.101.82a6.657 6.657 0 0 1 2.696 2.344c.687 1 1.187 2.187 1.5 3.562.312 1.375.468 2.891.468 4.547v13.149c0 1.797-.14 3.406-.421 4.828-.266 1.422-.735 2.64-1.407 3.656-.656 1-1.547 1.766-2.672 2.297-1.125.531-2.546.797-4.265.797Zm0-5.016c.703 0 1.234-.21 1.594-.633.359-.437.601-1.039.726-1.804.125-.766.188-1.649.188-2.649V17.594c0-1.063-.071-1.977-.211-2.742-.141-.766-.391-1.36-.75-1.782-.36-.422-.875-.633-1.547-.633-.703 0-1.242.211-1.617.633-.36.422-.61 1.016-.75 1.782-.125.765-.188 1.68-.188 2.742V33.32c0 1 .063 1.883.188 2.649.14.765.39 1.367.75 1.804.375.422.914.633 1.617.633Zm22.734 5.016c-1.687 0-3.101-.258-4.242-.774-1.141-.53-2.047-1.289-2.719-2.273-.656-1-1.133-2.21-1.429-3.633-.282-1.437-.422-3.07-.422-4.898V18.695c0-2.203.281-4.148.843-5.836.579-1.703 1.516-3.03 2.813-3.984 1.297-.969 3.016-1.453 5.156-1.453 1.625 0 2.992.273 4.102.82a6.654 6.654 0 0 1 2.695 2.344c.688 1 1.188 2.187 1.5 3.562.313 1.375.469 2.891.469 4.547v13.149c0 1.797-.141 3.406-.422 4.828-.266 1.422-.734 2.64-1.406 3.656-.657 1-1.547 1.766-2.672 2.297-1.125.531-2.547.797-4.266.797Zm0-5.016c.703 0 1.235-.21 1.594-.633.359-.437.602-1.039.727-1.804.125-.766.187-1.649.187-2.649V17.594c0-1.063-.07-1.977-.211-2.742-.141-.766-.391-1.36-.75-1.782-.359-.422-.875-.633-1.547-.633-.703 0-1.242.211-1.617.633-.359.422-.609 1.016-.75 1.782-.125.765-.187 1.68-.187 2.742V33.32c0 1 .062 1.883.187 2.649.141.765.391 1.367.75 1.804.375.422.914.633 1.617.633ZM425.136 43V1.398h6.187V43h-6.187Zm19.734.445c-2.828 0-4.93-.804-6.305-2.414s-2.062-4.242-2.062-7.898v-2.274h5.836v2.836c0 1.532.187 2.696.562 3.492.375.797.985 1.196 1.828 1.196.813 0 1.415-.274 1.805-.82.391-.547.586-1.493.586-2.836 0-.782-.117-1.54-.351-2.274a7.671 7.671 0 0 0-1.055-2.156c-.469-.719-1.078-1.414-1.828-2.086l-3.164-2.86c-1.453-1.312-2.539-2.726-3.258-4.242-.719-1.53-1.078-3.218-1.078-5.062 0-2.985.695-5.164 2.086-6.54 1.406-1.39 3.484-2.085 6.234-2.085 1.781 0 3.258.336 4.43 1.008 1.172.656 2.047 1.726 2.625 3.21.578 1.485.867 3.477.867 5.977v1.922h-5.555v-2.32c0-1.547-.179-2.719-.539-3.516-.344-.797-.937-1.195-1.781-1.195-.828 0-1.438.234-1.828.703-.391.453-.602 1.258-.633 2.414a6.196 6.196 0 0 0 .234 1.852c.172.593.438 1.18.797 1.757a9.29 9.29 0 0 0 1.453 1.664l3.328 3.024c1.75 1.578 3.04 3.226 3.868 4.945.843 1.719 1.265 3.578 1.265 5.578 0 2.953-.672 5.196-2.015 6.727-1.344 1.516-3.461 2.273-6.352 2.273Z" mask="url(#b)"/><defs><filter id="a" width="458.039" height="54.422" x="-.802" y="-.742" color-interpolation-filters="sRGB" filterUnits="userSpaceOnUse"><feFlood flood-opacity="0" result="BackgroundImageFix"/><feBlend in="SourceGraphic" in2="BackgroundImageFix" result="shape"/><feColorMatrix in="SourceAlpha" result="hardAlpha" values="0 0 0 0 0 0 0 0 0 0 0 0 0 0 0 0 0 0 127 0"/><feOffset dx="-1" dy="-1"/><feGaussianBlur stdDeviation="1.5"/><feComposite in2="hardAlpha" k2="-1" k3="1" operator="arithmetic"/><feColorMatrix values="0 0 0 0 0.984314 0 0 0 0 0.984314 0 0 0 0 0.984314 0 0 0 1 0"/><feBlend in2="shape" result="effect1_innerShadow_127_2786"/><feColorMatrix in="SourceAlpha" result="hardAlpha" values="0 0 0 0 0 0 0 0 0 0 0 0 0 0 0 0 0 0 127 0"/><feOffset dx="3" dy="3"/><feGaussianBlur stdDeviation="4.5"/><feComposite in2="hardAlpha" k2="-1" k3="1" operator="arithmetic"/><feColorMatrix values="0 0 0 0 0.772549 0 0 0 0 0.772549 0 0 0 0 0.772549 0 0 0 1 0"/><feBlend in2="effect1_innerShadow_127_2786" result="effect2_innerShadow_127_2786"/></filter></defs></svg>