<svg xmlns="http://www.w3.org/2000/svg" width="314" height="466" fill="none"><g filter="url(#a)"><mask id="b" width="298" height="450" x="8" y="8" fill="#000" maskUnits="userSpaceOnUse"><path fill="#fff" d="M8 8h298v450H8z"/><path d="M13.137 9h44.936c25.615 0 40.962 16.811 40.962 47.048v131.804c0 30.354-15.347 47.048-40.962 47.048H13.137V9Zm55.535 181.888V52.662c0-10.273-5.189-16.227-13.028-16.227H43.168v170.914h12.255c7.84 0 13.25-5.837 13.25-16.461Zm91.971-154.22c27.602 0 41.403 15.177 41.403 45.648v56.737h-54.1v52.769c0 12.491 4.416 18.679 13.359 18.679 8.06 0 12.035-4.903 12.035-14.593v-44.713h28.706v46.931c0 11.441-3.643 20.78-11.041 28.019-7.397 7.238-17.334 10.857-29.7 10.857-27.933 0-43.169-16.695-43.169-46.114V85.001c0-31.288 15.457-48.333 42.507-48.333Zm.221 25.8c-8.391 0-12.918 7.24-12.918 17.513v34.206h24.842V79.981c.11-11.675-3.864-17.512-11.924-17.512Zm96.607 123.4h1.877l3.644-41.094 10.599-106.705h30.473L275.578 234.9H240.8L212.535 38.07h30.252l10.931 106.003 3.753 41.795Zm-96.821 91.335h13.51v12.461h-13.51v14.852h-12.201v-14.852H134.76v-12.461h13.689v-14.726h12.201v14.726ZM9 320.464h24.224c13.808 0 22.08 9.062 22.08 25.362v71.051c0 16.362-8.273 25.361-22.08 25.361H9V320.464Zm29.937 98.049v-74.512c0-5.538-2.797-8.748-7.023-8.748H25.19v92.133h6.606c4.226 0 7.142-3.146 7.142-8.873Zm49.578-83.134c14.879 0 22.319 8.181 22.319 24.607v30.585H81.671v28.445c0 6.734 2.38 10.07 7.201 10.07 4.345 0 6.487-2.644 6.487-7.867v-24.103h15.475v25.299c0 6.167-1.964 11.202-5.952 15.104-3.987 3.901-9.344 5.852-16.01 5.852-15.058 0-23.271-8.999-23.271-24.858v-57.08c0-16.866 8.332-26.054 22.914-26.054Zm.119 13.908c-4.523 0-6.963 3.902-6.963 9.44v18.439h13.39v-18.439c.06-6.293-2.082-9.44-6.427-9.44Zm51.959 28.634 10.117 2.958c9.761 3.084 14.225 9.377 14.225 20.39v20.894c0 6.545-2.083 11.705-6.19 15.481-4.106 3.839-9.582 5.727-16.307 5.727-14.285 0-22.796-6.734-22.796-21.397v-20.83h15.594v21.774c0 3.776 2.797 6.168 6.666 6.168 4.226 0 6.963-2.455 6.963-5.916v-19.824c0-3.587-2.083-6.167-6.308-7.741l-10.356-2.957c-9.107-2.769-13.094-8.874-13.094-19.509v-17.118c0-6.105 2.023-11.076 6.071-14.915 3.987-3.839 9.522-5.727 16.486-5.727 7.201 0 12.677 1.762 16.427 5.286 3.69 3.525 5.535 8.056 5.535 13.531v18.439h-15.475v-16.614c0-4.091-2.738-6.734-6.487-6.734-4.047 0-6.547 2.329-6.547 5.538v16.426c0 3.587 1.428 5.349 5.476 6.67Zm33.686-45.752v-12.397h15.891v12.397h-15.891Zm0 110.069V336.449h15.891v105.789h-15.891Zm55.292-95.783 1.726-10.132h13.986l.119 99.37c-.059 7.112-1.904 12.398-5.535 15.734-3.63 3.335-8.273 4.971-13.927 4.971h-20.712v-14.034h16.427c5.297 0 7.916-2.706 7.916-8.118v-9.377c-1.964 3.965-3.988 6.86-6.071 8.748-2.083 1.888-4.94 2.832-8.451 2.832-4.226-.063-7.678-1.7-10.356-4.909-2.738-3.21-4.107-7.93-4.107-14.16v-62.932c0-6.357 1.369-11.139 4.107-14.349 2.678-3.147 6.13-4.72 10.356-4.72 5.773 0 10.594 3.713 14.522 11.076Zm-6.785 3.273c-3.75 0-6.249 2.895-6.249 8.747v54.5c0 6.104 2.083 9.125 6.249 9.188 4.404 0 6.606-3.273 6.547-9.817v-52.99c.059-6.419-2.143-9.628-6.547-9.628Zm65.945-14.349c7.618 0 12.677 5.286 12.677 16.614v90.245h-15.891v-85.714c0-4.216-1.845-6.293-5.476-6.293-3.868 0-6.904 3.084-6.904 8.622v83.385h-15.891V336.449h14.046l1.429 10.258c1.488-3.021 3.63-5.664 6.487-7.993 2.857-2.328 6.011-3.398 9.523-3.335Z"/></mask><path fill="#E0E0E0" d="M13.137 9h44.936c25.615 0 40.962 16.811 40.962 47.048v131.804c0 30.354-15.347 47.048-40.962 47.048H13.137V9Zm55.535 181.888V52.662c0-10.273-5.189-16.227-13.028-16.227H43.168v170.914h12.255c7.84 0 13.25-5.837 13.25-16.461Zm91.971-154.22c27.602 0 41.403 15.177 41.403 45.648v56.737h-54.1v52.769c0 12.491 4.416 18.679 13.359 18.679 8.06 0 12.035-4.903 12.035-14.593v-44.713h28.706v46.931c0 11.441-3.643 20.78-11.041 28.019-7.397 7.238-17.334 10.857-29.7 10.857-27.933 0-43.169-16.695-43.169-46.114V85.001c0-31.288 15.457-48.333 42.507-48.333Zm.221 25.8c-8.391 0-12.918 7.24-12.918 17.513v34.206h24.842V79.981c.11-11.675-3.864-17.512-11.924-17.512Zm96.607 123.4h1.877l3.644-41.094 10.599-106.705h30.473L275.578 234.9H240.8L212.535 38.07h30.252l10.931 106.003 3.753 41.795Zm-96.821 91.335h13.51v12.461h-13.51v14.852h-12.201v-14.852H134.76v-12.461h13.689v-14.726h12.201v14.726ZM9 320.464h24.224c13.808 0 22.08 9.062 22.08 25.362v71.051c0 16.362-8.273 25.361-22.08 25.361H9V320.464Zm29.937 98.049v-74.512c0-5.538-2.797-8.748-7.023-8.748H25.19v92.133h6.606c4.226 0 7.142-3.146 7.142-8.873Zm49.578-83.134c14.879 0 22.319 8.181 22.319 24.607v30.585H81.671v28.445c0 6.734 2.38 10.07 7.201 10.07 4.345 0 6.487-2.644 6.487-7.867v-24.103h15.475v25.299c0 6.167-1.964 11.202-5.952 15.104-3.987 3.901-9.344 5.852-16.01 5.852-15.058 0-23.271-8.999-23.271-24.858v-57.08c0-16.866 8.332-26.054 22.914-26.054Zm.119 13.908c-4.523 0-6.963 3.902-6.963 9.44v18.439h13.39v-18.439c.06-6.293-2.082-9.44-6.427-9.44Zm51.959 28.634 10.117 2.958c9.761 3.084 14.225 9.377 14.225 20.39v20.894c0 6.545-2.083 11.705-6.19 15.481-4.106 3.839-9.582 5.727-16.307 5.727-14.285 0-22.796-6.734-22.796-21.397v-20.83h15.594v21.774c0 3.776 2.797 6.168 6.666 6.168 4.226 0 6.963-2.455 6.963-5.916v-19.824c0-3.587-2.083-6.167-6.308-7.741l-10.356-2.957c-9.107-2.769-13.094-8.874-13.094-19.509v-17.118c0-6.105 2.023-11.076 6.071-14.915 3.987-3.839 9.522-5.727 16.486-5.727 7.201 0 12.677 1.762 16.427 5.286 3.69 3.525 5.535 8.056 5.535 13.531v18.439h-15.475v-16.614c0-4.091-2.738-6.734-6.487-6.734-4.047 0-6.547 2.329-6.547 5.538v16.426c0 3.587 1.428 5.349 5.476 6.67Zm33.686-45.752v-12.397h15.891v12.397h-15.891Zm0 110.069V336.449h15.891v105.789h-15.891Zm55.292-95.783 1.726-10.132h13.986l.119 99.37c-.059 7.112-1.904 12.398-5.535 15.734-3.63 3.335-8.273 4.971-13.927 4.971h-20.712v-14.034h16.427c5.297 0 7.916-2.706 7.916-8.118v-9.377c-1.964 3.965-3.988 6.86-6.071 8.748-2.083 1.888-4.94 2.832-8.451 2.832-4.226-.063-7.678-1.7-10.356-4.909-2.738-3.21-4.107-7.93-4.107-14.16v-62.932c0-6.357 1.369-11.139 4.107-14.349 2.678-3.147 6.13-4.72 10.356-4.72 5.773 0 10.594 3.713 14.522 11.076Zm-6.785 3.273c-3.75 0-6.249 2.895-6.249 8.747v54.5c0 6.104 2.083 9.125 6.249 9.188 4.404 0 6.606-3.273 6.547-9.817v-52.99c.059-6.419-2.143-9.628-6.547-9.628Zm65.945-14.349c7.618 0 12.677 5.286 12.677 16.614v90.245h-15.891v-85.714c0-4.216-1.845-6.293-5.476-6.293-3.868 0-6.904 3.084-6.904 8.622v83.385h-15.891V336.449h14.046l1.429 10.258c1.488-3.021 3.63-5.664 6.487-7.993 2.857-2.328 6.011-3.398 9.523-3.335Z"/><path stroke="#EAEAEA" stroke-width="2" d="M13.137 9h44.936c25.615 0 40.962 16.811 40.962 47.048v131.804c0 30.354-15.347 47.048-40.962 47.048H13.137V9Zm55.535 181.888V52.662c0-10.273-5.189-16.227-13.028-16.227H43.168v170.914h12.255c7.84 0 13.25-5.837 13.25-16.461Zm91.971-154.22c27.602 0 41.403 15.177 41.403 45.648v56.737h-54.1v52.769c0 12.491 4.416 18.679 13.359 18.679 8.06 0 12.035-4.903 12.035-14.593v-44.713h28.706v46.931c0 11.441-3.643 20.78-11.041 28.019-7.397 7.238-17.334 10.857-29.7 10.857-27.933 0-43.169-16.695-43.169-46.114V85.001c0-31.288 15.457-48.333 42.507-48.333Zm.221 25.8c-8.391 0-12.918 7.24-12.918 17.513v34.206h24.842V79.981c.11-11.675-3.864-17.512-11.924-17.512Zm96.607 123.4h1.877l3.644-41.094 10.599-106.705h30.473L275.578 234.9H240.8L212.535 38.07h30.252l10.931 106.003 3.753 41.795Zm-96.821 91.335h13.51v12.461h-13.51v14.852h-12.201v-14.852H134.76v-12.461h13.689v-14.726h12.201v14.726ZM9 320.464h24.224c13.808 0 22.08 9.062 22.08 25.362v71.051c0 16.362-8.273 25.361-22.08 25.361H9V320.464Zm29.937 98.049v-74.512c0-5.538-2.797-8.748-7.023-8.748H25.19v92.133h6.606c4.226 0 7.142-3.146 7.142-8.873Zm49.578-83.134c14.879 0 22.319 8.181 22.319 24.607v30.585H81.671v28.445c0 6.734 2.38 10.07 7.201 10.07 4.345 0 6.487-2.644 6.487-7.867v-24.103h15.475v25.299c0 6.167-1.964 11.202-5.952 15.104-3.987 3.901-9.344 5.852-16.01 5.852-15.058 0-23.271-8.999-23.271-24.858v-57.08c0-16.866 8.332-26.054 22.914-26.054Zm.119 13.908c-4.523 0-6.963 3.902-6.963 9.44v18.439h13.39v-18.439c.06-6.293-2.082-9.44-6.427-9.44Zm51.959 28.634 10.117 2.958c9.761 3.084 14.225 9.377 14.225 20.39v20.894c0 6.545-2.083 11.705-6.19 15.481-4.106 3.839-9.582 5.727-16.307 5.727-14.285 0-22.796-6.734-22.796-21.397v-20.83h15.594v21.774c0 3.776 2.797 6.168 6.666 6.168 4.226 0 6.963-2.455 6.963-5.916v-19.824c0-3.587-2.083-6.167-6.308-7.741l-10.356-2.957c-9.107-2.769-13.094-8.874-13.094-19.509v-17.118c0-6.105 2.023-11.076 6.071-14.915 3.987-3.839 9.522-5.727 16.486-5.727 7.201 0 12.677 1.762 16.427 5.286 3.69 3.525 5.535 8.056 5.535 13.531v18.439h-15.475v-16.614c0-4.091-2.738-6.734-6.487-6.734-4.047 0-6.547 2.329-6.547 5.538v16.426c0 3.587 1.428 5.349 5.476 6.67Zm33.686-45.752v-12.397h15.891v12.397h-15.891Zm0 110.069V336.449h15.891v105.789h-15.891Zm55.292-95.783 1.726-10.132h13.986l.119 99.37c-.059 7.112-1.904 12.398-5.535 15.734-3.63 3.335-8.273 4.971-13.927 4.971h-20.712v-14.034h16.427c5.297 0 7.916-2.706 7.916-8.118v-9.377c-1.964 3.965-3.988 6.86-6.071 8.748-2.083 1.888-4.94 2.832-8.451 2.832-4.226-.063-7.678-1.7-10.356-4.909-2.738-3.21-4.107-7.93-4.107-14.16v-62.932c0-6.357 1.369-11.139 4.107-14.349 2.678-3.147 6.13-4.72 10.356-4.72 5.773 0 10.594 3.713 14.522 11.076Zm-6.785 3.273c-3.75 0-6.249 2.895-6.249 8.747v54.5c0 6.104 2.083 9.125 6.249 9.188 4.404 0 6.606-3.273 6.547-9.817v-52.99c.059-6.419-2.143-9.628-6.547-9.628Zm65.945-14.349c7.618 0 12.677 5.286 12.677 16.614v90.245h-15.891v-85.714c0-4.216-1.845-6.293-5.476-6.293-3.868 0-6.904 3.084-6.904 8.622v83.385h-15.891V336.449h14.046l1.429 10.258c1.488-3.021 3.63-5.664 6.487-7.993 2.857-2.328 6.011-3.398 9.523-3.335Z" mask="url(#b)"/></g><defs><filter id="a" width="313.219" height="465.398" x="0" y="0" color-interpolation-filters="sRGB" filterUnits="userSpaceOnUse"><feFlood flood-opacity="0" result="BackgroundImageFix"/><feColorMatrix in="SourceAlpha" result="hardAlpha" values="0 0 0 0 0 0 0 0 0 0 0 0 0 0 0 0 0 0 127 0"/><feOffset dx="-3" dy="-3"/><feGaussianBlur stdDeviation="2.5"/><feColorMatrix values="0 0 0 0 1 0 0 0 0 1 0 0 0 0 1 0 0 0 1 0"/><feBlend in2="BackgroundImageFix" result="effect1_dropShadow_79_1987"/><feColorMatrix in="SourceAlpha" result="hardAlpha" values="0 0 0 0 0 0 0 0 0 0 0 0 0 0 0 0 0 0 127 0"/><feOffset dx="3" dy="3"/><feGaussianBlur stdDeviation="2.5"/><feColorMatrix values="0 0 0 0 0.745098 0 0 0 0 0.745098 0 0 0 0 0.745098 0 0 0 1 0"/><feBlend in2="effect1_dropShadow_79_1987" result="effect2_dropShadow_79_1987"/><feBlend in="SourceGraphic" in2="effect2_dropShadow_79_1987" result="shape"/></filter></defs></svg>