<svg xmlns="http://www.w3.org/2000/svg" width="166" height="45" fill="none"><mask id="b" width="166" height="45" x=".526" y=".398" fill="#000" maskUnits="userSpaceOnUse"><path fill="#fff" d="M.526.398h166v45h-166z"/><path d="M1.526 43V1.75h9.258c2.094 0 3.774.422 5.04 1.266 1.265.828 2.179 2.03 2.741 3.609.579 1.578.868 3.484.868 5.719l.023 18.61c0 2.702-.297 4.952-.89 6.75-.579 1.78-1.516 3.108-2.813 3.983-1.297.876-3.024 1.313-5.18 1.313H1.526Zm6.282-4.875H9.87c.735 0 1.344-.148 1.828-.445.5-.297.867-.82 1.102-1.57.25-.766.375-1.844.375-3.235l-.024-20.367c0-2.11-.257-3.625-.773-4.547-.516-.922-1.422-1.383-2.719-1.383H7.808v31.547Zm25.523 5.297c-1.766 0-3.219-.281-4.36-.844a6.337 6.337 0 0 1-2.648-2.437c-.625-1.063-1.062-2.336-1.312-3.82-.25-1.5-.375-3.173-.375-5.016V18.203c0-1.64.164-3.125.492-4.453.344-1.328.867-2.46 1.57-3.398.719-.938 1.649-1.657 2.79-2.157 1.14-.515 2.515-.773 4.124-.773 1.64 0 3.008.25 4.102.75 1.094.5 1.953 1.226 2.578 2.18.64.953 1.094 2.101 1.36 3.445.28 1.328.421 2.836.421 4.523v7.524h-11.18v6.914c0 1.703.133 3.07.399 4.101.266 1.032.992 1.547 2.18 1.547.797 0 1.36-.242 1.687-.726.344-.485.547-1.149.61-1.992.078-.86.117-1.836.117-2.93v-3.094h6.14v1.875c0 1.89-.117 3.57-.351 5.04-.219 1.468-.64 2.71-1.266 3.726-.61 1.015-1.484 1.789-2.625 2.32-1.14.531-2.625.797-4.453.797Zm-2.46-21.211h5.015v-4.5c0-1.172-.055-2.156-.164-2.953-.11-.813-.328-1.422-.657-1.828-.328-.407-.828-.61-1.5-.61-.828 0-1.437.242-1.828.727-.375.484-.617 1.148-.726 1.992a25.42 25.42 0 0 0-.14 2.836v4.336ZM50.417 43 45.331 7.844h5.86l2.273 18.703.773 8.414h.47l.655-8.438 1.946-18.68h5.812L58.034 43h-7.617Zm27.656 0V7.187h-4.828V1.75h15.727v5.438h-4.64V43h-6.259Zm21.563.422c-1.688 0-3.102-.258-4.242-.774-1.141-.53-2.047-1.289-2.72-2.273-.655-1-1.132-2.21-1.429-3.633-.281-1.437-.422-3.07-.422-4.898V18.695c0-2.203.282-4.148.844-5.836.578-1.703 1.516-3.03 2.813-3.984 1.296-.969 3.015-1.453 5.156-1.453 1.625 0 2.992.273 4.101.82a6.657 6.657 0 0 1 2.696 2.344c.687 1 1.187 2.187 1.5 3.562.312 1.375.468 2.891.468 4.547v13.149c0 1.797-.14 3.406-.422 4.828-.265 1.422-.734 2.64-1.406 3.656-.656 1-1.547 1.766-2.672 2.297-1.125.531-2.547.797-4.265.797Zm0-5.016c.703 0 1.234-.21 1.593-.633.36-.437.602-1.039.727-1.804.125-.766.188-1.649.188-2.649V17.594c0-1.063-.071-1.977-.211-2.742-.141-.766-.391-1.36-.75-1.782-.36-.422-.875-.633-1.547-.633-.703 0-1.242.211-1.617.633-.36.422-.61 1.016-.75 1.782-.125.765-.188 1.68-.188 2.742V33.32c0 1 .063 1.883.188 2.649.14.765.39 1.367.75 1.804.375.422.914.633 1.617.633Zm22.734 5.016c-1.687 0-3.101-.258-4.242-.774-1.141-.53-2.047-1.289-2.719-2.273-.656-1-1.133-2.21-1.43-3.633-.281-1.437-.421-3.07-.421-4.898V18.695c0-2.203.281-4.148.843-5.836.578-1.703 1.516-3.03 2.813-3.984 1.297-.969 3.015-1.453 5.156-1.453 1.625 0 2.992.273 4.102.82a6.654 6.654 0 0 1 2.695 2.344c.687 1 1.187 2.187 1.5 3.562.312 1.375.469 2.891.469 4.547v13.149c0 1.797-.141 3.406-.422 4.828-.266 1.422-.735 2.64-1.406 3.656-.657 1-1.547 1.766-2.672 2.297-1.125.531-2.547.797-4.266.797Zm0-5.016c.703 0 1.234-.21 1.594-.633.359-.437.601-1.039.726-1.804.125-.766.188-1.649.188-2.649V17.594c0-1.063-.07-1.977-.211-2.742-.141-.766-.391-1.36-.75-1.782-.359-.422-.875-.633-1.547-.633-.703 0-1.242.211-1.617.633-.359.422-.609 1.016-.75 1.782-.125.765-.188 1.68-.188 2.742V33.32c0 1 .063 1.883.188 2.649.141.765.391 1.367.75 1.804.375.422.914.633 1.617.633ZM136.808 43V1.398h6.187V43h-6.187Zm19.734.445c-2.828 0-4.93-.804-6.305-2.414s-2.062-4.242-2.062-7.898v-2.274h5.836v2.836c0 1.532.187 2.696.562 3.492.375.797.985 1.196 1.828 1.196.813 0 1.414-.274 1.805-.82.391-.547.586-1.493.586-2.836 0-.782-.117-1.54-.352-2.274a7.64 7.64 0 0 0-1.054-2.156c-.469-.719-1.078-1.414-1.828-2.086l-3.164-2.86c-1.454-1.312-2.54-2.726-3.258-4.242-.719-1.53-1.078-3.218-1.078-5.062 0-2.985.695-5.164 2.086-6.54 1.406-1.39 3.484-2.085 6.234-2.085 1.781 0 3.258.336 4.43 1.008 1.171.656 2.046 1.726 2.625 3.21.578 1.485.867 3.477.867 5.977v1.922h-5.555v-2.32c0-1.547-.18-2.719-.539-3.516-.344-.797-.937-1.195-1.781-1.195-.828 0-1.438.234-1.828.703-.391.453-.602 1.258-.633 2.414a6.196 6.196 0 0 0 .234 1.852c.172.593.438 1.18.797 1.757a9.294 9.294 0 0 0 1.453 1.664l3.328 3.024c1.75 1.578 3.039 3.226 3.868 4.945.843 1.719 1.265 3.578 1.265 5.578 0 2.953-.672 5.196-2.015 6.727-1.344 1.516-3.461 2.273-6.352 2.273Z"/></mask><g fill="#E0E0E0" filter="url(#a)"><path d="M1.526 43V1.75h9.258c2.094 0 3.774.422 5.04 1.266 1.265.828 2.179 2.03 2.741 3.609.579 1.578.868 3.484.868 5.719l.023 18.61c0 2.702-.297 4.952-.89 6.75-.579 1.78-1.516 3.108-2.813 3.983-1.297.876-3.024 1.313-5.18 1.313H1.526Zm6.282-4.875H9.87c.735 0 1.344-.148 1.828-.445.5-.297.867-.82 1.102-1.57.25-.766.375-1.844.375-3.235l-.024-20.367c0-2.11-.257-3.625-.773-4.547-.516-.922-1.422-1.383-2.719-1.383H7.808v31.547Zm25.523 5.297c-1.766 0-3.219-.281-4.36-.844a6.337 6.337 0 0 1-2.648-2.437c-.625-1.063-1.062-2.336-1.312-3.82-.25-1.5-.375-3.173-.375-5.016V18.203c0-1.64.164-3.125.492-4.453.344-1.328.867-2.46 1.57-3.398.719-.938 1.649-1.657 2.79-2.157 1.14-.515 2.515-.773 4.124-.773 1.64 0 3.008.25 4.102.75 1.094.5 1.953 1.226 2.578 2.18.64.953 1.094 2.101 1.36 3.445.28 1.328.421 2.836.421 4.523v7.524h-11.18v6.914c0 1.703.133 3.07.399 4.101.266 1.032.992 1.547 2.18 1.547.797 0 1.36-.242 1.687-.726.344-.485.547-1.149.61-1.992.078-.86.117-1.836.117-2.93v-3.094h6.14v1.875c0 1.89-.117 3.57-.351 5.04-.219 1.468-.64 2.71-1.266 3.726-.61 1.015-1.484 1.789-2.625 2.32-1.14.531-2.625.797-4.453.797Zm-2.46-21.211h5.015v-4.5c0-1.172-.055-2.156-.164-2.953-.11-.813-.328-1.422-.657-1.828-.328-.407-.828-.61-1.5-.61-.828 0-1.437.242-1.828.727-.375.484-.617 1.148-.726 1.992a25.42 25.42 0 0 0-.14 2.836v4.336ZM50.417 43 45.331 7.844h5.86l2.273 18.703.773 8.414h.47l.655-8.438 1.946-18.68h5.812L58.034 43h-7.617Zm27.656 0V7.187h-4.828V1.75h15.727v5.438h-4.64V43h-6.259Zm21.563.422c-1.688 0-3.102-.258-4.242-.774-1.141-.53-2.047-1.289-2.72-2.273-.655-1-1.132-2.21-1.429-3.633-.281-1.437-.422-3.07-.422-4.898V18.695c0-2.203.282-4.148.844-5.836.578-1.703 1.516-3.03 2.813-3.984 1.296-.969 3.015-1.453 5.156-1.453 1.625 0 2.992.273 4.101.82a6.657 6.657 0 0 1 2.696 2.344c.687 1 1.187 2.187 1.5 3.562.312 1.375.468 2.891.468 4.547v13.149c0 1.797-.14 3.406-.422 4.828-.265 1.422-.734 2.64-1.406 3.656-.656 1-1.547 1.766-2.672 2.297-1.125.531-2.547.797-4.265.797Zm0-5.016c.703 0 1.234-.21 1.593-.633.36-.437.602-1.039.727-1.804.125-.766.188-1.649.188-2.649V17.594c0-1.063-.071-1.977-.211-2.742-.141-.766-.391-1.36-.75-1.782-.36-.422-.875-.633-1.547-.633-.703 0-1.242.211-1.617.633-.36.422-.61 1.016-.75 1.782-.125.765-.188 1.68-.188 2.742V33.32c0 1 .063 1.883.188 2.649.14.765.39 1.367.75 1.804.375.422.914.633 1.617.633Zm22.734 5.016c-1.687 0-3.101-.258-4.242-.774-1.141-.53-2.047-1.289-2.719-2.273-.656-1-1.133-2.21-1.43-3.633-.281-1.437-.421-3.07-.421-4.898V18.695c0-2.203.281-4.148.843-5.836.578-1.703 1.516-3.03 2.813-3.984 1.297-.969 3.015-1.453 5.156-1.453 1.625 0 2.992.273 4.102.82a6.654 6.654 0 0 1 2.695 2.344c.687 1 1.187 2.187 1.5 3.562.312 1.375.469 2.891.469 4.547v13.149c0 1.797-.141 3.406-.422 4.828-.266 1.422-.735 2.64-1.406 3.656-.657 1-1.547 1.766-2.672 2.297-1.125.531-2.547.797-4.266.797Zm0-5.016c.703 0 1.234-.21 1.594-.633.359-.437.601-1.039.726-1.804.125-.766.188-1.649.188-2.649V17.594c0-1.063-.07-1.977-.211-2.742-.141-.766-.391-1.36-.75-1.782-.359-.422-.875-.633-1.547-.633-.703 0-1.242.211-1.617.633-.359.422-.609 1.016-.75 1.782-.125.765-.188 1.68-.188 2.742V33.32c0 1 .063 1.883.188 2.649.141.765.391 1.367.75 1.804.375.422.914.633 1.617.633ZM136.808 43V1.398h6.187V43h-6.187Zm19.734.445c-2.828 0-4.93-.804-6.305-2.414s-2.062-4.242-2.062-7.898v-2.274h5.836v2.836c0 1.532.187 2.696.562 3.492.375.797.985 1.196 1.828 1.196.813 0 1.414-.274 1.805-.82.391-.547.586-1.493.586-2.836 0-.782-.117-1.54-.352-2.274a7.64 7.64 0 0 0-1.054-2.156c-.469-.719-1.078-1.414-1.828-2.086l-3.164-2.86c-1.454-1.312-2.54-2.726-3.258-4.242-.719-1.53-1.078-3.218-1.078-5.062 0-2.985.695-5.164 2.086-6.54 1.406-1.39 3.484-2.085 6.234-2.085 1.781 0 3.258.336 4.43 1.008 1.171.656 2.046 1.726 2.625 3.21.578 1.485.867 3.477.867 5.977v1.922h-5.555v-2.32c0-1.547-.18-2.719-.539-3.516-.344-.797-.937-1.195-1.781-1.195-.828 0-1.438.234-1.828.703-.391.453-.602 1.258-.633 2.414a6.196 6.196 0 0 0 .234 1.852c.172.593.438 1.18.797 1.757a9.294 9.294 0 0 0 1.453 1.664l3.328 3.024c1.75 1.578 3.039 3.226 3.868 4.945.843 1.719 1.265 3.578 1.265 5.578 0 2.953-.672 5.196-2.015 6.727-1.344 1.516-3.461 2.273-6.352 2.273Z"/></g><path stroke="#EAEAEA" stroke-width="2" d="M1.526 43V1.75h9.258c2.094 0 3.774.422 5.04 1.266 1.265.828 2.179 2.03 2.741 3.609.579 1.578.868 3.484.868 5.719l.023 18.61c0 2.702-.297 4.952-.89 6.75-.579 1.78-1.516 3.108-2.813 3.983-1.297.876-3.024 1.313-5.18 1.313H1.526Zm6.282-4.875H9.87c.735 0 1.344-.148 1.828-.445.5-.297.867-.82 1.102-1.57.25-.766.375-1.844.375-3.235l-.024-20.367c0-2.11-.257-3.625-.773-4.547-.516-.922-1.422-1.383-2.719-1.383H7.808v31.547Zm25.523 5.297c-1.766 0-3.219-.281-4.36-.844a6.337 6.337 0 0 1-2.648-2.437c-.625-1.063-1.062-2.336-1.312-3.82-.25-1.5-.375-3.173-.375-5.016V18.203c0-1.64.164-3.125.492-4.453.344-1.328.867-2.46 1.57-3.398.719-.938 1.649-1.657 2.79-2.157 1.14-.515 2.515-.773 4.124-.773 1.64 0 3.008.25 4.102.75 1.094.5 1.953 1.226 2.578 2.18.64.953 1.094 2.101 1.36 3.445.28 1.328.421 2.836.421 4.523v7.524h-11.18v6.914c0 1.703.133 3.07.399 4.101.266 1.032.992 1.547 2.18 1.547.797 0 1.36-.242 1.687-.726.344-.485.547-1.149.61-1.992.078-.86.117-1.836.117-2.93v-3.094h6.14v1.875c0 1.89-.117 3.57-.351 5.04-.219 1.468-.64 2.71-1.266 3.726-.61 1.015-1.484 1.789-2.625 2.32-1.14.531-2.625.797-4.453.797Zm-2.46-21.211h5.015v-4.5c0-1.172-.055-2.156-.164-2.953-.11-.813-.328-1.422-.657-1.828-.328-.407-.828-.61-1.5-.61-.828 0-1.437.242-1.828.727-.375.484-.617 1.148-.726 1.992a25.42 25.42 0 0 0-.14 2.836v4.336ZM50.417 43 45.331 7.844h5.86l2.273 18.703.773 8.414h.47l.655-8.438 1.946-18.68h5.812L58.034 43h-7.617Zm27.656 0V7.187h-4.828V1.75h15.727v5.438h-4.64V43h-6.259Zm21.563.422c-1.688 0-3.102-.258-4.242-.774-1.141-.53-2.047-1.289-2.72-2.273-.655-1-1.132-2.21-1.429-3.633-.281-1.437-.422-3.07-.422-4.898V18.695c0-2.203.282-4.148.844-5.836.578-1.703 1.516-3.03 2.813-3.984 1.296-.969 3.015-1.453 5.156-1.453 1.625 0 2.992.273 4.101.82a6.657 6.657 0 0 1 2.696 2.344c.687 1 1.187 2.187 1.5 3.562.312 1.375.468 2.891.468 4.547v13.149c0 1.797-.14 3.406-.422 4.828-.265 1.422-.734 2.64-1.406 3.656-.656 1-1.547 1.766-2.672 2.297-1.125.531-2.547.797-4.265.797Zm0-5.016c.703 0 1.234-.21 1.593-.633.36-.437.602-1.039.727-1.804.125-.766.188-1.649.188-2.649V17.594c0-1.063-.071-1.977-.211-2.742-.141-.766-.391-1.36-.75-1.782-.36-.422-.875-.633-1.547-.633-.703 0-1.242.211-1.617.633-.36.422-.61 1.016-.75 1.782-.125.765-.188 1.68-.188 2.742V33.32c0 1 .063 1.883.188 2.649.14.765.39 1.367.75 1.804.375.422.914.633 1.617.633Zm22.734 5.016c-1.687 0-3.101-.258-4.242-.774-1.141-.53-2.047-1.289-2.719-2.273-.656-1-1.133-2.21-1.43-3.633-.281-1.437-.421-3.07-.421-4.898V18.695c0-2.203.281-4.148.843-5.836.578-1.703 1.516-3.03 2.813-3.984 1.297-.969 3.015-1.453 5.156-1.453 1.625 0 2.992.273 4.102.82a6.654 6.654 0 0 1 2.695 2.344c.687 1 1.187 2.187 1.5 3.562.312 1.375.469 2.891.469 4.547v13.149c0 1.797-.141 3.406-.422 4.828-.266 1.422-.735 2.64-1.406 3.656-.657 1-1.547 1.766-2.672 2.297-1.125.531-2.547.797-4.266.797Zm0-5.016c.703 0 1.234-.21 1.594-.633.359-.437.601-1.039.726-1.804.125-.766.188-1.649.188-2.649V17.594c0-1.063-.07-1.977-.211-2.742-.141-.766-.391-1.36-.75-1.782-.359-.422-.875-.633-1.547-.633-.703 0-1.242.211-1.617.633-.359.422-.609 1.016-.75 1.782-.125.765-.188 1.68-.188 2.742V33.32c0 1 .063 1.883.188 2.649.141.765.391 1.367.75 1.804.375.422.914.633 1.617.633ZM136.808 43V1.398h6.187V43h-6.187Zm19.734.445c-2.828 0-4.93-.804-6.305-2.414s-2.062-4.242-2.062-7.898v-2.274h5.836v2.836c0 1.532.187 2.696.562 3.492.375.797.985 1.196 1.828 1.196.813 0 1.414-.274 1.805-.82.391-.547.586-1.493.586-2.836 0-.782-.117-1.54-.352-2.274a7.64 7.64 0 0 0-1.054-2.156c-.469-.719-1.078-1.414-1.828-2.086l-3.164-2.86c-1.454-1.312-2.54-2.726-3.258-4.242-.719-1.53-1.078-3.218-1.078-5.062 0-2.985.695-5.164 2.086-6.54 1.406-1.39 3.484-2.085 6.234-2.085 1.781 0 3.258.336 4.43 1.008 1.171.656 2.046 1.726 2.625 3.21.578 1.485.867 3.477.867 5.977v1.922h-5.555v-2.32c0-1.547-.18-2.719-.539-3.516-.344-.797-.937-1.195-1.781-1.195-.828 0-1.438.234-1.828.703-.391.453-.602 1.258-.633 2.414a6.196 6.196 0 0 0 .234 1.852c.172.593.438 1.18.797 1.757a9.294 9.294 0 0 0 1.453 1.664l3.328 3.024c1.75 1.578 3.039 3.226 3.868 4.945.843 1.719 1.265 3.578 1.265 5.578 0 2.953-.672 5.196-2.015 6.727-1.344 1.516-3.461 2.273-6.352 2.273Z" mask="url(#b)"/><defs><filter id="a" width="169.383" height="48.047" x="-.474" y="-.602" color-interpolation-filters="sRGB" filterUnits="userSpaceOnUse"><feFlood flood-opacity="0" result="BackgroundImageFix"/><feBlend in="SourceGraphic" in2="BackgroundImageFix" result="shape"/><feColorMatrix in="SourceAlpha" result="hardAlpha" values="0 0 0 0 0 0 0 0 0 0 0 0 0 0 0 0 0 0 127 0"/><feOffset dx="-1" dy="-1"/><feGaussianBlur stdDeviation="1.5"/><feComposite in2="hardAlpha" k2="-1" k3="1" operator="arithmetic"/><feColorMatrix values="0 0 0 0 0.984314 0 0 0 0 0.984314 0 0 0 0 0.984314 0 0 0 1 0"/><feBlend in2="shape" result="effect1_innerShadow_127_2781"/><feColorMatrix in="SourceAlpha" result="hardAlpha" values="0 0 0 0 0 0 0 0 0 0 0 0 0 0 0 0 0 0 127 0"/><feOffset dx="3" dy="3"/><feGaussianBlur stdDeviation="4.5"/><feComposite in2="hardAlpha" k2="-1" k3="1" operator="arithmetic"/><feColorMatrix values="0 0 0 0 0.772549 0 0 0 0 0.772549 0 0 0 0 0.772549 0 0 0 1 0"/><feBlend in2="effect1_innerShadow_127_2781" result="effect2_innerShadow_127_2781"/></filter></defs></svg>