<svg xmlns="http://www.w3.org/2000/svg" width="85" height="84" fill="none"><g filter="url(#a)"><path fill="#E0E0E0" d="M41.208.012C39.496.06 37.733.25 35.97.515h-.1C18.707 3.322 4.806 16.843 1.315 33.955c-1.041 4.873-.98 9.418-.3 13.901.026.01 0 .074 0 .097 1.057 7.568 10.878 10.881 16.419 5.34 3.964-3.964 9.83-3.964 13.798 0 3.965 3.965 3.965 9.831 0 13.799-5.54 5.54-2.227 15.362 5.338 16.419.026 0 .09-.026.1 0 4.448.677 8.966.719 13.801-.303h.1c17.16-3.198 30.646-17.425 33.44-34.546v-.103C87.663 23.934 69.66 2.429 46.24.212a39.305 39.305 0 0 0-5.031-.2Zm.1 6.446a35.358 35.358 0 0 1 4.332.1 35.754 35.754 0 0 1 32.028 41.095c-2.353 14.43-13.924 26.565-28.302 29.212h-.1a31.86 31.86 0 0 1-11.787.3c-2.643-.326-3.865-3.288-1.709-5.438a16.233 16.233 0 0 0 0-22.965 16.23 16.23 0 0 0-22.968 0c-2.153 2.153-5.112.931-5.437-1.715a31.861 31.861 0 0 1 .3-11.784c2.958-14.465 14.78-26.05 29.211-28.402a38.434 38.434 0 0 1 4.432-.403Zm-5.238 6.546a6.446 6.446 0 1 0 0 12.893 6.446 6.446 0 0 0 0-12.893Zm22.562 6.447a6.446 6.446 0 1 0 0 12.892 6.446 6.446 0 0 0 0-12.893Zm-38.678 6.446a6.446 6.446 0 1 0 0 12.893 6.446 6.446 0 0 0 0-12.893ZM65.08 42.013a6.446 6.446 0 1 0 0 12.892 6.446 6.446 0 0 0 0-12.892ZM52.186 58.128a6.446 6.446 0 1 0 0 12.893 6.446 6.446 0 0 0 0-12.893Z"/></g><defs><filter id="a" width="85.967" height="86" x="-.483" y="-1" color-interpolation-filters="sRGB" filterUnits="userSpaceOnUse"><feFlood flood-opacity="0" result="BackgroundImageFix"/><feBlend in="SourceGraphic" in2="BackgroundImageFix" result="shape"/><feColorMatrix in="SourceAlpha" result="hardAlpha" values="0 0 0 0 0 0 0 0 0 0 0 0 0 0 0 0 0 0 127 0"/><feOffset dx="-1" dy="-1"/><feGaussianBlur stdDeviation="1.5"/><feComposite in2="hardAlpha" k2="-1" k3="1" operator="arithmetic"/><feColorMatrix values="0 0 0 0 0.984314 0 0 0 0 0.984314 0 0 0 0 0.984314 0 0 0 1 0"/><feBlend in2="shape" result="effect1_innerShadow_64_2151"/><feColorMatrix in="SourceAlpha" result="hardAlpha" values="0 0 0 0 0 0 0 0 0 0 0 0 0 0 0 0 0 0 127 0"/><feOffset dx="1" dy="1"/><feGaussianBlur stdDeviation="1.5"/><feComposite in2="hardAlpha" k2="-1" k3="1" operator="arithmetic"/><feColorMatrix values="0 0 0 0 0.772549 0 0 0 0 0.772549 0 0 0 0 0.772549 0 0 0 1 0"/><feBlend in2="effect1_innerShadow_64_2151" result="effect2_innerShadow_64_2151"/></filter></defs></svg>