<svg xmlns="http://www.w3.org/2000/svg" width="398" height="53" fill="none"><mask id="b" width="398" height="53" x=".112" y=".219" fill="#000" maskUnits="userSpaceOnUse"><path fill="#fff" d="M.112.219h398v53h-398z"/><path d="M9.69 45.469c-2.703 0-4.812-.805-6.328-2.414-1.5-1.625-2.25-4.016-2.25-7.172v-7.36h6.07v7.055c0 .813.047 1.563.141 2.25.11.688.328 1.234.656 1.64.329.407.836.61 1.524.61.687 0 1.195-.195 1.523-.586.329-.406.547-.969.657-1.687.109-.735.164-1.602.164-2.602V3.75h6.28v31.148c0 3.391-.75 6-2.25 7.829-1.483 1.828-3.546 2.742-6.187 2.742Zm20.461-.117c-2.406 0-4.078-.875-5.015-2.625-.922-1.75-1.399-4.07-1.43-6.961v-2.25c0-1.875.266-3.399.797-4.57.547-1.173 1.32-2.126 2.32-2.86 1-.734 2.196-1.375 3.586-1.922 1.39-.547 2.938-1.133 4.64-1.758v-3.07c0-1.188-.046-2.133-.14-2.836-.094-.719-.304-1.242-.633-1.57-.328-.328-.836-.492-1.523-.492-.672 0-1.188.171-1.547.515-.344.328-.578.844-.703 1.547-.125.688-.188 1.57-.188 2.648v1.57h-6.14v-1.054c0-1.61.133-3.047.398-4.312.282-1.266.75-2.336 1.407-3.211.656-.891 1.546-1.563 2.671-2.016 1.141-.469 2.57-.703 4.29-.703 1.515 0 2.812.219 3.89.656 1.078.422 1.953 1.063 2.625 1.922.672.844 1.164 1.906 1.477 3.188.312 1.28.468 2.773.468 4.476V45h-6.257v-3.492a5.592 5.592 0 0 1-.961 1.898 5.202 5.202 0 0 1-1.711 1.407c-.672.359-1.446.539-2.32.539Zm2.157-4.782c.78 0 1.406-.28 1.875-.843.468-.563.757-1.133.867-1.711V25.922c-.938.422-1.727.82-2.367 1.195-.641.36-1.157.758-1.547 1.195-.39.438-.672.954-.844 1.547-.172.594-.258 1.32-.258 2.18v3.938c0 1.609.164 2.78.492 3.515.344.719.938 1.078 1.782 1.078ZM50.26 45 45.176 9.844h5.86l2.273 18.703.773 8.414h.469l.656-8.438 1.945-18.68h5.813L57.878 45H50.26Zm22.595.352c-2.407 0-4.079-.875-5.016-2.625-.922-1.75-1.399-4.07-1.43-6.961v-2.25c0-1.875.266-3.399.797-4.57.547-1.173 1.32-2.126 2.32-2.86 1-.734 2.196-1.375 3.586-1.922 1.39-.547 2.938-1.133 4.64-1.758v-3.07c0-1.188-.046-2.133-.14-2.836-.093-.719-.304-1.242-.632-1.57-.329-.328-.836-.492-1.524-.492-.672 0-1.187.171-1.547.515-.344.328-.578.844-.703 1.547-.125.688-.187 1.57-.187 2.648v1.57h-6.141v-1.054c0-1.61.133-3.047.398-4.312.282-1.266.75-2.336 1.407-3.211.656-.891 1.546-1.563 2.671-2.016 1.141-.469 2.57-.703 4.29-.703 1.515 0 2.812.219 3.89.656 1.078.422 1.953 1.063 2.625 1.922.672.844 1.164 1.906 1.477 3.188.312 1.28.469 2.773.469 4.476V45h-6.258v-3.492a5.59 5.59 0 0 1-.961 1.898 5.202 5.202 0 0 1-1.711 1.407c-.672.359-1.445.539-2.32.539Zm2.156-4.782c.781 0 1.406-.28 1.875-.843.469-.563.758-1.133.867-1.711V25.922c-.938.422-1.727.82-2.367 1.195-.64.36-1.156.758-1.547 1.195-.39.438-.672.954-.844 1.547-.172.594-.258 1.32-.258 2.18v3.938c0 1.609.164 2.78.493 3.515.343.719.937 1.078 1.78 1.078Zm22.125 4.875c-2.828 0-4.93-.804-6.305-2.414s-2.062-4.242-2.062-7.898v-2.274h5.835v2.836c0 1.532.188 2.696.563 3.492.375.797.984 1.196 1.828 1.196.813 0 1.414-.274 1.805-.82.39-.547.586-1.493.586-2.836 0-.782-.117-1.54-.352-2.274a7.654 7.654 0 0 0-1.055-2.156c-.468-.719-1.078-1.414-1.828-2.086l-3.164-2.86c-1.453-1.312-2.539-2.726-3.257-4.242-.72-1.53-1.079-3.218-1.079-5.062 0-2.985.696-5.164 2.086-6.54 1.407-1.39 3.485-2.085 6.235-2.085 1.78 0 3.257.336 4.429 1.008 1.172.656 2.047 1.726 2.625 3.21.578 1.485.868 3.477.868 5.977v1.922h-5.555v-2.32c0-1.547-.18-2.719-.54-3.516-.343-.797-.937-1.195-1.78-1.195-.829 0-1.438.234-1.829.703-.39.453-.601 1.258-.632 2.414a6.212 6.212 0 0 0 .234 1.852c.172.593.438 1.18.797 1.757a9.29 9.29 0 0 0 1.453 1.664l3.328 3.024c1.75 1.578 3.039 3.226 3.867 4.945.844 1.719 1.266 3.578 1.266 5.578 0 2.953-.672 5.196-2.016 6.727-1.343 1.516-3.461 2.273-6.351 2.273Zm21.422-.023c-1.797 0-3.282-.274-4.454-.82-1.171-.563-2.093-1.368-2.765-2.414-.656-1.047-1.117-2.32-1.383-3.82s-.398-3.196-.398-5.087v-11.39c0-2.594.242-4.82.726-6.68.485-1.86 1.375-3.29 2.672-4.29 1.313-1 3.203-1.5 5.672-1.5 1.516 0 2.797.235 3.844.704 1.047.469 1.89 1.148 2.531 2.04.641.874 1.101 1.937 1.383 3.187.297 1.25.445 2.656.445 4.218v3.867h-6V19.36c0-1.015-.047-1.882-.141-2.601-.093-.735-.304-1.29-.632-1.664-.329-.39-.852-.586-1.571-.586-.703 0-1.25.195-1.64.586-.391.39-.664.96-.821 1.71-.14.735-.211 1.618-.211 2.65v15.843c0 1.062.063 1.969.188 2.719.141.75.391 1.328.75 1.734.375.39.922.586 1.641.586.703 0 1.226-.203 1.57-.61.359-.421.594-1.007.703-1.757.109-.75.164-1.633.164-2.649v-4.172h6v3.563c0 1.61-.141 3.078-.422 4.406-.281 1.313-.742 2.438-1.383 3.375-.64.938-1.492 1.664-2.554 2.18-1.063.5-2.368.75-3.914.75Zm13.5-.422V9.844h6.257v3.914c.407-1.36 1.11-2.422 2.11-3.188 1.015-.765 2.304-1.148 3.867-1.148.031 0 .047.265.047.797.015.531.023 1.14.023 1.828v2.625c-.718 0-1.5.086-2.343.258a8.694 8.694 0 0 0-2.274.797c-.672.343-1.148.804-1.43 1.382V45h-6.257Zm16.453 0V9.844h6.211V45h-6.211Zm-.024-38.39V1.218h6.258v5.39h-6.258Zm12.539 45.07V9.844h6.211v3.164c.453-1.156 1.164-2.031 2.133-2.625.969-.594 1.945-.89 2.93-.89 1.797 0 3.156.484 4.078 1.452.922.953 1.547 2.258 1.875 3.914.328 1.657.492 3.516.492 5.579v12.82c0 2.25-.156 4.297-.469 6.14-.312 1.844-.976 3.313-1.992 4.407-1 1.078-2.531 1.617-4.594 1.617a4.62 4.62 0 0 1-2.601-.774c-.781-.515-1.399-1.109-1.852-1.78v8.812h-6.211Zm8.953-11.297c1.047 0 1.727-.508 2.04-1.524.312-1.03.468-2.5.468-4.406V19.875c0-1.016-.054-1.93-.164-2.742-.094-.828-.312-1.485-.656-1.969-.344-.484-.891-.726-1.641-.726-.578 0-1.078.148-1.5.445-.406.297-.726.836-.961 1.617-.218.781-.328 1.898-.328 3.352V34.71c0 1.797.172 3.195.516 4.195.344.985 1.086 1.477 2.226 1.477Zm20.766 4.851c-1.5 0-2.648-.187-3.445-.562a3.15 3.15 0 0 1-1.641-1.828c-.297-.828-.445-1.899-.445-3.211V15.07h-2.86v-4.5h2.86V3.75h6.211v6.82h3.422v4.5h-3.422v23.485c0 .547.086.96.258 1.242.171.281.507.469 1.007.562.516.094 1.274.141 2.274.141v4.734h-4.219Zm17.25-.234V3.75h10.383c2.156 0 3.766.422 4.828 1.266 1.063.843 1.758 2.078 2.086 3.703.344 1.625.516 3.61.516 5.953 0 2.422-.25 4.328-.75 5.719-.485 1.375-1.485 2.297-3 2.765.718.125 1.32.422 1.804.89.485.454.875 1.126 1.172 2.017.297.875.508 2.007.633 3.398.141 1.375.211 3.062.211 5.062v3.868l.047 2.906c.015.969.039 1.797.07 2.484.031.688.07 1.094.117 1.219h-6.281c-.047-.078-.086-.477-.117-1.195-.016-.735-.039-1.664-.07-2.79-.016-1.124-.032-2.335-.047-3.632V30.21c0-1.234-.094-2.164-.282-2.79-.171-.64-.5-1.085-.984-1.335-.469-.25-1.148-.398-2.039-.445l-2.016-.118V45h-6.281Zm6.305-24.352h2.508c.765 0 1.343-.171 1.734-.515.406-.344.68-.977.82-1.899.157-.922.235-2.25.235-3.984v-.258c0-1.453-.071-2.57-.211-3.351-.141-.782-.438-1.32-.891-1.618-.437-.296-1.125-.445-2.062-.445H214.3v12.07Zm25.125 24.774c-1.766 0-3.219-.281-4.36-.844a6.337 6.337 0 0 1-2.648-2.437c-.625-1.063-1.063-2.336-1.313-3.82-.25-1.5-.375-3.173-.375-5.016V20.203c0-1.64.165-3.125.493-4.453.343-1.328.867-2.46 1.57-3.398.719-.938 1.648-1.657 2.789-2.157 1.141-.515 2.516-.773 4.125-.773 1.641 0 3.008.25 4.102.75 1.093.5 1.953 1.226 2.578 2.18.64.953 1.093 2.101 1.359 3.445.281 1.328.422 2.836.422 4.523v7.524h-11.18v6.914c0 1.703.133 3.07.399 4.101.265 1.032.992 1.547 2.179 1.547.797 0 1.36-.242 1.688-.726.344-.485.547-1.149.609-1.992.078-.86.117-1.836.117-2.93v-3.094h6.141v1.875c0 1.89-.117 3.57-.351 5.04-.219 1.468-.641 2.71-1.266 3.726-.609 1.015-1.484 1.789-2.625 2.32-1.141.531-2.625.797-4.453.797Zm-2.461-21.211h5.015v-4.5c0-1.172-.054-2.156-.164-2.953-.109-.813-.328-1.422-.656-1.828-.328-.407-.828-.61-1.5-.61-.828 0-1.437.242-1.828.727-.375.484-.617 1.148-.727 1.992-.093.828-.14 1.773-.14 2.836v4.336Zm23.719 21.234c-2.829 0-4.93-.804-6.305-2.414s-2.063-4.242-2.063-7.898v-2.274h5.836v2.836c0 1.532.188 2.696.563 3.492.375.797.984 1.196 1.828 1.196.812 0 1.414-.274 1.805-.82.39-.547.586-1.493.586-2.836 0-.782-.118-1.54-.352-2.274a7.644 7.644 0 0 0-1.055-2.156c-.468-.719-1.078-1.414-1.828-2.086l-3.164-2.86c-1.453-1.312-2.539-2.726-3.258-4.242-.718-1.53-1.078-3.218-1.078-5.062 0-2.985.696-5.164 2.086-6.54 1.406-1.39 3.485-2.085 6.235-2.085 1.781 0 3.257.336 4.429 1.008 1.172.656 2.047 1.726 2.625 3.21.578 1.485.867 3.477.867 5.977v1.922h-5.554v-2.32c0-1.547-.18-2.719-.539-3.516-.344-.797-.938-1.195-1.782-1.195-.828 0-1.437.234-1.828.703-.39.453-.601 1.258-.633 2.414a6.229 6.229 0 0 0 .235 1.852 7.02 7.02 0 0 0 .797 1.757 9.294 9.294 0 0 0 1.453 1.664l3.328 3.024c1.75 1.578 3.039 3.226 3.867 4.945.844 1.719 1.266 3.578 1.266 5.578 0 2.953-.672 5.196-2.016 6.727-1.344 1.516-3.461 2.273-6.351 2.273Zm21.234-.023c-1.688 0-3.102-.258-4.242-.774-1.141-.53-2.047-1.289-2.719-2.273-.656-1-1.133-2.21-1.43-3.633-.281-1.437-.422-3.07-.422-4.898V20.695c0-2.203.282-4.148.844-5.836.578-1.703 1.516-3.03 2.813-3.984 1.297-.969 3.015-1.453 5.156-1.453 1.625 0 2.992.273 4.102.82a6.654 6.654 0 0 1 2.695 2.344c.687 1 1.187 2.187 1.5 3.562.312 1.375.469 2.891.469 4.547v13.149c0 1.797-.141 3.406-.422 4.828-.266 1.422-.735 2.64-1.407 3.656-.656 1-1.546 1.766-2.671 2.297-1.125.531-2.547.797-4.266.797Zm0-5.016c.703 0 1.234-.21 1.594-.633.359-.437.601-1.039.726-1.804.125-.766.188-1.649.188-2.649V19.594c0-1.063-.071-1.977-.211-2.742-.141-.766-.391-1.36-.75-1.782-.36-.422-.875-.633-1.547-.633-.703 0-1.242.211-1.617.633-.36.422-.61 1.016-.75 1.782-.125.765-.188 1.68-.188 2.742V35.32c0 1 .063 1.883.188 2.649.14.765.39 1.367.75 1.804.375.422.914.633 1.617.633Zm20.461 5.039c-1.391 0-2.555-.312-3.492-.937-.922-.625-1.617-1.555-2.086-2.79-.453-1.25-.68-2.812-.68-4.687V9.844h6.234V36.07c0 1.344.165 2.39.493 3.14.328.75 1.015 1.126 2.062 1.126 1.094 0 1.836-.422 2.227-1.266.406-.86.609-1.843.609-2.953l.024-26.273h6.187V45h-6.211v-3.656c-.437 1.187-1.07 2.172-1.898 2.953-.828.766-1.985 1.148-3.469 1.148ZM320.026 45V9.844h6.258v3.914c.406-1.36 1.11-2.422 2.11-3.188 1.015-.765 2.304-1.148 3.867-1.148.031 0 .047.265.047.797.015.531.023 1.14.023 1.828v2.625c-.719 0-1.5.086-2.344.258a8.687 8.687 0 0 0-2.273.797c-.672.343-1.149.804-1.43 1.382V45h-6.258Zm24.844.422c-1.797 0-3.281-.274-4.453-.82-1.172-.563-2.094-1.368-2.766-2.414-.656-1.047-1.117-2.32-1.382-3.82-.266-1.5-.399-3.196-.399-5.087v-11.39c0-2.594.242-4.82.727-6.68.484-1.86 1.375-3.29 2.672-4.29 1.312-1 3.203-1.5 5.671-1.5 1.516 0 2.797.235 3.844.704 1.047.469 1.891 1.148 2.531 2.04.641.874 1.102 1.937 1.383 3.187.297 1.25.446 2.656.446 4.218v3.867h-6V19.36c0-1.015-.047-1.882-.141-2.601-.094-.735-.305-1.29-.633-1.664-.328-.39-.851-.586-1.57-.586-.703 0-1.25.195-1.641.586-.39.39-.664.96-.82 1.71-.141.735-.211 1.618-.211 2.65v15.843c0 1.062.062 1.969.187 2.719.141.75.391 1.328.75 1.734.375.39.922.586 1.641.586.703 0 1.227-.203 1.57-.61.36-.421.594-1.007.703-1.757.11-.75.165-1.633.165-2.649v-4.172h6v3.563c0 1.61-.141 3.078-.422 4.406-.282 1.313-.743 2.438-1.383 3.375a6.432 6.432 0 0 1-2.555 2.18c-1.062.5-2.367.75-3.914.75Zm21.68 0c-1.766 0-3.219-.281-4.36-.844a6.337 6.337 0 0 1-2.648-2.437c-.625-1.063-1.063-2.336-1.313-3.82-.25-1.5-.375-3.173-.375-5.016V20.203c0-1.64.165-3.125.493-4.453.343-1.328.867-2.46 1.57-3.398.719-.938 1.648-1.657 2.789-2.157 1.141-.515 2.516-.773 4.125-.773 1.641 0 3.008.25 4.102.75 1.093.5 1.953 1.226 2.578 2.18.64.953 1.093 2.101 1.359 3.445.281 1.328.422 2.836.422 4.523v7.524h-11.18v6.914c0 1.703.133 3.07.399 4.101.265 1.032.992 1.547 2.179 1.547.797 0 1.36-.242 1.688-.726.344-.485.547-1.149.609-1.992.078-.86.117-1.836.117-2.93v-3.094h6.141v1.875c0 1.89-.117 3.57-.351 5.04-.219 1.468-.641 2.71-1.266 3.726-.609 1.015-1.484 1.789-2.625 2.32-1.141.531-2.625.797-4.453.797Zm-2.461-21.211h5.015v-4.5c0-1.172-.054-2.156-.164-2.953-.109-.813-.328-1.422-.656-1.828-.328-.407-.828-.61-1.5-.61-.828 0-1.437.242-1.828.727-.375.484-.617 1.148-.727 1.992-.093.828-.14 1.773-.14 2.836v4.336Zm23.719 21.234c-2.829 0-4.93-.804-6.305-2.414s-2.063-4.242-2.063-7.898v-2.274h5.836v2.836c0 1.532.188 2.696.563 3.492.375.797.984 1.196 1.828 1.196.812 0 1.414-.274 1.805-.82.39-.547.586-1.493.586-2.836 0-.782-.118-1.54-.352-2.274a7.644 7.644 0 0 0-1.055-2.156c-.468-.719-1.078-1.414-1.828-2.086l-3.164-2.86c-1.453-1.312-2.539-2.726-3.258-4.242-.718-1.53-1.078-3.218-1.078-5.062 0-2.985.696-5.164 2.086-6.54 1.406-1.39 3.485-2.085 6.235-2.085 1.781 0 3.257.336 4.429 1.008 1.172.656 2.047 1.726 2.625 3.21.578 1.485.867 3.477.867 5.977v1.922h-5.554v-2.32c0-1.547-.18-2.719-.539-3.516-.344-.797-.938-1.195-1.782-1.195-.828 0-1.437.234-1.828.703-.39.453-.601 1.258-.633 2.414a6.229 6.229 0 0 0 .235 1.852 7.02 7.02 0 0 0 .797 1.757 9.294 9.294 0 0 0 1.453 1.664l3.328 3.024c1.75 1.578 3.039 3.226 3.867 4.945.844 1.719 1.266 3.578 1.266 5.578 0 2.953-.672 5.196-2.016 6.727-1.344 1.516-3.461 2.273-6.351 2.273Z"/></mask><g fill="#D1DADB" filter="url(#a)"><path d="M9.69 45.469c-2.703 0-4.812-.805-6.328-2.414-1.5-1.625-2.25-4.016-2.25-7.172v-7.36h6.07v7.055c0 .813.047 1.563.141 2.25.11.688.328 1.234.656 1.64.329.407.836.61 1.524.61.687 0 1.195-.195 1.523-.586.329-.406.547-.969.657-1.687.109-.735.164-1.602.164-2.602V3.75h6.28v31.148c0 3.391-.75 6-2.25 7.829-1.483 1.828-3.546 2.742-6.187 2.742Zm20.461-.117c-2.406 0-4.078-.875-5.015-2.625-.922-1.75-1.399-4.07-1.43-6.961v-2.25c0-1.875.266-3.399.797-4.57.547-1.173 1.32-2.126 2.32-2.86 1-.734 2.196-1.375 3.586-1.922 1.39-.547 2.938-1.133 4.64-1.758v-3.07c0-1.188-.046-2.133-.14-2.836-.094-.719-.304-1.242-.633-1.57-.328-.328-.836-.492-1.523-.492-.672 0-1.188.171-1.547.515-.344.328-.578.844-.703 1.547-.125.688-.188 1.57-.188 2.648v1.57h-6.14v-1.054c0-1.61.133-3.047.398-4.312.282-1.266.75-2.336 1.407-3.211.656-.891 1.546-1.563 2.671-2.016 1.141-.469 2.57-.703 4.29-.703 1.515 0 2.812.219 3.89.656 1.078.422 1.953 1.063 2.625 1.922.672.844 1.164 1.906 1.477 3.188.312 1.28.468 2.773.468 4.476V45h-6.257v-3.492a5.592 5.592 0 0 1-.961 1.898 5.202 5.202 0 0 1-1.711 1.407c-.672.359-1.446.539-2.32.539Zm2.157-4.782c.78 0 1.406-.28 1.875-.843.468-.563.757-1.133.867-1.711V25.922c-.938.422-1.727.82-2.367 1.195-.641.36-1.157.758-1.547 1.195-.39.438-.672.954-.844 1.547-.172.594-.258 1.32-.258 2.18v3.938c0 1.609.164 2.78.492 3.515.344.719.938 1.078 1.782 1.078ZM50.26 45 45.176 9.844h5.86l2.273 18.703.773 8.414h.469l.656-8.438 1.945-18.68h5.813L57.878 45H50.26Zm22.595.352c-2.407 0-4.079-.875-5.016-2.625-.922-1.75-1.399-4.07-1.43-6.961v-2.25c0-1.875.266-3.399.797-4.57.547-1.173 1.32-2.126 2.32-2.86 1-.734 2.196-1.375 3.586-1.922 1.39-.547 2.938-1.133 4.64-1.758v-3.07c0-1.188-.046-2.133-.14-2.836-.093-.719-.304-1.242-.632-1.57-.329-.328-.836-.492-1.524-.492-.672 0-1.187.171-1.547.515-.344.328-.578.844-.703 1.547-.125.688-.187 1.57-.187 2.648v1.57h-6.141v-1.054c0-1.61.133-3.047.398-4.312.282-1.266.75-2.336 1.407-3.211.656-.891 1.546-1.563 2.671-2.016 1.141-.469 2.57-.703 4.29-.703 1.515 0 2.812.219 3.89.656 1.078.422 1.953 1.063 2.625 1.922.672.844 1.164 1.906 1.477 3.188.312 1.28.469 2.773.469 4.476V45h-6.258v-3.492a5.59 5.59 0 0 1-.961 1.898 5.202 5.202 0 0 1-1.711 1.407c-.672.359-1.445.539-2.32.539Zm2.156-4.782c.781 0 1.406-.28 1.875-.843.469-.563.758-1.133.867-1.711V25.922c-.938.422-1.727.82-2.367 1.195-.64.36-1.156.758-1.547 1.195-.39.438-.672.954-.844 1.547-.172.594-.258 1.32-.258 2.18v3.938c0 1.609.164 2.78.493 3.515.343.719.937 1.078 1.78 1.078Zm22.125 4.875c-2.828 0-4.93-.804-6.305-2.414s-2.062-4.242-2.062-7.898v-2.274h5.835v2.836c0 1.532.188 2.696.563 3.492.375.797.984 1.196 1.828 1.196.813 0 1.414-.274 1.805-.82.39-.547.586-1.493.586-2.836 0-.782-.117-1.54-.352-2.274a7.654 7.654 0 0 0-1.055-2.156c-.468-.719-1.078-1.414-1.828-2.086l-3.164-2.86c-1.453-1.312-2.539-2.726-3.257-4.242-.72-1.53-1.079-3.218-1.079-5.062 0-2.985.696-5.164 2.086-6.54 1.407-1.39 3.485-2.085 6.235-2.085 1.78 0 3.257.336 4.429 1.008 1.172.656 2.047 1.726 2.625 3.21.578 1.485.868 3.477.868 5.977v1.922h-5.555v-2.32c0-1.547-.18-2.719-.54-3.516-.343-.797-.937-1.195-1.78-1.195-.829 0-1.438.234-1.829.703-.39.453-.601 1.258-.632 2.414a6.212 6.212 0 0 0 .234 1.852c.172.593.438 1.18.797 1.757a9.29 9.29 0 0 0 1.453 1.664l3.328 3.024c1.75 1.578 3.039 3.226 3.867 4.945.844 1.719 1.266 3.578 1.266 5.578 0 2.953-.672 5.196-2.016 6.727-1.343 1.516-3.461 2.273-6.351 2.273Zm21.422-.023c-1.797 0-3.282-.274-4.454-.82-1.171-.563-2.093-1.368-2.765-2.414-.656-1.047-1.117-2.32-1.383-3.82s-.398-3.196-.398-5.087v-11.39c0-2.594.242-4.82.726-6.68.485-1.86 1.375-3.29 2.672-4.29 1.313-1 3.203-1.5 5.672-1.5 1.516 0 2.797.235 3.844.704 1.047.469 1.89 1.148 2.531 2.04.641.874 1.101 1.937 1.383 3.187.297 1.25.445 2.656.445 4.218v3.867h-6V19.36c0-1.015-.047-1.882-.141-2.601-.093-.735-.304-1.29-.632-1.664-.329-.39-.852-.586-1.571-.586-.703 0-1.25.195-1.64.586-.391.39-.664.96-.821 1.71-.14.735-.211 1.618-.211 2.65v15.843c0 1.062.063 1.969.188 2.719.141.75.391 1.328.75 1.734.375.39.922.586 1.641.586.703 0 1.226-.203 1.57-.61.359-.421.594-1.007.703-1.757.109-.75.164-1.633.164-2.649v-4.172h6v3.563c0 1.61-.141 3.078-.422 4.406-.281 1.313-.742 2.438-1.383 3.375-.64.938-1.492 1.664-2.554 2.18-1.063.5-2.368.75-3.914.75Zm13.5-.422V9.844h6.257v3.914c.407-1.36 1.11-2.422 2.11-3.188 1.015-.765 2.304-1.148 3.867-1.148.031 0 .047.265.047.797.015.531.023 1.14.023 1.828v2.625c-.718 0-1.5.086-2.343.258a8.694 8.694 0 0 0-2.274.797c-.672.343-1.148.804-1.43 1.382V45h-6.257Zm16.453 0V9.844h6.211V45h-6.211Zm-.024-38.39V1.218h6.258v5.39h-6.258Zm12.539 45.07V9.844h6.211v3.164c.453-1.156 1.164-2.031 2.133-2.625.969-.594 1.945-.89 2.93-.89 1.797 0 3.156.484 4.078 1.452.922.953 1.547 2.258 1.875 3.914.328 1.657.492 3.516.492 5.579v12.82c0 2.25-.156 4.297-.469 6.14-.312 1.844-.976 3.313-1.992 4.407-1 1.078-2.531 1.617-4.594 1.617a4.62 4.62 0 0 1-2.601-.774c-.781-.515-1.399-1.109-1.852-1.78v8.812h-6.211Zm8.953-11.297c1.047 0 1.727-.508 2.04-1.524.312-1.03.468-2.5.468-4.406V19.875c0-1.016-.054-1.93-.164-2.742-.094-.828-.312-1.485-.656-1.969-.344-.484-.891-.726-1.641-.726-.578 0-1.078.148-1.5.445-.406.297-.726.836-.961 1.617-.218.781-.328 1.898-.328 3.352V34.71c0 1.797.172 3.195.516 4.195.344.985 1.086 1.477 2.226 1.477Zm20.766 4.851c-1.5 0-2.648-.187-3.445-.562a3.15 3.15 0 0 1-1.641-1.828c-.297-.828-.445-1.899-.445-3.211V15.07h-2.86v-4.5h2.86V3.75h6.211v6.82h3.422v4.5h-3.422v23.485c0 .547.086.96.258 1.242.171.281.507.469 1.007.562.516.094 1.274.141 2.274.141v4.734h-4.219Zm17.25-.234V3.75h10.383c2.156 0 3.766.422 4.828 1.266 1.063.843 1.758 2.078 2.086 3.703.344 1.625.516 3.61.516 5.953 0 2.422-.25 4.328-.75 5.719-.485 1.375-1.485 2.297-3 2.765.718.125 1.32.422 1.804.89.485.454.875 1.126 1.172 2.017.297.875.508 2.007.633 3.398.141 1.375.211 3.062.211 5.062v3.868l.047 2.906c.015.969.039 1.797.07 2.484.031.688.07 1.094.117 1.219h-6.281c-.047-.078-.086-.477-.117-1.195-.016-.735-.039-1.664-.07-2.79-.016-1.124-.032-2.335-.047-3.632V30.21c0-1.234-.094-2.164-.282-2.79-.171-.64-.5-1.085-.984-1.335-.469-.25-1.148-.398-2.039-.445l-2.016-.118V45h-6.281Zm6.305-24.352h2.508c.765 0 1.343-.171 1.734-.515.406-.344.68-.977.82-1.899.157-.922.235-2.25.235-3.984v-.258c0-1.453-.071-2.57-.211-3.351-.141-.782-.438-1.32-.891-1.618-.437-.296-1.125-.445-2.062-.445H214.3v12.07Zm25.125 24.774c-1.766 0-3.219-.281-4.36-.844a6.337 6.337 0 0 1-2.648-2.437c-.625-1.063-1.063-2.336-1.313-3.82-.25-1.5-.375-3.173-.375-5.016V20.203c0-1.64.165-3.125.493-4.453.343-1.328.867-2.46 1.57-3.398.719-.938 1.648-1.657 2.789-2.157 1.141-.515 2.516-.773 4.125-.773 1.641 0 3.008.25 4.102.75 1.093.5 1.953 1.226 2.578 2.18.64.953 1.093 2.101 1.359 3.445.281 1.328.422 2.836.422 4.523v7.524h-11.18v6.914c0 1.703.133 3.07.399 4.101.265 1.032.992 1.547 2.179 1.547.797 0 1.36-.242 1.688-.726.344-.485.547-1.149.609-1.992.078-.86.117-1.836.117-2.93v-3.094h6.141v1.875c0 1.89-.117 3.57-.351 5.04-.219 1.468-.641 2.71-1.266 3.726-.609 1.015-1.484 1.789-2.625 2.32-1.141.531-2.625.797-4.453.797Zm-2.461-21.211h5.015v-4.5c0-1.172-.054-2.156-.164-2.953-.109-.813-.328-1.422-.656-1.828-.328-.407-.828-.61-1.5-.61-.828 0-1.437.242-1.828.727-.375.484-.617 1.148-.727 1.992-.093.828-.14 1.773-.14 2.836v4.336Zm23.719 21.234c-2.829 0-4.93-.804-6.305-2.414s-2.063-4.242-2.063-7.898v-2.274h5.836v2.836c0 1.532.188 2.696.563 3.492.375.797.984 1.196 1.828 1.196.812 0 1.414-.274 1.805-.82.39-.547.586-1.493.586-2.836 0-.782-.118-1.54-.352-2.274a7.644 7.644 0 0 0-1.055-2.156c-.468-.719-1.078-1.414-1.828-2.086l-3.164-2.86c-1.453-1.312-2.539-2.726-3.258-4.242-.718-1.53-1.078-3.218-1.078-5.062 0-2.985.696-5.164 2.086-6.54 1.406-1.39 3.485-2.085 6.235-2.085 1.781 0 3.257.336 4.429 1.008 1.172.656 2.047 1.726 2.625 3.21.578 1.485.867 3.477.867 5.977v1.922h-5.554v-2.32c0-1.547-.18-2.719-.539-3.516-.344-.797-.938-1.195-1.782-1.195-.828 0-1.437.234-1.828.703-.39.453-.601 1.258-.633 2.414a6.229 6.229 0 0 0 .235 1.852 7.02 7.02 0 0 0 .797 1.757 9.294 9.294 0 0 0 1.453 1.664l3.328 3.024c1.75 1.578 3.039 3.226 3.867 4.945.844 1.719 1.266 3.578 1.266 5.578 0 2.953-.672 5.196-2.016 6.727-1.344 1.516-3.461 2.273-6.351 2.273Zm21.234-.023c-1.688 0-3.102-.258-4.242-.774-1.141-.53-2.047-1.289-2.719-2.273-.656-1-1.133-2.21-1.43-3.633-.281-1.437-.422-3.07-.422-4.898V20.695c0-2.203.282-4.148.844-5.836.578-1.703 1.516-3.03 2.813-3.984 1.297-.969 3.015-1.453 5.156-1.453 1.625 0 2.992.273 4.102.82a6.654 6.654 0 0 1 2.695 2.344c.687 1 1.187 2.187 1.5 3.562.312 1.375.469 2.891.469 4.547v13.149c0 1.797-.141 3.406-.422 4.828-.266 1.422-.735 2.64-1.407 3.656-.656 1-1.546 1.766-2.671 2.297-1.125.531-2.547.797-4.266.797Zm0-5.016c.703 0 1.234-.21 1.594-.633.359-.437.601-1.039.726-1.804.125-.766.188-1.649.188-2.649V19.594c0-1.063-.071-1.977-.211-2.742-.141-.766-.391-1.36-.75-1.782-.36-.422-.875-.633-1.547-.633-.703 0-1.242.211-1.617.633-.36.422-.61 1.016-.75 1.782-.125.765-.188 1.68-.188 2.742V35.32c0 1 .063 1.883.188 2.649.14.765.39 1.367.75 1.804.375.422.914.633 1.617.633Zm20.461 5.039c-1.391 0-2.555-.312-3.492-.937-.922-.625-1.617-1.555-2.086-2.79-.453-1.25-.68-2.812-.68-4.687V9.844h6.234V36.07c0 1.344.165 2.39.493 3.14.328.75 1.015 1.126 2.062 1.126 1.094 0 1.836-.422 2.227-1.266.406-.86.609-1.843.609-2.953l.024-26.273h6.187V45h-6.211v-3.656c-.437 1.187-1.07 2.172-1.898 2.953-.828.766-1.985 1.148-3.469 1.148ZM320.026 45V9.844h6.258v3.914c.406-1.36 1.11-2.422 2.11-3.188 1.015-.765 2.304-1.148 3.867-1.148.031 0 .047.265.047.797.015.531.023 1.14.023 1.828v2.625c-.719 0-1.5.086-2.344.258a8.687 8.687 0 0 0-2.273.797c-.672.343-1.149.804-1.43 1.382V45h-6.258Zm24.844.422c-1.797 0-3.281-.274-4.453-.82-1.172-.563-2.094-1.368-2.766-2.414-.656-1.047-1.117-2.32-1.382-3.82-.266-1.5-.399-3.196-.399-5.087v-11.39c0-2.594.242-4.82.727-6.68.484-1.86 1.375-3.29 2.672-4.29 1.312-1 3.203-1.5 5.671-1.5 1.516 0 2.797.235 3.844.704 1.047.469 1.891 1.148 2.531 2.04.641.874 1.102 1.937 1.383 3.187.297 1.25.446 2.656.446 4.218v3.867h-6V19.36c0-1.015-.047-1.882-.141-2.601-.094-.735-.305-1.29-.633-1.664-.328-.39-.851-.586-1.57-.586-.703 0-1.25.195-1.641.586-.39.39-.664.96-.82 1.71-.141.735-.211 1.618-.211 2.65v15.843c0 1.062.062 1.969.187 2.719.141.75.391 1.328.75 1.734.375.39.922.586 1.641.586.703 0 1.227-.203 1.57-.61.36-.421.594-1.007.703-1.757.11-.75.165-1.633.165-2.649v-4.172h6v3.563c0 1.61-.141 3.078-.422 4.406-.282 1.313-.743 2.438-1.383 3.375a6.432 6.432 0 0 1-2.555 2.18c-1.062.5-2.367.75-3.914.75Zm21.68 0c-1.766 0-3.219-.281-4.36-.844a6.337 6.337 0 0 1-2.648-2.437c-.625-1.063-1.063-2.336-1.313-3.82-.25-1.5-.375-3.173-.375-5.016V20.203c0-1.64.165-3.125.493-4.453.343-1.328.867-2.46 1.57-3.398.719-.938 1.648-1.657 2.789-2.157 1.141-.515 2.516-.773 4.125-.773 1.641 0 3.008.25 4.102.75 1.093.5 1.953 1.226 2.578 2.18.64.953 1.093 2.101 1.359 3.445.281 1.328.422 2.836.422 4.523v7.524h-11.18v6.914c0 1.703.133 3.07.399 4.101.265 1.032.992 1.547 2.179 1.547.797 0 1.36-.242 1.688-.726.344-.485.547-1.149.609-1.992.078-.86.117-1.836.117-2.93v-3.094h6.141v1.875c0 1.89-.117 3.57-.351 5.04-.219 1.468-.641 2.71-1.266 3.726-.609 1.015-1.484 1.789-2.625 2.32-1.141.531-2.625.797-4.453.797Zm-2.461-21.211h5.015v-4.5c0-1.172-.054-2.156-.164-2.953-.109-.813-.328-1.422-.656-1.828-.328-.407-.828-.61-1.5-.61-.828 0-1.437.242-1.828.727-.375.484-.617 1.148-.727 1.992-.093.828-.14 1.773-.14 2.836v4.336Zm23.719 21.234c-2.829 0-4.93-.804-6.305-2.414s-2.063-4.242-2.063-7.898v-2.274h5.836v2.836c0 1.532.188 2.696.563 3.492.375.797.984 1.196 1.828 1.196.812 0 1.414-.274 1.805-.82.39-.547.586-1.493.586-2.836 0-.782-.118-1.54-.352-2.274a7.644 7.644 0 0 0-1.055-2.156c-.468-.719-1.078-1.414-1.828-2.086l-3.164-2.86c-1.453-1.312-2.539-2.726-3.258-4.242-.718-1.53-1.078-3.218-1.078-5.062 0-2.985.696-5.164 2.086-6.54 1.406-1.39 3.485-2.085 6.235-2.085 1.781 0 3.257.336 4.429 1.008 1.172.656 2.047 1.726 2.625 3.21.578 1.485.867 3.477.867 5.977v1.922h-5.554v-2.32c0-1.547-.18-2.719-.539-3.516-.344-.797-.938-1.195-1.782-1.195-.828 0-1.437.234-1.828.703-.39.453-.601 1.258-.633 2.414a6.229 6.229 0 0 0 .235 1.852 7.02 7.02 0 0 0 .797 1.757 9.294 9.294 0 0 0 1.453 1.664l3.328 3.024c1.75 1.578 3.039 3.226 3.867 4.945.844 1.719 1.266 3.578 1.266 5.578 0 2.953-.672 5.196-2.016 6.727-1.344 1.516-3.461 2.273-6.351 2.273Z"/></g><path stroke="#D9E6E7" stroke-width="2" d="M9.69 45.469c-2.703 0-4.812-.805-6.328-2.414-1.5-1.625-2.25-4.016-2.25-7.172v-7.36h6.07v7.055c0 .813.047 1.563.141 2.25.11.688.328 1.234.656 1.64.329.407.836.61 1.524.61.687 0 1.195-.195 1.523-.586.329-.406.547-.969.657-1.687.109-.735.164-1.602.164-2.602V3.75h6.28v31.148c0 3.391-.75 6-2.25 7.829-1.483 1.828-3.546 2.742-6.187 2.742Zm20.461-.117c-2.406 0-4.078-.875-5.015-2.625-.922-1.75-1.399-4.07-1.43-6.961v-2.25c0-1.875.266-3.399.797-4.57.547-1.173 1.32-2.126 2.32-2.86 1-.734 2.196-1.375 3.586-1.922 1.39-.547 2.938-1.133 4.64-1.758v-3.07c0-1.188-.046-2.133-.14-2.836-.094-.719-.304-1.242-.633-1.57-.328-.328-.836-.492-1.523-.492-.672 0-1.188.171-1.547.515-.344.328-.578.844-.703 1.547-.125.688-.188 1.57-.188 2.648v1.57h-6.14v-1.054c0-1.61.133-3.047.398-4.312.282-1.266.75-2.336 1.407-3.211.656-.891 1.546-1.563 2.671-2.016 1.141-.469 2.57-.703 4.29-.703 1.515 0 2.812.219 3.89.656 1.078.422 1.953 1.063 2.625 1.922.672.844 1.164 1.906 1.477 3.188.312 1.28.468 2.773.468 4.476V45h-6.257v-3.492a5.592 5.592 0 0 1-.961 1.898 5.202 5.202 0 0 1-1.711 1.407c-.672.359-1.446.539-2.32.539Zm2.157-4.782c.78 0 1.406-.28 1.875-.843.468-.563.757-1.133.867-1.711V25.922c-.938.422-1.727.82-2.367 1.195-.641.36-1.157.758-1.547 1.195-.39.438-.672.954-.844 1.547-.172.594-.258 1.32-.258 2.18v3.938c0 1.609.164 2.78.492 3.515.344.719.938 1.078 1.782 1.078ZM50.26 45 45.176 9.844h5.86l2.273 18.703.773 8.414h.469l.656-8.438 1.945-18.68h5.813L57.878 45H50.26Zm22.595.352c-2.407 0-4.079-.875-5.016-2.625-.922-1.75-1.399-4.07-1.43-6.961v-2.25c0-1.875.266-3.399.797-4.57.547-1.173 1.32-2.126 2.32-2.86 1-.734 2.196-1.375 3.586-1.922 1.39-.547 2.938-1.133 4.64-1.758v-3.07c0-1.188-.046-2.133-.14-2.836-.093-.719-.304-1.242-.632-1.57-.329-.328-.836-.492-1.524-.492-.672 0-1.187.171-1.547.515-.344.328-.578.844-.703 1.547-.125.688-.187 1.57-.187 2.648v1.57h-6.141v-1.054c0-1.61.133-3.047.398-4.312.282-1.266.75-2.336 1.407-3.211.656-.891 1.546-1.563 2.671-2.016 1.141-.469 2.57-.703 4.29-.703 1.515 0 2.812.219 3.89.656 1.078.422 1.953 1.063 2.625 1.922.672.844 1.164 1.906 1.477 3.188.312 1.28.469 2.773.469 4.476V45h-6.258v-3.492a5.59 5.59 0 0 1-.961 1.898 5.202 5.202 0 0 1-1.711 1.407c-.672.359-1.445.539-2.32.539Zm2.156-4.782c.781 0 1.406-.28 1.875-.843.469-.563.758-1.133.867-1.711V25.922c-.938.422-1.727.82-2.367 1.195-.64.36-1.156.758-1.547 1.195-.39.438-.672.954-.844 1.547-.172.594-.258 1.32-.258 2.18v3.938c0 1.609.164 2.78.493 3.515.343.719.937 1.078 1.78 1.078Zm22.125 4.875c-2.828 0-4.93-.804-6.305-2.414s-2.062-4.242-2.062-7.898v-2.274h5.835v2.836c0 1.532.188 2.696.563 3.492.375.797.984 1.196 1.828 1.196.813 0 1.414-.274 1.805-.82.39-.547.586-1.493.586-2.836 0-.782-.117-1.54-.352-2.274a7.654 7.654 0 0 0-1.055-2.156c-.468-.719-1.078-1.414-1.828-2.086l-3.164-2.86c-1.453-1.312-2.539-2.726-3.257-4.242-.72-1.53-1.079-3.218-1.079-5.062 0-2.985.696-5.164 2.086-6.54 1.407-1.39 3.485-2.085 6.235-2.085 1.78 0 3.257.336 4.429 1.008 1.172.656 2.047 1.726 2.625 3.21.578 1.485.868 3.477.868 5.977v1.922h-5.555v-2.32c0-1.547-.18-2.719-.54-3.516-.343-.797-.937-1.195-1.78-1.195-.829 0-1.438.234-1.829.703-.39.453-.601 1.258-.632 2.414a6.212 6.212 0 0 0 .234 1.852c.172.593.438 1.18.797 1.757a9.29 9.29 0 0 0 1.453 1.664l3.328 3.024c1.75 1.578 3.039 3.226 3.867 4.945.844 1.719 1.266 3.578 1.266 5.578 0 2.953-.672 5.196-2.016 6.727-1.343 1.516-3.461 2.273-6.351 2.273Zm21.422-.023c-1.797 0-3.282-.274-4.454-.82-1.171-.563-2.093-1.368-2.765-2.414-.656-1.047-1.117-2.32-1.383-3.82s-.398-3.196-.398-5.087v-11.39c0-2.594.242-4.82.726-6.68.485-1.86 1.375-3.29 2.672-4.29 1.313-1 3.203-1.5 5.672-1.5 1.516 0 2.797.235 3.844.704 1.047.469 1.89 1.148 2.531 2.04.641.874 1.101 1.937 1.383 3.187.297 1.25.445 2.656.445 4.218v3.867h-6V19.36c0-1.015-.047-1.882-.141-2.601-.093-.735-.304-1.29-.632-1.664-.329-.39-.852-.586-1.571-.586-.703 0-1.25.195-1.64.586-.391.39-.664.96-.821 1.71-.14.735-.211 1.618-.211 2.65v15.843c0 1.062.063 1.969.188 2.719.141.75.391 1.328.75 1.734.375.39.922.586 1.641.586.703 0 1.226-.203 1.57-.61.359-.421.594-1.007.703-1.757.109-.75.164-1.633.164-2.649v-4.172h6v3.563c0 1.61-.141 3.078-.422 4.406-.281 1.313-.742 2.438-1.383 3.375-.64.938-1.492 1.664-2.554 2.18-1.063.5-2.368.75-3.914.75Zm13.5-.422V9.844h6.257v3.914c.407-1.36 1.11-2.422 2.11-3.188 1.015-.765 2.304-1.148 3.867-1.148.031 0 .047.265.047.797.015.531.023 1.14.023 1.828v2.625c-.718 0-1.5.086-2.343.258a8.694 8.694 0 0 0-2.274.797c-.672.343-1.148.804-1.43 1.382V45h-6.257Zm16.453 0V9.844h6.211V45h-6.211Zm-.024-38.39V1.218h6.258v5.39h-6.258Zm12.539 45.07V9.844h6.211v3.164c.453-1.156 1.164-2.031 2.133-2.625.969-.594 1.945-.89 2.93-.89 1.797 0 3.156.484 4.078 1.452.922.953 1.547 2.258 1.875 3.914.328 1.657.492 3.516.492 5.579v12.82c0 2.25-.156 4.297-.469 6.14-.312 1.844-.976 3.313-1.992 4.407-1 1.078-2.531 1.617-4.594 1.617a4.62 4.62 0 0 1-2.601-.774c-.781-.515-1.399-1.109-1.852-1.78v8.812h-6.211Zm8.953-11.297c1.047 0 1.727-.508 2.04-1.524.312-1.03.468-2.5.468-4.406V19.875c0-1.016-.054-1.93-.164-2.742-.094-.828-.312-1.485-.656-1.969-.344-.484-.891-.726-1.641-.726-.578 0-1.078.148-1.5.445-.406.297-.726.836-.961 1.617-.218.781-.328 1.898-.328 3.352V34.71c0 1.797.172 3.195.516 4.195.344.985 1.086 1.477 2.226 1.477Zm20.766 4.851c-1.5 0-2.648-.187-3.445-.562a3.15 3.15 0 0 1-1.641-1.828c-.297-.828-.445-1.899-.445-3.211V15.07h-2.86v-4.5h2.86V3.75h6.211v6.82h3.422v4.5h-3.422v23.485c0 .547.086.96.258 1.242.171.281.507.469 1.007.562.516.094 1.274.141 2.274.141v4.734h-4.219Zm17.25-.234V3.75h10.383c2.156 0 3.766.422 4.828 1.266 1.063.843 1.758 2.078 2.086 3.703.344 1.625.516 3.61.516 5.953 0 2.422-.25 4.328-.75 5.719-.485 1.375-1.485 2.297-3 2.765.718.125 1.32.422 1.804.89.485.454.875 1.126 1.172 2.017.297.875.508 2.007.633 3.398.141 1.375.211 3.062.211 5.062v3.868l.047 2.906c.015.969.039 1.797.07 2.484.031.688.07 1.094.117 1.219h-6.281c-.047-.078-.086-.477-.117-1.195-.016-.735-.039-1.664-.07-2.79-.016-1.124-.032-2.335-.047-3.632V30.21c0-1.234-.094-2.164-.282-2.79-.171-.64-.5-1.085-.984-1.335-.469-.25-1.148-.398-2.039-.445l-2.016-.118V45h-6.281Zm6.305-24.352h2.508c.765 0 1.343-.171 1.734-.515.406-.344.68-.977.82-1.899.157-.922.235-2.25.235-3.984v-.258c0-1.453-.071-2.57-.211-3.351-.141-.782-.438-1.32-.891-1.618-.437-.296-1.125-.445-2.062-.445H214.3v12.07Zm25.125 24.774c-1.766 0-3.219-.281-4.36-.844a6.337 6.337 0 0 1-2.648-2.437c-.625-1.063-1.063-2.336-1.313-3.82-.25-1.5-.375-3.173-.375-5.016V20.203c0-1.64.165-3.125.493-4.453.343-1.328.867-2.46 1.57-3.398.719-.938 1.648-1.657 2.789-2.157 1.141-.515 2.516-.773 4.125-.773 1.641 0 3.008.25 4.102.75 1.093.5 1.953 1.226 2.578 2.18.64.953 1.093 2.101 1.359 3.445.281 1.328.422 2.836.422 4.523v7.524h-11.18v6.914c0 1.703.133 3.07.399 4.101.265 1.032.992 1.547 2.179 1.547.797 0 1.36-.242 1.688-.726.344-.485.547-1.149.609-1.992.078-.86.117-1.836.117-2.93v-3.094h6.141v1.875c0 1.89-.117 3.57-.351 5.04-.219 1.468-.641 2.71-1.266 3.726-.609 1.015-1.484 1.789-2.625 2.32-1.141.531-2.625.797-4.453.797Zm-2.461-21.211h5.015v-4.5c0-1.172-.054-2.156-.164-2.953-.109-.813-.328-1.422-.656-1.828-.328-.407-.828-.61-1.5-.61-.828 0-1.437.242-1.828.727-.375.484-.617 1.148-.727 1.992-.093.828-.14 1.773-.14 2.836v4.336Zm23.719 21.234c-2.829 0-4.93-.804-6.305-2.414s-2.063-4.242-2.063-7.898v-2.274h5.836v2.836c0 1.532.188 2.696.563 3.492.375.797.984 1.196 1.828 1.196.812 0 1.414-.274 1.805-.82.39-.547.586-1.493.586-2.836 0-.782-.118-1.54-.352-2.274a7.644 7.644 0 0 0-1.055-2.156c-.468-.719-1.078-1.414-1.828-2.086l-3.164-2.86c-1.453-1.312-2.539-2.726-3.258-4.242-.718-1.53-1.078-3.218-1.078-5.062 0-2.985.696-5.164 2.086-6.54 1.406-1.39 3.485-2.085 6.235-2.085 1.781 0 3.257.336 4.429 1.008 1.172.656 2.047 1.726 2.625 3.21.578 1.485.867 3.477.867 5.977v1.922h-5.554v-2.32c0-1.547-.18-2.719-.539-3.516-.344-.797-.938-1.195-1.782-1.195-.828 0-1.437.234-1.828.703-.39.453-.601 1.258-.633 2.414a6.229 6.229 0 0 0 .235 1.852 7.02 7.02 0 0 0 .797 1.757 9.294 9.294 0 0 0 1.453 1.664l3.328 3.024c1.75 1.578 3.039 3.226 3.867 4.945.844 1.719 1.266 3.578 1.266 5.578 0 2.953-.672 5.196-2.016 6.727-1.344 1.516-3.461 2.273-6.351 2.273Zm21.234-.023c-1.688 0-3.102-.258-4.242-.774-1.141-.53-2.047-1.289-2.719-2.273-.656-1-1.133-2.21-1.43-3.633-.281-1.437-.422-3.07-.422-4.898V20.695c0-2.203.282-4.148.844-5.836.578-1.703 1.516-3.03 2.813-3.984 1.297-.969 3.015-1.453 5.156-1.453 1.625 0 2.992.273 4.102.82a6.654 6.654 0 0 1 2.695 2.344c.687 1 1.187 2.187 1.5 3.562.312 1.375.469 2.891.469 4.547v13.149c0 1.797-.141 3.406-.422 4.828-.266 1.422-.735 2.64-1.407 3.656-.656 1-1.546 1.766-2.671 2.297-1.125.531-2.547.797-4.266.797Zm0-5.016c.703 0 1.234-.21 1.594-.633.359-.437.601-1.039.726-1.804.125-.766.188-1.649.188-2.649V19.594c0-1.063-.071-1.977-.211-2.742-.141-.766-.391-1.36-.75-1.782-.36-.422-.875-.633-1.547-.633-.703 0-1.242.211-1.617.633-.36.422-.61 1.016-.75 1.782-.125.765-.188 1.68-.188 2.742V35.32c0 1 .063 1.883.188 2.649.14.765.39 1.367.75 1.804.375.422.914.633 1.617.633Zm20.461 5.039c-1.391 0-2.555-.312-3.492-.937-.922-.625-1.617-1.555-2.086-2.79-.453-1.25-.68-2.812-.68-4.687V9.844h6.234V36.07c0 1.344.165 2.39.493 3.14.328.75 1.015 1.126 2.062 1.126 1.094 0 1.836-.422 2.227-1.266.406-.86.609-1.843.609-2.953l.024-26.273h6.187V45h-6.211v-3.656c-.437 1.187-1.07 2.172-1.898 2.953-.828.766-1.985 1.148-3.469 1.148ZM320.026 45V9.844h6.258v3.914c.406-1.36 1.11-2.422 2.11-3.188 1.015-.765 2.304-1.148 3.867-1.148.031 0 .047.265.047.797.015.531.023 1.14.023 1.828v2.625c-.719 0-1.5.086-2.344.258a8.687 8.687 0 0 0-2.273.797c-.672.343-1.149.804-1.43 1.382V45h-6.258Zm24.844.422c-1.797 0-3.281-.274-4.453-.82-1.172-.563-2.094-1.368-2.766-2.414-.656-1.047-1.117-2.32-1.382-3.82-.266-1.5-.399-3.196-.399-5.087v-11.39c0-2.594.242-4.82.727-6.68.484-1.86 1.375-3.29 2.672-4.29 1.312-1 3.203-1.5 5.671-1.5 1.516 0 2.797.235 3.844.704 1.047.469 1.891 1.148 2.531 2.04.641.874 1.102 1.937 1.383 3.187.297 1.25.446 2.656.446 4.218v3.867h-6V19.36c0-1.015-.047-1.882-.141-2.601-.094-.735-.305-1.29-.633-1.664-.328-.39-.851-.586-1.57-.586-.703 0-1.25.195-1.641.586-.39.39-.664.96-.82 1.71-.141.735-.211 1.618-.211 2.65v15.843c0 1.062.062 1.969.187 2.719.141.75.391 1.328.75 1.734.375.39.922.586 1.641.586.703 0 1.227-.203 1.57-.61.36-.421.594-1.007.703-1.757.11-.75.165-1.633.165-2.649v-4.172h6v3.563c0 1.61-.141 3.078-.422 4.406-.282 1.313-.743 2.438-1.383 3.375a6.432 6.432 0 0 1-2.555 2.18c-1.062.5-2.367.75-3.914.75Zm21.68 0c-1.766 0-3.219-.281-4.36-.844a6.337 6.337 0 0 1-2.648-2.437c-.625-1.063-1.063-2.336-1.313-3.82-.25-1.5-.375-3.173-.375-5.016V20.203c0-1.64.165-3.125.493-4.453.343-1.328.867-2.46 1.57-3.398.719-.938 1.648-1.657 2.789-2.157 1.141-.515 2.516-.773 4.125-.773 1.641 0 3.008.25 4.102.75 1.093.5 1.953 1.226 2.578 2.18.64.953 1.093 2.101 1.359 3.445.281 1.328.422 2.836.422 4.523v7.524h-11.18v6.914c0 1.703.133 3.07.399 4.101.265 1.032.992 1.547 2.179 1.547.797 0 1.36-.242 1.688-.726.344-.485.547-1.149.609-1.992.078-.86.117-1.836.117-2.93v-3.094h6.141v1.875c0 1.89-.117 3.57-.351 5.04-.219 1.468-.641 2.71-1.266 3.726-.609 1.015-1.484 1.789-2.625 2.32-1.141.531-2.625.797-4.453.797Zm-2.461-21.211h5.015v-4.5c0-1.172-.054-2.156-.164-2.953-.109-.813-.328-1.422-.656-1.828-.328-.407-.828-.61-1.5-.61-.828 0-1.437.242-1.828.727-.375.484-.617 1.148-.727 1.992-.093.828-.14 1.773-.14 2.836v4.336Zm23.719 21.234c-2.829 0-4.93-.804-6.305-2.414s-2.063-4.242-2.063-7.898v-2.274h5.836v2.836c0 1.532.188 2.696.563 3.492.375.797.984 1.196 1.828 1.196.812 0 1.414-.274 1.805-.82.39-.547.586-1.493.586-2.836 0-.782-.118-1.54-.352-2.274a7.644 7.644 0 0 0-1.055-2.156c-.468-.719-1.078-1.414-1.828-2.086l-3.164-2.86c-1.453-1.312-2.539-2.726-3.258-4.242-.718-1.53-1.078-3.218-1.078-5.062 0-2.985.696-5.164 2.086-6.54 1.406-1.39 3.485-2.085 6.235-2.085 1.781 0 3.257.336 4.429 1.008 1.172.656 2.047 1.726 2.625 3.21.578 1.485.867 3.477.867 5.977v1.922h-5.554v-2.32c0-1.547-.18-2.719-.539-3.516-.344-.797-.938-1.195-1.782-1.195-.828 0-1.437.234-1.828.703-.39.453-.601 1.258-.633 2.414a6.229 6.229 0 0 0 .235 1.852 7.02 7.02 0 0 0 .797 1.757 9.294 9.294 0 0 0 1.453 1.664l3.328 3.024c1.75 1.578 3.039 3.226 3.867 4.945.844 1.719 1.266 3.578 1.266 5.578 0 2.953-.672 5.196-2.016 6.727-1.344 1.516-3.461 2.273-6.351 2.273Z" mask="url(#b)"/><defs><filter id="a" width="401.062" height="56.461" x="-.888" y="-.781" color-interpolation-filters="sRGB" filterUnits="userSpaceOnUse"><feFlood flood-opacity="0" result="BackgroundImageFix"/><feBlend in="SourceGraphic" in2="BackgroundImageFix" result="shape"/><feColorMatrix in="SourceAlpha" result="hardAlpha" values="0 0 0 0 0 0 0 0 0 0 0 0 0 0 0 0 0 0 127 0"/><feOffset dx="-1" dy="-1"/><feGaussianBlur stdDeviation="1.5"/><feComposite in2="hardAlpha" k2="-1" k3="1" operator="arithmetic"/><feColorMatrix values="0 0 0 0 0.984314 0 0 0 0 0.984314 0 0 0 0 0.984314 0 0 0 1 0"/><feBlend in2="shape" result="effect1_innerShadow_127_2784"/><feColorMatrix in="SourceAlpha" result="hardAlpha" values="0 0 0 0 0 0 0 0 0 0 0 0 0 0 0 0 0 0 127 0"/><feOffset dx="3" dy="3"/><feGaussianBlur stdDeviation="4.5"/><feComposite in2="hardAlpha" k2="-1" k3="1" operator="arithmetic"/><feColorMatrix values="0 0 0 0 0.772549 0 0 0 0 0.772549 0 0 0 0 0.772549 0 0 0 1 0"/><feBlend in2="effect1_innerShadow_127_2784" result="effect2_innerShadow_127_2784"/></filter></defs></svg>