<svg xmlns="http://www.w3.org/2000/svg" width="92" height="84" fill="none"><g filter="url(#a)"><path fill="#D4EAEE" d="M25 0v38.5h42V0H25Zm7 7h7v14l7-7 7 7V7h7v24.5H32V7ZM.5 45.5V84h42V45.5H.5Zm49 0V84h42V45.5h-42Zm-42 7h7v14l7-7 7 7v-14h7V77h-28V52.5Zm49 0h7v14l7-7 7 7v-14h7V77h-28V52.5Z"/></g><defs><filter id="a" width="93" height="86" x="-.5" y="-1" color-interpolation-filters="sRGB" filterUnits="userSpaceOnUse"><feFlood flood-opacity="0" result="BackgroundImageFix"/><feBlend in="SourceGraphic" in2="BackgroundImageFix" result="shape"/><feColorMatrix in="SourceAlpha" result="hardAlpha" values="0 0 0 0 0 0 0 0 0 0 0 0 0 0 0 0 0 0 127 0"/><feOffset dx="-1" dy="-1"/><feGaussianBlur stdDeviation="1.5"/><feComposite in2="hardAlpha" k2="-1" k3="1" operator="arithmetic"/><feColorMatrix values="0 0 0 0 0.984314 0 0 0 0 0.984314 0 0 0 0 0.984314 0 0 0 1 0"/><feBlend in2="shape" result="effect1_innerShadow_72_1728"/><feColorMatrix in="SourceAlpha" result="hardAlpha" values="0 0 0 0 0 0 0 0 0 0 0 0 0 0 0 0 0 0 127 0"/><feOffset dx="1" dy="1"/><feGaussianBlur stdDeviation="1.5"/><feComposite in2="hardAlpha" k2="-1" k3="1" operator="arithmetic"/><feColorMatrix values="0 0 0 0 0.772549 0 0 0 0 0.772549 0 0 0 0 0.772549 0 0 0 1 0"/><feBlend in2="effect1_innerShadow_72_1728" result="effect2_innerShadow_72_1728"/></filter></defs></svg>