<svg xmlns="http://www.w3.org/2000/svg" width="292" height="45" fill="none"><mask id="b" width="291" height="44" x=".901" y=".75" fill="#000" maskUnits="userSpaceOnUse"><path fill="#fff" d="M.901.75h291v44h-291z"/><path d="M1.901 43V1.75h6.282v16.688h5.625V1.75h6.28V43h-6.28V23.828H8.183V43H1.9Zm26.532 0V7.187h-4.828V1.75H39.33v5.438h-4.64V43h-6.258Zm14.437 0V1.75h7.805l5.86 30.14 5.507-30.14h7.852V43h-5.602V27.625l.234-14.11-5.554 29.297H53.98l-5.79-29.296.235 14.109V43H42.87Zm33.235 0V1.75h6.28v35.906h7.946V43H76.104Zm26.249 0V1.75h10.383c2.157 0 3.766.422 4.828 1.266 1.063.843 1.758 2.078 2.086 3.703.344 1.625.516 3.61.516 5.953 0 2.422-.25 4.328-.75 5.719-.484 1.375-1.484 2.297-3 2.765.719.125 1.32.422 1.805.89.484.454.875 1.126 1.172 2.017.296.875.507 2.007.632 3.398.141 1.375.211 3.062.211 5.062v3.868l.047 2.906a89.2 89.2 0 0 0 .07 2.484c.032.688.071 1.094.118 1.219h-6.282c-.046-.078-.086-.477-.117-1.195-.015-.735-.039-1.664-.07-2.79a1976.02 1976.02 0 0 1-.047-3.632V28.21c0-1.234-.094-2.164-.281-2.79-.172-.64-.5-1.085-.985-1.335-.468-.25-1.148-.398-2.039-.445l-2.015-.118V43h-6.282Zm6.305-24.352h2.508c.766 0 1.344-.171 1.734-.515.407-.344.68-.977.821-1.899.156-.922.234-2.25.234-3.984v-.258c0-1.453-.07-2.57-.211-3.351-.141-.782-.437-1.32-.891-1.618-.437-.296-1.125-.445-2.062-.445h-2.133v12.07Zm25.125 24.774c-1.765 0-3.219-.281-4.359-.844a6.34 6.34 0 0 1-2.649-2.437c-.625-1.063-1.062-2.336-1.312-3.82-.25-1.5-.375-3.173-.375-5.016V18.203c0-1.64.164-3.125.492-4.453.344-1.328.867-2.46 1.57-3.398.719-.938 1.649-1.657 2.789-2.157 1.141-.515 2.516-.773 4.125-.773 1.641 0 3.008.25 4.102.75 1.094.5 1.953 1.226 2.578 2.18.641.953 1.094 2.101 1.359 3.445.282 1.328.422 2.836.422 4.523v7.524h-11.179v6.914c0 1.703.132 3.07.398 4.101.266 1.032.992 1.547 2.18 1.547.797 0 1.359-.242 1.687-.726.344-.485.547-1.149.61-1.992.078-.86.117-1.836.117-2.93v-3.094h6.14v1.875c0 1.89-.117 3.57-.351 5.04-.219 1.468-.641 2.71-1.266 3.726-.609 1.015-1.484 1.789-2.625 2.32-1.14.531-2.625.797-4.453.797Zm-2.461-21.211h5.016v-4.5c0-1.172-.055-2.156-.164-2.953-.11-.813-.328-1.422-.656-1.828-.329-.407-.829-.61-1.5-.61-.829 0-1.438.242-1.829.727-.375.484-.617 1.148-.726 1.992a25.394 25.394 0 0 0-.141 2.836v4.336Zm23.719 21.234c-2.828 0-4.93-.804-6.305-2.414s-2.062-4.242-2.062-7.898v-2.274h5.836v2.836c0 1.532.187 2.696.562 3.492.375.797.985 1.196 1.828 1.196.813 0 1.414-.274 1.805-.82.391-.547.586-1.493.586-2.836 0-.782-.117-1.54-.352-2.274a7.64 7.64 0 0 0-1.054-2.156c-.469-.719-1.078-1.414-1.828-2.086l-3.164-2.86c-1.454-1.312-2.54-2.726-3.258-4.242-.719-1.53-1.078-3.218-1.078-5.062 0-2.985.695-5.164 2.086-6.54 1.406-1.39 3.484-2.085 6.234-2.085 1.781 0 3.258.336 4.43 1.008 1.171.656 2.046 1.726 2.625 3.21.578 1.485.867 3.477.867 5.977v1.922h-5.555v-2.32c0-1.547-.18-2.719-.539-3.516-.344-.797-.937-1.195-1.781-1.195-.828 0-1.438.234-1.828.703-.391.453-.602 1.258-.633 2.414a6.196 6.196 0 0 0 .234 1.852c.172.593.438 1.18.797 1.757a9.294 9.294 0 0 0 1.453 1.664l3.328 3.024c1.75 1.578 3.039 3.226 3.868 4.945.843 1.719 1.265 3.578 1.265 5.578 0 2.953-.672 5.196-2.015 6.727-1.344 1.516-3.461 2.273-6.352 2.273Zm21.234-.023c-1.687 0-3.101-.258-4.242-.774-1.14-.53-2.047-1.289-2.719-2.273-.656-1-1.132-2.21-1.429-3.633-.282-1.437-.422-3.07-.422-4.898V18.695c0-2.203.281-4.148.844-5.836.578-1.703 1.515-3.03 2.812-3.984 1.297-.969 3.016-1.453 5.156-1.453 1.625 0 2.993.273 4.102.82a6.654 6.654 0 0 1 2.695 2.344c.688 1 1.188 2.187 1.5 3.562.313 1.375.469 2.891.469 4.547v13.149c0 1.797-.141 3.406-.422 4.828-.266 1.422-.734 2.64-1.406 3.656-.656 1-1.547 1.766-2.672 2.297-1.125.531-2.547.797-4.266.797Zm0-5.016c.703 0 1.235-.21 1.594-.633.359-.437.602-1.039.727-1.804.125-.766.187-1.649.187-2.649V17.594c0-1.063-.07-1.977-.211-2.742-.14-.766-.39-1.36-.75-1.782-.359-.422-.875-.633-1.547-.633-.703 0-1.242.211-1.617.633-.359.422-.609 1.016-.75 1.782-.125.765-.187 1.68-.187 2.742V33.32c0 1 .062 1.883.187 2.649.141.765.391 1.367.75 1.804.375.422.914.633 1.617.633Zm20.461 5.039c-1.39 0-2.554-.312-3.492-.937-.922-.625-1.617-1.555-2.086-2.79-.453-1.25-.68-2.812-.68-4.687V7.844h6.235V34.07c0 1.344.164 2.39.492 3.14.328.75 1.016 1.126 2.063 1.126 1.093 0 1.835-.422 2.226-1.266.406-.86.609-1.843.609-2.953l.024-26.273h6.187V43h-6.211v-3.656c-.437 1.187-1.07 2.172-1.898 2.953-.828.766-1.984 1.148-3.469 1.148ZM214.386 43V7.844h6.258v3.914c.406-1.36 1.109-2.422 2.109-3.188 1.016-.765 2.305-1.148 3.867-1.148.031 0 .047.266.047.797.016.531.023 1.14.023 1.828v2.625c-.718 0-1.5.086-2.343.258a8.707 8.707 0 0 0-2.274.797c-.672.343-1.148.804-1.429 1.382V43h-6.258Zm24.843.422c-1.796 0-3.281-.274-4.453-.82-1.172-.563-2.093-1.368-2.765-2.414-.657-1.047-1.117-2.32-1.383-3.82s-.399-3.196-.399-5.087v-11.39c0-2.594.243-4.82.727-6.68.484-1.86 1.375-3.29 2.672-4.29 1.312-1 3.203-1.5 5.672-1.5 1.515 0 2.797.235 3.844.704 1.046.469 1.89 1.148 2.531 2.04.64.874 1.101 1.937 1.383 3.187.296 1.25.445 2.656.445 4.218v3.867h-6V17.36c0-1.015-.047-1.882-.141-2.601-.093-.735-.304-1.29-.633-1.664-.328-.39-.851-.586-1.57-.586-.703 0-1.25.195-1.64.586-.391.39-.665.96-.821 1.71-.14.735-.211 1.618-.211 2.65v15.843c0 1.062.063 1.969.188 2.719.14.75.39 1.328.75 1.734.375.39.922.586 1.64.586.704 0 1.227-.203 1.571-.61.359-.421.593-1.007.703-1.757.109-.75.164-1.633.164-2.649v-4.172h6v3.563c0 1.61-.141 3.078-.422 4.406-.281 1.313-.742 2.438-1.383 3.375-.64.938-1.492 1.664-2.554 2.18-1.063.5-2.368.75-3.915.75Zm21.68 0c-1.765 0-3.219-.281-4.359-.844a6.34 6.34 0 0 1-2.649-2.437c-.625-1.063-1.062-2.336-1.312-3.82-.25-1.5-.375-3.173-.375-5.016V18.203c0-1.64.164-3.125.492-4.453.344-1.328.867-2.46 1.57-3.398.719-.938 1.649-1.657 2.789-2.157 1.141-.515 2.516-.773 4.125-.773 1.641 0 3.008.25 4.102.75 1.094.5 1.953 1.226 2.578 2.18.641.953 1.094 2.101 1.359 3.445.282 1.328.422 2.836.422 4.523v7.524h-11.179v6.914c0 1.703.132 3.07.398 4.101.266 1.032.992 1.547 2.18 1.547.797 0 1.359-.242 1.687-.726.344-.485.547-1.149.61-1.992.078-.86.117-1.836.117-2.93v-3.094h6.14v1.875c0 1.89-.117 3.57-.351 5.04-.219 1.468-.641 2.71-1.266 3.726-.609 1.015-1.484 1.789-2.625 2.32-1.14.531-2.625.797-4.453.797Zm-2.461-21.211h5.016v-4.5c0-1.172-.055-2.156-.164-2.953-.11-.813-.328-1.422-.656-1.828-.329-.407-.829-.61-1.5-.61-.829 0-1.438.242-1.829.727-.375.484-.617 1.148-.726 1.992a25.394 25.394 0 0 0-.141 2.836v4.336Zm23.719 21.234c-2.828 0-4.93-.804-6.305-2.414s-2.062-4.242-2.062-7.898v-2.274h5.836v2.836c0 1.532.187 2.696.562 3.492.375.797.985 1.196 1.828 1.196.813 0 1.414-.274 1.805-.82.391-.547.586-1.493.586-2.836 0-.782-.117-1.54-.352-2.274a7.64 7.64 0 0 0-1.054-2.156c-.469-.719-1.078-1.414-1.828-2.086l-3.164-2.86c-1.454-1.312-2.54-2.726-3.258-4.242-.719-1.53-1.078-3.218-1.078-5.062 0-2.985.695-5.164 2.086-6.54 1.406-1.39 3.484-2.085 6.234-2.085 1.781 0 3.258.336 4.43 1.008 1.171.656 2.046 1.726 2.625 3.21.578 1.485.867 3.477.867 5.977v1.922h-5.555v-2.32c0-1.547-.18-2.719-.539-3.516-.344-.797-.937-1.195-1.781-1.195-.828 0-1.438.234-1.828.703-.391.453-.602 1.258-.633 2.414a6.196 6.196 0 0 0 .234 1.852c.172.593.438 1.18.797 1.757a9.294 9.294 0 0 0 1.453 1.664l3.328 3.024c1.75 1.578 3.039 3.226 3.868 4.945.843 1.719 1.265 3.578 1.265 5.578 0 2.953-.672 5.196-2.015 6.727-1.344 1.516-3.461 2.273-6.352 2.273Z"/></mask><g fill="#D1DADB" filter="url(#a)"><path d="M1.901 43V1.75h6.282v16.688h5.625V1.75h6.28V43h-6.28V23.828H8.183V43H1.9Zm26.532 0V7.187h-4.828V1.75H39.33v5.438h-4.64V43h-6.258Zm14.437 0V1.75h7.805l5.86 30.14 5.507-30.14h7.852V43h-5.602V27.625l.234-14.11-5.554 29.297H53.98l-5.79-29.296.235 14.109V43H42.87Zm33.235 0V1.75h6.28v35.906h7.946V43H76.104Zm26.249 0V1.75h10.383c2.157 0 3.766.422 4.828 1.266 1.063.843 1.758 2.078 2.086 3.703.344 1.625.516 3.61.516 5.953 0 2.422-.25 4.328-.75 5.719-.484 1.375-1.484 2.297-3 2.765.719.125 1.32.422 1.805.89.484.454.875 1.126 1.172 2.017.296.875.507 2.007.632 3.398.141 1.375.211 3.062.211 5.062v3.868l.047 2.906a89.2 89.2 0 0 0 .07 2.484c.032.688.071 1.094.118 1.219h-6.282c-.046-.078-.086-.477-.117-1.195-.015-.735-.039-1.664-.07-2.79a1976.02 1976.02 0 0 1-.047-3.632V28.21c0-1.234-.094-2.164-.281-2.79-.172-.64-.5-1.085-.985-1.335-.468-.25-1.148-.398-2.039-.445l-2.015-.118V43h-6.282Zm6.305-24.352h2.508c.766 0 1.344-.171 1.734-.515.407-.344.68-.977.821-1.899.156-.922.234-2.25.234-3.984v-.258c0-1.453-.07-2.57-.211-3.351-.141-.782-.437-1.32-.891-1.618-.437-.296-1.125-.445-2.062-.445h-2.133v12.07Zm25.125 24.774c-1.765 0-3.219-.281-4.359-.844a6.34 6.34 0 0 1-2.649-2.437c-.625-1.063-1.062-2.336-1.312-3.82-.25-1.5-.375-3.173-.375-5.016V18.203c0-1.64.164-3.125.492-4.453.344-1.328.867-2.46 1.57-3.398.719-.938 1.649-1.657 2.789-2.157 1.141-.515 2.516-.773 4.125-.773 1.641 0 3.008.25 4.102.75 1.094.5 1.953 1.226 2.578 2.18.641.953 1.094 2.101 1.359 3.445.282 1.328.422 2.836.422 4.523v7.524h-11.179v6.914c0 1.703.132 3.07.398 4.101.266 1.032.992 1.547 2.18 1.547.797 0 1.359-.242 1.687-.726.344-.485.547-1.149.61-1.992.078-.86.117-1.836.117-2.93v-3.094h6.14v1.875c0 1.89-.117 3.57-.351 5.04-.219 1.468-.641 2.71-1.266 3.726-.609 1.015-1.484 1.789-2.625 2.32-1.14.531-2.625.797-4.453.797Zm-2.461-21.211h5.016v-4.5c0-1.172-.055-2.156-.164-2.953-.11-.813-.328-1.422-.656-1.828-.329-.407-.829-.61-1.5-.61-.829 0-1.438.242-1.829.727-.375.484-.617 1.148-.726 1.992a25.394 25.394 0 0 0-.141 2.836v4.336Zm23.719 21.234c-2.828 0-4.93-.804-6.305-2.414s-2.062-4.242-2.062-7.898v-2.274h5.836v2.836c0 1.532.187 2.696.562 3.492.375.797.985 1.196 1.828 1.196.813 0 1.414-.274 1.805-.82.391-.547.586-1.493.586-2.836 0-.782-.117-1.54-.352-2.274a7.64 7.64 0 0 0-1.054-2.156c-.469-.719-1.078-1.414-1.828-2.086l-3.164-2.86c-1.454-1.312-2.54-2.726-3.258-4.242-.719-1.53-1.078-3.218-1.078-5.062 0-2.985.695-5.164 2.086-6.54 1.406-1.39 3.484-2.085 6.234-2.085 1.781 0 3.258.336 4.43 1.008 1.171.656 2.046 1.726 2.625 3.21.578 1.485.867 3.477.867 5.977v1.922h-5.555v-2.32c0-1.547-.18-2.719-.539-3.516-.344-.797-.937-1.195-1.781-1.195-.828 0-1.438.234-1.828.703-.391.453-.602 1.258-.633 2.414a6.196 6.196 0 0 0 .234 1.852c.172.593.438 1.18.797 1.757a9.294 9.294 0 0 0 1.453 1.664l3.328 3.024c1.75 1.578 3.039 3.226 3.868 4.945.843 1.719 1.265 3.578 1.265 5.578 0 2.953-.672 5.196-2.015 6.727-1.344 1.516-3.461 2.273-6.352 2.273Zm21.234-.023c-1.687 0-3.101-.258-4.242-.774-1.14-.53-2.047-1.289-2.719-2.273-.656-1-1.132-2.21-1.429-3.633-.282-1.437-.422-3.07-.422-4.898V18.695c0-2.203.281-4.148.844-5.836.578-1.703 1.515-3.03 2.812-3.984 1.297-.969 3.016-1.453 5.156-1.453 1.625 0 2.993.273 4.102.82a6.654 6.654 0 0 1 2.695 2.344c.688 1 1.188 2.187 1.5 3.562.313 1.375.469 2.891.469 4.547v13.149c0 1.797-.141 3.406-.422 4.828-.266 1.422-.734 2.64-1.406 3.656-.656 1-1.547 1.766-2.672 2.297-1.125.531-2.547.797-4.266.797Zm0-5.016c.703 0 1.235-.21 1.594-.633.359-.437.602-1.039.727-1.804.125-.766.187-1.649.187-2.649V17.594c0-1.063-.07-1.977-.211-2.742-.14-.766-.39-1.36-.75-1.782-.359-.422-.875-.633-1.547-.633-.703 0-1.242.211-1.617.633-.359.422-.609 1.016-.75 1.782-.125.765-.187 1.68-.187 2.742V33.32c0 1 .062 1.883.187 2.649.141.765.391 1.367.75 1.804.375.422.914.633 1.617.633Zm20.461 5.039c-1.39 0-2.554-.312-3.492-.937-.922-.625-1.617-1.555-2.086-2.79-.453-1.25-.68-2.812-.68-4.687V7.844h6.235V34.07c0 1.344.164 2.39.492 3.14.328.75 1.016 1.126 2.063 1.126 1.093 0 1.835-.422 2.226-1.266.406-.86.609-1.843.609-2.953l.024-26.273h6.187V43h-6.211v-3.656c-.437 1.187-1.07 2.172-1.898 2.953-.828.766-1.984 1.148-3.469 1.148ZM214.386 43V7.844h6.258v3.914c.406-1.36 1.109-2.422 2.109-3.188 1.016-.765 2.305-1.148 3.867-1.148.031 0 .047.266.047.797.016.531.023 1.14.023 1.828v2.625c-.718 0-1.5.086-2.343.258a8.707 8.707 0 0 0-2.274.797c-.672.343-1.148.804-1.429 1.382V43h-6.258Zm24.843.422c-1.796 0-3.281-.274-4.453-.82-1.172-.563-2.093-1.368-2.765-2.414-.657-1.047-1.117-2.32-1.383-3.82s-.399-3.196-.399-5.087v-11.39c0-2.594.243-4.82.727-6.68.484-1.86 1.375-3.29 2.672-4.29 1.312-1 3.203-1.5 5.672-1.5 1.515 0 2.797.235 3.844.704 1.046.469 1.89 1.148 2.531 2.04.64.874 1.101 1.937 1.383 3.187.296 1.25.445 2.656.445 4.218v3.867h-6V17.36c0-1.015-.047-1.882-.141-2.601-.093-.735-.304-1.29-.633-1.664-.328-.39-.851-.586-1.57-.586-.703 0-1.25.195-1.64.586-.391.39-.665.96-.821 1.71-.14.735-.211 1.618-.211 2.65v15.843c0 1.062.063 1.969.188 2.719.14.75.39 1.328.75 1.734.375.39.922.586 1.64.586.704 0 1.227-.203 1.571-.61.359-.421.593-1.007.703-1.757.109-.75.164-1.633.164-2.649v-4.172h6v3.563c0 1.61-.141 3.078-.422 4.406-.281 1.313-.742 2.438-1.383 3.375-.64.938-1.492 1.664-2.554 2.18-1.063.5-2.368.75-3.915.75Zm21.68 0c-1.765 0-3.219-.281-4.359-.844a6.34 6.34 0 0 1-2.649-2.437c-.625-1.063-1.062-2.336-1.312-3.82-.25-1.5-.375-3.173-.375-5.016V18.203c0-1.64.164-3.125.492-4.453.344-1.328.867-2.46 1.57-3.398.719-.938 1.649-1.657 2.789-2.157 1.141-.515 2.516-.773 4.125-.773 1.641 0 3.008.25 4.102.75 1.094.5 1.953 1.226 2.578 2.18.641.953 1.094 2.101 1.359 3.445.282 1.328.422 2.836.422 4.523v7.524h-11.179v6.914c0 1.703.132 3.07.398 4.101.266 1.032.992 1.547 2.18 1.547.797 0 1.359-.242 1.687-.726.344-.485.547-1.149.61-1.992.078-.86.117-1.836.117-2.93v-3.094h6.14v1.875c0 1.89-.117 3.57-.351 5.04-.219 1.468-.641 2.71-1.266 3.726-.609 1.015-1.484 1.789-2.625 2.32-1.14.531-2.625.797-4.453.797Zm-2.461-21.211h5.016v-4.5c0-1.172-.055-2.156-.164-2.953-.11-.813-.328-1.422-.656-1.828-.329-.407-.829-.61-1.5-.61-.829 0-1.438.242-1.829.727-.375.484-.617 1.148-.726 1.992a25.394 25.394 0 0 0-.141 2.836v4.336Zm23.719 21.234c-2.828 0-4.93-.804-6.305-2.414s-2.062-4.242-2.062-7.898v-2.274h5.836v2.836c0 1.532.187 2.696.562 3.492.375.797.985 1.196 1.828 1.196.813 0 1.414-.274 1.805-.82.391-.547.586-1.493.586-2.836 0-.782-.117-1.54-.352-2.274a7.64 7.64 0 0 0-1.054-2.156c-.469-.719-1.078-1.414-1.828-2.086l-3.164-2.86c-1.454-1.312-2.54-2.726-3.258-4.242-.719-1.53-1.078-3.218-1.078-5.062 0-2.985.695-5.164 2.086-6.54 1.406-1.39 3.484-2.085 6.234-2.085 1.781 0 3.258.336 4.43 1.008 1.171.656 2.046 1.726 2.625 3.21.578 1.485.867 3.477.867 5.977v1.922h-5.555v-2.32c0-1.547-.18-2.719-.539-3.516-.344-.797-.937-1.195-1.781-1.195-.828 0-1.438.234-1.828.703-.391.453-.602 1.258-.633 2.414a6.196 6.196 0 0 0 .234 1.852c.172.593.438 1.18.797 1.757a9.294 9.294 0 0 0 1.453 1.664l3.328 3.024c1.75 1.578 3.039 3.226 3.868 4.945.843 1.719 1.265 3.578 1.265 5.578 0 2.953-.672 5.196-2.015 6.727-1.344 1.516-3.461 2.273-6.352 2.273Z"/></g><path stroke="#D9E6E7" stroke-width="2" d="M1.901 43V1.75h6.282v16.688h5.625V1.75h6.28V43h-6.28V23.828H8.183V43H1.9Zm26.532 0V7.187h-4.828V1.75H39.33v5.438h-4.64V43h-6.258Zm14.437 0V1.75h7.805l5.86 30.14 5.507-30.14h7.852V43h-5.602V27.625l.234-14.11-5.554 29.297H53.98l-5.79-29.296.235 14.109V43H42.87Zm33.235 0V1.75h6.28v35.906h7.946V43H76.104Zm26.249 0V1.75h10.383c2.157 0 3.766.422 4.828 1.266 1.063.843 1.758 2.078 2.086 3.703.344 1.625.516 3.61.516 5.953 0 2.422-.25 4.328-.75 5.719-.484 1.375-1.484 2.297-3 2.765.719.125 1.32.422 1.805.89.484.454.875 1.126 1.172 2.017.296.875.507 2.007.632 3.398.141 1.375.211 3.062.211 5.062v3.868l.047 2.906a89.2 89.2 0 0 0 .07 2.484c.032.688.071 1.094.118 1.219h-6.282c-.046-.078-.086-.477-.117-1.195-.015-.735-.039-1.664-.07-2.79a1976.02 1976.02 0 0 1-.047-3.632V28.21c0-1.234-.094-2.164-.281-2.79-.172-.64-.5-1.085-.985-1.335-.468-.25-1.148-.398-2.039-.445l-2.015-.118V43h-6.282Zm6.305-24.352h2.508c.766 0 1.344-.171 1.734-.515.407-.344.68-.977.821-1.899.156-.922.234-2.25.234-3.984v-.258c0-1.453-.07-2.57-.211-3.351-.141-.782-.437-1.32-.891-1.618-.437-.296-1.125-.445-2.062-.445h-2.133v12.07Zm25.125 24.774c-1.765 0-3.219-.281-4.359-.844a6.34 6.34 0 0 1-2.649-2.437c-.625-1.063-1.062-2.336-1.312-3.82-.25-1.5-.375-3.173-.375-5.016V18.203c0-1.64.164-3.125.492-4.453.344-1.328.867-2.46 1.57-3.398.719-.938 1.649-1.657 2.789-2.157 1.141-.515 2.516-.773 4.125-.773 1.641 0 3.008.25 4.102.75 1.094.5 1.953 1.226 2.578 2.18.641.953 1.094 2.101 1.359 3.445.282 1.328.422 2.836.422 4.523v7.524h-11.179v6.914c0 1.703.132 3.07.398 4.101.266 1.032.992 1.547 2.18 1.547.797 0 1.359-.242 1.687-.726.344-.485.547-1.149.61-1.992.078-.86.117-1.836.117-2.93v-3.094h6.14v1.875c0 1.89-.117 3.57-.351 5.04-.219 1.468-.641 2.71-1.266 3.726-.609 1.015-1.484 1.789-2.625 2.32-1.14.531-2.625.797-4.453.797Zm-2.461-21.211h5.016v-4.5c0-1.172-.055-2.156-.164-2.953-.11-.813-.328-1.422-.656-1.828-.329-.407-.829-.61-1.5-.61-.829 0-1.438.242-1.829.727-.375.484-.617 1.148-.726 1.992a25.394 25.394 0 0 0-.141 2.836v4.336Zm23.719 21.234c-2.828 0-4.93-.804-6.305-2.414s-2.062-4.242-2.062-7.898v-2.274h5.836v2.836c0 1.532.187 2.696.562 3.492.375.797.985 1.196 1.828 1.196.813 0 1.414-.274 1.805-.82.391-.547.586-1.493.586-2.836 0-.782-.117-1.54-.352-2.274a7.64 7.64 0 0 0-1.054-2.156c-.469-.719-1.078-1.414-1.828-2.086l-3.164-2.86c-1.454-1.312-2.54-2.726-3.258-4.242-.719-1.53-1.078-3.218-1.078-5.062 0-2.985.695-5.164 2.086-6.54 1.406-1.39 3.484-2.085 6.234-2.085 1.781 0 3.258.336 4.43 1.008 1.171.656 2.046 1.726 2.625 3.21.578 1.485.867 3.477.867 5.977v1.922h-5.555v-2.32c0-1.547-.18-2.719-.539-3.516-.344-.797-.937-1.195-1.781-1.195-.828 0-1.438.234-1.828.703-.391.453-.602 1.258-.633 2.414a6.196 6.196 0 0 0 .234 1.852c.172.593.438 1.18.797 1.757a9.294 9.294 0 0 0 1.453 1.664l3.328 3.024c1.75 1.578 3.039 3.226 3.868 4.945.843 1.719 1.265 3.578 1.265 5.578 0 2.953-.672 5.196-2.015 6.727-1.344 1.516-3.461 2.273-6.352 2.273Zm21.234-.023c-1.687 0-3.101-.258-4.242-.774-1.14-.53-2.047-1.289-2.719-2.273-.656-1-1.132-2.21-1.429-3.633-.282-1.437-.422-3.07-.422-4.898V18.695c0-2.203.281-4.148.844-5.836.578-1.703 1.515-3.03 2.812-3.984 1.297-.969 3.016-1.453 5.156-1.453 1.625 0 2.993.273 4.102.82a6.654 6.654 0 0 1 2.695 2.344c.688 1 1.188 2.187 1.5 3.562.313 1.375.469 2.891.469 4.547v13.149c0 1.797-.141 3.406-.422 4.828-.266 1.422-.734 2.64-1.406 3.656-.656 1-1.547 1.766-2.672 2.297-1.125.531-2.547.797-4.266.797Zm0-5.016c.703 0 1.235-.21 1.594-.633.359-.437.602-1.039.727-1.804.125-.766.187-1.649.187-2.649V17.594c0-1.063-.07-1.977-.211-2.742-.14-.766-.39-1.36-.75-1.782-.359-.422-.875-.633-1.547-.633-.703 0-1.242.211-1.617.633-.359.422-.609 1.016-.75 1.782-.125.765-.187 1.68-.187 2.742V33.32c0 1 .062 1.883.187 2.649.141.765.391 1.367.75 1.804.375.422.914.633 1.617.633Zm20.461 5.039c-1.39 0-2.554-.312-3.492-.937-.922-.625-1.617-1.555-2.086-2.79-.453-1.25-.68-2.812-.68-4.687V7.844h6.235V34.07c0 1.344.164 2.39.492 3.14.328.75 1.016 1.126 2.063 1.126 1.093 0 1.835-.422 2.226-1.266.406-.86.609-1.843.609-2.953l.024-26.273h6.187V43h-6.211v-3.656c-.437 1.187-1.07 2.172-1.898 2.953-.828.766-1.984 1.148-3.469 1.148ZM214.386 43V7.844h6.258v3.914c.406-1.36 1.109-2.422 2.109-3.188 1.016-.765 2.305-1.148 3.867-1.148.031 0 .047.266.047.797.016.531.023 1.14.023 1.828v2.625c-.718 0-1.5.086-2.343.258a8.707 8.707 0 0 0-2.274.797c-.672.343-1.148.804-1.429 1.382V43h-6.258Zm24.843.422c-1.796 0-3.281-.274-4.453-.82-1.172-.563-2.093-1.368-2.765-2.414-.657-1.047-1.117-2.32-1.383-3.82s-.399-3.196-.399-5.087v-11.39c0-2.594.243-4.82.727-6.68.484-1.86 1.375-3.29 2.672-4.29 1.312-1 3.203-1.5 5.672-1.5 1.515 0 2.797.235 3.844.704 1.046.469 1.89 1.148 2.531 2.04.64.874 1.101 1.937 1.383 3.187.296 1.25.445 2.656.445 4.218v3.867h-6V17.36c0-1.015-.047-1.882-.141-2.601-.093-.735-.304-1.29-.633-1.664-.328-.39-.851-.586-1.57-.586-.703 0-1.25.195-1.64.586-.391.39-.665.96-.821 1.71-.14.735-.211 1.618-.211 2.65v15.843c0 1.062.063 1.969.188 2.719.14.75.39 1.328.75 1.734.375.39.922.586 1.64.586.704 0 1.227-.203 1.571-.61.359-.421.593-1.007.703-1.757.109-.75.164-1.633.164-2.649v-4.172h6v3.563c0 1.61-.141 3.078-.422 4.406-.281 1.313-.742 2.438-1.383 3.375-.64.938-1.492 1.664-2.554 2.18-1.063.5-2.368.75-3.915.75Zm21.68 0c-1.765 0-3.219-.281-4.359-.844a6.34 6.34 0 0 1-2.649-2.437c-.625-1.063-1.062-2.336-1.312-3.82-.25-1.5-.375-3.173-.375-5.016V18.203c0-1.64.164-3.125.492-4.453.344-1.328.867-2.46 1.57-3.398.719-.938 1.649-1.657 2.789-2.157 1.141-.515 2.516-.773 4.125-.773 1.641 0 3.008.25 4.102.75 1.094.5 1.953 1.226 2.578 2.18.641.953 1.094 2.101 1.359 3.445.282 1.328.422 2.836.422 4.523v7.524h-11.179v6.914c0 1.703.132 3.07.398 4.101.266 1.032.992 1.547 2.18 1.547.797 0 1.359-.242 1.687-.726.344-.485.547-1.149.61-1.992.078-.86.117-1.836.117-2.93v-3.094h6.14v1.875c0 1.89-.117 3.57-.351 5.04-.219 1.468-.641 2.71-1.266 3.726-.609 1.015-1.484 1.789-2.625 2.32-1.14.531-2.625.797-4.453.797Zm-2.461-21.211h5.016v-4.5c0-1.172-.055-2.156-.164-2.953-.11-.813-.328-1.422-.656-1.828-.329-.407-.829-.61-1.5-.61-.829 0-1.438.242-1.829.727-.375.484-.617 1.148-.726 1.992a25.394 25.394 0 0 0-.141 2.836v4.336Zm23.719 21.234c-2.828 0-4.93-.804-6.305-2.414s-2.062-4.242-2.062-7.898v-2.274h5.836v2.836c0 1.532.187 2.696.562 3.492.375.797.985 1.196 1.828 1.196.813 0 1.414-.274 1.805-.82.391-.547.586-1.493.586-2.836 0-.782-.117-1.54-.352-2.274a7.64 7.64 0 0 0-1.054-2.156c-.469-.719-1.078-1.414-1.828-2.086l-3.164-2.86c-1.454-1.312-2.54-2.726-3.258-4.242-.719-1.53-1.078-3.218-1.078-5.062 0-2.985.695-5.164 2.086-6.54 1.406-1.39 3.484-2.085 6.234-2.085 1.781 0 3.258.336 4.43 1.008 1.171.656 2.046 1.726 2.625 3.21.578 1.485.867 3.477.867 5.977v1.922h-5.555v-2.32c0-1.547-.18-2.719-.539-3.516-.344-.797-.937-1.195-1.781-1.195-.828 0-1.438.234-1.828.703-.391.453-.602 1.258-.633 2.414a6.196 6.196 0 0 0 .234 1.852c.172.593.438 1.18.797 1.757a9.294 9.294 0 0 0 1.453 1.664l3.328 3.024c1.75 1.578 3.039 3.226 3.868 4.945.843 1.719 1.265 3.578 1.265 5.578 0 2.953-.672 5.196-2.015 6.727-1.344 1.516-3.461 2.273-6.352 2.273Z" mask="url(#b)"/><defs><filter id="a" width="294.633" height="47.695" x="-.099" y="-.25" color-interpolation-filters="sRGB" filterUnits="userSpaceOnUse"><feFlood flood-opacity="0" result="BackgroundImageFix"/><feBlend in="SourceGraphic" in2="BackgroundImageFix" result="shape"/><feColorMatrix in="SourceAlpha" result="hardAlpha" values="0 0 0 0 0 0 0 0 0 0 0 0 0 0 0 0 0 0 127 0"/><feOffset dx="-1" dy="-1"/><feGaussianBlur stdDeviation="1.5"/><feComposite in2="hardAlpha" k2="-1" k3="1" operator="arithmetic"/><feColorMatrix values="0 0 0 0 0.984314 0 0 0 0 0.984314 0 0 0 0 0.984314 0 0 0 1 0"/><feBlend in2="shape" result="effect1_innerShadow_127_2782"/><feColorMatrix in="SourceAlpha" result="hardAlpha" values="0 0 0 0 0 0 0 0 0 0 0 0 0 0 0 0 0 0 127 0"/><feOffset dx="3" dy="3"/><feGaussianBlur stdDeviation="4.5"/><feComposite in2="hardAlpha" k2="-1" k3="1" operator="arithmetic"/><feColorMatrix values="0 0 0 0 0.772549 0 0 0 0 0.772549 0 0 0 0 0.772549 0 0 0 1 0"/><feBlend in2="effect1_innerShadow_127_2782" result="effect2_innerShadow_127_2782"/></filter></defs></svg>