<svg xmlns="http://www.w3.org/2000/svg" width="85" height="84" fill="none"><g filter="url(#a)"><path fill="#D4EAEE" d="M32 0c-6.685 0-12.1 4.854-13.454 11.158C10.384 12.614 4 19.425 4 28c0 .861.095 1.628.22 2.408C1.964 33.726.5 37.635.5 42c0 6.29 3.132 11.581 7.546 15.421-.315 1.246-.546 2.489-.546 3.829C7.5 69.906 14.595 77 23.25 77h.22c2.038 3.951 5.566 7 10.28 7a12.216 12.216 0 0 0 8.75-3.72A12.216 12.216 0 0 0 51.25 84c4.718 0 8.242-3.049 10.283-7h.217c8.218 0 14.956-6.398 15.641-14.438h.109c0-.22-.094-.437-.109-.657.014-.218.109-.438.109-.655 0-1.298-.466-2.408-.766-3.608C81.273 53.784 84.5 48.401 84.5 42c0-4.361-1.463-8.27-3.72-11.596.126-.776.22-1.54.22-2.404 0-8.575-6.384-15.383-14.546-16.846C65.1 4.858 59.685 0 53 0c-4.2 0-7.931 1.956-10.5 4.921C39.931 1.96 36.2 0 32 0Zm0 7c3.91 0 7 3.09 7 7v7a10.45 10.45 0 0 1-10.5 10.5v7c3.965 0 7.56-1.365 10.5-3.608V71.75c0 2.94-2.31 5.25-5.25 5.25a5.145 5.145 0 0 1-5.142-4.266l-.654-3.388-3.392.545A8.706 8.706 0 0 1 14.5 61.25c0-1.081.175-2.093.546-3.063.028-.08.084-.14.109-.22a8.637 8.637 0 0 1 6.345-5.25l-1.421-6.888A15.582 15.582 0 0 0 11 51.296 13.853 13.853 0 0 1 7.5 42a13.65 13.65 0 0 1 3.063-8.642l1.095-1.312-.329-1.75c-.198-.75-.309-1.52-.329-2.296a10.45 10.45 0 0 1 10.5-10.5H25V14c0-3.91 3.09-7 7-7Zm21 0c3.91 0 7 3.09 7 7v3.5h3.5A10.45 10.45 0 0 1 74 28c0 .753-.14 1.477-.329 2.296l-.326 1.75 1.093 1.313A13.65 13.65 0 0 1 77.5 42c0 4.2-1.792 7.945-4.704 10.5-2.39-2.117-5.439-3.5-8.859-3.5a13.235 13.235 0 0 0-8.641 3.171l4.487 5.362A6.321 6.321 0 0 1 63.937 56c3.378 0 6.07 2.53 6.454 5.796C70.104 66.406 66.426 70 61.75 70c-.315 0-.7-.014-1.313-.109l-3.391-.549-.654 3.395A5.145 5.145 0 0 1 51.25 77C48.31 77 46 74.69 46 71.75V34.892A17.203 17.203 0 0 0 56.5 38.5v-7A10.45 10.45 0 0 1 46 21v-7c0-3.91 3.09-7 7-7Z"/></g><defs><filter id="a" width="86" height="86" x="-.5" y="-1" color-interpolation-filters="sRGB" filterUnits="userSpaceOnUse"><feFlood flood-opacity="0" result="BackgroundImageFix"/><feBlend in="SourceGraphic" in2="BackgroundImageFix" result="shape"/><feColorMatrix in="SourceAlpha" result="hardAlpha" values="0 0 0 0 0 0 0 0 0 0 0 0 0 0 0 0 0 0 127 0"/><feOffset dx="-1" dy="-1"/><feGaussianBlur stdDeviation="1.5"/><feComposite in2="hardAlpha" k2="-1" k3="1" operator="arithmetic"/><feColorMatrix values="0 0 0 0 0.984314 0 0 0 0 0.984314 0 0 0 0 0.984314 0 0 0 1 0"/><feBlend in2="shape" result="effect1_innerShadow_72_1703"/><feColorMatrix in="SourceAlpha" result="hardAlpha" values="0 0 0 0 0 0 0 0 0 0 0 0 0 0 0 0 0 0 127 0"/><feOffset dx="1" dy="1"/><feGaussianBlur stdDeviation="1.5"/><feComposite in2="hardAlpha" k2="-1" k3="1" operator="arithmetic"/><feColorMatrix values="0 0 0 0 0.772549 0 0 0 0 0.772549 0 0 0 0 0.772549 0 0 0 1 0"/><feBlend in2="effect1_innerShadow_72_1703" result="effect2_innerShadow_72_1703"/></filter></defs></svg>